<?xml version="1.0" standalone="no"?>
<!DOCTYPE svg PUBLIC "-//W3C//DTD SVG 1.1//EN" "http://www.w3.org/Graphics/SVG/1.1/DTD/svg11.dtd" >
<svg xmlns="http://www.w3.org/2000/svg" xmlns:xlink="http://www.w3.org/1999/xlink" version="1.1">
<metadata>
Created by FontForge 20230101 at Mon Jan  1 11:34:59 2024
 By andreas
Original: Copyright 2022 The Noto Project Authors (https://github.com/notofonts/latin-greek-cyrillic)
Modifications: Copyright 2024 Schweizerisches Idiotikon.
</metadata>
<defs>
<font id="NossikonSansSemiCondensed-Italic" horiz-adv-x="0" >
  <font-face 
    font-family="Nossikon Sans SemiCondensed"
    font-weight="400"
    font-style="italic"
    font-stretch="semi-condensed"
    units-per-em="1000"
    panose-1="2 11 5 2 4 5 4 9 2 4"
    ascent="800"
    descent="-200"
    x-height="536"
    cap-height="714"
    bbox="-641 -389 2681 1072"
    underline-thickness="50"
    underline-position="-125"
    slope="-12"
    unicode-range="U+000D-1DF1E"
  />
<missing-glyph horiz-adv-x="582" 
d="M93 0v714h399v-714h-399zM142 49h301v616h-301v-616z" />
    <glyph glyph-name="f_f" unicode="ff" horiz-adv-x="570" 
d="M-57 -240q-33 0 -59 9v72q12 -4 24.5 -6.5t26.5 -2.5q32 0 51.5 26.5t31.5 87.5l111 523h-80l7 40l87 29l12 51q21 95 58 135.5t108 40.5q23 0 46.5 -5t39.5 -13l-25 -65q-12 5 -26.5 8.5t-30.5 3.5q-35 0 -54.5 -23.5t-32.5 -82.5l-11 -52h199l12 54q21 94 58 134.5
t109 40.5q23 0 46.5 -5t40.5 -13l-26 -65q-13 5 -27 8.5t-29 3.5q-36 0 -55.5 -23.5t-32.5 -82.5l-12 -52h101l-14 -67h-100l-113 -531q-12 -54 -30 -94t-48.5 -62t-78.5 -22q-35 0 -59 9v72q11 -4 24 -6.5t28 -2.5q32 0 50.5 27t31.5 87l111 523h-200l-113 -531
q-11 -54 -29.5 -94t-49 -62t-78.5 -22z" />
    <glyph glyph-name="fi" unicode="fi" horiz-adv-x="518" 
d="M-57 -240q-33 0 -59 9v72q12 -4 24.5 -6.5t26.5 -2.5q36 0 53.5 29.5t29.5 84.5l111 523h-80l7 40l87 29l12 51q21 95 58 135.5t108 40.5q23 0 46.5 -5t39.5 -13l-25 -65q-12 5 -26.5 8.5t-30.5 3.5q-35 0 -54.5 -23.5t-32.5 -82.5l-11 -52h99l-13 -67h-100l-113 -531
q-11 -54 -29.5 -94t-49 -62t-78.5 -22zM484 625q-20 0 -32.5 11.5t-12.5 32.5q0 26 15 46.5t44 20.5q42 0 42 -42q0 -30 -17 -49.5t-39 -19.5zM302 0l114 536h84l-114 -536h-84z" />
    <glyph glyph-name="fl" unicode="fl" horiz-adv-x="518" 
d="M-57 -240q-33 0 -59 9v72q12 -4 24.5 -6.5t26.5 -2.5q36 0 53.5 29.5t29.5 84.5l111 523h-80l7 40l87 29l12 51q21 95 58 135.5t108 40.5q23 0 46.5 -5t39.5 -13l-25 -65q-12 5 -26.5 8.5t-30.5 3.5q-35 0 -54.5 -23.5t-32.5 -82.5l-11 -52h99l-13 -67h-100l-113 -531
q-11 -54 -29.5 -94t-49 -62t-78.5 -22zM302 0l162 760h84l-162 -760h-84z" />
    <glyph glyph-name="f_f_i" unicode="ffi" horiz-adv-x="803" 
d="M-57 -240q-33 0 -59 9v72q12 -4 24.5 -6.5t26.5 -2.5q32 0 51.5 26.5t31.5 87.5l111 523h-80l7 40l87 29l12 51q21 95 58 135.5t108 40.5q23 0 46.5 -5t39.5 -13l-25 -65q-12 5 -26.5 8.5t-30.5 3.5q-35 0 -54.5 -23.5t-32.5 -82.5l-11 -52h199l12 54q21 94 58 134.5
t109 40.5q23 0 46.5 -5t40.5 -13l-26 -65q-13 5 -27 8.5t-29 3.5q-36 0 -55.5 -23.5t-32.5 -82.5l-12 -52h101l-14 -67h-100l-113 -531q-12 -54 -30 -94t-48.5 -62t-78.5 -22q-35 0 -59 9v72q11 -4 24 -6.5t28 -2.5q32 0 50.5 27t31.5 87l111 523h-200l-113 -531
q-11 -54 -29.5 -94t-49 -62t-78.5 -22zM768 625q-19 0 -31.5 11.5t-12.5 32.5q0 26 15 46.5t43 20.5q42 0 42 -42q0 -30 -17 -49.5t-39 -19.5zM587 0l114 536h84l-114 -536h-84z" />
    <glyph glyph-name="f_f_l" unicode="ffl" horiz-adv-x="803" 
d="M-57 -240q-33 0 -59 9v72q12 -4 24.5 -6.5t26.5 -2.5q32 0 51.5 26.5t31.5 87.5l111 523h-80l7 40l87 29l12 51q21 95 58 135.5t108 40.5q23 0 46.5 -5t39.5 -13l-25 -65q-12 5 -26.5 8.5t-30.5 3.5q-35 0 -54.5 -23.5t-32.5 -82.5l-11 -52h199l12 54q21 94 58 134.5
t109 40.5q23 0 46.5 -5t40.5 -13l-26 -65q-13 5 -27 8.5t-29 3.5q-36 0 -55.5 -23.5t-32.5 -82.5l-12 -52h101l-14 -67h-100l-113 -531q-12 -54 -30 -94t-48.5 -62t-78.5 -22q-35 0 -59 9v72q11 -4 24 -6.5t28 -2.5q32 0 50.5 27t31.5 87l111 523h-200l-113 -531
q-11 -54 -29.5 -94t-49 -62t-78.5 -22zM588 0l161 760h84l-162 -760h-83z" />
    <glyph glyph-name="j_uni0334" unicode="j&#x334;" horiz-adv-x="234" 
d="M-53 208q13 61 40 94t68 33q18 0 33 -6l44 207h83l-54 -253q11 -5 22 -5q20 0 31 13t21 45h52q-30 -127 -108 -127q-17 0 -32 6l-60 -282q-11 -52 -29 -91t-48.5 -60.5t-78.5 -21.5q-34 0 -58 9v72q24 -9 52 -9q31 0 50 25t31 83l68 321q-12 5 -24 5q-19 0 -31 -15
t-21 -43h-51zM198 625q-19 0 -31 11.5t-12 32.5q0 26 15 46.5t43 20.5q42 0 42 -42q0 -30 -17 -49.5t-40 -19.5z" />
    <glyph glyph-name="uni0307_uni0307" unicode="&#x307;&#x307;" 
d="M187 751q-18 0 -29 10t-11 30q0 24 14 42t39 18q38 0 38 -38q0 -28 -15.5 -45t-35.5 -17zM8 631q-17 0 -28 10t-11 30q0 24 13.5 42t39.5 18q37 0 37 -38q0 -28 -15 -45t-36 -17z" />
    <glyph glyph-name="uni1D43_uni1D49" unicode="&#x1d43;&#x1d49;" horiz-adv-x="506" 
d="M149 281q-35 0 -56 26t-21 76q0 44 11.5 85.5t32.5 74.5t49.5 52.5t62.5 19.5q27 0 44.5 -14.5t26.5 -37.5h2l18 46h36l-9 -40q16 19 39 32.5t55 13.5q33 0 56 -18t23 -54q0 -50 -46 -82.5t-142 -32.5h-10q-1 -7 -2 -15.5t-1 -15.5q0 -34 17 -54t54 -20q21 0 41.5 6.5
t43.5 16.5l-2 -44q-23 -11 -45 -16t-48 -5q-32 0 -54.5 11.5t-32.5 34.5l-9 -40h-38l8 54h-3q-22 -28 -45.5 -44t-55.5 -16zM334 468q58 0 95 17.5t37 52.5q0 18 -10.5 26.5t-27.5 8.5q-32 0 -58 -28.5t-41 -76.5h5zM168 323q22 0 41.5 16t35 42.5t25.5 59.5q5 21 7.5 39
t2.5 34q0 26 -11.5 41.5t-33.5 15.5t-41.5 -16t-34.5 -43t-23 -60.5t-8 -67.5q0 -61 40 -61z" />
    <glyph glyph-name="uni1D43_uni0308" unicode="&#x1d43;&#x308;" horiz-adv-x="335" 
d="M328.554 667.585q-11.7002 0 -18.8506 5.99902q-7.15039 6 -7.15039 18q0 14.3994 9.10059 25.1982q9.10059 10.7998 25.3506 10.7998q24.7012 0 24.7012 -22.7988q0 -16.7998 -10.0752 -26.999t-23.0762 -10.1992zM218.7 667.585q-11.0508 0 -18.2012 5.99902
q-7.15039 6 -7.15039 18q0 14.3994 8.77539 25.1982q8.77539 10.7998 25.6768 10.7998q24.0508 0 24.0508 -22.7988q0 -16.7998 -9.75098 -26.999q-9.75 -10.1992 -23.4004 -10.1992zM163 281q-38 0 -61 26t-23 76q0 41 11 82t31.5 75t50 54.5t66.5 20.5q30 0 49 -15t28 -38
h3l18 47h44l-74 -322h-44l7 54h-2q-21 -25 -46.5 -42.5t-57.5 -17.5zM181 324q23 0 43.5 16t36.5 42.5t25 58.5q6 21 8.5 39t2.5 33q0 26 -14 42t-39 16q-24 0 -44 -16.5t-34.5 -44t-22.5 -61t-8 -65.5q0 -60 46 -60z" />
    <glyph glyph-name="uni1D52_uni0308" unicode="&#x1d52;&#x308;" horiz-adv-x="329" 
d="M319.554 665.585q-11.7002 0 -18.8506 5.99902q-7.15039 6 -7.15039 18q0 14.3994 9.10059 25.1982q9.10059 10.7998 25.3506 10.7998q24.7012 0 24.7012 -22.7988q0 -16.7998 -10.0752 -26.999t-23.0762 -10.1992zM209.7 665.585q-11.0508 0 -18.2012 5.99902
q-7.15039 6 -7.15039 18q0 14.3994 8.77539 25.1982q8.77539 10.7998 25.6768 10.7998q24.0508 0 24.0508 -22.7988q0 -16.7998 -9.75098 -26.999q-9.75 -10.1992 -23.4004 -10.1992zM192 282q-53 0 -83 30t-30 84q0 34 9.5 72t30 71t51.5 53.5t74 20.5q53 0 82.5 -30
t29.5 -84q0 -37 -10 -75t-30.5 -70.5t-51.5 -52t-72 -19.5zM196 324q22 0 41.5 14.5t33.5 39.5t22 57.5t8 67.5q0 27 -13.5 47.5t-45.5 20.5q-26 0 -46 -16t-34 -42.5t-21 -57.5t-7 -61q0 -33 16 -51.5t46 -18.5z" />
    <glyph glyph-name="uni1D58_uni0308" unicode="&#x1d58;&#x308;" horiz-adv-x="336" 
d="M330.554 667.585q-11.7002 0 -18.8506 5.99902q-7.15039 6 -7.15039 18q0 14.3994 9.10059 25.1982q9.10059 10.7998 25.3506 10.7998q24.7012 0 24.7012 -22.7988q0 -16.7998 -10.0752 -26.999t-23.0762 -10.1992zM220.7 667.585q-11.0508 0 -18.2012 5.99902
q-7.15039 6 -7.15039 18q0 14.3994 8.77539 25.1982q8.77539 10.7998 25.6768 10.7998q24.0508 0 24.0508 -22.7988q0 -16.7998 -9.75098 -26.999q-9.75 -10.1992 -23.4004 -10.1992zM160 281q-37 0 -57.5 19t-20.5 54q0 13 2 26t5 26l47 203h55l-47 -204q-7 -27 -7 -44
t9.5 -27t29.5 -10q21 0 42.5 14t40 43.5t29.5 75.5l34 152h55l-74 -322h-45l6 53h-2q-18 -23 -43 -41t-59 -18z" />
    <glyph glyph-name="uni1D58_uni032F" unicode="&#x1d58;&#x32f;" horiz-adv-x="336" 
d="M77.2949 173.604q9.75 41.3984 34.4512 60.5977t63.7021 19.1992q34.4512 0 54.6025 -16.499q20.1504 -16.5 20.1504 -46.498q0 -4.2002 -0.325195 -8.40039q-0.325195 -4.19922 -0.974609 -8.39941h-33.1514q0 19.7998 -10.0752 29.3994t-34.7764 9.59961
q-26.001 0 -39.6514 -9.90039q-13.6514 -9.89941 -18.8506 -29.0986h-35.1016zM160 281q-37 0 -57.5 19t-20.5 54q0 13 2 26t5 26l47 203h55l-47 -204q-7 -27 -7 -44t9.5 -27t29.5 -10q21 0 42.5 14t40 43.5t29.5 75.5l34 152h55l-74 -322h-45l6 53h-2q-18 -23 -43 -41
t-59 -18z" />
    <glyph glyph-name="uni2071_uni032F" unicode="&#x2071;&#x32f;" horiz-adv-x="201" 
d="M-4.70508 173.604q9.75 41.3984 34.4512 60.5977t63.7021 19.1992q34.4512 0 54.6025 -16.499q20.1504 -16.5 20.1504 -46.498q0 -4.2002 -0.325195 -8.40039q-0.325195 -4.19922 -0.974609 -8.39941h-33.1514q0 19.7998 -10.0752 29.3994t-34.7764 9.59961
q-26.001 0 -39.6514 -9.90039q-13.6514 -9.89941 -18.8506 -29.0986h-35.1016zM189 662q-13 0 -21 7t-8 20q0 15 9.5 27.5t28.5 12.5q28 0 28 -25q0 -19 -11 -30.5t-26 -11.5zM71 287l74 322h55l-74 -322h-55z" />
    <glyph glyph-name="uni0313_acutecomb" unicode="&#x313;&#x301;" 
d="M-163 606l-40 22q17 11 28.5 26.5t11.5 32.5q0 22 -13 29t-27 7q-10 0 -17.5 -2t-10.5 -4v56q5 2 16 5.5t29 3.5q43 0 69 -17.5t26 -58.5q0 -35 -21.5 -59t-50.5 -41zM-88 609l2 12l82 158h103l-2 -10l-129 -160h-56z" />
    <glyph glyph-name=".notdef" horiz-adv-x="582" 
d="M93 0v714h399v-714h-399zM142 49h301v616h-301v-616z" />
    <glyph glyph-name=".null" 
 />
    <glyph glyph-name="nonmarkingreturn" horiz-adv-x="333" 
 />
    <glyph glyph-name="NULL" 
 />
    <glyph glyph-name="CR" unicode="&#xd;" horiz-adv-x="227" 
 />
    <glyph glyph-name="space" unicode=" " horiz-adv-x="227" 
 />
    <glyph glyph-name="exclam" unicode="!" horiz-adv-x="251" 
d="M71 200l94 514h101l-127 -514h-68zM65 -12q-49 0 -49 50q0 32 18 56.5t54 24.5q21 0 34 -13t13 -38q0 -30 -18 -55t-52 -25z" />
    <glyph glyph-name="quotedbl" unicode="&#x22;" horiz-adv-x="372" 
d="M270 456l37 258h93l-73 -258h-57zM105 456l38 258h92l-73 -258h-57z" />
    <glyph glyph-name="numbersign" unicode="#" horiz-adv-x="564" 
d="M63 0l62 212h-106l8 65h117l50 165h-113l8 64h124l61 208h68l-62 -208h124l62 208h65l-60 -208h107l-8 -64h-119l-50 -165h116l-8 -65h-127l-63 -212h-68l65 212h-124l-63 -212h-66zM212 277h123l49 165h-124z" />
    <glyph glyph-name="dollar" unicode="$" horiz-adv-x="492" 
d="M165 49q-41 2 -79 11.5t-64 23.5l3 80q32 -19 73.5 -31t80.5 -13l47 219q-52 25 -85.5 59.5t-33.5 95.5q0 85 54 129t135 51l19 85h56l-18 -85q39 -3 70.5 -12.5t58.5 -24.5l-33 -69q-23 13 -51 23t-60 13l-45 -211q59 -28 91.5 -62.5t32.5 -93.5q0 -57 -26 -96.5
t-70.5 -62t-99.5 -28.5l-24 -108h-56zM282 603q-46 -5 -72 -31.5t-26 -72.5q0 -49 59 -81zM236 123q46 6 73.5 33.5t27.5 71.5q0 27 -13.5 47.5t-46.5 38.5z" />
    <glyph glyph-name="percent" unicode="%" horiz-adv-x="729" 
d="M171 276q-49 0 -76 34t-27 100q0 30 5.5 71t18 83t33.5 78.5t52 59t73 22.5q50 0 77 -33t27 -96q0 -28 -6 -68.5t-19 -84t-34 -81.5t-52 -61.5t-72 -23.5zM105 0l472 714h73l-471 -714h-74zM178 339q23 0 41 20.5t30.5 52t20.5 67t12 66t4 47.5q0 36 -11 53t-32 17
q-23 0 -40.5 -19.5t-30 -49.5t-20.5 -64.5t-12 -66t-4 -51.5q0 -72 42 -72zM506 -10q-49 0 -76 34t-27 99q0 32 5.5 73.5t18.5 83.5t34 78t51.5 58t72.5 22q50 0 77 -33t27 -95q0 -29 -6 -70t-19 -84.5t-34.5 -81t-52 -61t-71.5 -23.5zM513 53q23 0 40.5 20.5t30.5 52t21 67
t11.5 66t3.5 47.5q0 37 -11 53.5t-32 16.5q-23 0 -40.5 -19.5t-30 -50t-20 -65t-11.5 -66t-4 -50.5q0 -72 42 -72z" />
    <glyph glyph-name="ampersand" unicode="&#x26;" horiz-adv-x="583" 
d="M179 -10q-72 0 -116.5 42t-44.5 120q0 81 46 138t130 104q-16 31 -27.5 67t-11.5 76q0 52 20 94.5t59 68t95 25.5q61 0 98.5 -34t37.5 -94q0 -50 -22.5 -88.5t-61 -70t-85.5 -60.5l103 -180q26 28 45 64.5t33 75.5h84q-21 -58 -52.5 -110.5t-70.5 -96.5l80 -131h-99
l-42 74q-41 -36 -86.5 -60t-111.5 -24zM265 433q28 18 55.5 41t45.5 51t18 63q0 31 -15.5 50t-45.5 19q-44 0 -66 -33.5t-22 -82.5q0 -58 30 -108zM196 62q46 0 80 22t65 51l-115 204q-52 -33 -88 -74t-36 -104q0 -46 25.5 -72.5t68.5 -26.5z" />
    <glyph glyph-name="quotesingle" unicode="'" horiz-adv-x="208" 
d="M107 456l37 258h92l-72 -258h-57z" />
    <glyph glyph-name="parenleft" unicode="(" horiz-adv-x="278" 
d="M97 -158q-32 57 -48.5 130.5t-16.5 149.5q0 174 63.5 323t178.5 271h76q-106 -123 -171.5 -273.5t-65.5 -320.5q0 -160 50 -280h-66z" />
    <glyph glyph-name="parenright" unicode=")" horiz-adv-x="278" 
d="M-76 -158q107 123 172 273.5t65 320.5q0 78 -12.5 150t-37.5 130h67q64 -121 64 -281q0 -175 -63.5 -323.5t-178.5 -269.5h-76z" />
    <glyph glyph-name="asterisk" unicode="*" horiz-adv-x="481" 
d="M341 348l-50 168l-106 -143l-59 56l130 121l-155 45l27 75l153 -76l14 169l83 -14l-48 -164l171 15v-78l-163 14l80 -159z" />
    <glyph glyph-name="plus" unicode="+" horiz-adv-x="520" 
d="M311 388h181v-70h-181v-204h-71v204h-181v70h181v204h71v-204z" />
    <glyph glyph-name="comma" unicode="," horiz-adv-x="236" 
d="M-44 -130q16 37 34 80.5t34.5 86.5t27.5 78h91l3 -11q-24 -56 -57.5 -118t-67.5 -116h-65z" />
    <glyph glyph-name="hyphen" unicode="-" horiz-adv-x="293" 
d="M22 229l17 79h226l-17 -79h-226z" />
    <glyph glyph-name="period" unicode="." horiz-adv-x="236" 
d="M65 -12q-23 0 -35.5 13t-12.5 36q0 32 18 57t54 25q21 0 33.5 -13t12.5 -37q0 -32 -18.5 -56.5t-51.5 -24.5z" />
    <glyph glyph-name="slash" unicode="/" horiz-adv-x="348" 
d="M-47 -1l393 716h83l-392 -716h-84z" />
    <glyph glyph-name="zero" unicode="0" horiz-adv-x="492" 
d="M200 -10q-77 0 -116.5 55t-39.5 161q0 55 10 123.5t30.5 137.5t53.5 127.5t79.5 94.5t107.5 36q80 0 118 -53t38 -154q0 -64 -10 -136t-31.5 -141.5t-54.5 -126t-79 -90.5t-106 -34zM209 64q36 0 66 31t52.5 81.5t38 111t23 121.5t7.5 111q0 130 -76 130q-36 0 -65.5 -30
t-53 -80t-40 -109.5t-25 -118.5t-8.5 -106q0 -70 19.5 -106t61.5 -36z" />
    <glyph glyph-name="one" unicode="1" horiz-adv-x="492" 
d="M272 464q9 40 17.5 76.5t19.5 72.5q-23 -25 -55 -46l-86 -61l-39 61l206 147h76l-152 -714h-86z" />
    <glyph glyph-name="two" unicode="2" horiz-adv-x="492" 
d="M-10 0l14 69l207 206q57 56 97 101t61 87.5t21 92.5q0 43 -24 68.5t-68 25.5q-39 0 -71.5 -17t-64.5 -41l-38 59q38 32 83 52.5t103 20.5q80 0 124 -42.5t44 -112.5q0 -57 -22.5 -108t-68 -105t-115.5 -120l-160 -156v-3h288l-15 -77h-395z" />
    <glyph glyph-name="three" unicode="3" horiz-adv-x="492" 
d="M172 -10q-51 0 -90.5 9t-73.5 26v83q31 -19 75 -32t88 -13q77 0 117.5 41.5t40.5 107.5q0 60 -33.5 90.5t-95.5 30.5h-53l15 71h53q50 0 89.5 19.5t63 55t23.5 82.5q0 43 -25 66.5t-66 23.5q-40 0 -74.5 -14t-68.5 -39l-35 62q39 28 84 46t104 18q80 0 123.5 -41
t43.5 -109q0 -76 -46 -131.5t-127 -72.5v-4q50 -11 82 -49t32 -100q0 -59 -26.5 -110.5t-81 -84t-138.5 -32.5z" />
    <glyph glyph-name="four" unicode="4" horiz-adv-x="492" 
d="M244 0l34 160h-281l14 74l372 482h95l-101 -481h94l-16 -75h-95l-34 -160h-82zM94 235h201l46 217q9 43 22.5 91t21.5 78h-4q-14 -25 -32 -51t-30 -43z" />
    <glyph glyph-name="five" unicode="5" horiz-adv-x="492" 
d="M165 -10q-44 0 -81 9t-65 25v85q31 -21 68 -33.5t78 -12.5q63 0 102.5 25t58.5 65.5t19 88.5q0 60 -31 93t-88 33q-26 0 -49.5 -4.5t-50.5 -12.5l-33 30l94 333h300l-17 -77h-226l-59 -209q16 4 34.5 7t40.5 3q80 0 127 -49t47 -135q0 -47 -14.5 -94t-46 -85.5t-83 -61.5
t-125.5 -23z" />
    <glyph glyph-name="six" unicode="6" horiz-adv-x="492" 
d="M216 -10q-78 0 -122.5 52.5t-44.5 152.5q0 71 15.5 149.5t46.5 150.5t78 125q38 44 93.5 74t127.5 30q52 0 88 -11l-18 -74q-15 5 -34 8.5t-42 3.5q-86 0 -151 -68t-100 -213h4q26 36 64.5 58t84.5 22q67 0 104.5 -45.5t37.5 -123.5q0 -49 -13.5 -100.5t-42 -94.5
t-72.5 -69.5t-104 -26.5zM223 63q35 0 61.5 19.5t44 50.5t26.5 68t9 72q0 51 -22 78.5t-66 27.5q-31 0 -57 -14t-44 -35.5t-27 -43.5q-8 -19 -12 -44.5t-4 -52.5q0 -52 21.5 -89t69.5 -37z" />
    <glyph glyph-name="seven" unicode="7" horiz-adv-x="492" 
d="M63 0l349 638h-310l16 76h397l-12 -66l-350 -648h-90z" />
    <glyph glyph-name="eight" unicode="8" horiz-adv-x="492" 
d="M211 -10q-93 0 -139 48.5t-46 120.5q0 79 47 132.5t132 89.5q-36 31 -56.5 67.5t-20.5 88.5q0 56 25.5 98.5t70.5 66t103 23.5q85 0 125 -44.5t40 -105.5q0 -51 -21.5 -88.5t-57.5 -65.5t-81 -49q49 -35 75.5 -77t26.5 -102q0 -53 -25 -99.5t-74 -75t-124 -28.5zM279 413
q63 27 95.5 63.5t32.5 88.5q0 41 -23.5 64.5t-63.5 23.5q-50 0 -79.5 -31t-29.5 -85q0 -42 18.5 -71.5t49.5 -52.5zM217 61q45 0 74 18.5t43 48t14 62.5q0 46 -22.5 82t-66.5 65q-63 -25 -105 -63.5t-42 -108.5q0 -47 29 -75.5t76 -28.5z" />
    <glyph glyph-name="nine" unicode="9" horiz-adv-x="492" 
d="M135 -10q-29 0 -56 4t-50 11v78q23 -8 49 -13.5t57 -5.5q90 0 146.5 69t87.5 208h-5q-23 -35 -60 -56t-81 -21q-72 0 -110 47t-38 128q0 52 15.5 102.5t45 92t73 66t100.5 24.5q78 0 121 -51.5t43 -152.5q0 -68 -14 -143.5t-39.5 -145t-62.5 -118.5q-42 -59 -97.5 -91
t-124.5 -32zM245 335q39 0 70 21t50 58q24 41 24 114q0 56 -22.5 89.5t-64.5 33.5q-46 0 -77.5 -30.5t-48.5 -78t-17 -96.5q0 -53 22 -82t64 -29z" />
    <glyph glyph-name="colon" unicode=":" horiz-adv-x="237" 
d="M145 416q-22 0 -35 12.5t-13 35.5q0 33 18 57.5t54 24.5q21 0 33.5 -12.5t12.5 -36.5q0 -33 -18 -57t-52 -24zM62 -12q-23 0 -36 13t-13 36q0 32 18 57t55 25q21 0 33.5 -13t12.5 -37q0 -32 -18.5 -56.5t-51.5 -24.5z" />
    <glyph glyph-name="semicolon" unicode=";" horiz-adv-x="237" 
d="M147 416q-23 0 -35.5 12.5t-12.5 35.5q0 33 18 57.5t54 24.5q21 0 33.5 -12.5t12.5 -36.5q0 -33 -18 -57t-52 -24zM-49 -130q26 60 52 125.5t44 119.5h90l4 -11q-24 -56 -58 -117.5t-68 -116.5h-64z" />
    <glyph glyph-name="less" unicode="&#x3c;" horiz-adv-x="520" 
d="M493 122l-434 204v50l434 221v-78l-341 -166l341 -153v-78z" />
    <glyph glyph-name="equal" unicode="=" horiz-adv-x="520" 
d="M63 419v70h425v-70h-425zM63 215v70h425v-70h-425z" />
    <glyph glyph-name="greater" unicode="&#x3e;" horiz-adv-x="520" 
d="M59 200l341 152l-341 167v78l434 -221v-50l-434 -204v78z" />
    <glyph glyph-name="question" unicode="?" horiz-adv-x="378" 
d="M103 200q8 45 20.5 78t33.5 60.5t53 56.5q31 29 57 54t41.5 53t15.5 66q0 40 -21 61t-60 21q-34 0 -65.5 -12t-59.5 -27l-27 64q37 23 80 36t84 13q71 0 112.5 -36t41.5 -107q0 -67 -35 -117t-96 -102q-36 -30 -56 -52.5t-31.5 -47t-19.5 -62.5h-68zM103 -12
q-49 0 -49 49q0 32 18 57t55 25q20 0 32.5 -13t12.5 -37q0 -32 -18 -56.5t-51 -24.5z" />
    <glyph glyph-name="at" unicode="@" horiz-adv-x="752" 
d="M325 -88q-88 0 -151.5 36t-97.5 103t-34 159q0 96 30 186t86 162t135.5 115t179.5 43q89 0 146 -37t84.5 -99t27.5 -137q0 -63 -14.5 -122.5t-41 -107t-63 -76t-80.5 -28.5q-49 0 -68.5 25t-22.5 60h-3q-20 -37 -50.5 -61t-71.5 -24q-48 0 -75.5 32t-27.5 93q0 54 17 105
t48 92t72.5 65.5t91.5 24.5q40 0 68.5 -8t51.5 -18l-51 -199q-7 -27 -10.5 -45t-3.5 -33q0 -27 11 -38t29 -11q29 0 52.5 25.5t40 66.5t25.5 87.5t9 87.5q0 64 -20.5 113t-64.5 77t-116 28q-81 0 -146 -36.5t-111 -98.5t-70 -140.5t-24 -163.5q0 -110 54.5 -176t165.5 -66
q47 0 93.5 11t84.5 28v-61q-43 -19 -91 -29t-94 -10zM334 169q38 0 65 40.5t47 112.5l35 131q-9 4 -21 6.5t-28 2.5q-32 0 -59.5 -20t-47.5 -52t-31 -71t-11 -77q0 -39 13 -56t38 -17z" />
    <glyph glyph-name="A" unicode="A" horiz-adv-x="504" 
d="M-60 0l355 715h97l57 -715h-86l-17 224h-204l-108 -224h-94zM179 301h163l-9 187q-2 33 -4 70t-2 66h-3q-12 -31 -27.5 -66t-33.5 -72z" />
    <glyph glyph-name="B" unicode="B" horiz-adv-x="538" 
d="M26 0l151 714h166q86 0 138 -37.5t52 -117.5q0 -70 -39.5 -120t-111.5 -66v-4q45 -13 73 -49t28 -91q0 -71 -31.5 -122t-89 -79t-134.5 -28h-202zM293 409q65 0 107.5 37t42.5 102q0 45 -26.5 68.5t-86.5 23.5h-83l-49 -231h95zM230 74q80 0 121.5 43t41.5 113
q0 47 -27.5 77t-89.5 30h-93l-56 -263h103z" />
    <glyph glyph-name="C" unicode="C" horiz-adv-x="513" 
d="M278 -10q-104 0 -161.5 67.5t-57.5 189.5q0 63 14 129.5t42 128.5t71 111.5t100.5 78.5t129.5 29q90 0 153 -38l-38 -71q-23 14 -51 23.5t-64 9.5q-55 0 -98 -25.5t-74.5 -67.5t-52.5 -94t-31.5 -106.5t-10.5 -103.5q0 -89 38 -137t108 -48q34 0 67.5 8t67.5 20v-77
q-35 -13 -70.5 -20t-81.5 -7z" />
    <glyph glyph-name="D" unicode="D" horiz-adv-x="593" 
d="M26 0l151 714h150q114 0 177.5 -64t63.5 -194q0 -89 -24 -170.5t-72.5 -146t-121 -102t-169.5 -37.5h-155zM188 76q72 0 126.5 31.5t90.5 85.5t54 122t18 140q0 97 -43 140t-117 43h-70l-120 -562h61z" />
    <glyph glyph-name="E" unicode="E" horiz-adv-x="460" 
d="M26 0l151 714h324l-16 -76h-239l-47 -227h222l-15 -76h-223l-56 -259h239l-16 -76h-324z" />
    <glyph glyph-name="F" unicode="F" horiz-adv-x="429" 
d="M26 0l151 714h325l-16 -76h-240l-53 -257h223l-16 -77h-224l-64 -304h-86z" />
    <glyph glyph-name="G" unicode="G" horiz-adv-x="610" 
d="M300 -10q-116 0 -178.5 66t-62.5 188q0 100 26.5 187.5t75 153t115 102.5t147.5 37q57 0 102.5 -11.5t83.5 -31.5l-36 -74q-35 18 -72 29.5t-81 11.5q-59 0 -108.5 -32t-86 -87.5t-56.5 -127.5t-20 -152q0 -83 39 -133t121 -50q32 0 59 4.5t48 11.5l47 219h-121l16 75
h207l-76 -351q-43 -16 -89 -25.5t-100 -9.5z" />
    <glyph glyph-name="H" unicode="H" horiz-adv-x="608" 
d="M27 0l151 714h85l-64 -303h270l64 303h85l-151 -714h-85l70 334h-269l-71 -334h-85z" />
    <glyph glyph-name="I" unicode="I" horiz-adv-x="301" 
d="M-31 0l10 48l82 18l124 582l-75 18l10 48h243l-10 -48l-83 -18l-123 -582l74 -18l-9 -48h-243z" />
    <glyph glyph-name="J" unicode="J" horiz-adv-x="247" 
d="M-80 -191q-47 0 -73 12l9 75q13 -4 29 -7t33 -3q84 0 110 120l150 708h86l-152 -720q-21 -98 -70 -141.5t-122 -43.5z" />
    <glyph glyph-name="K" unicode="K" horiz-adv-x="504" 
d="M26 0l151 714h86l-75 -350l60 73l242 277h101l-279 -319l137 -395h-94l-112 339l-72 -59l-59 -280h-86z" />
    <glyph glyph-name="L" unicode="L" horiz-adv-x="426" 
d="M26 0l151 714h86l-136 -637h238l-16 -77h-323z" />
    <glyph glyph-name="M" unicode="M" horiz-adv-x="770" 
d="M25 0l151 714h121l52 -583h3l297 583h131l-150 -714h-86l95 446q11 50 21 91.5t18 70.5h-2l-314 -608h-75l-56 607h-3q-4 -30 -11.5 -76t-16.5 -88l-94 -443h-81z" />
    <glyph glyph-name="N" unicode="N" horiz-adv-x="636" 
d="M25 0l151 714h95l173 -582h3q6 42 16 95.5t19 96.5l83 390h82l-151 -714h-94l-175 587h-3q-3 -27 -9.5 -64t-14 -75t-13.5 -68l-80 -380h-82z" />
    <glyph glyph-name="O" unicode="O" horiz-adv-x="639" 
d="M283 -10q-110 0 -167.5 66t-57.5 186q0 89 22.5 174.5t65.5 155t105.5 111.5t142.5 42q106 0 162.5 -66t56.5 -186q0 -68 -13 -136.5t-39 -131t-65.5 -111t-92.5 -76.5t-120 -28zM288 67q56 0 100 36.5t74 97t45.5 132t15.5 141.5q0 85 -35.5 129.5t-99.5 44.5
q-47 0 -85 -24.5t-66.5 -66.5t-48 -94.5t-29.5 -109t-10 -110.5q0 -86 36.5 -131t102.5 -45z" />
    <glyph glyph-name="P" unicode="P" horiz-adv-x="507" 
d="M26 0l151 714h142q102 0 148.5 -48t46.5 -127q0 -120 -73.5 -190t-212.5 -70h-57l-59 -279h-86zM236 353q89 0 139.5 46t50.5 134q0 55 -30 80.5t-90 25.5h-59l-61 -286h50z" />
    <glyph glyph-name="Q" unicode="Q" horiz-adv-x="639" 
d="M294 -9q-5 0 -8.5 -0.5t-7.5 -0.5q-107 2 -163.5 68t-56.5 184q0 89 22.5 174.5t65.5 155t105.5 111.5t142.5 42q106 0 162.5 -66t56.5 -186q0 -72 -14.5 -144.5t-44 -137.5t-73.5 -113t-102 -70l106 -178h-106zM288 67q57 0 101 36.5t74 97t45 132t15 141.5
q0 85 -35.5 129.5t-99.5 44.5q-47 0 -85 -24.5t-66.5 -66.5t-48 -94.5t-29.5 -109t-10 -110.5q0 -86 36.5 -131t102.5 -45z" />
    <glyph glyph-name="R" unicode="R" horiz-adv-x="516" 
d="M26 0l151 714h139q99 0 149 -44t50 -127q0 -82 -40 -143.5t-126 -84.5l98 -315h-94l-84 296h-95l-62 -296h-86zM255 370q60 0 97.5 22t55.5 59.5t18 83.5q0 56 -30 80t-89 24h-60l-57 -269h65z" />
    <glyph glyph-name="S" unicode="S" horiz-adv-x="458" 
d="M159 -10q-95 0 -155 32l4 87q28 -17 66.5 -29.5t85.5 -12.5q63 0 106.5 32.5t43.5 99.5q0 40 -22 68.5t-80 69.5q-50 36 -82 75.5t-32 105.5q0 65 29.5 111t80 70.5t114.5 24.5q48 0 88.5 -11t73.5 -29l-36 -75q-25 15 -58.5 26t-69.5 11q-57 0 -94 -32t-37 -89
q0 -30 10.5 -51t32 -39.5t53.5 -42.5q37 -26 64 -51.5t41.5 -57.5t14.5 -77q0 -102 -65 -159t-177 -57z" />
    <glyph glyph-name="T" unicode="T" horiz-adv-x="443" 
d="M120 0l135 637h-169l17 77h424l-16 -77h-169l-135 -637h-87z" />
    <glyph glyph-name="U" unicode="U" horiz-adv-x="602" 
d="M255 -10q-96 0 -144.5 47t-48.5 133q0 18 3 41.5t8 49.5l97 453h86l-98 -457q-5 -22 -7.5 -44.5t-2.5 -37.5q0 -52 28.5 -80t84.5 -28q75 0 113 43.5t58 132.5l101 471h85l-102 -478q-16 -76 -47 -131t-83.5 -85t-130.5 -30z" />
    <glyph glyph-name="V" unicode="V" horiz-adv-x="498" 
d="M140 0l-50 714h86l27 -451q2 -39 3.5 -79t-0.5 -80h2q12 32 28.5 69.5t37.5 82.5l218 458h94l-352 -714h-94z" />
    <glyph glyph-name="W" unicode="W" horiz-adv-x="782" 
d="M112 0l-12 714h84l4 -440q1 -42 -1 -82.5t-4 -75.5h2q14 37 31.5 82t35.5 86l188 430h85l7 -424q1 -47 0.5 -93t-1.5 -81h3q14 39 28.5 80.5t31.5 82.5l181 435h91l-309 -714h-93l-7 457q-2 30 -1.5 63.5t1.5 62.5h-3q-9 -28 -20.5 -56.5t-29.5 -68.5l-199 -458h-93z" />
    <glyph glyph-name="X" unicode="X" horiz-adv-x="470" 
d="M-55 0l264 377l-99 337h88l72 -269l185 269h93l-242 -343l103 -371h-91l-74 301l-205 -301h-94z" />
    <glyph glyph-name="Y" unicode="Y" horiz-adv-x="453" 
d="M122 0l58 271l-91 443h87l63 -348l209 348h95l-278 -445l-57 -269h-86z" />
    <glyph glyph-name="Z" unicode="Z" horiz-adv-x="459" 
d="M-21 0l13 67l399 570h-269l16 77h370l-13 -68l-399 -569h287l-16 -77h-388z" />
    <glyph glyph-name="bracketleft" unicode="[" horiz-adv-x="287" 
d="M-16 -159l187 875h192l-16 -69h-112l-157 -737h113l-15 -69h-192z" />
    <glyph glyph-name="backslash" unicode="\" horiz-adv-x="350" 
d="M205 -1l-100 716h77l100 -716h-77z" />
    <glyph glyph-name="bracketright" unicode="]" horiz-adv-x="287" 
d="M-70 -159l14 69h113l156 737h-112l15 69h191l-186 -875h-191z" />
    <glyph glyph-name="asciicircum" unicode="^" horiz-adv-x="508" 
d="M28 290l219 427h51l185 -427h-75l-142 329l-160 -329h-78z" />
    <glyph glyph-name="underscore" unicode="_" horiz-adv-x="361" 
d="M-90 -153l14 66h363l-14 -66h-363z" />
    <glyph glyph-name="grave" unicode="`" horiz-adv-x="267" 
d="M247 606q-17 18 -37 45.5t-37.5 55.5t-26.5 49v10h93q10 -37 26 -75t35 -74l-1 -11h-52z" />
    <glyph glyph-name="a" unicode="a" horiz-adv-x="515" 
d="M170 -10q-60 0 -95 43.5t-35 127.5q0 68 16.5 136t48.5 124.5t77.5 90.5t102.5 34q46 0 75 -25t43 -62h5l28 77h67l-114 -536h-67l10 91h-3q-32 -43 -71.5 -72t-87.5 -29zM197 61q36 0 67.5 27t56 71.5t38.5 96.5q9 36 13 65.5t4 55.5q0 44 -22 70.5t-60 26.5
q-37 0 -68 -28t-53.5 -74t-34.5 -101t-12 -110q0 -100 71 -100z" />
    <glyph glyph-name="b" unicode="b" horiz-adv-x="520" 
d="M236 -10q-47 0 -77 25t-43 61h-4l-30 -76h-65l161 760h84l-42 -202q-9 -37 -18 -71t-11 -41h3q32 43 69.5 71t86.5 28q60 0 95.5 -42.5t35.5 -126.5q0 -67 -16 -135t-47.5 -125t-77 -91.5t-104.5 -34.5zM229 61q38 0 68.5 29t52 75.5t33.5 101.5t12 107q0 100 -73 100
q-35 0 -67 -28.5t-57 -75.5t-39.5 -102t-14.5 -108q0 -46 20.5 -72.5t64.5 -26.5z" />
    <glyph glyph-name="c" unicode="c" horiz-adv-x="403" 
d="M213 -10q-80 0 -126.5 46.5t-46.5 139.5q0 67 17 133t50.5 119.5t82.5 85.5t112 32q65 0 117 -25l-27 -70q-17 9 -40 16t-49 7q-42 0 -74.5 -25.5t-55.5 -68.5t-35 -95t-12 -105q0 -58 26 -88.5t73 -30.5q29 0 56.5 9t54.5 22v-71q-24 -14 -55.5 -22.5t-67.5 -8.5z" />
    <glyph glyph-name="d" unicode="d" horiz-adv-x="521" 
d="M169 -10q-59 0 -94.5 43t-35.5 128q0 66 16.5 134t48 124.5t76.5 91t104 34.5q47 0 76.5 -24.5t42.5 -60.5h4q5 31 9.5 60t11.5 60l38 180h83l-161 -760h-68l9 90h-3q-33 -44 -70.5 -72t-86.5 -28zM198 61q35 0 67.5 30t57 77.5t39 103t14.5 105.5q0 44 -20 70.5
t-64 26.5q-38 0 -68.5 -29t-52.5 -76t-33.5 -102t-11.5 -106q0 -100 72 -100z" />
    <glyph glyph-name="e" unicode="e" horiz-adv-x="456" 
d="M213 -10q-83 0 -128.5 50t-45.5 138q0 70 18 136t52 118t81 83t104 31q66 0 101.5 -31.5t35.5 -88.5q0 -82 -71 -136.5t-219 -54.5h-13q-2 -12 -3 -25.5t-1 -26.5q0 -59 26 -91t81 -32q33 0 63 9.5t66 27.5v-71q-33 -17 -67.5 -26.5t-79.5 -9.5zM146 302q90 0 147 29
t57 89q0 25 -15.5 40.5t-47.5 15.5q-45 0 -85.5 -47t-61.5 -127h6z" />
    <glyph glyph-name="f" unicode="f" horiz-adv-x="286" 
d="M-57 -240q-33 0 -59 9v72q12 -4 24.5 -6.5t26.5 -2.5q36 0 53.5 29.5t29.5 84.5l111 523h-80l7 40l87 29l12 51q21 95 58 135.5t108 40.5q23 0 46.5 -5t39.5 -13l-25 -65q-12 5 -26.5 8.5t-30.5 3.5q-35 0 -54.5 -23.5t-32.5 -82.5l-11 -52h99l-13 -67h-100l-113 -531
q-11 -54 -29.5 -94t-49 -62t-78.5 -22z" />
    <glyph glyph-name="g" unicode="g" horiz-adv-x="522" 
d="M151 -240q-43 0 -80.5 9.5t-62.5 23.5v79q23 -15 63 -28t79 -13q58 0 94.5 31.5t52.5 100.5l9 37q4 19 10.5 44t11.5 44h-3q-31 -43 -69 -70.5t-87 -27.5q-59 0 -94.5 43t-35.5 126q0 67 16.5 135t48 125t77.5 92t105 35q47 0 75.5 -25t42.5 -62h4l28 77h67l-121 -568
q-24 -112 -81.5 -160t-149.5 -48zM198 61q35 0 66.5 30t56.5 77.5t39.5 103t14.5 107.5q0 43 -19.5 69t-62.5 26q-39 0 -69.5 -29t-52.5 -76t-33.5 -102t-11.5 -106q0 -100 72 -100z" />
    <glyph glyph-name="h" unicode="h" horiz-adv-x="517" 
d="M18 0l161 760h84l-43 -198q-6 -27 -14 -56.5t-15 -57.5h4q25 38 63.5 67.5t93.5 29.5t87.5 -31t32.5 -93q0 -20 -4 -43.5t-9 -47.5l-71 -330h-83l70 333q5 24 8 43.5t3 35.5q0 29 -14.5 45t-45.5 16q-32 0 -65 -21.5t-61 -70t-44 -126.5l-54 -255h-84z" />
    <glyph glyph-name="i" unicode="i" horiz-adv-x="234" 
d="M199 625q-20 0 -32.5 11.5t-12.5 32.5q0 26 15 46.5t44 20.5q42 0 42 -42q0 -30 -17 -49.5t-39 -19.5zM17 0l114 536h84l-114 -536h-84z" />
    <glyph glyph-name="j" unicode="j" horiz-adv-x="234" 
d="M198 625q-19 0 -31 11.5t-12 32.5q0 26 15 46.5t43 20.5q42 0 42 -42q0 -30 -17 -49.5t-40 -19.5zM-69 -240q-34 0 -58 9v72q24 -9 52 -9q31 0 50 25t31 83l126 596h83l-128 -603q-11 -52 -29 -91t-48.5 -60.5t-78.5 -21.5z" />
    <glyph glyph-name="k" unicode="k" horiz-adv-x="446" 
d="M17 0l161 760h85l-70 -326q-13 -58 -23 -95.5t-16 -58.5h2l228 256h97l-205 -225l112 -311h-92l-87 252l-68 -60l-39 -192h-85z" />
    <glyph glyph-name="l" unicode="l" horiz-adv-x="233" 
d="M17 0l162 760h84l-162 -760h-84z" />
    <glyph glyph-name="m" unicode="m" horiz-adv-x="779" 
d="M17 0l114 536h69l-11 -88h5q25 37 62.5 67.5t89.5 30.5q49 0 76 -26.5t33 -74.5h3q28 40 68 70.5t92 30.5q55 0 85.5 -31t30.5 -90q0 -21 -3 -40.5t-8 -40.5l-72 -344h-85l74 345q4 21 6.5 37.5t2.5 29.5q0 29 -14.5 45t-44.5 16q-46 0 -90 -49.5t-64 -142.5l-59 -281
h-84l73 348q9 39 9 62q0 30 -13.5 46.5t-43.5 16.5q-50 0 -95 -55t-68 -165l-53 -253h-85z" />
    <glyph glyph-name="n" unicode="n" horiz-adv-x="517" 
d="M15 0l114 538h73l-11 -89h2q26 38 64.5 68.5t93.5 30.5q56 0 89.5 -31.5t33.5 -91.5q0 -22 -4 -47t-9 -46l-71 -332h-88l71 336q5 23 8.5 42t3.5 35q0 58 -59 58q-48 0 -96 -51.5t-73 -167.5l-54 -252h-88z" />
    <glyph glyph-name="o" unicode="o" horiz-adv-x="506" 
d="M213 -9q-81 0 -127 50.5t-46 139.5q0 58 15 121t46 118t79 89.5t114 34.5q81 0 127 -50.5t46 -140.5q0 -62 -16 -125.5t-47.5 -117t-79 -86.5t-111.5 -33zM219 62q35 0 64.5 24t51.5 66t34 95.5t12 112.5q0 44 -21 78.5t-69 34.5q-40 0 -71 -26.5t-52.5 -70.5t-32 -95.5
t-10.5 -101.5q0 -56 24 -86.5t70 -30.5z" />
    <glyph glyph-name="p" unicode="p" horiz-adv-x="520" 
d="M-32 -237l164 773h69l-11 -92h3q32 44 71 72.5t87 28.5q59 0 94.5 -42.5t35.5 -127.5q0 -68 -16.5 -136t-47.5 -124.5t-76.5 -90.5t-104.5 -34q-46 0 -75.5 25t-43.5 61h-4q-3 -20 -7 -47t-8 -46l-47 -220h-83zM229 61q38 0 68.5 29t52.5 75.5t33.5 101.5t11.5 108
q0 100 -73 100q-34 0 -66 -29t-57.5 -76t-40 -102.5t-14.5 -108.5q0 -45 21 -71.5t64 -26.5z" />
    <glyph glyph-name="q" unicode="q" horiz-adv-x="521" 
d="M303 -10q4 17 11.5 46t13.5 52h-3q-31 -42 -69 -70t-87 -28q-59 0 -94.5 43t-35.5 126q0 67 16.5 135t48 125t77.5 92t105 35q47 0 76 -25t42 -62h4l28 77h66l-164 -776h-84zM198 61q34 0 66 29.5t57 76.5t39.5 102.5t14.5 108.5q0 41 -20 68.5t-63 27.5q-37 0 -68 -29
t-53 -75.5t-33.5 -101.5t-11.5 -107q0 -100 72 -100z" />
    <glyph glyph-name="r" unicode="r" horiz-adv-x="353" 
d="M18 0l113 536h68l-11 -95h4q28 44 62.5 74.5t84.5 30.5q28 0 51 -7l-21 -80q-22 7 -45 7q-45 0 -78.5 -31.5t-56 -79.5t-33.5 -97l-54 -258h-84z" />
    <glyph glyph-name="s" unicode="s" horiz-adv-x="389" 
d="M135 -10q-44 0 -78 8.5t-58 22.5v80q23 -15 58.5 -27.5t72.5 -12.5q52 0 80 23t28 62q0 29 -16 49.5t-61 51.5q-49 33 -73.5 66t-24.5 81q0 67 46 109.5t125 42.5q45 0 83 -10.5t65 -25.5l-31 -67q-23 13 -51.5 22.5t-64.5 9.5q-40 0 -63.5 -20.5t-23.5 -53.5
q0 -26 14.5 -46t59.5 -50q31 -22 54 -43t36 -46t13 -61q0 -79 -51.5 -122t-138.5 -43z" />
    <glyph glyph-name="t" unicode="t" horiz-adv-x="298" 
d="M155 -10q-50 0 -80 25t-30 82q0 31 9 71l63 301h-70l9 42l78 32l55 115h53l-27 -122h114l-14 -67h-113l-64 -303q-3 -14 -6 -29.5t-3 -28.5q0 -21 10 -34t34 -13q15 0 30 3t32 8v-65q-14 -7 -37.5 -12t-42.5 -5z" />
    <glyph glyph-name="u" unicode="u" horiz-adv-x="518" 
d="M164 -10q-56 0 -88 31.5t-32 90.5q0 21 3.5 43t7.5 44l72 337h85l-73 -340q-9 -44 -9 -72q0 -29 14 -45.5t45 -16.5q33 0 66 23t61.5 72t44.5 127l54 252h83l-114 -536h-68l9 88h-4q-26 -37 -65 -67.5t-92 -30.5z" />
    <glyph glyph-name="v" unicode="v" horiz-adv-x="419" 
d="M94 0l-42 536h84l18 -298q2 -22 3.5 -53t2 -59.5t-0.5 -41.5h4q13 32 32 74t34 71l150 307h89l-270 -536h-104z" />
    <glyph glyph-name="w" unicode="w" horiz-adv-x="657" 
d="M69 0l-10 536h82l2 -293q1 -46 -1 -84.5t-4 -66.5h3q10 29 26 68.5t28 67.5l135 308h92l7 -293v-75t-2 -77h3q13 36 29.5 80.5t36.5 90.5l115 274h88l-236 -536h-100l-5 305q-1 34 0 66.5t1 71.5h-3q-11 -30 -21.5 -57t-28.5 -67l-138 -319h-99z" />
    <glyph glyph-name="x" unicode="x" horiz-adv-x="432" 
d="M-40 0l210 277l-92 259h86l64 -195l139 195h96l-202 -264l99 -272h-86l-71 207l-148 -207h-95z" />
    <glyph glyph-name="y" unicode="y" horiz-adv-x="420" 
d="M-31 -240q-21 0 -35.5 2.5t-27.5 7.5l4 70q12 -4 26 -6.5t29 -2.5q37 0 61.5 24.5t47.5 69.5l36 71l-56 540h84l22 -277q5 -42 6.5 -91t0.5 -80h3q7 18 18.5 45.5t24 55.5t21.5 47l147 300h89l-318 -631q-37 -70 -77 -107.5t-106 -37.5z" />
    <glyph glyph-name="z" unicode="z" horiz-adv-x="386" 
d="M-23 0l12 57l298 413h-197l14 66h289l-13 -65l-294 -405h218l-13 -66h-314z" />
    <glyph glyph-name="braceleft" unicode="{" horiz-adv-x="342" 
d="M214 -158q-144 1 -144 112q0 15 2.5 30.5t6.5 32.5l25 115q3 14 4.5 25.5t1.5 22.5q0 68 -95 68l16 70q56 0 88.5 22t43.5 73l34 160q17 80 60 110.5t127 30.5h12l-15 -70q-46 0 -70.5 -17t-35.5 -65l-35 -158q-11 -50 -39.5 -82.5t-85.5 -41.5v-2q39 -10 56.5 -35
t17.5 -62q0 -13 -2 -28t-6 -30l-24 -113q-6 -27 -6 -43q0 -31 19 -43t55 -12l-1 -70h-10z" />
    <glyph glyph-name="bar" unicode="|" horiz-adv-x="483" 
d="M218 -240v1001h71v-1001h-71z" />
    <glyph glyph-name="braceright" unicode="}" horiz-adv-x="342" 
d="M-45 -88q50 0 77.5 17t37.5 65l35 158q11 50 39.5 82t85.5 41v3q-39 10 -56.5 35t-17.5 62q0 12 2.5 27t5.5 30l25 114q6 26 6 43q0 31 -21 43t-61 12l15 70h6q141 0 141 -111q0 -14 -2.5 -30.5t-6.5 -33.5l-25 -116q-3 -14 -5 -25t-2 -22q0 -68 95 -68l-15 -70
q-56 0 -88.5 -22t-43.5 -73l-34 -160q-12 -56 -34.5 -86.5t-60 -42.5t-93.5 -12h-5v70z" />
    <glyph glyph-name="asciitilde" unicode="~" horiz-adv-x="520" 
d="M262 319q-31 15 -54 21t-43 6q-26 0 -54.5 -16.5t-51.5 -42.5v78q45 52 111 52q28 0 55 -7t65 -24q32 -15 54.5 -21t42.5 -6q27 0 55.5 17t51.5 42v-77q-47 -53 -112 -53q-29 0 -55 7t-65 24z" />
    <glyph glyph-name="uni00A0" unicode="&#xa0;" horiz-adv-x="227" 
 />
    <glyph glyph-name="exclamdown" unicode="&#xa1;" horiz-adv-x="251" 
d="M166 414q-47 0 -47 49q0 33 18 57.5t52 24.5q22 0 34.5 -13t12.5 -37q0 -31 -17.5 -56t-52.5 -25zM-14 -183l131 515h60l-90 -515h-101z" />
    <glyph glyph-name="cent" unicode="&#xa2;" horiz-adv-x="492" 
d="M208 94q-55 14 -86 59t-31 121q0 63 15 124t44.5 113t72.5 87t98 44l17 82h60l-18 -82q51 -5 91 -23l-27 -70q-18 9 -40.5 16t-48.5 7q-41 0 -73.5 -25.5t-56 -68t-36 -95t-12.5 -106.5q0 -58 26 -88t73 -30q29 0 55.5 8.5t52.5 21.5l6 -70q-24 -13 -55 -21.5t-68 -9.5
l-20 -98h-61z" />
    <glyph glyph-name="sterling" unicode="&#xa3;" horiz-adv-x="493" 
d="M-1 71q40 12 69.5 45t43.5 96l23 108h-86l14 65h86l35 167q19 89 69.5 130t124.5 41q46 0 82.5 -11.5t64.5 -29.5l-36 -67q-21 14 -49.5 25t-62.5 11q-40 0 -69 -24.5t-43 -87.5l-32 -154h153l-14 -65h-153l-23 -107q-12 -58 -36 -88.5t-53 -47.5h306l-16 -77h-412z" />
    <glyph glyph-name="currency" unicode="&#xa4;" horiz-adv-x="535" 
d="M388 202q-22 -15 -49 -24t-56 -9q-30 0 -57.5 9t-49.5 25l-63 -62l-42 44l62 62q-34 47 -34 106q0 58 34 106l-63 63l43 45l63 -64q49 35 107 35q29 0 55.5 -9t49.5 -26l64 64l44 -44l-63 -63q16 -23 25.5 -50t9.5 -57t-9.5 -57t-25.5 -50l63 -63l-44 -43zM282 232
q35 0 63 16.5t44.5 43.5t16.5 61t-16.5 62t-44.5 44.5t-62 16.5t-61.5 -16.5t-44 -44.5t-16.5 -62t16.5 -61.5t44 -43.5t60.5 -16z" />
    <glyph glyph-name="yen" unicode="&#xa5;" horiz-adv-x="491" 
d="M142 0l28 129h-126l14 64h125l17 80h-125l14 64h100l-73 377h84l58 -345l203 345h90l-233 -377h103l-13 -64h-128l-17 -80h128l-13 -64h-127l-29 -129h-80z" />
    <glyph glyph-name="brokenbar" unicode="&#xa6;" horiz-adv-x="483" 
d="M218 380v381h71v-381h-71zM218 -240v381h71v-381h-71z" />
    <glyph glyph-name="section" unicode="&#xa7;" horiz-adv-x="434" 
d="M150 8q-45 0 -79 8.5t-55 21.5v73q24 -16 60 -27.5t72 -11.5q55 0 86 23t31 62q0 24 -19.5 43t-64.5 42q-47 25 -78 56.5t-31 83.5t31 86.5t77 56.5q-24 17 -37.5 41t-13.5 57q0 58 45.5 98.5t128.5 41.5q44 0 80 -9t65 -25l-29 -60q-28 14 -56.5 22t-58.5 8
q-37 0 -66.5 -18t-29.5 -55q0 -27 19.5 -44.5t62.5 -39.5q50 -27 79 -57t29 -76q0 -50 -28 -87.5t-75 -63.5q20 -16 34 -38t14 -54q0 -69 -50.5 -113.5t-142.5 -44.5zM251 289q29 17 50 44.5t21 61.5q0 30 -21.5 51t-72.5 46q-32 -11 -56.5 -36.5t-24.5 -62.5q0 -32 23 -54
t81 -50z" />
    <glyph glyph-name="dieresis" unicode="&#xa8;" horiz-adv-x="523" 
d="M411 631q-18 0 -29 10t-11 30q0 24 14 42t39 18q38 0 38 -38q0 -28 -15.5 -45t-35.5 -17zM242 631q-17 0 -28 10t-11 30q0 24 13.5 42t39.5 18q37 0 37 -38q0 -28 -15 -45t-36 -17z" />
    <glyph glyph-name="copyright" unicode="&#xa9;" horiz-adv-x="831" 
d="M416 -10q-82 0 -149.5 28t-116 77.5t-75 116.5t-26.5 145q0 81 27.5 148t77 116t116.5 76t146 27q78 0 144.5 -27.5t116.5 -77t78 -116.5t28 -146q0 -80 -27.5 -147t-77 -116.5t-116.5 -76.5t-146 -27zM416 43q88 0 158 41t111 112t41 161q0 88 -40 159t-110 113t-160 42
q-92 0 -162 -41t-109.5 -112t-39.5 -161q0 -89 40.5 -160t110.5 -112.5t160 -41.5zM430 133q-97 0 -147 60t-50 163q0 100 52.5 162t149.5 62q65 0 123 -30l-28 -59q-49 25 -94 25q-60 0 -93.5 -42t-33.5 -117q0 -79 30 -119.5t96 -40.5q23 0 51 6.5t54 16.5v-63
q-25 -11 -51 -17.5t-59 -6.5z" />
    <glyph glyph-name="ordfeminine" unicode="&#xaa;" horiz-adv-x="314" 
d="M161 383q-34 0 -59.5 27.5t-25.5 85.5q0 55 17.5 107t52.5 85.5t86 33.5q30 0 46.5 -14.5t24.5 -35.5h4l17 44h44l-69 -327h-46l7 53h-3q-18 -25 -40 -42t-56 -17zM179 435q26 0 45.5 17.5t32 44.5t19 56t6.5 52q0 31 -12.5 48t-38.5 17q-29 0 -51 -25t-33.5 -64
t-11.5 -79q0 -67 44 -67z" />
    <glyph glyph-name="guillemotleft" unicode="&#xab;" horiz-adv-x="456" 
d="M142 57l-105 209v13l183 189l46 -39l-141 -163l77 -183zM326 57l-101 197l1 13l175 198l49 -36l-137 -174l73 -172z" />
    <glyph glyph-name="logicalnot" unicode="&#xac;" horiz-adv-x="520" 
d="M489 388v-263h-70v193h-360v70h430z" />
    <glyph glyph-name="uni00AD" unicode="&#xad;" horiz-adv-x="293" 
d="M22 229l17 79h226l-17 -79h-226z" />
    <glyph glyph-name="registered" unicode="&#xae;" horiz-adv-x="831" 
d="M416 -10q-82 0 -149.5 28t-116 77.5t-75 116.5t-26.5 145q0 81 27.5 148t77 116t116.5 76t146 27q78 0 144.5 -27.5t116.5 -77t78 -116.5t28 -146q0 -80 -27.5 -147t-77 -116.5t-116.5 -76.5t-146 -27zM416 43q88 0 158 41t111 112t41 161q0 88 -40 159t-110 113t-160 42
q-92 0 -162 -41t-109.5 -112t-39.5 -161q0 -89 40.5 -160t110.5 -112.5t160 -41.5zM280 141v434h124q158 0 158 -128q0 -46 -22 -74t-54 -41l109 -191h-83l-94 171h-63v-171h-75zM402 372q39 0 61.5 19t22.5 53q0 36 -20.5 52.5t-64.5 16.5h-47v-141h48z" />
    <glyph glyph-name="overscore" unicode="&#xaf;" horiz-adv-x="394" 
d="M98 760l15 65h397l-16 -65h-396z" />
    <glyph glyph-name="degree" unicode="&#xb0;" horiz-adv-x="405" 
d="M202 431q-67 0 -109 40t-42 106t41.5 106.5t109.5 40.5q67 0 109.5 -40.5t42.5 -106.5t-43 -106t-109 -40zM203 487q44 0 66 25t22 65q0 41 -22.5 66t-65.5 25q-45 0 -67 -25.5t-22 -65.5q0 -41 22.5 -65.5t66.5 -24.5z" />
    <glyph glyph-name="plusminus" unicode="&#xb1;" horiz-adv-x="520" 
d="M311 396h181v-70h-181v-204h-71v204h-181v70h181v205h71v-205zM59 0v70h434v-70h-434z" />
    <glyph glyph-name="uni00B2" unicode="&#xb2;" horiz-adv-x="326" 
d="M59 416l10 54l127 119q52 48 78.5 83t26.5 73q0 24 -13.5 38t-38.5 14q-23 0 -44.5 -10t-43.5 -28l-28 46q57 49 129 49q56 0 81.5 -30t25.5 -69q0 -51 -29.5 -93.5t-87.5 -94.5l-101 -92h177l-13 -59h-256z" />
    <glyph glyph-name="uni00B3" unicode="&#xb3;" horiz-adv-x="326" 
d="M173 409q-31 0 -58 6.5t-48 18.5v63q24 -14 51.5 -23t56.5 -9q46 0 70 22.5t24 60.5q0 63 -76 63h-41l12 54h40q44 0 70.5 21.5t26.5 56.5q0 55 -57 54q-25 0 -45.5 -8.5t-41.5 -22.5l-26 46q23 19 54.5 30.5t70.5 11.5q56 0 84 -28t28 -70q0 -45 -25.5 -73.5
t-71.5 -42.5v-4q30 -9 47.5 -32t17.5 -57q0 -60 -41 -99t-122 -39z" />
    <glyph glyph-name="acute" unicode="&#xb4;" horiz-adv-x="259" 
d="M115 618q29 32 59.5 73.5t51.5 74.5h97v-9q-14 -18 -42 -47.5t-59 -58t-54 -45.5h-54z" />
    <glyph glyph-name="uni00B5" unicode="&#xb5;" horiz-adv-x="521" 
d="M-33 -240l164 776h84l-72 -340q-4 -21 -6.5 -38t-2.5 -29q0 -67 60 -67q31 0 64 22t61 70t45 127l55 255h83l-114 -536h-68l9 85h-4q-27 -38 -63 -66.5t-86 -28.5q-49 0 -71 43h-4q-2 -20 -7 -51t-9 -51l-36 -171h-82z" />
    <glyph glyph-name="paragraph" unicode="&#xb6;" horiz-adv-x="582" 
d="M320 285q-24 -7 -57 -7q-84 0 -128.5 60t-44.5 178q0 128 52 186t141 58h238v-887h-56v819h-89v-819h-56v412z" />
    <glyph glyph-name="periodcentered" unicode="&#xb7;" horiz-adv-x="237" 
d="M123 287q-23 0 -35.5 13t-12.5 36q0 32 18 57t54 25q21 0 33.5 -13t12.5 -37q0 -32 -18.5 -56.5t-51.5 -24.5z" />
    <glyph glyph-name="cedilla" unicode="&#xb8;" horiz-adv-x="199" 
d="M-29 -240q-31 0 -52 6v51q19 -5 43 -5q77 0 77 55q0 22 -18 33t-49 15l49 85h53l-32 -55q27 -7 46.5 -24.5t19.5 -51.5q0 -49 -36.5 -79t-100.5 -30z" />
    <glyph glyph-name="uni00B9" unicode="&#xb9;" horiz-adv-x="326" 
d="M232 687q4 21 10.5 45t11.5 41q-9 -8 -19 -16.5t-19 -15.5l-55 -37l-27 45l138 94h61l-92 -428h-67z" />
    <glyph glyph-name="ordmasculine" unicode="&#xba;" horiz-adv-x="317" 
d="M191 383q-50 0 -81 32t-31 94q0 51 18 100t53 81t89 32t82 -33t28 -90q0 -51 -17 -101t-51.5 -82.5t-89.5 -32.5zM197 435q32 0 52.5 24.5t30.5 61t10 74.5q0 74 -56 74q-32 0 -53.5 -23t-32 -59.5t-10.5 -75.5q0 -76 59 -76z" />
    <glyph glyph-name="guillemotright" unicode="&#xbb;" horiz-adv-x="456" 
d="M235 57l-47 39l141 163l-77 183l60 26l106 -210l-1 -13zM53 60l-49 36l137 173l-73 173l60 26l100 -197v-14z" />
    <glyph glyph-name="onequarter" unicode="&#xbc;" horiz-adv-x="701" 
d="M70 0l528 714h75l-528 -714h-75zM205 558q4 21 10.5 45t11.5 41q-9 -8 -19 -16.5t-19 -15.5l-55 -37l-27 45l138 94h61l-92 -428h-67zM509 1l20 96h-166l10 50l224 285h69l-60 -278h56l-11 -57h-57l-20 -96h-65zM440 154h101l23 105q6 24 10.5 45t10.5 42
q-8 -13 -22.5 -33.5t-25.5 -34.5z" />
    <glyph glyph-name="onehalf" unicode="&#xbd;" horiz-adv-x="763" 
d="M69 0l528 714h75l-528 -714h-75zM205 558q4 21 10.5 45t11.5 41q-9 -8 -19 -16.5t-19 -15.5l-55 -37l-27 45l138 94h61l-92 -428h-67zM411 1l10 54l127 119q52 48 78.5 83t26.5 73q0 24 -13.5 38t-38.5 14q-23 0 -44.5 -10t-43.5 -28l-28 46q57 49 129 49q56 0 81.5 -30
t25.5 -69q0 -51 -29.5 -93.5t-87.5 -94.5l-101 -92h177l-13 -59h-256z" />
    <glyph glyph-name="threequarters" unicode="&#xbe;" horiz-adv-x="742" 
d="M149 279q-31 0 -58 6.5t-48 18.5v63q24 -14 51.5 -23t56.5 -9q46 0 70 22.5t24 60.5q0 63 -76 63h-41l12 54h40q44 0 70.5 21.5t26.5 56.5q0 55 -57 54q-25 0 -45.5 -8.5t-41.5 -22.5l-26 46q23 19 54.5 30.5t70.5 11.5q56 0 84 -28t28 -70q0 -45 -25.5 -73.5
t-71.5 -42.5v-4q30 -9 47.5 -32t17.5 -57q0 -60 -41 -99t-122 -39zM115 0l528 714h75l-528 -714h-75zM549 0l20 96h-166l10 50l224 285h69l-60 -278h56l-11 -57h-57l-20 -96h-65zM480 153h101l23 105q6 24 10.5 45t10.5 42q-8 -13 -22.5 -33.5t-25.5 -34.5z" />
    <glyph glyph-name="questiondown" unicode="&#xbf;" horiz-adv-x="378" 
d="M276 331q-9 -45 -21.5 -78t-33 -60.5t-53.5 -56.5q-31 -29 -56.5 -54t-41 -53t-15.5 -66q0 -40 21 -61t59 -21q34 0 65.5 12t60.5 27l26 -64q-37 -23 -79.5 -36t-84.5 -13q-71 0 -112.5 36t-41.5 107q0 67 35 117t96 102q36 30 56.5 52.5t31.5 47t19 62.5h69zM276 543
q48 0 48 -49q0 -32 -17.5 -57t-54.5 -25q-21 0 -33.5 13t-12.5 37q0 32 18 56.5t52 24.5z" />
    <glyph glyph-name="Agrave" unicode="&#xc0;" horiz-adv-x="504" 
d="M-60 0l355 715h97l57 -715h-86l-17 224h-204l-108 -224h-94zM179 301h163l-9 187q-2 33 -4 70t-2 66h-3q-12 -31 -27.5 -66t-33.5 -72zM360 787q-17 18 -37 45.5t-37.5 55.5t-26.5 49v10h93q10 -37 26 -75t35 -74l-1 -11h-52z" />
    <glyph glyph-name="Aacute" unicode="&#xc1;" horiz-adv-x="504" 
d="M-60 0l355 715h97l57 -715h-86l-17 224h-204l-108 -224h-94zM179 301h163l-9 187q-2 33 -4 70t-2 66h-3q-12 -31 -27.5 -66t-33.5 -72zM306 799q29 32 59.5 73.5t51.5 74.5h97v-9q-14 -18 -42 -47.5t-59 -58t-54 -45.5h-54z" />
    <glyph glyph-name="Acircumflex" unicode="&#xc2;" horiz-adv-x="504" 
d="M-60 0l355 715h97l57 -715h-86l-17 224h-204l-108 -224h-94zM179 301h163l-9 187q-2 33 -4 70t-2 66h-3q-12 -31 -27.5 -66t-33.5 -72zM207 799q19 19 44.5 45t49 53t38.5 50h79q7 -23 20 -50t27.5 -53t25.5 -45l-1 -12h-51q-16 17 -34 41t-36 51q-29 -28 -57.5 -51.5
t-52.5 -40.5h-53z" />
    <glyph glyph-name="Atilde" unicode="&#xc3;" horiz-adv-x="504" 
d="M-60 0l355 715h97l57 -715h-86l-17 224h-204l-108 -224h-94zM179 301h163l-9 187q-2 33 -4 70t-2 66h-3q-12 -31 -27.5 -66t-33.5 -72zM198 788q13 61 40 94t68 33q29 0 51.5 -14.5t41 -28.5t35.5 -14q20 0 31 13t21 45h52q-30 -127 -108 -127q-26 0 -48 14t-41.5 28.5
t-39.5 14.5q-19 0 -31 -15t-21 -43h-51z" />
    <glyph glyph-name="Adieresis" unicode="&#xc4;" horiz-adv-x="504" 
d="M-60 0l355 715h97l57 -715h-86l-17 224h-204l-108 -224h-94zM179 301h163l-9 187q-2 33 -4 70t-2 66h-3q-12 -31 -27.5 -66t-33.5 -72zM445 812q-18 0 -29 10t-11 30q0 24 14 42t39 18q38 0 38 -38q0 -28 -15.5 -45t-35.5 -17zM276 812q-17 0 -28 10t-11 30q0 24 13.5 42
t39.5 18q37 0 37 -38q0 -28 -15 -45t-36 -17z" />
    <glyph glyph-name="Aring" unicode="&#xc5;" horiz-adv-x="504" 
d="M-60 0l355 715h97l57 -715h-86l-17 224h-204l-108 -224h-94zM179 301h163l-9 187q-2 33 -4 70t-2 66h-3q-12 -31 -27.5 -66t-33.5 -72zM362 784q-48 0 -76.5 27.5t-28.5 75.5t30 75t75 27q48 0 77 -27t30 -73q0 -49 -30 -77t-77 -28zM363 832q25 0 40 15t15 40t-15 40
t-40 15t-40 -15t-15 -40t14 -40t41 -15z" />
    <glyph glyph-name="AE" unicode="&#xc6;" horiz-adv-x="725" 
d="M-61 0l413 714h415l-16 -76h-239l-48 -227h223l-15 -76h-224l-54 -259h238l-16 -76h-325l48 224h-178l-127 -224h-95zM206 302h149l71 335h-31z" />
    <glyph glyph-name="Ccedilla" unicode="&#xc7;" horiz-adv-x="513" 
d="M278 -10q-104 0 -161.5 67.5t-57.5 189.5q0 63 14 129.5t42 128.5t71 111.5t100.5 78.5t129.5 29q90 0 153 -38l-38 -71q-23 14 -51 23.5t-64 9.5q-55 0 -98 -25.5t-74.5 -67.5t-52.5 -94t-31.5 -106.5t-10.5 -103.5q0 -89 38 -137t108 -48q34 0 67.5 8t67.5 20v-77
q-35 -13 -70.5 -20t-81.5 -7zM191 -240q-31 0 -52 6v51q19 -5 43 -5q77 0 77 55q0 22 -18 33t-49 15l49 85h53l-32 -55q27 -7 46.5 -24.5t19.5 -51.5q0 -49 -36.5 -79t-100.5 -30z" />
    <glyph glyph-name="Egrave" unicode="&#xc8;" horiz-adv-x="460" 
d="M26 0l151 714h324l-16 -76h-239l-47 -227h222l-15 -76h-223l-56 -259h239l-16 -76h-324zM350 787q-17 18 -37 45.5t-37.5 55.5t-26.5 49v10h93q10 -37 26 -75t35 -74l-1 -11h-52z" />
    <glyph glyph-name="Eacute" unicode="&#xc9;" horiz-adv-x="460" 
d="M26 0l151 714h324l-16 -76h-239l-47 -227h222l-15 -76h-223l-56 -259h239l-16 -76h-324zM296 798q29 32 59.5 73.5t51.5 74.5h97v-9q-14 -18 -42 -47.5t-59 -58t-54 -45.5h-54z" />
    <glyph glyph-name="Ecircumflex" unicode="&#xca;" horiz-adv-x="460" 
d="M26 0l151 714h324l-16 -76h-239l-47 -227h222l-15 -76h-223l-56 -259h239l-16 -76h-324zM202 791q19 19 44.5 45t49 53t38.5 50h79q7 -23 20 -50t27.5 -53t25.5 -45l-1 -12h-51q-16 17 -34 41t-36 51q-29 -28 -57.5 -51.5t-52.5 -40.5h-53z" />
    <glyph glyph-name="Edieresis" unicode="&#xcb;" horiz-adv-x="460" 
d="M26 0l151 714h324l-16 -76h-239l-47 -227h222l-15 -76h-223l-56 -259h239l-16 -76h-324zM438 804q-18 0 -29 10t-11 30q0 24 14 42t39 18q38 0 38 -38q0 -28 -15.5 -45t-35.5 -17zM269 804q-17 0 -28 10t-11 30q0 24 13.5 42t39.5 18q37 0 37 -38q0 -28 -15 -45t-36 -17z
" />
    <glyph glyph-name="Igrave" unicode="&#xcc;" horiz-adv-x="301" 
d="M-31 0l10 48l82 18l124 582l-75 18l10 48h243l-10 -48l-83 -18l-123 -582l74 -18l-9 -48h-243zM258 787q-17 18 -37 45.5t-37.5 55.5t-26.5 49v10h93q10 -37 26 -75t35 -74l-1 -11h-52z" />
    <glyph glyph-name="Iacute" unicode="&#xcd;" horiz-adv-x="301" 
d="M-31 0l10 48l82 18l124 582l-75 18l10 48h243l-10 -48l-83 -18l-123 -582l74 -18l-9 -48h-243zM205 798q29 32 59.5 73.5t51.5 74.5h97v-9q-14 -18 -42 -47.5t-59 -58t-54 -45.5h-54z" />
    <glyph glyph-name="Icircumflex" unicode="&#xce;" horiz-adv-x="301" 
d="M-31 0l10 48l82 18l124 582l-75 18l10 48h243l-10 -48l-83 -18l-123 -582l74 -18l-9 -48h-243zM109 799q19 19 44.5 45t49 53t38.5 50h79q7 -23 20 -50t27.5 -53t25.5 -45l-1 -12h-51q-16 17 -34 41t-36 51q-29 -28 -57.5 -51.5t-52.5 -40.5h-53z" />
    <glyph glyph-name="Idieresis" unicode="&#xcf;" horiz-adv-x="301" 
d="M-31 0l10 48l82 18l124 582l-75 18l10 48h243l-10 -48l-83 -18l-123 -582l74 -18l-9 -48h-243zM346 812q-18 0 -29 10t-11 30q0 24 14 42t39 18q38 0 38 -38q0 -28 -15.5 -45t-35.5 -17zM177 812q-17 0 -28 10t-11 30q0 24 13.5 42t39.5 18q37 0 37 -38q0 -28 -15 -45
t-36 -17z" />
    <glyph glyph-name="Eth" unicode="&#xd0;" horiz-adv-x="593" 
d="M26 0l68 323h-65l16 73h65l67 318h150q114 0 177.5 -64t63.5 -194q0 -89 -24 -170.5t-72.5 -146t-121 -102t-169.5 -37.5h-155zM188 76q72 0 126.5 31.5t90.5 85.5t54 122t18 140q0 97 -43 140t-117 43h-70l-51 -242h130l-16 -73h-130l-53 -247h61z" />
    <glyph glyph-name="Ntilde" unicode="&#xd1;" horiz-adv-x="636" 
d="M25 0l151 714h95l173 -582h3q6 42 16 95.5t19 96.5l83 390h82l-151 -714h-94l-175 587h-3q-3 -27 -9.5 -64t-14 -75t-13.5 -68l-80 -380h-82zM266 780q13 61 40 94t68 33q29 0 51.5 -14.5t41 -28.5t35.5 -14q20 0 31 13t21 45h52q-30 -127 -108 -127q-26 0 -48 14
t-41.5 28.5t-39.5 14.5q-19 0 -31 -15t-21 -43h-51z" />
    <glyph glyph-name="Ograve" unicode="&#xd2;" horiz-adv-x="639" 
d="M283 -10q-110 0 -167.5 66t-57.5 186q0 89 22.5 174.5t65.5 155t105.5 111.5t142.5 42q106 0 162.5 -66t56.5 -186q0 -68 -13 -136.5t-39 -131t-65.5 -111t-92.5 -76.5t-120 -28zM288 67q56 0 100 36.5t74 97t45.5 132t15.5 141.5q0 85 -35.5 129.5t-99.5 44.5
q-47 0 -85 -24.5t-66.5 -66.5t-48 -94.5t-29.5 -109t-10 -110.5q0 -86 36.5 -131t102.5 -45zM428 787q-17 18 -37 45.5t-37.5 55.5t-26.5 49v10h93q10 -37 26 -75t35 -74l-1 -11h-52z" />
    <glyph glyph-name="Oacute" unicode="&#xd3;" horiz-adv-x="639" 
d="M283 -10q-110 0 -167.5 66t-57.5 186q0 89 22.5 174.5t65.5 155t105.5 111.5t142.5 42q106 0 162.5 -66t56.5 -186q0 -68 -13 -136.5t-39 -131t-65.5 -111t-92.5 -76.5t-120 -28zM288 67q56 0 100 36.5t74 97t45.5 132t15.5 141.5q0 85 -35.5 129.5t-99.5 44.5
q-47 0 -85 -24.5t-66.5 -66.5t-48 -94.5t-29.5 -109t-10 -110.5q0 -86 36.5 -131t102.5 -45zM374 798q29 32 59.5 73.5t51.5 74.5h97v-9q-14 -18 -42 -47.5t-59 -58t-54 -45.5h-54z" />
    <glyph glyph-name="Ocircumflex" unicode="&#xd4;" horiz-adv-x="639" 
d="M283 -10q-110 0 -167.5 66t-57.5 186q0 89 22.5 174.5t65.5 155t105.5 111.5t142.5 42q106 0 162.5 -66t56.5 -186q0 -68 -13 -136.5t-39 -131t-65.5 -111t-92.5 -76.5t-120 -28zM288 67q56 0 100 36.5t74 97t45.5 132t15.5 141.5q0 85 -35.5 129.5t-99.5 44.5
q-47 0 -85 -24.5t-66.5 -66.5t-48 -94.5t-29.5 -109t-10 -110.5q0 -86 36.5 -131t102.5 -45zM273 791q19 19 44.5 45t49 53t38.5 50h79q7 -23 20 -50t27.5 -53t25.5 -45l-1 -12h-51q-16 17 -34 41t-36 51q-29 -28 -57.5 -51.5t-52.5 -40.5h-53z" />
    <glyph glyph-name="Otilde" unicode="&#xd5;" horiz-adv-x="639" 
d="M283 -10q-110 0 -167.5 66t-57.5 186q0 89 22.5 174.5t65.5 155t105.5 111.5t142.5 42q106 0 162.5 -66t56.5 -186q0 -68 -13 -136.5t-39 -131t-65.5 -111t-92.5 -76.5t-120 -28zM288 67q56 0 100 36.5t74 97t45.5 132t15.5 141.5q0 85 -35.5 129.5t-99.5 44.5
q-47 0 -85 -24.5t-66.5 -66.5t-48 -94.5t-29.5 -109t-10 -110.5q0 -86 36.5 -131t102.5 -45zM264 780q13 61 40 94t68 33q29 0 51.5 -14.5t41 -28.5t35.5 -14q20 0 31 13t21 45h52q-30 -127 -108 -127q-26 0 -48 14t-41.5 28.5t-39.5 14.5q-19 0 -31 -15t-21 -43h-51z" />
    <glyph glyph-name="Odieresis" unicode="&#xd6;" horiz-adv-x="639" 
d="M283 -10q-110 0 -167.5 66t-57.5 186q0 89 22.5 174.5t65.5 155t105.5 111.5t142.5 42q106 0 162.5 -66t56.5 -186q0 -68 -13 -136.5t-39 -131t-65.5 -111t-92.5 -76.5t-120 -28zM288 67q56 0 100 36.5t74 97t45.5 132t15.5 141.5q0 85 -35.5 129.5t-99.5 44.5
q-47 0 -85 -24.5t-66.5 -66.5t-48 -94.5t-29.5 -109t-10 -110.5q0 -86 36.5 -131t102.5 -45zM524 812q-18 0 -29 10t-11 30q0 24 14 42t39 18q38 0 38 -38q0 -28 -15.5 -45t-35.5 -17zM355 812q-17 0 -28 10t-11 30q0 24 13.5 42t39.5 18q37 0 37 -38q0 -28 -15 -45t-36 -17
z" />
    <glyph glyph-name="multiply" unicode="&#xd7;" horiz-adv-x="520" 
d="M434 560l49 -49l-158 -158l156 -158l-48 -49l-158 157l-156 -157l-50 49l157 158l-157 157l49 50l157 -158z" />
    <glyph glyph-name="Oslash" unicode="&#xd8;" horiz-adv-x="639" 
d="M84 -44l-52 39l66 89q-20 31 -30 71t-10 87q0 89 22.5 174.5t65.5 155t105.5 111.5t143.5 42q84 0 140 -50l58 79l53 -39l-69 -92q18 -28 27 -67t9 -83q0 -68 -13 -136.5t-39 -131t-65.5 -111t-92.5 -76.5t-120 -28q-85 0 -140 45zM483 605q-35 44 -95 44q-58 0 -102 -36
t-74.5 -95t-46 -128.5t-16.5 -136.5q0 -47 12 -83zM288 67q55 0 98.5 35t73.5 93.5t46 128.5t17 140q0 21 -2.5 39t-7.5 33l-320 -431q34 -38 95 -38z" />
    <glyph glyph-name="Ugrave" unicode="&#xd9;" horiz-adv-x="602" 
d="M255 -10q-96 0 -144.5 47t-48.5 133q0 18 3 41.5t8 49.5l97 453h86l-98 -457q-5 -22 -7.5 -44.5t-2.5 -37.5q0 -52 28.5 -80t84.5 -28q75 0 113 43.5t58 132.5l101 471h85l-102 -478q-16 -76 -47 -131t-83.5 -85t-130.5 -30zM409 787q-17 18 -37 45.5t-37.5 55.5
t-26.5 49v10h93q10 -37 26 -75t35 -74l-1 -11h-52z" />
    <glyph glyph-name="Uacute" unicode="&#xda;" horiz-adv-x="602" 
d="M255 -10q-96 0 -144.5 47t-48.5 133q0 18 3 41.5t8 49.5l97 453h86l-98 -457q-5 -22 -7.5 -44.5t-2.5 -37.5q0 -52 28.5 -80t84.5 -28q75 0 113 43.5t58 132.5l101 471h85l-102 -478q-16 -76 -47 -131t-83.5 -85t-130.5 -30zM356 798q29 32 59.5 73.5t51.5 74.5h97v-9
q-14 -18 -42 -47.5t-59 -58t-54 -45.5h-54z" />
    <glyph glyph-name="Ucircumflex" unicode="&#xdb;" horiz-adv-x="602" 
d="M255 -10q-96 0 -144.5 47t-48.5 133q0 18 3 41.5t8 49.5l97 453h86l-98 -457q-5 -22 -7.5 -44.5t-2.5 -37.5q0 -52 28.5 -80t84.5 -28q75 0 113 43.5t58 132.5l101 471h85l-102 -478q-16 -76 -47 -131t-83.5 -85t-130.5 -30zM258 791q19 19 44.5 45t49 53t38.5 50h79
q7 -23 20 -50t27.5 -53t25.5 -45l-1 -12h-51q-16 17 -34 41t-36 51q-29 -28 -57.5 -51.5t-52.5 -40.5h-53z" />
    <glyph glyph-name="Udieresis" unicode="&#xdc;" horiz-adv-x="602" 
d="M255 -10q-96 0 -144.5 47t-48.5 133q0 18 3 41.5t8 49.5l97 453h86l-98 -457q-5 -22 -7.5 -44.5t-2.5 -37.5q0 -52 28.5 -80t84.5 -28q75 0 113 43.5t58 132.5l101 471h85l-102 -478q-16 -76 -47 -131t-83.5 -85t-130.5 -30zM506 812q-18 0 -29 10t-11 30q0 24 14 42
t39 18q38 0 38 -38q0 -28 -15.5 -45t-35.5 -17zM337 812q-17 0 -28 10t-11 30q0 24 13.5 42t39.5 18q37 0 37 -38q0 -28 -15 -45t-36 -17z" />
    <glyph glyph-name="Yacute" unicode="&#xdd;" horiz-adv-x="453" 
d="M122 0l58 271l-91 443h87l63 -348l209 348h95l-278 -445l-57 -269h-86zM282 798q29 32 59.5 73.5t51.5 74.5h97v-9q-14 -18 -42 -47.5t-59 -58t-54 -45.5h-54z" />
    <glyph glyph-name="Thorn" unicode="&#xde;" horiz-adv-x="506" 
d="M26 0l151 714h86l-26 -124h55q102 0 149 -47.5t47 -127.5q0 -119 -74 -189.5t-213 -70.5h-57l-32 -155h-86zM210 230q89 0 139.5 45.5t50.5 133.5q0 56 -29.5 81t-90.5 25h-60l-60 -285h50z" />
    <glyph glyph-name="germandbls" unicode="&#xdf;" horiz-adv-x="521" 
d="M-71 -240q-33 0 -58 9v73q24 -9 50 -9q32 0 50.5 24.5t30.5 79.5l135 636q20 95 71.5 143.5t138.5 48.5q72 0 113.5 -33.5t41.5 -92.5q0 -50 -26 -85t-62 -66q-30 -26 -52.5 -49t-22.5 -52q0 -22 19 -42.5t33 -37.5q31 -30 50 -61.5t19 -76.5q0 -59 -25 -99t-67 -60
t-94 -20q-38 0 -68 8.5t-49 22.5l4 79q20 -16 48.5 -27.5t58.5 -11.5q51 0 78 28.5t27 70.5q0 31 -13 53.5t-41 51.5q-34 33 -49 59.5t-15 55.5q0 46 25 77t58 58t56.5 53t23.5 64q0 30 -21.5 46t-56.5 16q-50 0 -78.5 -31t-41.5 -92l-134 -632q-11 -54 -29.5 -94t-49 -62.5
t-78.5 -22.5z" />
    <glyph glyph-name="agrave" unicode="&#xe0;" horiz-adv-x="515" 
d="M170 -10q-60 0 -95 43.5t-35 127.5q0 68 16.5 136t48.5 124.5t77.5 90.5t102.5 34q46 0 75 -25t43 -62h5l28 77h67l-114 -536h-67l10 91h-3q-32 -43 -71.5 -72t-87.5 -29zM197 61q36 0 67.5 27t56 71.5t38.5 96.5q9 36 13 65.5t4 55.5q0 44 -22 70.5t-60 26.5
q-37 0 -68 -28t-53.5 -74t-34.5 -101t-12 -110q0 -100 71 -100zM327 609q-17 18 -37 45.5t-37.5 55.5t-26.5 49v10h93q10 -37 26 -75t35 -74l-1 -11h-52z" />
    <glyph glyph-name="aacute" unicode="&#xe1;" horiz-adv-x="515" 
d="M170 -10q-60 0 -95 43.5t-35 127.5q0 68 16.5 136t48.5 124.5t77.5 90.5t102.5 34q46 0 75 -25t43 -62h5l28 77h67l-114 -536h-67l10 91h-3q-32 -43 -71.5 -72t-87.5 -29zM197 61q36 0 67.5 27t56 71.5t38.5 96.5q9 36 13 65.5t4 55.5q0 44 -22 70.5t-60 26.5
q-37 0 -68 -28t-53.5 -74t-34.5 -101t-12 -110q0 -100 71 -100zM274 620q29 32 59.5 73.5t51.5 74.5h97v-9q-14 -18 -42 -47.5t-59 -58t-54 -45.5h-54z" />
    <glyph glyph-name="acircumflex" unicode="&#xe2;" horiz-adv-x="515" 
d="M170 -10q-60 0 -95 43.5t-35 127.5q0 68 16.5 136t48.5 124.5t77.5 90.5t102.5 34q46 0 75 -25t43 -62h5l28 77h67l-114 -536h-67l10 91h-3q-32 -43 -71.5 -72t-87.5 -29zM197 61q36 0 67.5 27t56 71.5t38.5 96.5q9 36 13 65.5t4 55.5q0 44 -22 70.5t-60 26.5
q-37 0 -68 -28t-53.5 -74t-34.5 -101t-12 -110q0 -100 71 -100zM180 619q19 19 44.5 45t49 53t38.5 50h79q7 -23 20 -50t27.5 -53t25.5 -45l-1 -12h-51q-16 17 -34 41t-36 51q-29 -28 -57.5 -51.5t-52.5 -40.5h-53z" />
    <glyph glyph-name="atilde" unicode="&#xe3;" horiz-adv-x="515" 
d="M170 -10q-60 0 -95 43.5t-35 127.5q0 68 16.5 136t48.5 124.5t77.5 90.5t102.5 34q46 0 75 -25t43 -62h5l28 77h67l-114 -536h-67l10 91h-3q-32 -43 -71.5 -72t-87.5 -29zM197 61q36 0 67.5 27t56 71.5t38.5 96.5q9 36 13 65.5t4 55.5q0 44 -22 70.5t-60 26.5
q-37 0 -68 -28t-53.5 -74t-34.5 -101t-12 -110q0 -100 71 -100zM171 608q13 61 40 94t68 33q29 0 51.5 -14.5t41 -28.5t35.5 -14q20 0 31 13t21 45h52q-30 -127 -108 -127q-26 0 -48 14t-41.5 28.5t-39.5 14.5q-19 0 -31 -15t-21 -43h-51z" />
    <glyph glyph-name="adieresis" unicode="&#xe4;" horiz-adv-x="515" 
d="M170 -10q-60 0 -95 43.5t-35 127.5q0 68 16.5 136t48.5 124.5t77.5 90.5t102.5 34q46 0 75 -25t43 -62h5l28 77h67l-114 -536h-67l10 91h-3q-32 -43 -71.5 -72t-87.5 -29zM197 61q36 0 67.5 27t56 71.5t38.5 96.5q9 36 13 65.5t4 55.5q0 44 -22 70.5t-60 26.5
q-37 0 -68 -28t-53.5 -74t-34.5 -101t-12 -110q0 -100 71 -100zM418 632q-18 0 -29 10t-11 30q0 24 14 42t39 18q38 0 38 -38q0 -28 -15.5 -45t-35.5 -17zM249 632q-17 0 -28 10t-11 30q0 24 13.5 42t39.5 18q37 0 37 -38q0 -28 -15 -45t-36 -17z" />
    <glyph glyph-name="aring" unicode="&#xe5;" horiz-adv-x="515" 
d="M170 -10q-60 0 -95 43.5t-35 127.5q0 68 16.5 136t48.5 124.5t77.5 90.5t102.5 34q46 0 75 -25t43 -62h5l28 77h67l-114 -536h-67l10 91h-3q-32 -43 -71.5 -72t-87.5 -29zM197 61q36 0 67.5 27t56 71.5t38.5 96.5q9 36 13 65.5t4 55.5q0 44 -22 70.5t-60 26.5
q-37 0 -68 -28t-53.5 -74t-34.5 -101t-12 -110q0 -100 71 -100zM336 607q-48 0 -76.5 27.5t-28.5 75.5t30 75t75 27q48 0 77 -27t30 -73q0 -49 -30 -77t-77 -28zM337 655q25 0 40 15t15 40t-15 40t-40 15t-40 -15t-15 -40t14 -40t41 -15z" />
    <glyph glyph-name="ae" unicode="&#xe6;" horiz-adv-x="745" 
d="M158 -10q-54 0 -86.5 43.5t-32.5 126.5q0 74 18 143t50.5 124t76.5 87t96 32q41 0 67.5 -24t40.5 -61h4l27 75h56l-13 -66q23 32 59 54t84 22q51 0 86.5 -30t35.5 -90q0 -83 -71 -137t-218 -54h-15q-2 -12 -3 -25.5t-1 -26.5q0 -57 25.5 -90t82.5 -33q33 0 64.5 10.5
t66.5 28.5l-3 -74q-35 -18 -69.5 -26.5t-74.5 -8.5q-48 0 -83 19.5t-51 56.5l-13 -66h-59l12 89h-3q-34 -45 -70.5 -72t-85.5 -27zM442 302q89 0 146 29t57 88q0 29 -16 43t-41 14q-50 0 -90.5 -47t-62.5 -127h7zM187 61q34 0 64 26t54 70t38 99q9 35 13 65.5t4 56.5
q0 44 -18 70t-51 26q-35 0 -65 -27t-52.5 -72t-35 -100.5t-12.5 -113.5q0 -100 61 -100z" />
    <glyph glyph-name="ccedilla" unicode="&#xe7;" horiz-adv-x="403" 
d="M213 -10q-80 0 -126.5 46.5t-46.5 139.5q0 67 17 133t50.5 119.5t82.5 85.5t112 32q65 0 117 -25l-27 -70q-17 9 -40 16t-49 7q-42 0 -74.5 -25.5t-55.5 -68.5t-35 -95t-12 -105q0 -58 26 -88.5t73 -30.5q29 0 56.5 9t54.5 22v-71q-24 -14 -55.5 -22.5t-67.5 -8.5z
M113 -240q-31 0 -52 6v51q19 -5 43 -5q77 0 77 55q0 22 -18 33t-49 15l49 85h53l-32 -55q27 -7 46.5 -24.5t19.5 -51.5q0 -49 -36.5 -79t-100.5 -30z" />
    <glyph glyph-name="egrave" unicode="&#xe8;" horiz-adv-x="456" 
d="M213 -10q-83 0 -128.5 50t-45.5 138q0 70 18 136t52 118t81 83t104 31q66 0 101.5 -31.5t35.5 -88.5q0 -82 -71 -136.5t-219 -54.5h-13q-2 -12 -3 -25.5t-1 -26.5q0 -59 26 -91t81 -32q33 0 63 9.5t66 27.5v-71q-33 -17 -67.5 -26.5t-79.5 -9.5zM146 302q90 0 147 29
t57 89q0 25 -15.5 40.5t-47.5 15.5q-45 0 -85.5 -47t-61.5 -127h6zM302 606q-17 18 -37 45.5t-37.5 55.5t-26.5 49v10h93q10 -37 26 -75t35 -74l-1 -11h-52z" />
    <glyph glyph-name="eacute" unicode="&#xe9;" horiz-adv-x="456" 
d="M213 -10q-83 0 -128.5 50t-45.5 138q0 70 18 136t52 118t81 83t104 31q66 0 101.5 -31.5t35.5 -88.5q0 -82 -71 -136.5t-219 -54.5h-13q-2 -12 -3 -25.5t-1 -26.5q0 -59 26 -91t81 -32q33 0 63 9.5t66 27.5v-71q-33 -17 -67.5 -26.5t-79.5 -9.5zM146 302q90 0 147 29
t57 89q0 25 -15.5 40.5t-47.5 15.5q-45 0 -85.5 -47t-61.5 -127h6zM249 618q29 32 59.5 73.5t51.5 74.5h97v-9q-14 -18 -42 -47.5t-59 -58t-54 -45.5h-54z" />
    <glyph glyph-name="ecircumflex" unicode="&#xea;" horiz-adv-x="456" 
d="M213 -10q-83 0 -128.5 50t-45.5 138q0 70 18 136t52 118t81 83t104 31q66 0 101.5 -31.5t35.5 -88.5q0 -82 -71 -136.5t-219 -54.5h-13q-2 -12 -3 -25.5t-1 -26.5q0 -59 26 -91t81 -32q33 0 63 9.5t66 27.5v-71q-33 -17 -67.5 -26.5t-79.5 -9.5zM146 302q90 0 147 29
t57 89q0 25 -15.5 40.5t-47.5 15.5q-45 0 -85.5 -47t-61.5 -127h6zM158 618q19 19 44.5 45t49 53t38.5 50h79q7 -23 20 -50t27.5 -53t25.5 -45l-1 -12h-51q-16 17 -34 41t-36 51q-29 -28 -57.5 -51.5t-52.5 -40.5h-53z" />
    <glyph glyph-name="edieresis" unicode="&#xeb;" horiz-adv-x="456" 
d="M213 -10q-83 0 -128.5 50t-45.5 138q0 70 18 136t52 118t81 83t104 31q66 0 101.5 -31.5t35.5 -88.5q0 -82 -71 -136.5t-219 -54.5h-13q-2 -12 -3 -25.5t-1 -26.5q0 -59 26 -91t81 -32q33 0 63 9.5t66 27.5v-71q-33 -17 -67.5 -26.5t-79.5 -9.5zM146 302q90 0 147 29
t57 89q0 25 -15.5 40.5t-47.5 15.5q-45 0 -85.5 -47t-61.5 -127h6zM397 631q-18 0 -29 10t-11 30q0 24 14 42t39 18q38 0 38 -38q0 -28 -15.5 -45t-35.5 -17zM228 631q-17 0 -28 10t-11 30q0 24 13.5 42t39.5 18q37 0 37 -38q0 -28 -15 -45t-36 -17z" />
    <glyph glyph-name="igrave" unicode="&#xec;" horiz-adv-x="234" 
d="M17 0l114 536h84l-114 -536h-84zM187 609q-17 18 -37 45.5t-37.5 55.5t-26.5 49v10h93q10 -37 26 -75t35 -74l-1 -11h-52z" />
    <glyph glyph-name="iacute" unicode="&#xed;" horiz-adv-x="234" 
d="M17 0l114 536h84l-114 -536h-84zM134 620q29 32 59.5 73.5t51.5 74.5h97v-9q-14 -18 -42 -47.5t-59 -58t-54 -45.5h-54z" />
    <glyph glyph-name="icircumflex" unicode="&#xee;" horiz-adv-x="234" 
d="M17 0l114 536h84l-114 -536h-84zM38 618q19 19 44.5 45t49 53t38.5 50h79q7 -23 20 -50t27.5 -53t25.5 -45l-1 -12h-51q-16 17 -34 41t-36 51q-29 -28 -57.5 -51.5t-52.5 -40.5h-53z" />
    <glyph glyph-name="idieresis" unicode="&#xef;" horiz-adv-x="234" 
d="M17 0l114 536h84l-114 -536h-84zM276 631q-18 0 -29 10t-11 30q0 24 14 42t39 18q38 0 38 -38q0 -28 -15.5 -45t-35.5 -17zM107 631q-17 0 -28 10t-11 30q0 24 13.5 42t39.5 18q37 0 37 -38q0 -28 -15 -45t-36 -17z" />
    <glyph glyph-name="eth" unicode="&#xf0;" horiz-adv-x="509" 
d="M201 -10q-80 0 -125 47t-45 134q0 54 16 107.5t46.5 97.5t75 70.5t100.5 26.5q51 0 79 -24t40 -57l3 1q0 62 -13 116t-53 103l-118 -67l-27 49l107 61q-28 29 -69 57l44 54q23 -15 46.5 -32.5t45.5 -39.5l115 67l30 -48l-107 -62q34 -48 54.5 -107t20.5 -137
q0 -54 -8.5 -112.5t-27 -112.5t-49.5 -97.5t-75.5 -69t-105.5 -25.5zM207 61q43 0 73.5 23t50 59.5t28.5 75.5t9 72q0 44 -22 78t-73 34q-40 0 -69.5 -20.5t-48.5 -54.5t-28.5 -74.5t-9.5 -80.5q0 -52 21 -82t69 -30z" />
    <glyph glyph-name="ntilde" unicode="&#xf1;" horiz-adv-x="517" 
d="M15 0l114 538h73l-11 -89h2q26 38 64.5 68.5t93.5 30.5q56 0 89.5 -31.5t33.5 -91.5q0 -22 -4 -47t-9 -46l-71 -332h-88l71 336q5 23 8.5 42t3.5 35q0 58 -59 58q-48 0 -96 -51.5t-73 -167.5l-54 -252h-88zM172 608q13 61 40 94t68 33q29 0 51.5 -14.5t41 -28.5t35.5 -14
q20 0 31 13t21 45h52q-30 -127 -108 -127q-26 0 -48 14t-41.5 28.5t-39.5 14.5q-19 0 -31 -15t-21 -43h-51z" />
    <glyph glyph-name="ograve" unicode="&#xf2;" horiz-adv-x="506" 
d="M213 -9q-81 0 -127 50.5t-46 139.5q0 58 15 121t46 118t79 89.5t114 34.5q81 0 127 -50.5t46 -140.5q0 -62 -16 -125.5t-47.5 -117t-79 -86.5t-111.5 -33zM219 62q35 0 64.5 24t51.5 66t34 95.5t12 112.5q0 44 -21 78.5t-69 34.5q-40 0 -71 -26.5t-52.5 -70.5t-32 -95.5
t-10.5 -101.5q0 -56 24 -86.5t70 -30.5zM312 606q-17 18 -37 45.5t-37.5 55.5t-26.5 49v10h93q10 -37 26 -75t35 -74l-1 -11h-52z" />
    <glyph glyph-name="oacute" unicode="&#xf3;" horiz-adv-x="506" 
d="M213 -9q-81 0 -127 50.5t-46 139.5q0 58 15 121t46 118t79 89.5t114 34.5q81 0 127 -50.5t46 -140.5q0 -62 -16 -125.5t-47.5 -117t-79 -86.5t-111.5 -33zM219 62q35 0 64.5 24t51.5 66t34 95.5t12 112.5q0 44 -21 78.5t-69 34.5q-40 0 -71 -26.5t-52.5 -70.5t-32 -95.5
t-10.5 -101.5q0 -56 24 -86.5t70 -30.5zM259 618q29 32 59.5 73.5t51.5 74.5h97v-9q-14 -18 -42 -47.5t-59 -58t-54 -45.5h-54z" />
    <glyph glyph-name="ocircumflex" unicode="&#xf4;" horiz-adv-x="506" 
d="M213 -9q-81 0 -127 50.5t-46 139.5q0 58 15 121t46 118t79 89.5t114 34.5q81 0 127 -50.5t46 -140.5q0 -62 -16 -125.5t-47.5 -117t-79 -86.5t-111.5 -33zM219 62q35 0 64.5 24t51.5 66t34 95.5t12 112.5q0 44 -21 78.5t-69 34.5q-40 0 -71 -26.5t-52.5 -70.5t-32 -95.5
t-10.5 -101.5q0 -56 24 -86.5t70 -30.5zM163 618q19 19 44.5 45t49 53t38.5 50h79q7 -23 20 -50t27.5 -53t25.5 -45l-1 -12h-51q-16 17 -34 41t-36 51q-29 -28 -57.5 -51.5t-52.5 -40.5h-53z" />
    <glyph glyph-name="otilde" unicode="&#xf5;" horiz-adv-x="506" 
d="M213 -9q-81 0 -127 50.5t-46 139.5q0 58 15 121t46 118t79 89.5t114 34.5q81 0 127 -50.5t46 -140.5q0 -62 -16 -125.5t-47.5 -117t-79 -86.5t-111.5 -33zM219 62q35 0 64.5 24t51.5 66t34 95.5t12 112.5q0 44 -21 78.5t-69 34.5q-40 0 -71 -26.5t-52.5 -70.5t-32 -95.5
t-10.5 -101.5q0 -56 24 -86.5t70 -30.5zM151 607q13 61 40 94t68 33q29 0 51.5 -14.5t41 -28.5t35.5 -14q20 0 31 13t21 45h52q-30 -127 -108 -127q-26 0 -48 14t-41.5 28.5t-39.5 14.5q-19 0 -31 -15t-21 -43h-51z" />
    <glyph glyph-name="odieresis" unicode="&#xf6;" horiz-adv-x="506" 
d="M213 -9q-81 0 -127 50.5t-46 139.5q0 58 15 121t46 118t79 89.5t114 34.5q81 0 127 -50.5t46 -140.5q0 -62 -16 -125.5t-47.5 -117t-79 -86.5t-111.5 -33zM219 62q35 0 64.5 24t51.5 66t34 95.5t12 112.5q0 44 -21 78.5t-69 34.5q-40 0 -71 -26.5t-52.5 -70.5t-32 -95.5
t-10.5 -101.5q0 -56 24 -86.5t70 -30.5zM400 631q-18 0 -29 10t-11 30q0 24 14 42t39 18q38 0 38 -38q0 -28 -15.5 -45t-35.5 -17zM231 631q-17 0 -28 10t-11 30q0 24 13.5 42t39.5 18q37 0 37 -38q0 -28 -15 -45t-36 -17z" />
    <glyph glyph-name="divide" unicode="&#xf7;" horiz-adv-x="520" 
d="M276 465q-24 0 -39 14.5t-15 46.5q0 33 15 47t39 14q23 0 38 -14t15 -47q0 -32 -15.5 -46.5t-37.5 -14.5zM59 318v70h433v-70h-433zM276 118q-24 0 -39 14.5t-15 46.5q0 33 15 47t39 14q23 0 38 -14t15 -47q0 -32 -15.5 -46.5t-37.5 -14.5z" />
    <glyph glyph-name="oslash" unicode="&#xf8;" horiz-adv-x="506" 
d="M62 -46l-49 35l56 76q-29 46 -29 116q0 45 9.5 95t29 97.5t50 86t71.5 61.5t94 23q64 0 106 -32l47 64l49 -34l-56 -72q13 -21 19.5 -51t6.5 -61q0 -46 -9.5 -96.5t-29.5 -98.5t-49.5 -87t-70.5 -62t-93 -23q-61 0 -104 30zM354 449q-10 11 -25 18.5t-38 7.5
q-38 0 -69 -25t-53 -66.5t-34 -91.5t-13 -100q0 -33 6 -49zM219 60q46 0 82.5 39t58.5 103t23 140q1 29 -4 44l-223 -303q22 -23 63 -23z" />
    <glyph glyph-name="ugrave" unicode="&#xf9;" horiz-adv-x="518" 
d="M164 -10q-56 0 -88 31.5t-32 90.5q0 21 3.5 43t7.5 44l72 337h85l-73 -340q-9 -44 -9 -72q0 -29 14 -45.5t45 -16.5q33 0 66 23t61.5 72t44.5 127l54 252h83l-114 -536h-68l9 88h-4q-26 -37 -65 -67.5t-92 -30.5zM329 606q-17 18 -37 45.5t-37.5 55.5t-26.5 49v10h93
q10 -37 26 -75t35 -74l-1 -11h-52z" />
    <glyph glyph-name="uacute" unicode="&#xfa;" horiz-adv-x="518" 
d="M164 -10q-56 0 -88 31.5t-32 90.5q0 21 3.5 43t7.5 44l72 337h85l-73 -340q-9 -44 -9 -72q0 -29 14 -45.5t45 -16.5q33 0 66 23t61.5 72t44.5 127l54 252h83l-114 -536h-68l9 88h-4q-26 -37 -65 -67.5t-92 -30.5zM276 618q29 32 59.5 73.5t51.5 74.5h97v-9
q-14 -18 -42 -47.5t-59 -58t-54 -45.5h-54z" />
    <glyph glyph-name="ucircumflex" unicode="&#xfb;" horiz-adv-x="518" 
d="M164 -10q-56 0 -88 31.5t-32 90.5q0 21 3.5 43t7.5 44l72 337h85l-73 -340q-9 -44 -9 -72q0 -29 14 -45.5t45 -16.5q33 0 66 23t61.5 72t44.5 127l54 252h83l-114 -536h-68l9 88h-4q-26 -37 -65 -67.5t-92 -30.5zM181 618q19 19 44.5 45t49 53t38.5 50h79q7 -23 20 -50
t27.5 -53t25.5 -45l-1 -12h-51q-16 17 -34 41t-36 51q-29 -28 -57.5 -51.5t-52.5 -40.5h-53z" />
    <glyph glyph-name="udieresis" unicode="&#xfc;" horiz-adv-x="518" 
d="M164 -10q-56 0 -88 31.5t-32 90.5q0 21 3.5 43t7.5 44l72 337h85l-73 -340q-9 -44 -9 -72q0 -29 14 -45.5t45 -16.5q33 0 66 23t61.5 72t44.5 127l54 252h83l-114 -536h-68l9 88h-4q-26 -37 -65 -67.5t-92 -30.5zM416 631q-18 0 -29 10t-11 30q0 24 14 42t39 18
q38 0 38 -38q0 -28 -15.5 -45t-35.5 -17zM247 631q-17 0 -28 10t-11 30q0 24 13.5 42t39.5 18q37 0 37 -38q0 -28 -15 -45t-36 -17z" />
    <glyph glyph-name="yacute" unicode="&#xfd;" horiz-adv-x="420" 
d="M-31 -240q-21 0 -35.5 2.5t-27.5 7.5l4 70q12 -4 26 -6.5t29 -2.5q37 0 61.5 24.5t47.5 69.5l36 71l-56 540h84l22 -277q5 -42 6.5 -91t0.5 -80h3q7 18 18.5 45.5t24 55.5t21.5 47l147 300h89l-318 -631q-37 -70 -77 -107.5t-106 -37.5zM215 618q29 32 59.5 73.5
t51.5 74.5h97v-9q-14 -18 -42 -47.5t-59 -58t-54 -45.5h-54z" />
    <glyph glyph-name="thorn" unicode="&#xfe;" horiz-adv-x="520" 
d="M-32 -237l211 997h84l-45 -207q-7 -31 -13.5 -58t-12.5 -47h3q32 41 69.5 69t86.5 28q60 0 95 -43t35 -127q0 -67 -16 -135t-47.5 -124.5t-76.5 -91t-104 -34.5q-47 0 -77 25t-44 61h-4q-1 -16 -4.5 -41t-7.5 -41l-49 -231h-83zM229 61q39 0 69.5 29.5t52 77t33 102.5
t11.5 105q0 100 -73 100q-33 0 -65.5 -27.5t-58 -72.5t-39.5 -99q-7 -30 -11 -60t-4 -57q0 -45 20.5 -71.5t64.5 -26.5z" />
    <glyph glyph-name="ydieresis" unicode="&#xff;" horiz-adv-x="420" 
d="M-31 -240q-21 0 -35.5 2.5t-27.5 7.5l4 70q12 -4 26 -6.5t29 -2.5q37 0 61.5 24.5t47.5 69.5l36 71l-56 540h84l22 -277q5 -42 6.5 -91t0.5 -80h3q7 18 18.5 45.5t24 55.5t21.5 47l147 300h89l-318 -631q-37 -70 -77 -107.5t-106 -37.5zM355 631q-18 0 -29 10t-11 30
q0 24 14 42t39 18q38 0 38 -38q0 -28 -15.5 -45t-35.5 -17zM186 631q-17 0 -28 10t-11 30q0 24 13.5 42t39.5 18q37 0 37 -38q0 -28 -15 -45t-36 -17z" />
    <glyph glyph-name="Amacron" unicode="&#x100;" horiz-adv-x="504" 
d="M-60 0l355 715h97l57 -715h-86l-17 224h-204l-108 -224h-94zM179 301h163l-9 187q-2 33 -4 70t-2 66h-3q-12 -31 -27.5 -66t-33.5 -72zM222 788l14 67h259l-15 -67h-258z" />
    <glyph glyph-name="amacron" unicode="&#x101;" horiz-adv-x="515" 
d="M170 -10q-60 0 -95 43.5t-35 127.5q0 68 16.5 136t48.5 124.5t77.5 90.5t102.5 34q46 0 75 -25t43 -62h5l28 77h67l-114 -536h-67l10 91h-3q-32 -43 -71.5 -72t-87.5 -29zM197 61q36 0 67.5 27t56 71.5t38.5 96.5q9 36 13 65.5t4 55.5q0 44 -22 70.5t-60 26.5
q-37 0 -68 -28t-53.5 -74t-34.5 -101t-12 -110q0 -100 71 -100zM195 608l14 67h259l-15 -67h-258z" />
    <glyph glyph-name="Abreve" unicode="&#x102;" horiz-adv-x="504" 
d="M-60 0l355 715h97l57 -715h-86l-17 224h-204l-108 -224h-94zM179 301h163l-9 187q-2 33 -4 70t-2 66h-3q-12 -31 -27.5 -66t-33.5 -72zM354 787q-53 0 -84 28t-31 79q0 16 2 27h51q0 -33 16 -49t54 -16q39 0 60 16.5t29 48.5h54q-15 -69 -53 -101.5t-98 -32.5z" />
    <glyph glyph-name="abreve" unicode="&#x103;" horiz-adv-x="515" 
d="M170 -10q-60 0 -95 43.5t-35 127.5q0 68 16.5 136t48.5 124.5t77.5 90.5t102.5 34q46 0 75 -25t43 -62h5l28 77h67l-114 -536h-67l10 91h-3q-32 -43 -71.5 -72t-87.5 -29zM197 61q36 0 67.5 27t56 71.5t38.5 96.5q9 36 13 65.5t4 55.5q0 44 -22 70.5t-60 26.5
q-37 0 -68 -28t-53.5 -74t-34.5 -101t-12 -110q0 -100 71 -100zM327 607q-53 0 -84 28t-31 79q0 16 2 27h51q0 -33 16 -49t54 -16q39 0 60 16.5t29 48.5h54q-15 -69 -53 -101.5t-98 -32.5z" />
    <glyph glyph-name="Aogonek" unicode="&#x104;" horiz-adv-x="504" 
d="M-60 0l355 715h97l57 -715h-86l-17 224h-204l-108 -224h-94zM179 301h163l-9 187q-2 33 -4 70t-2 66h-3q-12 -31 -27.5 -66t-33.5 -72zM350 -220q-37 0 -60 20t-23 58q0 44 27.5 77t74.5 65h58q-34 -29 -61.5 -60.5t-27.5 -68.5q0 -33 33 -33q9 0 19 1.5t20 3.5l-5 -55
q-12 -4 -26.5 -6t-28.5 -2z" />
    <glyph glyph-name="aogonek" unicode="&#x105;" horiz-adv-x="515" 
d="M170 -10q-60 0 -95 43.5t-35 127.5q0 68 16.5 136t48.5 124.5t77.5 90.5t102.5 34q46 0 75 -25t43 -62h5l28 77h67l-114 -536h-67l10 91h-3q-32 -43 -71.5 -72t-87.5 -29zM197 61q36 0 67.5 27t56 71.5t38.5 96.5q9 36 13 65.5t4 55.5q0 44 -22 70.5t-60 26.5
q-37 0 -68 -28t-53.5 -74t-34.5 -101t-12 -110q0 -100 71 -100zM303 -220q-37 0 -60 20t-23 58q0 44 27.5 77t74.5 65h58q-34 -29 -61.5 -60.5t-27.5 -68.5q0 -33 33 -33q9 0 19 1.5t20 3.5l-5 -55q-12 -4 -26.5 -6t-28.5 -2z" />
    <glyph glyph-name="Cacute" unicode="&#x106;" horiz-adv-x="513" 
d="M278 -10q-104 0 -161.5 67.5t-57.5 189.5q0 63 14 129.5t42 128.5t71 111.5t100.5 78.5t129.5 29q90 0 153 -38l-38 -71q-23 14 -51 23.5t-64 9.5q-55 0 -98 -25.5t-74.5 -67.5t-52.5 -94t-31.5 -106.5t-10.5 -103.5q0 -89 38 -137t108 -48q34 0 67.5 8t67.5 20v-77
q-35 -13 -70.5 -20t-81.5 -7zM351 798q29 32 59.5 73.5t51.5 74.5h97v-9q-14 -18 -42 -47.5t-59 -58t-54 -45.5h-54z" />
    <glyph glyph-name="cacute" unicode="&#x107;" horiz-adv-x="403" 
d="M213 -10q-80 0 -126.5 46.5t-46.5 139.5q0 67 17 133t50.5 119.5t82.5 85.5t112 32q65 0 117 -25l-27 -70q-17 9 -40 16t-49 7q-42 0 -74.5 -25.5t-55.5 -68.5t-35 -95t-12 -105q0 -58 26 -88.5t73 -30.5q29 0 56.5 9t54.5 22v-71q-24 -14 -55.5 -22.5t-67.5 -8.5z
M233 620q29 32 59.5 73.5t51.5 74.5h97v-9q-14 -18 -42 -47.5t-59 -58t-54 -45.5h-54z" />
    <glyph glyph-name="Ccircumflex" unicode="&#x108;" horiz-adv-x="513" 
d="M278 -10q-104 0 -161.5 67.5t-57.5 189.5q0 63 14 129.5t42 128.5t71 111.5t100.5 78.5t129.5 29q90 0 153 -38l-38 -71q-23 14 -51 23.5t-64 9.5q-55 0 -98 -25.5t-74.5 -67.5t-52.5 -94t-31.5 -106.5t-10.5 -103.5q0 -89 38 -137t108 -48q34 0 67.5 8t67.5 20v-77
q-35 -13 -70.5 -20t-81.5 -7zM267 791q19 19 44.5 45t49 53t38.5 50h79q7 -23 20 -50t27.5 -53t25.5 -45l-1 -12h-51q-16 17 -34 41t-36 51q-29 -28 -57.5 -51.5t-52.5 -40.5h-53z" />
    <glyph glyph-name="ccircumflex" unicode="&#x109;" horiz-adv-x="403" 
d="M213 -10q-80 0 -126.5 46.5t-46.5 139.5q0 67 17 133t50.5 119.5t82.5 85.5t112 32q65 0 117 -25l-27 -70q-17 9 -40 16t-49 7q-42 0 -74.5 -25.5t-55.5 -68.5t-35 -95t-12 -105q0 -58 26 -88.5t73 -30.5q29 0 56.5 9t54.5 22v-71q-24 -14 -55.5 -22.5t-67.5 -8.5z
M148 618q19 19 44.5 45t49 53t38.5 50h79q7 -23 20 -50t27.5 -53t25.5 -45l-1 -12h-51q-16 17 -34 41t-36 51q-29 -28 -57.5 -51.5t-52.5 -40.5h-53z" />
    <glyph glyph-name="Cdotaccent" unicode="&#x10a;" horiz-adv-x="513" 
d="M278 -10q-104 0 -161.5 67.5t-57.5 189.5q0 63 14 129.5t42 128.5t71 111.5t100.5 78.5t129.5 29q90 0 153 -38l-38 -71q-23 14 -51 23.5t-64 9.5q-55 0 -98 -25.5t-74.5 -67.5t-52.5 -94t-31.5 -106.5t-10.5 -103.5q0 -89 38 -137t108 -48q34 0 67.5 8t67.5 20v-77
q-35 -13 -70.5 -20t-81.5 -7zM428 800q-20 0 -32 12t-12 33q0 26 15 46t43 20q43 0 43 -43q0 -30 -17 -49t-40 -19z" />
    <glyph glyph-name="cdotaccent" unicode="&#x10b;" horiz-adv-x="403" 
d="M213 -10q-80 0 -126.5 46.5t-46.5 139.5q0 67 17 133t50.5 119.5t82.5 85.5t112 32q65 0 117 -25l-27 -70q-17 9 -40 16t-49 7q-42 0 -74.5 -25.5t-55.5 -68.5t-35 -95t-12 -105q0 -58 26 -88.5t73 -30.5q29 0 56.5 9t54.5 22v-71q-24 -14 -55.5 -22.5t-67.5 -8.5z
M308 625q-20 0 -32 12t-12 33q0 26 15 46t43 20q43 0 43 -43q0 -30 -17 -49t-40 -19z" />
    <glyph glyph-name="Ccaron" unicode="&#x10c;" horiz-adv-x="513" 
d="M278 -10q-104 0 -161.5 67.5t-57.5 189.5q0 63 14 129.5t42 128.5t71 111.5t100.5 78.5t129.5 29q90 0 153 -38l-38 -71q-23 14 -51 23.5t-64 9.5q-55 0 -98 -25.5t-74.5 -67.5t-52.5 -94t-31.5 -106.5t-10.5 -103.5q0 -89 38 -137t108 -48q34 0 67.5 8t67.5 20v-77
q-35 -13 -70.5 -20t-81.5 -7zM377 779q-7 22 -20 49.5t-27 54t-25 44.5l1 12h50q16 -15 34 -39t36 -53q60 56 112 92h52v-12q-17 -16 -43 -43t-51.5 -55.5t-38.5 -49.5h-80z" />
    <glyph glyph-name="ccaron" unicode="&#x10d;" horiz-adv-x="403" 
d="M213 -10q-80 0 -126.5 46.5t-46.5 139.5q0 67 17 133t50.5 119.5t82.5 85.5t112 32q65 0 117 -25l-27 -70q-17 9 -40 16t-49 7q-42 0 -74.5 -25.5t-55.5 -68.5t-35 -95t-12 -105q0 -58 26 -88.5t73 -30.5q29 0 56.5 9t54.5 22v-71q-24 -14 -55.5 -22.5t-67.5 -8.5z
M256 606q-7 22 -20 49.5t-27 54t-25 44.5l1 12h50q16 -15 34 -39t36 -53q60 56 112 92h52v-12q-17 -16 -43 -43t-51.5 -55.5t-38.5 -49.5h-80z" />
    <glyph glyph-name="Dcaron" unicode="&#x10e;" horiz-adv-x="593" 
d="M26 0l151 714h150q114 0 177.5 -64t63.5 -194q0 -89 -24 -170.5t-72.5 -146t-121 -102t-169.5 -37.5h-155zM188 76q72 0 126.5 31.5t90.5 85.5t54 122t18 140q0 97 -43 140t-117 43h-70l-120 -562h61zM346 779q-7 22 -20 49.5t-27 54t-25 44.5l1 12h50q16 -15 34 -39
t36 -53q60 56 112 92h52v-12q-17 -16 -43 -43t-51.5 -55.5t-38.5 -49.5h-80z" />
    <glyph glyph-name="dcaron" unicode="&#x10f;" horiz-adv-x="569" 
d="M559 612q17 31 36 73.5t30 74.5h80v-10q-7 -18 -23 -45.5t-36 -56t-39 -48.5h-48v12zM169 -10q-59 0 -94.5 43t-35.5 128q0 66 16.5 134t48 124.5t76.5 91t104 34.5q47 0 76.5 -24.5t42.5 -60.5h4q5 31 9.5 60t11.5 60l38 180h83l-161 -760h-68l9 90h-3
q-33 -44 -70.5 -72t-86.5 -28zM198 61q35 0 67.5 30t57 77.5t39 103t14.5 105.5q0 44 -20 70.5t-64 26.5q-38 0 -68.5 -29t-52.5 -76t-33.5 -102t-11.5 -106q0 -100 72 -100z" />
    <glyph glyph-name="Dcroat" unicode="&#x110;" horiz-adv-x="593" 
d="M26 0l68 323h-65l16 73h65l67 318h150q114 0 177.5 -64t63.5 -194q0 -89 -24 -170.5t-72.5 -146t-121 -102t-169.5 -37.5h-155zM188 76q72 0 126.5 31.5t90.5 85.5t54 122t18 140q0 97 -43 140t-117 43h-70l-51 -242h130l-16 -73h-130l-53 -247h61z" />
    <glyph glyph-name="dcroat" unicode="&#x111;" horiz-adv-x="521" 
d="M169 -10q-59 0 -94.5 43.5t-35.5 127.5q0 66 16 134t47 125t76.5 91.5t103.5 34.5q47 0 77.5 -24.5t43.5 -59.5h4q3 20 6.5 43.5t8.5 45.5l11 56h-147l13 63h149l18 90h83l-18 -90h67l-13 -63h-68l-129 -607h-68l9 90h-3q-33 -43 -70.5 -71.5t-86.5 -28.5zM198 61
q35 0 67 30t57 77.5t39.5 103t14.5 105.5q0 45 -20.5 71t-64.5 26q-38 0 -68.5 -29t-52.5 -76t-33 -102t-11 -106q0 -100 72 -100z" />
    <glyph glyph-name="Emacron" unicode="&#x112;" horiz-adv-x="460" 
d="M26 0l151 714h324l-16 -76h-239l-47 -227h222l-15 -76h-223l-56 -259h239l-16 -76h-324zM217 780l14 67h259l-15 -67h-258z" />
    <glyph glyph-name="emacron" unicode="&#x113;" horiz-adv-x="456" 
d="M213 -10q-83 0 -128.5 50t-45.5 138q0 70 18 136t52 118t81 83t104 31q66 0 101.5 -31.5t35.5 -88.5q0 -82 -71 -136.5t-219 -54.5h-13q-2 -12 -3 -25.5t-1 -26.5q0 -59 26 -91t81 -32q33 0 63 9.5t66 27.5v-71q-33 -17 -67.5 -26.5t-79.5 -9.5zM146 302q90 0 147 29
t57 89q0 25 -15.5 40.5t-47.5 15.5q-45 0 -85.5 -47t-61.5 -127h6zM175 607l14 67h259l-15 -67h-258z" />
    <glyph glyph-name="Ebreve" unicode="&#x114;" horiz-adv-x="460" 
d="M26 0l151 714h324l-16 -76h-239l-47 -227h222l-15 -76h-223l-56 -259h239l-16 -76h-324zM349 779q-53 0 -84 28t-31 79q0 16 2 27h51q0 -33 16 -49t54 -16q39 0 60 16.5t29 48.5h54q-15 -69 -53 -101.5t-98 -32.5z" />
    <glyph glyph-name="ebreve" unicode="&#x115;" horiz-adv-x="456" 
d="M213 -10q-83 0 -128.5 50t-45.5 138q0 70 18 136t52 118t81 83t104 31q66 0 101.5 -31.5t35.5 -88.5q0 -82 -71 -136.5t-219 -54.5h-13q-2 -12 -3 -25.5t-1 -26.5q0 -59 26 -91t81 -32q33 0 63 9.5t66 27.5v-71q-33 -17 -67.5 -26.5t-79.5 -9.5zM146 302q90 0 147 29
t57 89q0 25 -15.5 40.5t-47.5 15.5q-45 0 -85.5 -47t-61.5 -127h6zM311 606q-53 0 -84 28t-31 79q0 16 2 27h51q0 -33 16 -49t54 -16q39 0 60 16.5t29 48.5h54q-15 -69 -53 -101.5t-98 -32.5z" />
    <glyph glyph-name="Edotaccent" unicode="&#x116;" horiz-adv-x="460" 
d="M26 0l151 714h324l-16 -76h-239l-47 -227h222l-15 -76h-223l-56 -259h239l-16 -76h-324zM358 793q-20 0 -32 12t-12 33q0 26 15 46t43 20q43 0 43 -43q0 -30 -17 -49t-40 -19z" />
    <glyph glyph-name="edotaccent" unicode="&#x117;" horiz-adv-x="456" 
d="M213 -10q-83 0 -128.5 50t-45.5 138q0 70 18 136t52 118t81 83t104 31q66 0 101.5 -31.5t35.5 -88.5q0 -82 -71 -136.5t-219 -54.5h-13q-2 -12 -3 -25.5t-1 -26.5q0 -59 26 -91t81 -32q33 0 63 9.5t66 27.5v-71q-33 -17 -67.5 -26.5t-79.5 -9.5zM146 302q90 0 147 29
t57 89q0 25 -15.5 40.5t-47.5 15.5q-45 0 -85.5 -47t-61.5 -127h6zM319 625q-20 0 -32 12t-12 33q0 26 15 46t43 20q43 0 43 -43q0 -30 -17 -49t-40 -19z" />
    <glyph glyph-name="Eogonek" unicode="&#x118;" horiz-adv-x="460" 
d="M26 0l151 714h324l-16 -76h-239l-47 -227h222l-15 -76h-223l-56 -259h239l-16 -76h-324zM244 -220q-37 0 -60 20t-23 58q0 44 27.5 77t74.5 65h58q-34 -29 -61.5 -60.5t-27.5 -68.5q0 -33 33 -33q9 0 19 1.5t20 3.5l-5 -55q-12 -4 -26.5 -6t-28.5 -2z" />
    <glyph glyph-name="eogonek" unicode="&#x119;" horiz-adv-x="456" 
d="M213 -10q-83 0 -128.5 50t-45.5 138q0 70 18 136t52 118t81 83t104 31q66 0 101.5 -31.5t35.5 -88.5q0 -82 -71 -136.5t-219 -54.5h-13q-2 -12 -3 -25.5t-1 -26.5q0 -59 26 -91t81 -32q33 0 63 9.5t66 27.5v-71q-13 -6 -24 -11q-42 -34 -70.5 -69t-28.5 -69q0 -33 32 -33
q10 0 19.5 1t19.5 3l-5 -55q-12 -4 -26.5 -5.5t-28.5 -1.5q-37 0 -59.5 19.5t-22.5 57.5q0 40 22 70.5t60 58.5q-16 -2 -35 -2zM146 302q90 0 147 29t57 89q0 25 -15.5 40.5t-47.5 15.5q-45 0 -85.5 -47t-61.5 -127h6z" />
    <glyph glyph-name="Ecaron" unicode="&#x11a;" horiz-adv-x="460" 
d="M26 0l151 714h324l-16 -76h-239l-47 -227h222l-15 -76h-223l-56 -259h239l-16 -76h-324zM305 779q-7 22 -20 49.5t-27 54t-25 44.5l1 12h50q16 -15 34 -39t36 -53q60 56 112 92h52v-12q-17 -16 -43 -43t-51.5 -55.5t-38.5 -49.5h-80z" />
    <glyph glyph-name="ecaron" unicode="&#x11b;" horiz-adv-x="456" 
d="M213 -10q-83 0 -128.5 50t-45.5 138q0 70 18 136t52 118t81 83t104 31q66 0 101.5 -31.5t35.5 -88.5q0 -82 -71 -136.5t-219 -54.5h-13q-2 -12 -3 -25.5t-1 -26.5q0 -59 26 -91t81 -32q33 0 63 9.5t66 27.5v-71q-33 -17 -67.5 -26.5t-79.5 -9.5zM146 302q90 0 147 29
t57 89q0 25 -15.5 40.5t-47.5 15.5q-45 0 -85.5 -47t-61.5 -127h6zM263 606q-7 22 -20 49.5t-27 54t-25 44.5l1 12h50q16 -15 34 -39t36 -53q60 56 112 92h52v-12q-17 -16 -43 -43t-51.5 -55.5t-38.5 -49.5h-80z" />
    <glyph glyph-name="Gcircumflex" unicode="&#x11c;" horiz-adv-x="610" 
d="M300 -10q-116 0 -178.5 66t-62.5 188q0 100 26.5 187.5t75 153t115 102.5t147.5 37q57 0 102.5 -11.5t83.5 -31.5l-36 -74q-35 18 -72 29.5t-81 11.5q-59 0 -108.5 -32t-86 -87.5t-56.5 -127.5t-20 -152q0 -83 39 -133t121 -50q32 0 59 4.5t48 11.5l47 219h-121l16 75
h207l-76 -351q-43 -16 -89 -25.5t-100 -9.5zM289 791q19 19 44.5 45t49 53t38.5 50h79q7 -23 20 -50t27.5 -53t25.5 -45l-1 -12h-51q-16 17 -34 41t-36 51q-29 -28 -57.5 -51.5t-52.5 -40.5h-53z" />
    <glyph glyph-name="gcircumflex" unicode="&#x11d;" horiz-adv-x="522" 
d="M151 -240q-43 0 -80.5 9.5t-62.5 23.5v79q23 -15 63 -28t79 -13q58 0 94.5 31.5t52.5 100.5l9 37q4 19 10.5 44t11.5 44h-3q-31 -43 -69 -70.5t-87 -27.5q-59 0 -94.5 43t-35.5 126q0 67 16.5 135t48 125t77.5 92t105 35q47 0 75.5 -25t42.5 -62h4l28 77h67l-121 -568
q-24 -112 -81.5 -160t-149.5 -48zM198 61q35 0 66.5 30t56.5 77.5t39.5 103t14.5 107.5q0 43 -19.5 69t-62.5 26q-39 0 -69.5 -29t-52.5 -76t-33.5 -102t-11.5 -106q0 -100 72 -100zM170 619q19 19 44.5 45t49 53t38.5 50h79q7 -23 20 -50t27.5 -53t25.5 -45l-1 -12h-51
q-16 17 -34 41t-36 51q-29 -28 -57.5 -51.5t-52.5 -40.5h-53z" />
    <glyph glyph-name="Gbreve" unicode="&#x11e;" horiz-adv-x="610" 
d="M300 -10q-116 0 -178.5 66t-62.5 188q0 100 26.5 187.5t75 153t115 102.5t147.5 37q57 0 102.5 -11.5t83.5 -31.5l-36 -74q-35 18 -72 29.5t-81 11.5q-59 0 -108.5 -32t-86 -87.5t-56.5 -127.5t-20 -152q0 -83 39 -133t121 -50q32 0 59 4.5t48 11.5l47 219h-121l16 75
h207l-76 -351q-43 -16 -89 -25.5t-100 -9.5zM439 779q-53 0 -84 28t-31 79q0 16 2 27h51q0 -33 16 -49t54 -16q39 0 60 16.5t29 48.5h54q-15 -69 -53 -101.5t-98 -32.5z" />
    <glyph glyph-name="gbreve" unicode="&#x11f;" horiz-adv-x="522" 
d="M151 -240q-43 0 -80.5 9.5t-62.5 23.5v79q23 -15 63 -28t79 -13q58 0 94.5 31.5t52.5 100.5l9 37q4 19 10.5 44t11.5 44h-3q-31 -43 -69 -70.5t-87 -27.5q-59 0 -94.5 43t-35.5 126q0 67 16.5 135t48 125t77.5 92t105 35q47 0 75.5 -25t42.5 -62h4l28 77h67l-121 -568
q-24 -112 -81.5 -160t-149.5 -48zM198 61q35 0 66.5 30t56.5 77.5t39.5 103t14.5 107.5q0 43 -19.5 69t-62.5 26q-39 0 -69.5 -29t-52.5 -76t-33.5 -102t-11.5 -106q0 -100 72 -100zM317 607q-53 0 -84 28t-31 79q0 16 2 27h51q0 -33 16 -49t54 -16q39 0 60 16.5t29 48.5h54
q-15 -69 -53 -101.5t-98 -32.5z" />
    <glyph glyph-name="Gdotaccent" unicode="&#x120;" horiz-adv-x="610" 
d="M300 -10q-116 0 -178.5 66t-62.5 188q0 100 26.5 187.5t75 153t115 102.5t147.5 37q57 0 102.5 -11.5t83.5 -31.5l-36 -74q-35 18 -72 29.5t-81 11.5q-59 0 -108.5 -32t-86 -87.5t-56.5 -127.5t-20 -152q0 -83 39 -133t121 -50q32 0 59 4.5t48 11.5l47 219h-121l16 75
h207l-76 -351q-43 -16 -89 -25.5t-100 -9.5zM449 798q-20 0 -32 12t-12 33q0 26 15 46t43 20q43 0 43 -43q0 -30 -17 -49t-40 -19z" />
    <glyph glyph-name="gdotaccent" unicode="&#x121;" horiz-adv-x="522" 
d="M151 -240q-43 0 -80.5 9.5t-62.5 23.5v79q23 -15 63 -28t79 -13q58 0 94.5 31.5t52.5 100.5l9 37q4 19 10.5 44t11.5 44h-3q-31 -43 -69 -70.5t-87 -27.5q-59 0 -94.5 43t-35.5 126q0 67 16.5 135t48 125t77.5 92t105 35q47 0 75.5 -25t42.5 -62h4l28 77h67l-121 -568
q-24 -112 -81.5 -160t-149.5 -48zM198 61q35 0 66.5 30t56.5 77.5t39.5 103t14.5 107.5q0 43 -19.5 69t-62.5 26q-39 0 -69.5 -29t-52.5 -76t-33.5 -102t-11.5 -106q0 -100 72 -100zM327 625q-20 0 -32 12t-12 33q0 26 15 46t43 20q43 0 43 -43q0 -30 -17 -49t-40 -19z" />
    <glyph glyph-name="uni0122" unicode="&#x122;" horiz-adv-x="610" 
d="M300 -10q-116 0 -178.5 66t-62.5 188q0 100 26.5 187.5t75 153t115 102.5t147.5 37q57 0 102.5 -11.5t83.5 -31.5l-36 -74q-35 18 -72 29.5t-81 11.5q-59 0 -108.5 -32t-86 -87.5t-56.5 -127.5t-20 -152q0 -83 39 -133t121 -50q32 0 59 4.5t48 11.5l47 219h-121l16 75
h207l-76 -351q-43 -16 -89 -25.5t-100 -9.5zM174 -208q11 17 24.5 43.5t26.5 54.5t20 49h80v-10q-6 -18 -23 -45.5t-38.5 -56t-41.5 -48.5h-48v13z" />
    <glyph glyph-name="uni0123" unicode="&#x123;" horiz-adv-x="522" 
d="M272 616q8 18 24.5 45.5t38 56t41.5 48.5h47l1 -12q-11 -16 -25 -43t-26.5 -56t-19.5 -49h-81v10zM151 -240q-43 0 -80.5 9.5t-62.5 23.5v79q23 -15 63 -28t79 -13q58 0 94.5 31.5t52.5 100.5l9 37q4 19 10.5 44t11.5 44h-3q-31 -43 -69 -70.5t-87 -27.5q-59 0 -94.5 43
t-35.5 126q0 67 16.5 135t48 125t77.5 92t105 35q47 0 75.5 -25t42.5 -62h4l28 77h67l-121 -568q-24 -112 -81.5 -160t-149.5 -48zM198 61q35 0 66.5 30t56.5 77.5t39.5 103t14.5 107.5q0 43 -19.5 69t-62.5 26q-39 0 -69.5 -29t-52.5 -76t-33.5 -102t-11.5 -106
q0 -100 72 -100z" />
    <glyph glyph-name="Hcircumflex" unicode="&#x124;" horiz-adv-x="608" 
d="M27 0l151 714h85l-64 -303h270l64 303h85l-151 -714h-85l70 334h-269l-71 -334h-85zM259 791q19 19 44.5 45t49 53t38.5 50h79q7 -23 20 -50t27.5 -53t25.5 -45l-1 -12h-51q-16 17 -34 41t-36 51q-29 -28 -57.5 -51.5t-52.5 -40.5h-53z" />
    <glyph glyph-name="hcircumflex" unicode="&#x125;" horiz-adv-x="517" 
d="M18 0l161 760h84l-43 -198q-6 -27 -14 -56.5t-15 -57.5h4q25 38 63.5 67.5t93.5 29.5t87.5 -31t32.5 -93q0 -20 -4 -43.5t-9 -47.5l-71 -330h-83l70 333q5 24 8 43.5t3 35.5q0 29 -14.5 45t-45.5 16q-32 0 -65 -21.5t-61 -70t-44 -126.5l-54 -255h-84zM84 842
q19 19 44.5 45t49 53t38.5 50h79q7 -23 20 -50t27.5 -53t25.5 -45l-1 -12h-51q-16 17 -34 41t-36 51q-29 -28 -57.5 -51.5t-52.5 -40.5h-53z" />
    <glyph glyph-name="Hbar" unicode="&#x126;" horiz-adv-x="607" 
d="M26 0l111 525h-82l15 69h81l26 120h86l-26 -120h269l26 120h87l-25 -120h80l-14 -69h-81l-111 -525h-87l71 334h-270l-70 -334h-86zM198 410h270l24 115h-270z" />
    <glyph glyph-name="hbar" unicode="&#x127;" horiz-adv-x="518" 
d="M18 0l129 607h-70l15 63h68l19 90h84l-20 -90h141l-14 -63h-140q-14 -62 -24.5 -102.5t-16.5 -64.5h4q26 38 64.5 68t92.5 30q56 0 88 -31.5t32 -93.5q0 -20 -4 -43.5t-9 -47.5l-69 -322h-83l69 324q5 24 8 43.5t3 35.5q0 63 -61 63q-32 0 -65 -22.5t-61 -70.5t-44 -126
l-52 -247h-84z" />
    <glyph glyph-name="Itilde" unicode="&#x128;" horiz-adv-x="301" 
d="M-31 0l10 48l82 18l124 582l-75 18l10 48h243l-10 -48l-83 -18l-123 -582l74 -18l-9 -48h-243zM99 788q13 61 40 94t68 33q29 0 51.5 -14.5t41 -28.5t35.5 -14q20 0 31 13t21 45h52q-30 -127 -108 -127q-26 0 -48 14t-41.5 28.5t-39.5 14.5q-19 0 -31 -15t-21 -43h-51z
" />
    <glyph glyph-name="itilde" unicode="&#x129;" horiz-adv-x="234" 
d="M17 0l114 536h84l-114 -536h-84zM29 607q13 61 40 94t68 33q29 0 51.5 -14.5t41 -28.5t35.5 -14q20 0 31 13t21 45h52q-30 -127 -108 -127q-26 0 -48 14t-41.5 28.5t-39.5 14.5q-19 0 -31 -15t-21 -43h-51z" />
    <glyph glyph-name="Imacron" unicode="&#x12a;" horiz-adv-x="301" 
d="M-31 0l10 48l82 18l124 582l-75 18l10 48h243l-10 -48l-83 -18l-123 -582l74 -18l-9 -48h-243zM124 788l14 67h259l-15 -67h-258z" />
    <glyph glyph-name="imacron" unicode="&#x12b;" horiz-adv-x="234" 
d="M17 0l114 536h84l-114 -536h-84zM54 607l14 67h259l-15 -67h-258z" />
    <glyph glyph-name="Ibreve" unicode="&#x12c;" horiz-adv-x="301" 
d="M-31 0l10 48l82 18l124 582l-75 18l10 48h243l-10 -48l-83 -18l-123 -582l74 -18l-9 -48h-243zM256 787q-53 0 -84 28t-31 79q0 16 2 27h51q0 -33 16 -49t54 -16q39 0 60 16.5t29 48.5h54q-15 -69 -53 -101.5t-98 -32.5z" />
    <glyph glyph-name="ibreve" unicode="&#x12d;" horiz-adv-x="234" 
d="M17 0l114 536h84l-114 -536h-84zM187 606q-53 0 -84 28t-31 79q0 16 2 27h51q0 -33 16 -49t54 -16q39 0 60 16.5t29 48.5h54q-15 -69 -53 -101.5t-98 -32.5z" />
    <glyph glyph-name="Iogonek" unicode="&#x12e;" horiz-adv-x="301" 
d="M-31 0l10 48l82 18l124 582l-75 18l10 48h243l-10 -48l-83 -18l-123 -582l74 -18l-9 -48h-243zM81 -220q-37 0 -60 20t-23 58q0 44 27.5 77t74.5 65h58q-34 -29 -61.5 -60.5t-27.5 -68.5q0 -33 33 -33q9 0 19 1.5t20 3.5l-5 -55q-12 -4 -26.5 -6t-28.5 -2z" />
    <glyph glyph-name="iogonek" unicode="&#x12f;" horiz-adv-x="234" 
d="M199 625q-20 0 -32.5 11.5t-12.5 32.5q0 26 15 46.5t44 20.5q42 0 42 -42q0 -30 -17 -49.5t-39 -19.5zM17 0l114 536h84l-114 -536h-84zM31 -220q-37 0 -60 20t-23 58q0 44 27.5 77t74.5 65h58q-34 -29 -61.5 -60.5t-27.5 -68.5q0 -33 33 -33q9 0 19 1.5t20 3.5l-5 -55
q-12 -4 -26.5 -6t-28.5 -2z" />
    <glyph glyph-name="Idotaccent" unicode="&#x130;" horiz-adv-x="301" 
d="M-31 0l10 48l82 18l124 582l-75 18l10 48h243l-10 -48l-83 -18l-123 -582l74 -18l-9 -48h-243zM264 806q-20 0 -32 12t-12 33q0 26 15 46t43 20q43 0 43 -43q0 -30 -17 -49t-40 -19z" />
    <glyph glyph-name="dotlessi" unicode="&#x131;" horiz-adv-x="234" 
d="M17 0l114 536h84l-114 -536h-84z" />
    <glyph glyph-name="IJ" unicode="&#x132;" horiz-adv-x="550" 
d="M-31 0l10 48l82 18l124 582l-75 18l10 48h243l-10 -48l-83 -18l-123 -582l74 -18l-9 -48h-243zM223 -191q-47 0 -73 12l9 75q13 -4 29 -7t33 -3q84 0 110 120l150 708h86l-152 -720q-21 -98 -70 -141.5t-122 -43.5z" />
    <glyph glyph-name="ij" unicode="&#x133;" horiz-adv-x="468" 
d="M199 625q-20 0 -32.5 11.5t-12.5 32.5q0 26 15 46.5t44 20.5q42 0 42 -42q0 -30 -17 -49.5t-39 -19.5zM17 0l114 536h84l-114 -536h-84zM432 625q-19 0 -31 11.5t-12 32.5q0 26 15 46.5t43 20.5q42 0 42 -42q0 -30 -17 -49.5t-40 -19.5zM165 -240q-34 0 -58 9v72
q24 -9 52 -9q31 0 50 25t31 83l126 596h83l-128 -603q-11 -52 -29 -91t-48.5 -60.5t-78.5 -21.5z" />
    <glyph glyph-name="Jcircumflex" unicode="&#x134;" horiz-adv-x="247" 
d="M-80 -191q-47 0 -73 12l9 75q13 -4 29 -7t33 -3q84 0 110 120l150 708h86l-152 -720q-21 -98 -70 -141.5t-122 -43.5zM81 791q19 19 44.5 45t49 53t38.5 50h79q7 -23 20 -50t27.5 -53t25.5 -45l-1 -12h-51q-16 17 -34 41t-36 51q-29 -28 -57.5 -51.5t-52.5 -40.5h-53z
" />
    <glyph glyph-name="jcircumflex" unicode="&#x135;" horiz-adv-x="234" 
d="M-69 -240q-34 0 -58 9v72q24 -9 52 -9q31 0 50 25t31 83l126 596h83l-128 -603q-11 -52 -29 -91t-48.5 -60.5t-78.5 -21.5zM39 618q19 19 44.5 45t49 53t38.5 50h79q7 -23 20 -50t27.5 -53t25.5 -45l-1 -12h-51q-16 17 -34 41t-36 51q-29 -28 -57.5 -51.5t-52.5 -40.5
h-53z" />
    <glyph glyph-name="uni0136" unicode="&#x136;" horiz-adv-x="504" 
d="M26 0l151 714h86l-75 -350l60 73l242 277h101l-279 -319l137 -395h-94l-112 339l-72 -59l-59 -280h-86zM107 -208q11 17 24.5 43.5t26.5 54.5t20 49h80v-10q-6 -18 -23 -45.5t-38.5 -56t-41.5 -48.5h-48v13z" />
    <glyph glyph-name="uni0137" unicode="&#x137;" horiz-adv-x="446" 
d="M17 0l161 760h85l-70 -326q-13 -58 -23 -95.5t-16 -58.5h2l228 256h97l-205 -225l112 -311h-92l-87 252l-68 -60l-39 -192h-85zM81 -208q11 17 24.5 43.5t26.5 54.5t20 49h80v-10q-6 -18 -23 -45.5t-38.5 -56t-41.5 -48.5h-48v13z" />
    <glyph glyph-name="kgreenlandic" unicode="&#x138;" horiz-adv-x="446" 
d="M17 0l114 536h84l-30 -138q-7 -31 -15.5 -62t-15.5 -56h2l228 256h97l-205 -225l112 -311h-92l-87 252l-68 -60l-39 -192h-85z" />
    <glyph glyph-name="Lacute" unicode="&#x139;" horiz-adv-x="426" 
d="M26 0l151 714h86l-136 -637h238l-16 -77h-323zM216 798q29 32 59.5 73.5t51.5 74.5h97v-9q-14 -18 -42 -47.5t-59 -58t-54 -45.5h-54z" />
    <glyph glyph-name="lacute" unicode="&#x13a;" horiz-adv-x="233" 
d="M17 0l162 760h84l-162 -760h-84zM179 844q29 32 59.5 73.5t51.5 74.5h97v-9q-14 -18 -42 -47.5t-59 -58t-54 -45.5h-54z" />
    <glyph glyph-name="uni013B" unicode="&#x13b;" horiz-adv-x="426" 
d="M26 0l151 714h86l-136 -637h238l-16 -77h-323zM77 -208q11 17 24.5 43.5t26.5 54.5t20 49h80v-10q-6 -18 -23 -45.5t-38.5 -56t-41.5 -48.5h-48v13z" />
    <glyph glyph-name="uni013C" unicode="&#x13c;" horiz-adv-x="233" 
d="M17 0l162 760h84l-162 -760h-84zM-44 -208q11 17 24.5 43.5t26.5 54.5t20 49h80v-10q-6 -18 -23 -45.5t-38.5 -56t-41.5 -48.5h-48v13z" />
    <glyph glyph-name="Lcaron" unicode="&#x13d;" horiz-adv-x="426" 
d="M26 0l151 714h86l-136 -637h238l-16 -77h-323zM326 564q18 31 36.5 73.5t29.5 74.5h81v-10q-7 -17 -23.5 -44.5t-36.5 -56t-39 -49.5h-48v12z" />
    <glyph glyph-name="lcaron" unicode="&#x13e;" horiz-adv-x="281" 
d="M272 612q17 31 36 73.5t29 74.5h81v-10q-7 -18 -23 -45.5t-36.5 -56t-38.5 -48.5h-48v12zM17 0l162 760h84l-162 -760h-84z" />
    <glyph glyph-name="Ldot" unicode="&#x13f;" horiz-adv-x="426" 
d="M26 0l151 714h86l-136 -637h238l-16 -77h-323zM339 303q-20 0 -32 12t-12 33q0 26 15 46t43 20q43 0 43 -43q0 -30 -17 -49t-40 -19z" />
    <glyph glyph-name="ldot" unicode="&#x140;" horiz-adv-x="293" 
d="M17 0l162 760h84l-162 -760h-84zM276 298q-20 0 -32 12t-12 33q0 26 15 46t43 20q43 0 43 -43q0 -30 -17 -49t-40 -19z" />
    <glyph glyph-name="Lslash" unicode="&#x141;" horiz-adv-x="428" 
d="M28 0l54 254l-53 -31l-31 56l102 60l79 375h86l-67 -315l105 60l32 -54l-155 -91l-49 -237h237l-16 -77h-324z" />
    <glyph glyph-name="lslash" unicode="&#x142;" horiz-adv-x="243" 
d="M20 0l64 298l-56 -33l-28 54l100 60l82 381h84l-70 -329l62 36l27 -54l-106 -62l-75 -351h-84z" />
    <glyph glyph-name="Nacute" unicode="&#x143;" horiz-adv-x="636" 
d="M25 0l151 714h95l173 -582h3q6 42 16 95.5t19 96.5l83 390h82l-151 -714h-94l-175 587h-3q-3 -27 -9.5 -64t-14 -75t-13.5 -68l-80 -380h-82zM377 798q29 32 59.5 73.5t51.5 74.5h97v-9q-14 -18 -42 -47.5t-59 -58t-54 -45.5h-54z" />
    <glyph glyph-name="nacute" unicode="&#x144;" horiz-adv-x="517" 
d="M15 0l114 538h73l-11 -89h2q26 38 64.5 68.5t93.5 30.5q56 0 89.5 -31.5t33.5 -91.5q0 -22 -4 -47t-9 -46l-71 -332h-88l71 336q5 23 8.5 42t3.5 35q0 58 -59 58q-48 0 -96 -51.5t-73 -167.5l-54 -252h-88zM278 618q29 32 59.5 73.5t51.5 74.5h97v-9q-14 -18 -42 -47.5
t-59 -58t-54 -45.5h-54z" />
    <glyph glyph-name="uni0145" unicode="&#x145;" horiz-adv-x="636" 
d="M25 0l151 714h95l173 -582h3q6 42 16 95.5t19 96.5l83 390h82l-151 -714h-94l-175 587h-3q-3 -27 -9.5 -64t-14 -75t-13.5 -68l-80 -380h-82zM157 -208q11 17 24.5 43.5t26.5 54.5t20 49h80v-10q-6 -18 -23 -45.5t-38.5 -56t-41.5 -48.5h-48v13z" />
    <glyph glyph-name="uni0146" unicode="&#x146;" horiz-adv-x="517" 
d="M15 0l114 538h73l-11 -89h2q26 38 64.5 68.5t93.5 30.5q56 0 89.5 -31.5t33.5 -91.5q0 -22 -4 -47t-9 -46l-71 -332h-88l71 336q5 23 8.5 42t3.5 35q0 58 -59 58q-48 0 -96 -51.5t-73 -167.5l-54 -252h-88zM100 -208q11 17 24.5 43.5t26.5 54.5t20 49h80v-10
q-6 -18 -23 -45.5t-38.5 -56t-41.5 -48.5h-48v13z" />
    <glyph glyph-name="Ncaron" unicode="&#x147;" horiz-adv-x="636" 
d="M25 0l151 714h95l173 -582h3q6 42 16 95.5t19 96.5l83 390h82l-151 -714h-94l-175 587h-3q-3 -27 -9.5 -64t-14 -75t-13.5 -68l-80 -380h-82zM380 779q-7 22 -20 49.5t-27 54t-25 44.5l1 12h50q16 -15 34 -39t36 -53q60 56 112 92h52v-12q-17 -16 -43 -43t-51.5 -55.5
t-38.5 -49.5h-80z" />
    <glyph glyph-name="ncaron" unicode="&#x148;" horiz-adv-x="517" 
d="M15 0l114 538h73l-11 -89h2q26 38 64.5 68.5t93.5 30.5q56 0 89.5 -31.5t33.5 -91.5q0 -22 -4 -47t-9 -46l-71 -332h-88l71 336q5 23 8.5 42t3.5 35q0 58 -59 58q-48 0 -96 -51.5t-73 -167.5l-54 -252h-88zM284 606q-7 22 -20 49.5t-27 54t-25 44.5l1 12h50
q16 -15 34 -39t36 -53q60 56 112 92h52v-12q-17 -16 -43 -43t-51.5 -55.5t-38.5 -49.5h-80z" />
    <glyph glyph-name="napostrophe" unicode="&#x149;" horiz-adv-x="583" 
d="M80 0l114 538h73l-11 -89h2q26 38 64.5 68.5t93.5 30.5q56 0 89.5 -31.5t33.5 -91.5q0 -22 -4 -47t-9 -46l-71 -332h-88l71 336q5 23 8.5 42t3.5 35q0 58 -59 58q-48 0 -96 -51.5t-73 -167.5l-54 -252h-88zM28 469q27 60 53.5 125.5t43.5 119.5h90l4 -11
q-24 -55 -57.5 -117t-68.5 -117h-65z" />
    <glyph glyph-name="Eng" unicode="&#x14a;" horiz-adv-x="636" 
d="M303 -190q-21 0 -40.5 3.5t-30.5 9.5l8 75q29 -11 64 -11q39 0 67 26t39 84l-182 593h-3q-5 -35 -13 -83t-18 -95l-87 -412h-82l151 714h96l173 -572h3q6 36 14 83t18 91l84 398h83l-150 -711q-21 -98 -68 -145.5t-126 -47.5z" />
    <glyph glyph-name="eng" unicode="&#x14b;" horiz-adv-x="517" 
d="M217 -240q-17 0 -31.5 2.5t-26.5 6.5v72q12 -4 25.5 -6.5t27.5 -2.5q31 0 49 25t31 84l83 394q5 23 8.5 42.5t3.5 35.5q0 28 -15 44t-46 16q-49 0 -97.5 -52t-73.5 -167l-53 -254h-85l114 536h69l-11 -89h5q26 38 64.5 68.5t92.5 30.5t87.5 -30.5t33.5 -90.5
q0 -22 -4 -45.5t-8 -46.5l-86 -401q-18 -85 -52 -128.5t-105 -43.5z" />
    <glyph glyph-name="Omacron" unicode="&#x14c;" horiz-adv-x="639" 
d="M283 -10q-110 0 -167.5 66t-57.5 186q0 89 22.5 174.5t65.5 155t105.5 111.5t142.5 42q106 0 162.5 -66t56.5 -186q0 -68 -13 -136.5t-39 -131t-65.5 -111t-92.5 -76.5t-120 -28zM288 67q56 0 100 36.5t74 97t45.5 132t15.5 141.5q0 85 -35.5 129.5t-99.5 44.5
q-47 0 -85 -24.5t-66.5 -66.5t-48 -94.5t-29.5 -109t-10 -110.5q0 -86 36.5 -131t102.5 -45zM290 780l14 67h259l-15 -67h-258z" />
    <glyph glyph-name="omacron" unicode="&#x14d;" horiz-adv-x="506" 
d="M213 -9q-81 0 -127 50.5t-46 139.5q0 58 15 121t46 118t79 89.5t114 34.5q81 0 127 -50.5t46 -140.5q0 -62 -16 -125.5t-47.5 -117t-79 -86.5t-111.5 -33zM219 62q35 0 64.5 24t51.5 66t34 95.5t12 112.5q0 44 -21 78.5t-69 34.5q-40 0 -71 -26.5t-52.5 -70.5t-32 -95.5
t-10.5 -101.5q0 -56 24 -86.5t70 -30.5zM178 607l14 67h259l-15 -67h-258z" />
    <glyph glyph-name="Obreve" unicode="&#x14e;" horiz-adv-x="639" 
d="M283 -10q-110 0 -167.5 66t-57.5 186q0 89 22.5 174.5t65.5 155t105.5 111.5t142.5 42q106 0 162.5 -66t56.5 -186q0 -68 -13 -136.5t-39 -131t-65.5 -111t-92.5 -76.5t-120 -28zM288 67q56 0 100 36.5t74 97t45.5 132t15.5 141.5q0 85 -35.5 129.5t-99.5 44.5
q-47 0 -85 -24.5t-66.5 -66.5t-48 -94.5t-29.5 -109t-10 -110.5q0 -86 36.5 -131t102.5 -45zM423 779q-53 0 -84 28t-31 79q0 16 2 27h51q0 -33 16 -49t54 -16q39 0 60 16.5t29 48.5h54q-15 -69 -53 -101.5t-98 -32.5z" />
    <glyph glyph-name="obreve" unicode="&#x14f;" horiz-adv-x="506" 
d="M213 -9q-81 0 -127 50.5t-46 139.5q0 58 15 121t46 118t79 89.5t114 34.5q81 0 127 -50.5t46 -140.5q0 -62 -16 -125.5t-47.5 -117t-79 -86.5t-111.5 -33zM219 62q35 0 64.5 24t51.5 66t34 95.5t12 112.5q0 44 -21 78.5t-69 34.5q-40 0 -71 -26.5t-52.5 -70.5t-32 -95.5
t-10.5 -101.5q0 -56 24 -86.5t70 -30.5zM313 606q-53 0 -84 28t-31 79q0 16 2 27h51q0 -33 16 -49t54 -16q39 0 60 16.5t29 48.5h54q-15 -69 -53 -101.5t-98 -32.5z" />
    <glyph glyph-name="Ohungarumlaut" unicode="&#x150;" horiz-adv-x="639" 
d="M283 -10q-110 0 -167.5 66t-57.5 186q0 89 22.5 174.5t65.5 155t105.5 111.5t142.5 42q106 0 162.5 -66t56.5 -186q0 -68 -13 -136.5t-39 -131t-65.5 -111t-92.5 -76.5t-120 -28zM288 67q56 0 100 36.5t74 97t45.5 132t15.5 141.5q0 85 -35.5 129.5t-99.5 44.5
q-47 0 -85 -24.5t-66.5 -66.5t-48 -94.5t-29.5 -109t-10 -110.5q0 -86 36.5 -131t102.5 -45zM466 791q30 34 60.5 75t49.5 73h88l-1 -9q-14 -19 -40.5 -47.5t-57.5 -57t-56 -46.5h-44zM305 791q29 34 59.5 75.5t49.5 72.5h88v-9q-14 -19 -40.5 -47.5t-57.5 -56.5t-57 -47
h-43z" />
    <glyph glyph-name="ohungarumlaut" unicode="&#x151;" horiz-adv-x="506" 
d="M213 -9q-81 0 -127 50.5t-46 139.5q0 58 15 121t46 118t79 89.5t114 34.5q81 0 127 -50.5t46 -140.5q0 -62 -16 -125.5t-47.5 -117t-79 -86.5t-111.5 -33zM219 62q35 0 64.5 24t51.5 66t34 95.5t12 112.5q0 44 -21 78.5t-69 34.5q-40 0 -71 -26.5t-52.5 -70.5t-32 -95.5
t-10.5 -101.5q0 -56 24 -86.5t70 -30.5zM359 618q30 34 60.5 75t49.5 73h88l-1 -9q-14 -19 -40.5 -47.5t-57.5 -57t-56 -46.5h-44zM198 618q29 34 59.5 75.5t49.5 72.5h88v-9q-14 -19 -40.5 -47.5t-57.5 -56.5t-57 -47h-43z" />
    <glyph glyph-name="OE" unicode="&#x152;" horiz-adv-x="757" 
d="M283 -8q-110 0 -167.5 67t-57.5 182q0 69 14 137.5t41 130.5t67 110t93.5 76t119.5 28q64 0 102 -9h304l-15 -76h-240l-48 -227h223l-15 -76h-224l-55 -259h240l-17 -76h-292q-15 -3 -33.5 -5.5t-39.5 -2.5zM292 69q27 0 47 6l120 563q-15 3 -32 5.5t-39 2.5
q-57 0 -101.5 -35t-75 -93.5t-46.5 -129.5t-16 -143q0 -85 36.5 -130.5t106.5 -45.5z" />
    <glyph glyph-name="oe" unicode="&#x153;" horiz-adv-x="780" 
d="M208 -9q-77 0 -122.5 50.5t-45.5 140.5q0 44 9.5 94t29 97.5t50 86t72 61.5t95.5 23q63 0 98 -29.5t49 -79.5q34 52 80.5 81.5t99.5 29.5q59 0 96 -29.5t37 -90.5q0 -82 -70 -136.5t-217 -54.5h-17q-3 -26 -3 -52q0 -59 26 -91t80 -32q34 0 64.5 10.5t65.5 26.5v-71
q-35 -18 -70.5 -27t-76.5 -9q-119 0 -154 107q-30 -48 -73.5 -77t-102.5 -29zM471 302q90 0 146.5 29.5t56.5 90.5q0 23 -13.5 38.5t-42.5 15.5q-51 0 -93.5 -48.5t-61.5 -125.5h8zM216 62q40 0 71 26t52 69t32 96t11 108q0 52 -22.5 82t-68.5 30q-40 0 -70.5 -26t-52 -69
t-32.5 -94.5t-11 -102.5q0 -59 24 -89t67 -30z" />
    <glyph glyph-name="Racute" unicode="&#x154;" horiz-adv-x="516" 
d="M26 0l151 714h139q99 0 149 -44t50 -127q0 -82 -40 -143.5t-126 -84.5l98 -315h-94l-84 296h-95l-62 -296h-86zM255 370q60 0 97.5 22t55.5 59.5t18 83.5q0 56 -30 80t-89 24h-60l-57 -269h65zM313 798q29 32 59.5 73.5t51.5 74.5h97v-9q-14 -18 -42 -47.5t-59 -58
t-54 -45.5h-54z" />
    <glyph glyph-name="racute" unicode="&#x155;" horiz-adv-x="353" 
d="M18 0l113 536h68l-11 -95h4q28 44 62.5 74.5t84.5 30.5q28 0 51 -7l-21 -80q-22 7 -45 7q-45 0 -78.5 -31.5t-56 -79.5t-33.5 -97l-54 -258h-84zM213 618q29 32 59.5 73.5t51.5 74.5h97v-9q-14 -18 -42 -47.5t-59 -58t-54 -45.5h-54z" />
    <glyph glyph-name="uni0156" unicode="&#x156;" horiz-adv-x="516" 
d="M26 0l151 714h139q99 0 149 -44t50 -127q0 -82 -40 -143.5t-126 -84.5l98 -315h-94l-84 296h-95l-62 -296h-86zM255 370q60 0 97.5 22t55.5 59.5t18 83.5q0 56 -30 80t-89 24h-60l-57 -269h65zM110 -208q11 17 24.5 43.5t26.5 54.5t20 49h80v-10q-6 -18 -23 -45.5
t-38.5 -56t-41.5 -48.5h-48v13z" />
    <glyph glyph-name="uni0157" unicode="&#x157;" horiz-adv-x="353" 
d="M18 0l113 536h68l-11 -95h4q28 44 62.5 74.5t84.5 30.5q28 0 51 -7l-21 -80q-22 7 -45 7q-45 0 -78.5 -31.5t-56 -79.5t-33.5 -97l-54 -258h-84zM-27 -208q11 17 24.5 43.5t26.5 54.5t20 49h80v-10q-6 -18 -23 -45.5t-38.5 -56t-41.5 -48.5h-48v13z" />
    <glyph glyph-name="Rcaron" unicode="&#x158;" horiz-adv-x="516" 
d="M26 0l151 714h139q99 0 149 -44t50 -127q0 -82 -40 -143.5t-126 -84.5l98 -315h-94l-84 296h-95l-62 -296h-86zM255 370q60 0 97.5 22t55.5 59.5t18 83.5q0 56 -30 80t-89 24h-60l-57 -269h65zM314 779q-7 22 -20 49.5t-27 54t-25 44.5l1 12h50q16 -15 34 -39t36 -53
q60 56 112 92h52v-12q-17 -16 -43 -43t-51.5 -55.5t-38.5 -49.5h-80z" />
    <glyph glyph-name="rcaron" unicode="&#x159;" horiz-adv-x="353" 
d="M18 0l113 536h68l-11 -95h4q28 44 62.5 74.5t84.5 30.5q28 0 51 -7l-21 -80q-22 7 -45 7q-45 0 -78.5 -31.5t-56 -79.5t-33.5 -97l-54 -258h-84zM231 606q-7 22 -20 49.5t-27 54t-25 44.5l1 12h50q16 -15 34 -39t36 -53q60 56 112 92h52v-12q-17 -16 -43 -43t-51.5 -55.5
t-38.5 -49.5h-80z" />
    <glyph glyph-name="Sacute" unicode="&#x15a;" horiz-adv-x="458" 
d="M159 -10q-95 0 -155 32l4 87q28 -17 66.5 -29.5t85.5 -12.5q63 0 106.5 32.5t43.5 99.5q0 40 -22 68.5t-80 69.5q-50 36 -82 75.5t-32 105.5q0 65 29.5 111t80 70.5t114.5 24.5q48 0 88.5 -11t73.5 -29l-36 -75q-25 15 -58.5 26t-69.5 11q-57 0 -94 -32t-37 -89
q0 -30 10.5 -51t32 -39.5t53.5 -42.5q37 -26 64 -51.5t41.5 -57.5t14.5 -77q0 -102 -65 -159t-177 -57zM278 798q29 32 59.5 73.5t51.5 74.5h97v-9q-14 -18 -42 -47.5t-59 -58t-54 -45.5h-54z" />
    <glyph glyph-name="sacute" unicode="&#x15b;" horiz-adv-x="389" 
d="M135 -10q-44 0 -78 8.5t-58 22.5v80q23 -15 58.5 -27.5t72.5 -12.5q52 0 80 23t28 62q0 29 -16 49.5t-61 51.5q-49 33 -73.5 66t-24.5 81q0 67 46 109.5t125 42.5q45 0 83 -10.5t65 -25.5l-31 -67q-23 13 -51.5 22.5t-64.5 9.5q-40 0 -63.5 -20.5t-23.5 -53.5
q0 -26 14.5 -46t59.5 -50q31 -22 54 -43t36 -46t13 -61q0 -79 -51.5 -122t-138.5 -43zM204 618q29 32 59.5 73.5t51.5 74.5h97v-9q-14 -18 -42 -47.5t-59 -58t-54 -45.5h-54z" />
    <glyph glyph-name="Scircumflex" unicode="&#x15c;" horiz-adv-x="458" 
d="M159 -10q-95 0 -155 32l4 87q28 -17 66.5 -29.5t85.5 -12.5q63 0 106.5 32.5t43.5 99.5q0 40 -22 68.5t-80 69.5q-50 36 -82 75.5t-32 105.5q0 65 29.5 111t80 70.5t114.5 24.5q48 0 88.5 -11t73.5 -29l-36 -75q-25 15 -58.5 26t-69.5 11q-57 0 -94 -32t-37 -89
q0 -30 10.5 -51t32 -39.5t53.5 -42.5q37 -26 64 -51.5t41.5 -57.5t14.5 -77q0 -102 -65 -159t-177 -57zM179 791q19 19 44.5 45t49 53t38.5 50h79q7 -23 20 -50t27.5 -53t25.5 -45l-1 -12h-51q-16 17 -34 41t-36 51q-29 -28 -57.5 -51.5t-52.5 -40.5h-53z" />
    <glyph glyph-name="scircumflex" unicode="&#x15d;" horiz-adv-x="389" 
d="M135 -10q-44 0 -78 8.5t-58 22.5v80q23 -15 58.5 -27.5t72.5 -12.5q52 0 80 23t28 62q0 29 -16 49.5t-61 51.5q-49 33 -73.5 66t-24.5 81q0 67 46 109.5t125 42.5q45 0 83 -10.5t65 -25.5l-31 -67q-23 13 -51.5 22.5t-64.5 9.5q-40 0 -63.5 -20.5t-23.5 -53.5
q0 -26 14.5 -46t59.5 -50q31 -22 54 -43t36 -46t13 -61q0 -79 -51.5 -122t-138.5 -43zM108 618q19 19 44.5 45t49 53t38.5 50h79q7 -23 20 -50t27.5 -53t25.5 -45l-1 -12h-51q-16 17 -34 41t-36 51q-29 -28 -57.5 -51.5t-52.5 -40.5h-53z" />
    <glyph glyph-name="Scedilla" unicode="&#x15e;" horiz-adv-x="458" 
d="M159 -10q-95 0 -155 32l4 87q28 -17 66.5 -29.5t85.5 -12.5q63 0 106.5 32.5t43.5 99.5q0 40 -22 68.5t-80 69.5q-50 36 -82 75.5t-32 105.5q0 65 29.5 111t80 70.5t114.5 24.5q48 0 88.5 -11t73.5 -29l-36 -75q-25 15 -58.5 26t-69.5 11q-57 0 -94 -32t-37 -89
q0 -30 10.5 -51t32 -39.5t53.5 -42.5q37 -26 64 -51.5t41.5 -57.5t14.5 -77q0 -102 -65 -159t-177 -57zM101 -240q-31 0 -52 6v51q19 -5 43 -5q77 0 77 55q0 22 -18 33t-49 15l49 85h53l-32 -55q27 -7 46.5 -24.5t19.5 -51.5q0 -49 -36.5 -79t-100.5 -30z" />
    <glyph glyph-name="scedilla" unicode="&#x15f;" horiz-adv-x="389" 
d="M135 -10q-44 0 -78 8.5t-58 22.5v80q23 -15 58.5 -27.5t72.5 -12.5q52 0 80 23t28 62q0 29 -16 49.5t-61 51.5q-49 33 -73.5 66t-24.5 81q0 67 46 109.5t125 42.5q45 0 83 -10.5t65 -25.5l-31 -67q-23 13 -51.5 22.5t-64.5 9.5q-40 0 -63.5 -20.5t-23.5 -53.5
q0 -26 14.5 -46t59.5 -50q31 -22 54 -43t36 -46t13 -61q0 -79 -51.5 -122t-138.5 -43zM68 -240q-31 0 -52 6v51q19 -5 43 -5q77 0 77 55q0 22 -18 33t-49 15l49 85h53l-32 -55q27 -7 46.5 -24.5t19.5 -51.5q0 -49 -36.5 -79t-100.5 -30z" />
    <glyph glyph-name="Scaron" unicode="&#x160;" horiz-adv-x="458" 
d="M159 -10q-95 0 -155 32l4 87q28 -17 66.5 -29.5t85.5 -12.5q63 0 106.5 32.5t43.5 99.5q0 40 -22 68.5t-80 69.5q-50 36 -82 75.5t-32 105.5q0 65 29.5 111t80 70.5t114.5 24.5q48 0 88.5 -11t73.5 -29l-36 -75q-25 15 -58.5 26t-69.5 11q-57 0 -94 -32t-37 -89
q0 -30 10.5 -51t32 -39.5t53.5 -42.5q37 -26 64 -51.5t41.5 -57.5t14.5 -77q0 -102 -65 -159t-177 -57zM287 779q-7 22 -20 49.5t-27 54t-25 44.5l1 12h50q16 -15 34 -39t36 -53q60 56 112 92h52v-12q-17 -16 -43 -43t-51.5 -55.5t-38.5 -49.5h-80z" />
    <glyph glyph-name="scaron" unicode="&#x161;" horiz-adv-x="389" 
d="M135 -10q-44 0 -78 8.5t-58 22.5v80q23 -15 58.5 -27.5t72.5 -12.5q52 0 80 23t28 62q0 29 -16 49.5t-61 51.5q-49 33 -73.5 66t-24.5 81q0 67 46 109.5t125 42.5q45 0 83 -10.5t65 -25.5l-31 -67q-23 13 -51.5 22.5t-64.5 9.5q-40 0 -63.5 -20.5t-23.5 -53.5
q0 -26 14.5 -46t59.5 -50q31 -22 54 -43t36 -46t13 -61q0 -79 -51.5 -122t-138.5 -43zM214 606q-7 22 -20 49.5t-27 54t-25 44.5l1 12h50q16 -15 34 -39t36 -53q60 56 112 92h52v-12q-17 -16 -43 -43t-51.5 -55.5t-38.5 -49.5h-80z" />
    <glyph glyph-name="uni0162" unicode="&#x162;" horiz-adv-x="443" 
d="M120 0l135 637h-169l17 77h424l-16 -77h-169l-135 -637h-87zM95 -240q-31 0 -52 6v51q19 -5 43 -5q77 0 77 55q0 22 -18 33t-49 15l49 85h53l-32 -55q27 -7 46.5 -24.5t19.5 -51.5q0 -49 -36.5 -79t-100.5 -30z" />
    <glyph glyph-name="uni0163" unicode="&#x163;" horiz-adv-x="298" 
d="M155 -10q-50 0 -80 25t-30 82q0 31 9 71l63 301h-70l9 42l78 32l55 115h53l-27 -122h114l-14 -67h-113l-64 -303q-3 -14 -6 -29.5t-3 -28.5q0 -21 10 -34t34 -13q15 0 30 3t32 8v-65q-14 -7 -37.5 -12t-42.5 -5zM64 -240q-31 0 -52 6v51q19 -5 43 -5q77 0 77 55
q0 22 -18 33t-49 15l49 85h53l-32 -55q27 -7 46.5 -24.5t19.5 -51.5q0 -49 -36.5 -79t-100.5 -30z" />
    <glyph glyph-name="Tcaron" unicode="&#x164;" horiz-adv-x="443" 
d="M120 0l135 637h-169l17 77h424l-16 -77h-169l-135 -637h-87zM282 779q-7 22 -20 49.5t-27 54t-25 44.5l1 12h50q16 -15 34 -39t36 -53q60 56 112 92h52v-12q-17 -16 -43 -43t-51.5 -55.5t-38.5 -49.5h-80z" />
    <glyph glyph-name="tcaron" unicode="&#x165;" horiz-adv-x="302" 
d="M270 607q17 31 36 74t30 75h80v-10q-7 -18 -23 -45.5t-36.5 -56t-38.5 -48.5h-48v11zM155 -10q-50 0 -80 25t-30 82q0 31 9 71l63 301h-70l9 42l78 32l55 115h53l-27 -122h114l-14 -67h-113l-64 -303q-3 -14 -6 -29.5t-3 -28.5q0 -21 10 -34t34 -13q15 0 30 3t32 8v-65
q-14 -7 -37.5 -12t-42.5 -5z" />
    <glyph glyph-name="Tbar" unicode="&#x166;" horiz-adv-x="443" 
d="M120 0l70 330h-119l14 69h119l51 238h-169l17 77h424l-16 -77h-169l-51 -238h123l-14 -69h-123l-70 -330h-87z" />
    <glyph glyph-name="tbar" unicode="&#x167;" horiz-adv-x="297" 
d="M154 -10q-49 0 -79 25t-30 82q0 14 2.5 32t6.5 38l23 114h-61l13 64h62l26 124h-70l9 42l78 32l55 115h53l-27 -122h114l-14 -67h-113l-27 -124h104l-13 -64h-104l-25 -115q-3 -14 -5.5 -29t-2.5 -28q0 -22 10.5 -35t35.5 -13q14 0 28.5 3t31.5 8v-65q-14 -7 -37.5 -12
t-43.5 -5z" />
    <glyph glyph-name="Utilde" unicode="&#x168;" horiz-adv-x="602" 
d="M255 -10q-96 0 -144.5 47t-48.5 133q0 18 3 41.5t8 49.5l97 453h86l-98 -457q-5 -22 -7.5 -44.5t-2.5 -37.5q0 -52 28.5 -80t84.5 -28q75 0 113 43.5t58 132.5l101 471h85l-102 -478q-16 -76 -47 -131t-83.5 -85t-130.5 -30zM248 780q13 61 40 94t68 33q29 0 51.5 -14.5
t41 -28.5t35.5 -14q20 0 31 13t21 45h52q-30 -127 -108 -127q-26 0 -48 14t-41.5 28.5t-39.5 14.5q-19 0 -31 -15t-21 -43h-51z" />
    <glyph glyph-name="utilde" unicode="&#x169;" horiz-adv-x="518" 
d="M164 -10q-56 0 -88 31.5t-32 90.5q0 21 3.5 43t7.5 44l72 337h85l-73 -340q-9 -44 -9 -72q0 -29 14 -45.5t45 -16.5q33 0 66 23t61.5 72t44.5 127l54 252h83l-114 -536h-68l9 88h-4q-26 -37 -65 -67.5t-92 -30.5zM173 607q13 61 40 94t68 33q29 0 51.5 -14.5t41 -28.5
t35.5 -14q20 0 31 13t21 45h52q-30 -127 -108 -127q-26 0 -48 14t-41.5 28.5t-39.5 14.5q-19 0 -31 -15t-21 -43h-51z" />
    <glyph glyph-name="Umacron" unicode="&#x16a;" horiz-adv-x="602" 
d="M255 -10q-96 0 -144.5 47t-48.5 133q0 18 3 41.5t8 49.5l97 453h86l-98 -457q-5 -22 -7.5 -44.5t-2.5 -37.5q0 -52 28.5 -80t84.5 -28q75 0 113 43.5t58 132.5l101 471h85l-102 -478q-16 -76 -47 -131t-83.5 -85t-130.5 -30zM273 780l14 67h259l-15 -67h-258z" />
    <glyph glyph-name="umacron" unicode="&#x16b;" horiz-adv-x="518" 
d="M164 -10q-56 0 -88 31.5t-32 90.5q0 21 3.5 43t7.5 44l72 337h85l-73 -340q-9 -44 -9 -72q0 -29 14 -45.5t45 -16.5q33 0 66 23t61.5 72t44.5 127l54 252h83l-114 -536h-68l9 88h-4q-26 -37 -65 -67.5t-92 -30.5zM196 607l14 67h259l-15 -67h-258z" />
    <glyph glyph-name="Ubreve" unicode="&#x16c;" horiz-adv-x="602" 
d="M255 -10q-96 0 -144.5 47t-48.5 133q0 18 3 41.5t8 49.5l97 453h86l-98 -457q-5 -22 -7.5 -44.5t-2.5 -37.5q0 -52 28.5 -80t84.5 -28q75 0 113 43.5t58 132.5l101 471h85l-102 -478q-16 -76 -47 -131t-83.5 -85t-130.5 -30zM404 779q-53 0 -84 28t-31 79q0 16 2 27h51
q0 -33 16 -49t54 -16q39 0 60 16.5t29 48.5h54q-15 -69 -53 -101.5t-98 -32.5z" />
    <glyph glyph-name="ubreve" unicode="&#x16d;" horiz-adv-x="518" 
d="M164 -10q-56 0 -88 31.5t-32 90.5q0 21 3.5 43t7.5 44l72 337h85l-73 -340q-9 -44 -9 -72q0 -29 14 -45.5t45 -16.5q33 0 66 23t61.5 72t44.5 127l54 252h83l-114 -536h-68l9 88h-4q-26 -37 -65 -67.5t-92 -30.5zM328 606q-53 0 -84 28t-31 79q0 16 2 27h51q0 -33 16 -49
t54 -16q39 0 60 16.5t29 48.5h54q-15 -69 -53 -101.5t-98 -32.5z" />
    <glyph glyph-name="Uring" unicode="&#x16e;" horiz-adv-x="602" 
d="M255 -10q-96 0 -144.5 47t-48.5 133q0 18 3 41.5t8 49.5l97 453h86l-98 -457q-5 -22 -7.5 -44.5t-2.5 -37.5q0 -52 28.5 -80t84.5 -28q75 0 113 43.5t58 132.5l101 471h85l-102 -478q-16 -76 -47 -131t-83.5 -85t-130.5 -30zM412 780q-48 0 -76.5 27.5t-28.5 75.5t30 75
t75 27q48 0 77 -27t30 -73q0 -49 -30 -77t-77 -28zM413 828q25 0 40 15t15 40t-15 40t-40 15t-40 -15t-15 -40t14 -40t41 -15z" />
    <glyph glyph-name="uring" unicode="&#x16f;" horiz-adv-x="518" 
d="M164 -10q-56 0 -88 31.5t-32 90.5q0 21 3.5 43t7.5 44l72 337h85l-73 -340q-9 -44 -9 -72q0 -29 14 -45.5t45 -16.5q33 0 66 23t61.5 72t44.5 127l54 252h83l-114 -536h-68l9 88h-4q-26 -37 -65 -67.5t-92 -30.5zM337 607q-48 0 -76.5 27.5t-28.5 75.5t30 75t75 27
q48 0 77 -27t30 -73q0 -49 -30 -77t-77 -28zM338 655q25 0 40 15t15 40t-15 40t-40 15t-40 -15t-15 -40t14 -40t41 -15z" />
    <glyph glyph-name="Uhungarumlaut" unicode="&#x170;" horiz-adv-x="602" 
d="M255 -10q-96 0 -144.5 47t-48.5 133q0 18 3 41.5t8 49.5l97 453h86l-98 -457q-5 -22 -7.5 -44.5t-2.5 -37.5q0 -52 28.5 -80t84.5 -28q75 0 113 43.5t58 132.5l101 471h85l-102 -478q-16 -76 -47 -131t-83.5 -85t-130.5 -30zM451 791q30 34 60.5 75t49.5 73h88l-1 -9
q-14 -19 -40.5 -47.5t-57.5 -57t-56 -46.5h-44zM290 791q29 34 59.5 75.5t49.5 72.5h88v-9q-14 -19 -40.5 -47.5t-57.5 -56.5t-57 -47h-43z" />
    <glyph glyph-name="uhungarumlaut" unicode="&#x171;" horiz-adv-x="518" 
d="M164 -10q-56 0 -88 31.5t-32 90.5q0 21 3.5 43t7.5 44l72 337h85l-73 -340q-9 -44 -9 -72q0 -29 14 -45.5t45 -16.5q33 0 66 23t61.5 72t44.5 127l54 252h83l-114 -536h-68l9 88h-4q-26 -37 -65 -67.5t-92 -30.5zM373 618q30 34 60.5 75t49.5 73h88l-1 -9
q-14 -19 -40.5 -47.5t-57.5 -57t-56 -46.5h-44zM212 618q29 34 59.5 75.5t49.5 72.5h88v-9q-14 -19 -40.5 -47.5t-57.5 -56.5t-57 -47h-43z" />
    <glyph glyph-name="Uogonek" unicode="&#x172;" horiz-adv-x="602" 
d="M255 -10q-96 0 -144.5 47t-48.5 133q0 18 3 41.5t8 49.5l97 453h86l-98 -457q-5 -22 -7.5 -44.5t-2.5 -37.5q0 -52 28.5 -80t84.5 -28q75 0 113 43.5t58 132.5l101 471h85l-102 -478q-16 -76 -47 -131t-83.5 -85t-130.5 -30zM240 -220q-37 0 -60 20t-23 58q0 44 27.5 77
t74.5 65h58q-34 -29 -61.5 -60.5t-27.5 -68.5q0 -33 33 -33q9 0 19 1.5t20 3.5l-5 -55q-12 -4 -26.5 -6t-28.5 -2z" />
    <glyph glyph-name="uogonek" unicode="&#x173;" horiz-adv-x="518" 
d="M164 -10q-56 0 -88 31.5t-32 90.5q0 21 3.5 43t7.5 44l72 337h85l-73 -340q-9 -44 -9 -72q0 -29 14 -45.5t45 -16.5q33 0 66 23t61.5 72t44.5 127l54 252h83l-114 -536h-68l9 88h-4q-26 -37 -65 -67.5t-92 -30.5zM301 -220q-37 0 -60 20t-23 58q0 44 27.5 77t74.5 65h58
q-34 -29 -61.5 -60.5t-27.5 -68.5q0 -33 33 -33q9 0 19 1.5t20 3.5l-5 -55q-12 -4 -26.5 -6t-28.5 -2z" />
    <glyph glyph-name="Wcircumflex" unicode="&#x174;" horiz-adv-x="782" 
d="M112 0l-12 714h84l4 -440q1 -42 -1 -82.5t-4 -75.5h2q14 37 31.5 82t35.5 86l188 430h85l7 -424q1 -47 0.5 -93t-1.5 -81h3q14 39 28.5 80.5t31.5 82.5l181 435h91l-309 -714h-93l-7 457q-2 30 -1.5 63.5t1.5 62.5h-3q-9 -28 -20.5 -56.5t-29.5 -68.5l-199 -458h-93z
M344 791q19 19 44.5 45t49 53t38.5 50h79q7 -23 20 -50t27.5 -53t25.5 -45l-1 -12h-51q-16 17 -34 41t-36 51q-29 -28 -57.5 -51.5t-52.5 -40.5h-53z" />
    <glyph glyph-name="wcircumflex" unicode="&#x175;" horiz-adv-x="657" 
d="M69 0l-10 536h82l2 -293q1 -46 -1 -84.5t-4 -66.5h3q10 29 26 68.5t28 67.5l135 308h92l7 -293v-75t-2 -77h3q13 36 29.5 80.5t36.5 90.5l115 274h88l-236 -536h-100l-5 305q-1 34 0 66.5t1 71.5h-3q-11 -30 -21.5 -57t-28.5 -67l-138 -319h-99zM244 618q19 19 44.5 45
t49 53t38.5 50h79q7 -23 20 -50t27.5 -53t25.5 -45l-1 -12h-51q-16 17 -34 41t-36 51q-29 -28 -57.5 -51.5t-52.5 -40.5h-53z" />
    <glyph glyph-name="Ycircumflex" unicode="&#x176;" horiz-adv-x="453" 
d="M122 0l58 271l-91 443h87l63 -348l209 348h95l-278 -445l-57 -269h-86zM181 791q19 19 44.5 45t49 53t38.5 50h79q7 -23 20 -50t27.5 -53t25.5 -45l-1 -12h-51q-16 17 -34 41t-36 51q-29 -28 -57.5 -51.5t-52.5 -40.5h-53z" />
    <glyph glyph-name="ycircumflex" unicode="&#x177;" horiz-adv-x="420" 
d="M-31 -240q-21 0 -35.5 2.5t-27.5 7.5l4 70q12 -4 26 -6.5t29 -2.5q37 0 61.5 24.5t47.5 69.5l36 71l-56 540h84l22 -277q5 -42 6.5 -91t0.5 -80h3q7 18 18.5 45.5t24 55.5t21.5 47l147 300h89l-318 -631q-37 -70 -77 -107.5t-106 -37.5zM117 618q19 19 44.5 45t49 53
t38.5 50h79q7 -23 20 -50t27.5 -53t25.5 -45l-1 -12h-51q-16 17 -34 41t-36 51q-29 -28 -57.5 -51.5t-52.5 -40.5h-53z" />
    <glyph glyph-name="Ydieresis" unicode="&#x178;" horiz-adv-x="453" 
d="M122 0l58 271l-91 443h87l63 -348l209 348h95l-278 -445l-57 -269h-86zM418 804q-18 0 -29 10t-11 30q0 24 14 42t39 18q38 0 38 -38q0 -28 -15.5 -45t-35.5 -17zM249 804q-17 0 -28 10t-11 30q0 24 13.5 42t39.5 18q37 0 37 -38q0 -28 -15 -45t-36 -17z" />
    <glyph glyph-name="Zacute" unicode="&#x179;" horiz-adv-x="459" 
d="M-21 0l13 67l399 570h-269l16 77h370l-13 -68l-399 -569h287l-16 -77h-388zM285 798q29 32 59.5 73.5t51.5 74.5h97v-9q-14 -18 -42 -47.5t-59 -58t-54 -45.5h-54z" />
    <glyph glyph-name="zacute" unicode="&#x17a;" horiz-adv-x="386" 
d="M-23 0l12 57l298 413h-197l14 66h289l-13 -65l-294 -405h218l-13 -66h-314zM210 618q29 32 59.5 73.5t51.5 74.5h97v-9q-14 -18 -42 -47.5t-59 -58t-54 -45.5h-54z" />
    <glyph glyph-name="Zdotaccent" unicode="&#x17b;" horiz-adv-x="459" 
d="M-21 0l13 67l399 570h-269l16 77h370l-13 -68l-399 -569h287l-16 -77h-388zM340 798q-20 0 -32 12t-12 33q0 26 15 46t43 20q43 0 43 -43q0 -30 -17 -49t-40 -19z" />
    <glyph glyph-name="zdotaccent" unicode="&#x17c;" horiz-adv-x="386" 
d="M-23 0l12 57l298 413h-197l14 66h289l-13 -65l-294 -405h218l-13 -66h-314zM270 625q-20 0 -32 12t-12 33q0 26 15 46t43 20q43 0 43 -43q0 -30 -17 -49t-40 -19z" />
    <glyph glyph-name="Zcaron" unicode="&#x17d;" horiz-adv-x="459" 
d="M-21 0l13 67l399 570h-269l16 77h370l-13 -68l-399 -569h287l-16 -77h-388zM291 779q-7 22 -20 49.5t-27 54t-25 44.5l1 12h50q16 -15 34 -39t36 -53q60 56 112 92h52v-12q-17 -16 -43 -43t-51.5 -55.5t-38.5 -49.5h-80z" />
    <glyph glyph-name="zcaron" unicode="&#x17e;" horiz-adv-x="386" 
d="M-23 0l12 57l298 413h-197l14 66h289l-13 -65l-294 -405h218l-13 -66h-314zM218 606q-7 22 -20 49.5t-27 54t-25 44.5l1 12h50q16 -15 34 -39t36 -53q60 56 112 92h52v-12q-17 -16 -43 -43t-51.5 -55.5t-38.5 -49.5h-80z" />
    <glyph glyph-name="longs" unicode="&#x17f;" horiz-adv-x="253" 
d="M-70 -240q-33 0 -58 9v72q11 -4 24 -6.5t27 -2.5q32 0 51 28.5t31 85.5l136 643q19 92 57 134t110 42q23 0 47 -5t40 -13l-25 -65q-13 5 -27.5 8.5t-29.5 3.5q-37 0 -57 -27t-31 -83l-137 -646q-18 -81 -52 -129.5t-106 -48.5z" />
    <glyph glyph-name="uni0180" unicode="&#x180;" horiz-adv-x="520" 
d="M236 -10q-47 0 -77 25t-43 61h-4l-30 -76h-65l129 607h-66l14 64h65l19 89h84l-19 -89h159l-14 -64h-158q-14 -63 -25 -107.5t-14 -53.5h3q32 43 69.5 71t86.5 28q60 0 95.5 -42.5t35.5 -126.5q0 -69 -16.5 -137.5t-48 -125t-77 -90t-103.5 -33.5zM229 61q38 0 68.5 29.5
t52 76.5t33.5 102t12 105q0 100 -73 100q-35 0 -67 -28.5t-57 -75.5t-39.5 -102t-14.5 -108q0 -46 20.5 -72.5t64.5 -26.5z" />
    <glyph glyph-name="uni0181" unicode="&#x181;" horiz-adv-x="623" 
d="M112 0l135 640h-16q-77 0 -77 -71q0 -19 5 -36h-73q-6 15 -6 41q0 62 38 101t118 39h193q85 0 137.5 -37t52.5 -116q0 -71 -39.5 -121.5t-111.5 -65.5v-4q45 -13 73 -49t28 -90q0 -72 -32 -123.5t-89.5 -79.5t-133.5 -28h-202zM380 409q64 0 106.5 37t42.5 102
q0 45 -26.5 68.5t-86.5 23.5h-83l-48 -231h95zM316 74q81 0 122.5 43t41.5 113q0 47 -28 77t-90 30h-93l-55 -263h102z" />
    <glyph glyph-name="uni0182" unicode="&#x182;" horiz-adv-x="508" 
d="M27 0l151 714h331l-17 -77h-244l-48 -224h57q72 0 115.5 -22t63 -60t19.5 -89q0 -117 -72 -179.5t-193 -62.5h-163zM204 74q80 0 121 42.5t41 119.5q0 56 -30.5 79t-86.5 23h-64l-57 -264h76z" />
    <glyph glyph-name="uni0183" unicode="&#x183;" horiz-adv-x="520" 
d="M236 -10q-47 0 -77 25t-43 61h-4l-30 -76h-65l161 760h347l-14 -69h-264l-27 -133q-8 -37 -17.5 -71t-11.5 -41h3q32 43 69.5 71t86.5 28q60 0 95.5 -42.5t35.5 -126.5q0 -67 -16 -135t-47.5 -125t-77 -91.5t-104.5 -34.5zM229 61q38 0 68.5 29t52 75.5t33.5 101.5
t12 107q0 100 -73 100q-35 0 -67 -28.5t-57 -75.5t-39.5 -102t-14.5 -108q0 -46 20.5 -72.5t64.5 -26.5z" />
    <glyph glyph-name="uni0184" unicode="&#x184;" horiz-adv-x="527" 
d="M232 -10q-90 0 -134 37.5t-44 105.5q0 29 7 60l110 521h86l-64 -301h78q105 0 153.5 -49.5t48.5 -127.5q0 -71 -29 -126.5t-83 -87.5t-129 -32zM234 65q66 0 108.5 44t42.5 123q0 53 -34 79.5t-97 26.5h-76l-32 -147q-3 -15 -4.5 -27t-1.5 -23q0 -40 24 -58t70 -18z" />
    <glyph glyph-name="uni0185" unicode="&#x185;" horiz-adv-x="516" 
d="M221 -10q-76 0 -120.5 43t-44.5 130q0 20 4 47t10 54l105 496h84l-44 -205q-5 -26 -14 -59.5t-14 -49.5h3q27 37 65.5 68t88.5 31q64 0 98.5 -44t34.5 -128q0 -66 -15.5 -133.5t-47.5 -124t-80 -91t-113 -34.5zM223 61q41 0 72 30t52.5 77.5t32.5 101.5t11 102
q0 102 -73 102q-38 0 -70.5 -31t-56.5 -79t-37.5 -101t-13.5 -97q0 -105 83 -105z" />
    <glyph glyph-name="uni0186" unicode="&#x186;" horiz-adv-x="514" 
d="M273 724q105 0 162.5 -67.5t57.5 -189.5q0 -63 -14 -129.5t-42.5 -128.5t-71 -111.5t-100 -78.5t-130.5 -29q-89 0 -152 38l38 71q23 -14 51 -23.5t64 -9.5q54 0 97.5 25.5t75 67.5t52.5 94t31 106.5t10 103.5q0 89 -37.5 137t-107.5 48q-35 0 -68.5 -8t-66.5 -20v77
q35 13 70.5 20t80.5 7z" />
    <glyph glyph-name="uni0187" unicode="&#x187;" horiz-adv-x="513" 
d="M278 -10q-104 0 -161.5 67.5t-57.5 189.5q0 63 14 129.5t42 128.5t71 111.5t100.5 78.5t129.5 29q44 0 81 -10l8 36q13 59 43 83.5t74 24.5q17 0 30.5 -3t23.5 -7v-71q-24 9 -45 9q-22 0 -34.5 -13t-19.5 -42l-27 -122q-27 16 -60.5 27.5t-72.5 11.5q-55 0 -98.5 -25.5
t-75 -67.5t-52.5 -94t-31.5 -106.5t-10.5 -103.5q0 -89 38 -137t108 -48q34 0 67.5 8t67.5 20v-77q-35 -13 -70.5 -20t-81.5 -7z" />
    <glyph glyph-name="uni0188" unicode="&#x188;" horiz-adv-x="403" 
d="M213 -10q-80 0 -126.5 46.5t-46.5 139.5q0 67 17 133t50 119.5t82 85.5t112 32q11 0 22 -1t22 -3l24 114q13 59 42 84t72 25q17 0 31 -3t23 -8v-70q-10 4 -20.5 6.5t-22.5 2.5q-21 0 -32.5 -12t-18.5 -42l-40 -191q-24 13 -48 19.5t-51 6.5q-41 0 -74 -25t-56.5 -67
t-35.5 -94.5t-12 -107.5q0 -58 26 -88.5t73 -30.5q29 0 56.5 9t54.5 22v-71q-24 -14 -55.5 -22.5t-67.5 -8.5z" />
    <glyph glyph-name="Dtail" unicode="&#x189;" horiz-adv-x="593" 
d="M26 0l68 323h-65l16 73h65l67 318h150q114 0 177.5 -64t63.5 -194q0 -89 -24 -170.5t-72.5 -146t-121 -102t-169.5 -37.5h-155zM188 76q72 0 126.5 31.5t90.5 85.5t54 122t18 140q0 97 -43 140t-117 43h-70l-51 -242h130l-16 -73h-130l-53 -247h61z" />
    <glyph glyph-name="uni018A" unicode="&#x18a;" horiz-adv-x="679" 
d="M112 0l134 640h-15q-77 0 -77 -71q0 -19 5 -36h-73q-6 15 -6 41q0 62 38 101t118 39h176q114 0 177.5 -64t63.5 -194q0 -89 -24 -170.5t-72 -146t-120.5 -102t-170.5 -37.5h-154zM274 76q72 0 126 31.5t90 85.5t54.5 122t18.5 140q0 97 -43 140t-118 43h-69l-120 -562h61
z" />
    <glyph glyph-name="uni018B" unicode="&#x18b;" horiz-adv-x="510" 
d="M227 0q-101 0 -148 46.5t-47 122.5q0 117 73 184t210 67h58l45 217h-268l17 77h353l-151 -714h-142zM240 75h59l58 270h-50q-87 0 -137 -43.5t-50 -126.5q0 -51 31.5 -75.5t88.5 -24.5z" />
    <glyph glyph-name="uni018C" unicode="&#x18c;" horiz-adv-x="522" 
d="M169 -10q-59 0 -94.5 43t-35.5 128q0 66 16.5 134t48 124.5t76.5 91t104 34.5q47 0 76.5 -24.5t42.5 -60.5h4q5 31 10 60t11 60l23 108h-264l16 72h346l-161 -760h-68l9 90h-3q-33 -44 -70.5 -72t-86.5 -28zM198 61q35 0 67.5 30t57 77.5t39 103t14.5 105.5
q0 44 -20 70.5t-64 26.5q-38 0 -68.5 -29t-52.5 -76t-33.5 -102t-11.5 -106q0 -100 72 -100z" />
    <glyph glyph-name="uni018D" unicode="&#x18d;" horiz-adv-x="504" 
d="M289 545q59 0 99 -24.5t60 -66.5t20 -93q0 -108 -58 -187.5t-165 -109.5q32 -31 48.5 -61t16.5 -77q0 -68 -47 -111.5t-126 -43.5q-54 0 -94 16t-64 34l36 63q25 -16 55.5 -29.5t67.5 -13.5q46 0 68.5 23t22.5 60t-21.5 65t-55.5 61q-45 45 -74.5 97t-29.5 127
q0 71 26.5 132.5t80.5 100t134 38.5zM281 474q-49 0 -82 -29.5t-49.5 -75.5t-16.5 -93q0 -57 19.5 -100t50.5 -69q53 14 93.5 49.5t63 86t22.5 110.5q0 54 -26 87.5t-75 33.5z" />
    <glyph glyph-name="uni018E" unicode="&#x18e;" horiz-adv-x="460" 
d="M-7 0l17 76h239l54 259h-222l15 76h223l49 227h-240l17 76h324l-151 -714h-325z" />
    <glyph glyph-name="uni018F" unicode="&#x18f;" horiz-adv-x="595" 
d="M215 -10q-93 0 -138 45t-45 114q0 119 98 180t305 61h36q3 22 3.5 38.5t0.5 36.5q0 83 -36 133t-111 50q-52 0 -96.5 -12.5t-85.5 -32.5v79q40 19 85.5 31t105.5 12q113 0 170.5 -69t57.5 -188q0 -93 -25.5 -179t-72 -153.5t-110.5 -106.5t-142 -39zM217 66
q58 0 104.5 32t81 88.5t53.5 129.5h-38q-159 0 -228 -43.5t-69 -119.5q0 -38 24 -62.5t72 -24.5z" />
    <glyph glyph-name="uni0190" unicode="&#x190;" horiz-adv-x="476" 
d="M229 -10q-106 0 -155.5 49.5t-49.5 126.5q0 96 53.5 146t139.5 64l1 4q-44 13 -69 47.5t-25 89.5q0 62 28.5 108.5t78 72.5t113.5 26q60 0 98 -15t82 -47l-42 -61q-30 24 -61.5 37t-75.5 13q-59 0 -96.5 -38t-37.5 -101q0 -49 29.5 -77t95.5 -28h70l-16 -74h-77
q-94 0 -146.5 -41t-52.5 -120q0 -52 31 -80t90 -28q44 0 88 11.5t83 31.5v-80q-77 -37 -177 -37z" />
    <glyph glyph-name="uni0191" unicode="&#x191;" horiz-adv-x="528" 
d="M51 -241q-63 0 -96.5 37.5t-33.5 90.5q0 35 14 65l72 -27q-6 -14 -6 -34q0 -23 13 -40t38 -17q30 0 47.5 25.5t29.5 79.5l164 775h308l-16 -76h-223l-47 -227h207l-16 -76h-208l-84 -404q-18 -86 -57 -129t-106 -43z" />
    <glyph glyph-name="fhook" unicode="&#x192;" horiz-adv-x="385" 
d="M42 -242q-58 0 -92 34.5t-34 87.5q0 32 10 54l70 -20q-4 -14 -4 -30q0 -24 12 -39.5t36 -15.5q31 0 46.5 26.5t24.5 71.5l117 542h-80l7 40l87 29l12 51q21 95 58 135.5t108 40.5q23 0 46.5 -5t39.5 -13l-25 -65q-12 5 -26.5 8.5t-30.5 3.5q-35 0 -54.5 -23.5
t-32.5 -82.5l-12 -52h100l-13 -67h-100l-117 -546q-17 -77 -51.5 -121t-101.5 -44z" />
    <glyph glyph-name="uni0193" unicode="&#x193;" horiz-adv-x="609" 
d="M300 -10q-116 0 -178.5 66t-62.5 188q0 100 26.5 187.5t75 153t115 102.5t147.5 37q33 0 60.5 -4t51.5 -12l10 43q13 58 43 82.5t74 24.5q16 0 30 -3t24 -7v-71q-12 4 -23 6.5t-22 2.5q-23 0 -35.5 -13t-18.5 -42l-29 -128q-41 22 -81.5 33.5t-84.5 11.5q-60 0 -110 -32
t-86.5 -87t-56.5 -127t-20 -153q0 -83 39 -133t121 -50q32 0 59 4.5t48 11.5l47 219h-121l16 75h207l-76 -351q-43 -16 -89 -25.5t-100 -9.5z" />
    <glyph glyph-name="Gammalatin" unicode="&#x194;" horiz-adv-x="496" 
d="M144 -239q-46 0 -71.5 30.5t-25.5 76.5q0 96 115 249l-72 597h86l38 -362q4 -37 6.5 -79t2.5 -79q11 32 28.5 70t38.5 77l198 373h97l-333 -606q11 -49 17 -94t6 -83q0 -75 -33.5 -122.5t-97.5 -47.5zM151 -167q16 0 26.5 16t15.5 41t5 52q0 24 -2.5 48.5t-5.5 46.5
q-34 -54 -48.5 -96t-14.5 -69q0 -39 24 -39z" />
    <glyph glyph-name="uni0195" unicode="&#x195;" horiz-adv-x="787" 
d="M485 -10q-78 0 -117 36.5t-39 100.5q0 16 3 35.5t7 38.5l27 133q6 24 8.5 43t2.5 35q0 29 -14 45t-44 16q-31 0 -62.5 -21.5t-58 -70t-42.5 -126.5l-54 -255h-84l161 760h84l-43 -198q-6 -27 -14 -56.5t-15 -57.5h4q24 38 61.5 67.5t90.5 29.5t84.5 -31t31.5 -93
q0 -20 -4 -43t-9 -47l-27 -128q-4 -19 -6.5 -35t-2.5 -30q0 -76 78 -76q53 0 81 35.5t45 117.5l69 321h84l-68 -326q-25 -118 -75 -169t-143 -51z" />
    <glyph glyph-name="Iotalatin" unicode="&#x196;" horiz-adv-x="279" 
d="M145 -10q-47 0 -76.5 24t-29.5 80q0 13 3 31.5t7 38.5l117 550h85l-118 -553q-3 -13 -5 -26.5t-2 -26.5q0 -20 9 -33t32 -13q14 0 28 3.5t31 9.5v-68q-14 -6 -37 -11.5t-44 -5.5z" />
    <glyph glyph-name="uni0197" unicode="&#x197;" horiz-adv-x="303" 
d="M-31 0l10 48l82 18l57 265h-79l16 74h78l52 243l-75 18l10 48h243l-10 -48l-83 -18l-52 -243h79l-16 -74h-79l-55 -265l74 -18l-9 -48h-243z" />
    <glyph glyph-name="uni0198" unicode="&#x198;" horiz-adv-x="522" 
d="M26 0l151 714h86l-75 -350l57 69l195 225q33 38 57.5 50.5t53.5 12.5q14 0 26 -3t20 -6v-69q-10 3 -18 4.5t-18 1.5q-16 0 -30.5 -8.5t-37.5 -34.5l-181 -211l137 -395h-94l-112 339l-72 -59l-59 -280h-86z" />
    <glyph glyph-name="uni0199" unicode="&#x199;" horiz-adv-x="446" 
d="M153 641q13 62 41.5 93.5t85.5 31.5q16 0 31.5 -3.5t24.5 -7.5v-70q-8 3 -20.5 6t-25.5 3q-21 0 -34 -13t-19 -43l-44 -204q-13 -58 -23 -95.5t-16 -58.5h2l228 256h97l-205 -225l112 -311h-92l-87 252l-68 -60l-39 -192h-85z" />
    <glyph glyph-name="uni019A" unicode="&#x19a;" horiz-adv-x="233" 
d="M17 0l76 353h-61l14 65h61l72 342h84l-73 -342h62l-14 -65h-62l-75 -353h-84z" />
    <glyph glyph-name="uni019B" unicode="&#x19b;" horiz-adv-x="444" 
d="M349 -10q-45 0 -66 25.5t-25 83.5l-12 187q-2 30 -3.5 64t-1.5 67q-10 -28 -21.5 -54.5t-24.5 -50.5l-161 -312h-88l281 520l-5 67l-91 -24l-15 61l98 26q-11 46 -52 46q-22 0 -43 -6l-7 68q12 3 29.5 5.5t34.5 2.5q54 0 80.5 -24t36.5 -72l89 24l15 -61l-95 -25l35 -493
q4 -54 33 -54q7 0 15.5 1t16.5 4v-66q-24 -10 -53 -10z" />
    <glyph glyph-name="uni019C" unicode="&#x19c;" horiz-adv-x="852" 
d="M193 -10q-63 0 -102 35t-39 102q0 16 2.5 34.5t6.5 36.5l109 516h86l-108 -510q-4 -17 -6.5 -33t-2.5 -29q0 -36 19 -55.5t55 -19.5q67 0 105.5 46.5t58.5 137.5l98 463h86l-108 -511q-4 -17 -6 -33t-2 -29q0 -35 17.5 -54.5t54.5 -19.5q71 0 108 54.5t58 148.5l94 444
h85l-151 -714h-65l9 77h-4q-57 -87 -157 -87q-103 0 -125 93h-4q-65 -93 -172 -93z" />
    <glyph glyph-name="uni019D" unicode="&#x19d;" horiz-adv-x="636" 
d="M-44 -222q-17 0 -32 4t-24 10v72q9 -4 20 -7.5t23 -3.5q25 0 41.5 16.5t25.5 57.5l166 787h95l173 -582h3q6 42 16 95.5t19 96.5l83 390h82l-151 -714h-94l-175 587h-3q-3 -27 -9.5 -64.5t-14 -75.5t-13.5 -68l-98 -465q-13 -62 -43.5 -99t-89.5 -37z" />
    <glyph glyph-name="uni019E" unicode="&#x19e;" horiz-adv-x="517" 
d="M373 335q5 23 8.5 42.5t3.5 35.5q0 58 -58 58q-51 0 -98 -52t-72 -167l-54 -252h-88l114 538h73l-11 -89h3q26 40 65.5 69.5t90.5 29.5q57 0 90.5 -31.5t33.5 -91.5q0 -22 -4 -46.5t-9 -45.5l-123 -573h-87z" />
    <glyph glyph-name="uni019F" unicode="&#x19f;" horiz-adv-x="640" 
d="M282 -10q-110 0 -167.5 66t-57.5 186q0 89 22 175t65.5 155.5t106 111t142.5 41.5q106 0 163 -66t57 -186q0 -89 -21 -175t-62.5 -155.5t-103.5 -111t-144 -41.5zM518 401q3 19 4.5 37.5t1.5 36.5q0 84 -36 129t-100 45q-57 0 -101 -34t-74.5 -90t-45.5 -124h351zM286 67
q58 0 102 36t73.5 95t44.5 128h-353q-7 -44 -7 -83q0 -86 37 -131t103 -45z" />
    <glyph glyph-name="Ohorn" unicode="&#x1a0;" horiz-adv-x="639" 
d="M283 -10q-110 0 -167.5 66t-57.5 186q0 89 22.5 175t65.5 155.5t105.5 111t142.5 41.5q133 0 186 -105q39 18 58 52.5t28 87.5h86l4 -11q-15 -68 -52.5 -112.5t-104.5 -70.5q7 -21 10.5 -44t3.5 -49q0 -90 -21 -176t-62.5 -155.5t-103.5 -110.5t-143 -41zM288 67
q56 0 99.5 37t74 97t46 132t15.5 141q0 85 -35.5 129.5t-99.5 44.5q-57 0 -101 -35.5t-75 -95t-47 -131t-16 -143.5q0 -86 36.5 -131t102.5 -45z" />
    <glyph glyph-name="ohorn" unicode="&#x1a1;" horiz-adv-x="515" 
d="M211 -9q-81 0 -127 50.5t-46 139.5q0 62 16 126t48 118t79.5 86.5t110.5 32.5q96 0 140 -71q41 19 59.5 56t26.5 88h86l4 -11q-15 -68 -51.5 -112.5t-102.5 -68.5q11 -33 11 -72q0 -62 -16 -126t-48 -117.5t-79.5 -86t-110.5 -32.5zM217 62q36 0 65.5 24.5t51 66.5
t33.5 96t12 112q0 45 -21 78.5t-69 33.5q-39 0 -70 -27t-52.5 -70.5t-32.5 -95.5t-11 -103q0 -56 24.5 -85.5t69.5 -29.5z" />
    <glyph glyph-name="uni01A2" unicode="&#x1a2;" horiz-adv-x="902" 
d="M282 -10q-109 0 -166.5 66t-57.5 186q0 89 22.5 174.5t65.5 155.5t105 111.5t141 41.5q116 0 171 -85q34 39 79.5 62t96.5 23q69 0 106.5 -36.5t37.5 -100.5q0 -33 -9 -72l-108 -516h-85l107 510q4 17 6.5 34t2.5 30q0 74 -77 74q-40 0 -73 -17.5t-58 -44.5
q18 -50 18 -113q0 -68 -13 -136.5t-39 -131t-64.5 -111t-91 -76.5t-117.5 -28zM286 67q55 0 97.5 36.5t72.5 97t45.5 132t15.5 141.5q0 85 -35.5 129.5t-96.5 44.5q-45 0 -82 -24.5t-66 -66t-48.5 -94t-29.5 -109.5t-10 -111q0 -86 36.5 -131t100.5 -45z" />
    <glyph glyph-name="uni01A3" unicode="&#x1a3;" horiz-adv-x="732" 
d="M594 341q4 19 7 37t3 33q0 62 -58 62q-59 0 -97 -60q4 -13 6 -28t2 -32q0 -58 -15 -121t-46 -117.5t-78 -89t-111 -34.5q-79 0 -123 50.5t-44 139.5q0 45 9.5 95t29 97.5t50 86t71.5 61.5t94 23q96 0 136 -79q30 42 66 61.5t76 19.5q55 0 85.5 -32t30.5 -91
q0 -16 -2.5 -36t-6.5 -40l-125 -587h-84zM213 62q34 0 63 24.5t50.5 66.5t33 95.5t11.5 112.5q0 45 -18.5 78.5t-61.5 33.5q-40 0 -70.5 -26t-52 -69.5t-32.5 -95.5t-11 -104q0 -56 22 -86t66 -30z" />
    <glyph glyph-name="uni01A4" unicode="&#x1a4;" horiz-adv-x="593" 
d="M111 0l135 640h-15q-77 0 -77 -71q0 -19 5 -36h-73q-6 15 -6 41q0 62 38 101t118 39h167q103 0 149.5 -48t46.5 -127q0 -120 -73.5 -190t-212.5 -70h-57l-59 -279h-86zM321 353q89 0 139.5 46t50.5 134q0 55 -30 80.5t-90 25.5h-59l-60 -286h49z" />
    <glyph glyph-name="uni01A5" unicode="&#x1a5;" horiz-adv-x="520" 
d="M153 641q14 63 42 94t85 31q16 0 31.5 -3.5t24.5 -7.5v-70q-8 3 -20.5 6t-25.5 3q-21 0 -34 -13.5t-19 -44.5l-14 -65q-8 -37 -16 -67t-16 -58h3q33 43 71 71t86 28q60 0 95 -43t35 -127q0 -67 -16 -135t-47.5 -124.5t-76.5 -91t-104 -34.5q-47 0 -77 25t-44 61h-4
q-2 -19 -6 -46.5t-8 -46.5l-47 -220h-83zM229 61q38 0 68.5 29t52.5 75.5t33.5 101.5t11.5 108q0 100 -73 100q-33 0 -65 -28t-57.5 -74.5t-40.5 -102t-15 -111.5q0 -45 20.5 -71.5t64.5 -26.5z" />
    <glyph glyph-name="uni01A6" unicode="&#x1a6;" horiz-adv-x="517" 
d="M332 -100l-84 296h-96l-41 -196h-85l151 714h86l-21 -100h54q98 0 148 -44t50 -127q0 -82 -40 -143.5t-126 -84.5l98 -315h-94zM234 270q60 0 97.5 22t55.5 59.5t18 83.5q0 56 -30 80t-89 24h-61l-56 -269h65z" />
    <glyph glyph-name="uni01A7" unicode="&#x1a7;" horiz-adv-x="471" 
d="M205 -10q-89 0 -140 44t-51 122q0 71 31 115t80.5 73t107.5 52q55 23 91.5 44t54.5 48.5t18 69.5q0 41 -26.5 65t-72.5 24q-34 0 -68 -10t-67 -26l-22 75q36 17 80 27.5t87 10.5q85 0 132 -45t47 -117q0 -63 -27 -106t-74.5 -74t-109.5 -56q-59 -24 -97.5 -45
t-57.5 -48.5t-19 -69.5q0 -45 29 -70.5t81 -25.5q47 0 87 10t77 27v-78q-35 -16 -78.5 -26t-92.5 -10z" />
    <glyph glyph-name="uni01A8" unicode="&#x1a8;" horiz-adv-x="396" 
d="M168 -10q-77 0 -119.5 35.5t-42.5 102.5q0 50 24.5 83.5t64 56t83.5 39.5q50 17 78.5 32t41 32.5t12.5 43.5q0 28 -19 44.5t-56 16.5q-29 0 -59 -9.5t-60 -23.5l-20 67q73 36 147 36q71 0 111 -34t40 -93q0 -49 -22.5 -81.5t-63 -54.5t-92.5 -41q-54 -21 -89 -44t-35 -68
q0 -33 20.5 -51.5t63.5 -18.5q39 0 74 12t65 27v-75q-30 -15 -66.5 -24.5t-80.5 -9.5z" />
    <glyph glyph-name="uni01A9" unicode="&#x1a9;" horiz-adv-x="464" 
d="M-21 0l14 71l229 304l-93 268l15 71h364l-16 -77h-174q-22 0 -52 0.5t-45 1.5l84 -259l-2 -14l-217 -290q30 0 61 0.5t62 0.5h173l-16 -77h-387z" />
    <glyph glyph-name="uni01AA" unicode="&#x1aa;" horiz-adv-x="263" 
d="M116 -240q-48 0 -77 24t-29 80q0 13 2.5 32t6.5 38l130 611h-24q-56 0 -82 29.5t-26 72.5q0 52 31 87.5t96 35.5q54 0 81 -30.5t27 -80.5q0 -10 -1 -22t-4 -24l-146 -684q-2 -13 -4 -26.5t-2 -25.5q0 -20 9 -33t32 -13q14 0 28 3.5t31 8.5v-66q-14 -6 -36.5 -11.5
t-42.5 -5.5zM135 610h27l5 21q3 15 3 28q0 46 -37 46q-22 0 -33.5 -15.5t-11.5 -37.5q0 -42 47 -42z" />
    <glyph glyph-name="uni01AB" unicode="&#x1ab;" horiz-adv-x="298" 
d="M82 -222q-17 0 -30.5 3t-22.5 8v71q11 -4 22 -6.5t23 -2.5q23 0 34.5 13.5t18.5 44.5l18 82q-45 2 -72.5 27t-27.5 79q0 31 9 71l63 301h-70l9 42l78 32l55 115h53l-27 -122h114l-14 -67h-113l-64 -303q-3 -14 -6 -29.5t-3 -28.5q0 -21 11 -34t35 -13q31 0 66 11
l-40 -184q-12 -59 -42 -84.5t-77 -25.5z" />
    <glyph glyph-name="uni01AC" unicode="&#x1ac;" horiz-adv-x="486" 
d="M163 0l135 637h-66q-41 0 -59.5 -17.5t-18.5 -51.5q0 -19 5 -35h-73q-3 6 -4.5 18t-1.5 23q0 61 38 100.5t120 39.5h332l-16 -77h-169l-136 -637h-86z" />
    <glyph glyph-name="uni01AD" unicode="&#x1ad;" horiz-adv-x="298" 
d="M155 -10q-50 0 -80 25t-30 82q0 31 9 73l63 299h-70l9 42l77 31l14 63q16 75 48.5 117.5t103.5 42.5q18 0 34.5 -3.5t27.5 -7.5v-71q-9 3 -25 6t-32 3q-31 0 -47.5 -19t-23.5 -55l-18 -82h114l-14 -67h-113l-64 -303q-3 -14 -6 -29.5t-3 -28.5q0 -21 10 -34t34 -13
q15 0 30 3t32 8v-65q-14 -7 -37.5 -12t-42.5 -5z" />
    <glyph glyph-name="uni01AE" unicode="&#x1ae;" horiz-adv-x="443" 
d="M202 -226q-48 0 -76 26t-28 73q0 21 7 53l150 711h-169l17 77h424l-16 -77h-168l-151 -710q-5 -21 -5 -38q0 -21 11.5 -30.5t29.5 -9.5q22 0 41 9v-72q-10 -5 -29 -8.5t-38 -3.5z" />
    <glyph glyph-name="Uhorn" unicode="&#x1af;" horiz-adv-x="649" 
d="M256 -10q-96 0 -145 47.5t-49 134.5q0 39 11 89l97 453h86l-98 -458q-10 -47 -10 -77q0 -53 27 -82.5t86 -29.5q73 0 112 43.5t59 133.5l101 470h85l-21 -98q37 9 61.5 44t35.5 100h86l3 -11q-16 -81 -68 -130.5t-130 -62.5l-69 -320q-16 -76 -47 -131t-82.5 -85
t-130.5 -30z" />
    <glyph glyph-name="uhorn" unicode="&#x1b0;" horiz-adv-x="564" 
d="M162 -10q-55 0 -87 31.5t-32 92.5q0 20 3.5 41.5t8.5 44.5l71 336h85l-73 -340q-4 -21 -6.5 -39t-2.5 -31q0 -30 14 -47t45 -17q33 0 66 23t61 72t45 127l54 252h83l-14 -64q78 17 98 145h86l4 -11q-17 -80 -68.5 -130t-131.5 -64l-88 -412h-68l9 88h-4
q-26 -37 -65 -67.5t-93 -30.5z" />
    <glyph glyph-name="Upsilonlatin" unicode="&#x1b1;" horiz-adv-x="648" 
d="M290 -11q-77 0 -128 32t-76.5 87.5t-25.5 126.5q0 86 25.5 161.5t71 136.5t103.5 105h-151l16 76h254l-14 -69q-63 -44 -111.5 -106t-75.5 -138.5t-27 -162.5q0 -77 35.5 -124.5t110.5 -47.5q56 0 98.5 31.5t71.5 83.5t43.5 113t14.5 120q0 79 -21.5 133.5t-60.5 97.5
l14 69h248l-16 -76h-157q33 -37 57 -95t24 -139q0 -78 -21.5 -152t-63 -133.5t-101.5 -94.5t-137 -35z" />
    <glyph glyph-name="uni01B2" unicode="&#x1b2;" horiz-adv-x="602" 
d="M255 -10q-96 0 -144.5 47t-48.5 133q0 18 3 41.5t8 49.5l97 453h86l-98 -457q-5 -22 -7.5 -44.5t-2.5 -37.5q0 -52 28.5 -80t84.5 -28q75 0 113.5 43.5t57.5 132.5l69 322q2 10 3.5 20t1.5 19q0 45 -41 45q-28 0 -57 -16v74q16 7 38 12t45 5q43 0 72.5 -25.5t29.5 -76.5
q0 -12 -1 -25t-5 -29l-71 -332q-16 -76 -47 -131t-83.5 -85t-130.5 -30z" />
    <glyph glyph-name="uni01B3" unicode="&#x1b3;" horiz-adv-x="485" 
d="M122 0l58 271l-91 443h87l63 -348l159 274q24 40 49.5 60.5t67.5 20.5q10 0 25 -2t24 -6l-11 -69q-11 5 -26 5q-13 0 -27.5 -7t-32.5 -37l-202 -336l-57 -269h-86z" />
    <glyph glyph-name="uni01B4" unicode="&#x1b4;" horiz-adv-x="450" 
d="M-31 -240q-21 0 -35.5 2.5t-27.5 7.5l4 70q12 -4 26 -6.5t29 -2.5q37 0 61.5 24t47.5 70l36 71l-56 540h84l22 -277q5 -42 6.5 -91t0.5 -80h3q7 18 18 45.5t23.5 55.5t22.5 47l105 214q26 52 48 74t59 22q15 0 27.5 -3t21.5 -8l-8 -66q-5 3 -12 5t-14 2q-15 0 -25 -12.5
t-25 -42.5l-259 -516q-36 -70 -76.5 -107.5t-106.5 -37.5z" />
    <glyph glyph-name="uni01B5" unicode="&#x1b5;" horiz-adv-x="455" 
d="M-21 0l13 67l189 270h-107l14 69h143l160 231h-269l16 77h370l-13 -68l-168 -240h100l-14 -69h-136l-181 -260h287l-16 -77h-388z" />
    <glyph glyph-name="uni01B6" unicode="&#x1b6;" horiz-adv-x="384" 
d="M-23 0l12 57l134 187h-80l14 68h117l113 158h-197l14 66h289l-13 -65l-115 -159h82l-15 -68h-118l-128 -178h218l-13 -66h-314z" />
    <glyph glyph-name="uni01B7" unicode="&#x1b7;" horiz-adv-x="477" 
d="M149 -10q-38 0 -80.5 9t-73.5 27v84q33 -21 74 -33.5t83 -12.5q63 0 101.5 23t56.5 60.5t18 80.5q0 58 -34.5 84t-95.5 26h-63l13 66l223 233h-244l16 77h352l-14 -68l-237 -244q79 -4 126.5 -47t47.5 -126q0 -66 -30.5 -120.5t-90 -86.5t-148.5 -32z" />
    <glyph glyph-name="uni01B8" unicode="&#x1b8;" horiz-adv-x="476" 
d="M225 -10q-102 0 -151.5 49t-49.5 130q0 75 34.5 125.5t93 77t129.5 30.5l-151 242l15 70h366l-16 -77h-272l151 -241l-13 -63h-41q-58 0 -104.5 -16.5t-74 -52t-27.5 -93.5q0 -53 32.5 -80t93.5 -27q41 0 84 12t83 31v-80q-40 -19 -85 -28t-97 -9z" />
    <glyph glyph-name="uni01B9" unicode="&#x1b9;" horiz-adv-x="427" 
d="M160 -240q-95 0 -144 55t-49 141q0 83 34.5 141.5t94 90.5t132.5 36l-143 248l13 64h343l-15 -71h-253l145 -249l-13 -60h-53q-87 0 -143.5 -50.5t-56.5 -144.5q0 -62 33 -96t86 -34q46 0 81.5 11.5t66.5 28.5v-76q-30 -16 -70.5 -25.5t-88.5 -9.5z" />
    <glyph glyph-name="uni01BA" unicode="&#x1ba;" horiz-adv-x="404" 
d="M93 -240q-75 0 -115.5 32.5t-40.5 89.5q0 62 39 97t134 53q71 14 110 39.5t39 84.5q0 49 -35.5 68t-88.5 19h-47l11 59l175 163h-211l15 71h319l-12 -61l-187 -171q64 -8 105 -45.5t41 -105.5q0 -86 -55 -130t-170 -64q-58 -10 -80 -27.5t-22 -45.5q0 -25 20 -40t61 -15
q40 0 74 9t59 21v-74q-26 -11 -61.5 -19t-76.5 -8z" />
    <glyph glyph-name="uni01BB" unicode="&#x1bb;" horiz-adv-x="479" 
d="M-26 0l15 69l246 280h-149l15 68h191q39 48 59.5 93.5t20.5 95.5q0 41 -22 64t-60 23t-70 -15.5t-65 -40.5l-38 58q37 31 81.5 50.5t99.5 19.5q75 0 117.5 -42t42.5 -107q0 -55 -20 -105t-56 -94h88l-15 -68h-123l-238 -270v-4h289l-14 -75h-395z" />
    <glyph glyph-name="uni01BC" unicode="&#x1bc;" horiz-adv-x="478" 
d="M157 -10q-44 0 -87 8t-75 27v83q33 -21 75 -32.5t85 -11.5q87 0 133.5 47.5t46.5 126.5q0 63 -34.5 92t-94.5 29h-84l61 278h-66l17 77h361l-16 -77h-215l-45 -208h14q94 0 142 -51.5t48 -134.5q0 -75 -30.5 -132t-90 -89t-145.5 -32z" />
    <glyph glyph-name="uni01BD" unicode="&#x1bd;" horiz-adv-x="408" 
d="M135 -10q-94 0 -143 32v78q27 -17 62.5 -28t76.5 -11q36 0 66.5 12.5t49.5 39.5t19 69t-31 62.5t-85 20.5h-62l43 200h-53l14 71h305l-14 -71h-174l-29 -134h14q78 0 116 -41.5t38 -103.5q0 -86 -54.5 -141t-158.5 -55z" />
    <glyph glyph-name="uni01BE" unicode="&#x1be;" horiz-adv-x="380" 
d="M127 -10q-41 0 -78.5 8.5t-58.5 22.5v79q22 -15 57.5 -27.5t72.5 -12.5q61 0 89 26t28 62q0 25 -13 44.5t-50 45.5q-24 17 -38.5 37t-14.5 51q0 22 7 52l19 91h-70l8 42l78 32l55 115h54l-27 -122h113l-14 -67h-112l-21 -94q-5 -21 -5 -35q0 -16 7 -26t20 -20
q43 -30 65 -59.5t22 -78.5q0 -77 -52 -121.5t-141 -44.5z" />
    <glyph glyph-name="uni01BF" unicode="&#x1bf;" horiz-adv-x="512" 
d="M-32 -237l164 773h69l-11 -92h3q26 44 64.5 72.5t89.5 28.5q66 0 99 -43t33 -119q0 -97 -47.5 -180t-132.5 -139.5t-199 -73.5l-49 -227h-83zM114 64q82 14 144.5 60t98 112t35.5 140q0 45 -17 72t-56 27q-40 0 -73 -32t-56.5 -83t-35.5 -108z" />
    <glyph glyph-name="uni01C0" unicode="&#x1c0;" horiz-adv-x="301" 
d="M56 0l162 761h75l-162 -761h-75z" />
    <glyph glyph-name="uni01C1" unicode="&#x1c1;" horiz-adv-x="515" 
d="M56 0l162 761h75l-162 -761h-75zM270 0l162 761h75l-162 -761h-75z" />
    <glyph glyph-name="uni01C2" unicode="&#x1c2;" horiz-adv-x="476" 
d="M143 0l56 267h-138l16 69h138l21 101h-138l15 70h138l54 254h75l-54 -254h138l-15 -70h-138l-21 -101h138l-15 -69h-138l-57 -267h-75z" />
    <glyph glyph-name="uni01C3" unicode="&#x1c3;" horiz-adv-x="251" 
d="M71 200l94 514h101l-127 -514h-68zM65 -12q-49 0 -49 50q0 32 18 56.5t54 24.5q21 0 34 -13t13 -38q0 -30 -18 -55t-52 -25z" />
    <glyph glyph-name="uni01C4" unicode="&#x1c4;" horiz-adv-x="1052" 
d="M26 0l151 714h150q114 0 177.5 -64t63.5 -194q0 -89 -24 -170.5t-72.5 -146t-121 -102t-169.5 -37.5h-155zM188 76q72 0 126.5 31.5t90.5 85.5t54 122t18 140q0 97 -43 140t-117 43h-70l-120 -562h61zM572 0l13 67l399 570h-269l16 77h370l-13 -68l-399 -569h287l-16 -77
h-388zM881 784q-7 22 -20 49.5t-27 54t-25 44.5l1 12h50q16 -15 34 -39t36 -53q60 56 112 92h52v-12q-17 -16 -43 -43t-51.5 -55.5t-38.5 -49.5h-80z" />
    <glyph glyph-name="uni01C5" unicode="&#x1c5;" horiz-adv-x="979" 
d="M26 0l151 714h150q114 0 177.5 -64t63.5 -194q0 -89 -24 -170.5t-72.5 -146t-121 -102t-169.5 -37.5h-155zM188 76q72 0 126.5 31.5t90.5 85.5t54 122t18 140q0 97 -43 140t-117 43h-70l-120 -562h61zM570 0l12 57l298 413h-197l14 66h289l-13 -65l-294 -405h218l-13 -66
h-314zM812 606q-7 22 -20 49.5t-27 54t-25 44.5l1 12h50q16 -15 34 -39t36 -53q60 56 112 92h52v-12q-17 -16 -43 -43t-51.5 -55.5t-38.5 -49.5h-80z" />
    <glyph glyph-name="uni01C6" unicode="&#x1c6;" horiz-adv-x="907" 
d="M169 -10q-59 0 -94.5 43t-35.5 128q0 66 16.5 134t48 124.5t76.5 91t104 34.5q47 0 76.5 -24.5t42.5 -60.5h4q5 31 9.5 60t11.5 60l38 180h83l-161 -760h-68l9 90h-3q-33 -44 -70.5 -72t-86.5 -28zM198 61q35 0 67.5 30t57 77.5t39 103t14.5 105.5q0 44 -20 70.5
t-64 26.5q-38 0 -68.5 -29t-52.5 -76t-33.5 -102t-11.5 -106q0 -100 72 -100zM499 0l12 57l298 413h-197l14 66h289l-13 -65l-294 -405h218l-13 -66h-314zM739 606q-7 22 -20 49.5t-27 54t-25 44.5l1 12h50q16 -15 34 -39t36 -53q60 56 112 92h52v-12q-17 -16 -43 -43
t-51.5 -55.5t-38.5 -49.5h-80z" />
    <glyph glyph-name="uni01C7" unicode="&#x1c7;" horiz-adv-x="673" 
d="M26 0l151 714h86l-136 -637h238l-16 -77h-323zM346 -191q-47 0 -73 12l9 75q13 -4 29 -7t33 -3q84 0 110 120l150 708h86l-152 -720q-21 -98 -70 -141.5t-122 -43.5z" />
    <glyph glyph-name="uni01C8" unicode="&#x1c8;" horiz-adv-x="660" 
d="M26 0l151 714h86l-136 -637h238l-16 -77h-323zM624 625q-19 0 -31 11.5t-12 32.5q0 26 15 46.5t43 20.5q42 0 42 -42q0 -30 -17 -49.5t-40 -19.5zM357 -240q-34 0 -58 9v72q24 -9 52 -9q31 0 50 25t31 83l126 596h83l-128 -603q-11 -52 -29 -91t-48.5 -60.5t-78.5 -21.5z
" />
    <glyph glyph-name="uni01C9" unicode="&#x1c9;" horiz-adv-x="468" 
d="M17 0l162 760h84l-162 -760h-84zM431 625q-19 0 -31 11.5t-12 32.5q0 26 15 46.5t43 20.5q42 0 42 -42q0 -30 -17 -49.5t-40 -19.5zM164 -240q-34 0 -58 9v72q24 -9 52 -9q31 0 50 25t31 83l126 596h83l-128 -603q-11 -52 -29 -91t-48.5 -60.5t-78.5 -21.5z" />
    <glyph glyph-name="uni01CA" unicode="&#x1ca;" horiz-adv-x="883" 
d="M25 0l151 714h95l173 -582h3q6 42 16 95.5t19 96.5l83 390h82l-151 -714h-94l-175 587h-3q-3 -27 -9.5 -64t-14 -75t-13.5 -68l-80 -380h-82zM556 -191q-47 0 -73 12l9 75q13 -4 29 -7t33 -3q84 0 110 120l150 708h86l-152 -720q-21 -98 -70 -141.5t-122 -43.5z" />
    <glyph glyph-name="uni01CB" unicode="&#x1cb;" horiz-adv-x="870" 
d="M25 0l151 714h95l173 -582h3q6 42 16 95.5t19 96.5l83 390h82l-151 -714h-94l-175 587h-3q-3 -27 -9.5 -64t-14 -75t-13.5 -68l-80 -380h-82zM834 625q-19 0 -31 11.5t-12 32.5q0 26 15 46.5t43 20.5q42 0 42 -42q0 -30 -17 -49.5t-40 -19.5zM567 -240q-34 0 -58 9v72
q24 -9 52 -9q31 0 50 25t31 83l126 596h83l-128 -603q-11 -52 -29 -91t-48.5 -60.5t-78.5 -21.5z" />
    <glyph glyph-name="uni01CC" unicode="&#x1cc;" horiz-adv-x="752" 
d="M15 0l114 538h73l-11 -89h2q26 38 64.5 68.5t93.5 30.5q56 0 89.5 -31.5t33.5 -91.5q0 -22 -4 -47t-9 -46l-71 -332h-88l71 336q5 23 8.5 42t3.5 35q0 58 -59 58q-48 0 -96 -51.5t-73 -167.5l-54 -252h-88zM715 625q-19 0 -31 11.5t-12 32.5q0 26 15 46.5t43 20.5
q42 0 42 -42q0 -30 -17 -49.5t-40 -19.5zM448 -240q-34 0 -58 9v72q24 -9 52 -9q31 0 50 25t31 83l126 596h83l-128 -603q-11 -52 -29 -91t-48.5 -60.5t-78.5 -21.5z" />
    <glyph glyph-name="uni01CD" unicode="&#x1cd;" horiz-adv-x="504" 
d="M-60 0l355 715h97l57 -715h-86l-17 224h-204l-108 -224h-94zM179 301h163l-9 187q-2 33 -4 70t-2 66h-3q-12 -31 -27.5 -66t-33.5 -72zM317 784q-7 22 -20 49.5t-27 54t-25 44.5l1 12h50q16 -15 34 -39t36 -53q60 56 112 92h52v-12q-17 -16 -43 -43t-51.5 -55.5
t-38.5 -49.5h-80z" />
    <glyph glyph-name="uni01CE" unicode="&#x1ce;" horiz-adv-x="515" 
d="M170 -10q-60 0 -95 43.5t-35 127.5q0 68 16.5 136t48.5 124.5t77.5 90.5t102.5 34q46 0 75 -25t43 -62h5l28 77h67l-114 -536h-67l10 91h-3q-32 -43 -71.5 -72t-87.5 -29zM197 61q36 0 67.5 27t56 71.5t38.5 96.5q9 36 13 65.5t4 55.5q0 44 -22 70.5t-60 26.5
q-37 0 -68 -28t-53.5 -74t-34.5 -101t-12 -110q0 -100 71 -100zM284 606q-7 22 -20 49.5t-27 54t-25 44.5l1 12h50q16 -15 34 -39t36 -53q60 56 112 92h52v-12q-17 -16 -43 -43t-51.5 -55.5t-38.5 -49.5h-80z" />
    <glyph glyph-name="uni01CF" unicode="&#x1cf;" horiz-adv-x="301" 
d="M-31 0l10 48l82 18l124 582l-75 18l10 48h243l-10 -48l-83 -18l-123 -582l74 -18l-9 -48h-243zM215 784q-7 22 -20 49.5t-27 54t-25 44.5l1 12h50q16 -15 34 -39t36 -53q60 56 112 92h52v-12q-17 -16 -43 -43t-51.5 -55.5t-38.5 -49.5h-80z" />
    <glyph glyph-name="uni01D0" unicode="&#x1d0;" horiz-adv-x="234" 
d="M17 0l114 536h84l-114 -536h-84zM144 606q-7 22 -20 49.5t-27 54t-25 44.5l1 12h50q16 -15 34 -39t36 -53q60 56 112 92h52v-12q-17 -16 -43 -43t-51.5 -55.5t-38.5 -49.5h-80z" />
    <glyph glyph-name="uni01D1" unicode="&#x1d1;" horiz-adv-x="639" 
d="M283 -10q-110 0 -167.5 66t-57.5 186q0 89 22.5 174.5t65.5 155t105.5 111.5t142.5 42q106 0 162.5 -66t56.5 -186q0 -68 -13 -136.5t-39 -131t-65.5 -111t-92.5 -76.5t-120 -28zM288 67q56 0 100 36.5t74 97t45.5 132t15.5 141.5q0 85 -35.5 129.5t-99.5 44.5
q-47 0 -85 -24.5t-66.5 -66.5t-48 -94.5t-29.5 -109t-10 -110.5q0 -86 36.5 -131t102.5 -45zM384 784q-7 22 -20 49.5t-27 54t-25 44.5l1 12h50q16 -15 34 -39t36 -53q60 56 112 92h52v-12q-17 -16 -43 -43t-51.5 -55.5t-38.5 -49.5h-80z" />
    <glyph glyph-name="uni01D2" unicode="&#x1d2;" horiz-adv-x="506" 
d="M213 -9q-81 0 -127 50.5t-46 139.5q0 58 15 121t46 118t79 89.5t114 34.5q81 0 127 -50.5t46 -140.5q0 -62 -16 -125.5t-47.5 -117t-79 -86.5t-111.5 -33zM219 62q35 0 64.5 24t51.5 66t34 95.5t12 112.5q0 44 -21 78.5t-69 34.5q-40 0 -71 -26.5t-52.5 -70.5t-32 -95.5
t-10.5 -101.5q0 -56 24 -86.5t70 -30.5zM269 603q-7 22 -20 49.5t-27 54t-25 44.5l1 12h50q16 -15 34 -39t36 -53q60 56 112 92h52v-12q-17 -16 -43 -43t-51.5 -55.5t-38.5 -49.5h-80z" />
    <glyph glyph-name="uni01D3" unicode="&#x1d3;" horiz-adv-x="602" 
d="M255 -10q-96 0 -144.5 47t-48.5 133q0 18 3 41.5t8 49.5l97 453h86l-98 -457q-5 -22 -7.5 -44.5t-2.5 -37.5q0 -52 28.5 -80t84.5 -28q75 0 113 43.5t58 132.5l101 471h85l-102 -478q-16 -76 -47 -131t-83.5 -85t-130.5 -30zM366 784q-7 22 -20 49.5t-27 54t-25 44.5
l1 12h50q16 -15 34 -39t36 -53q60 56 112 92h52v-12q-17 -16 -43 -43t-51.5 -55.5t-38.5 -49.5h-80z" />
    <glyph glyph-name="uni01D4" unicode="&#x1d4;" horiz-adv-x="518" 
d="M164 -10q-56 0 -88 31.5t-32 90.5q0 21 3.5 43t7.5 44l72 337h85l-73 -340q-9 -44 -9 -72q0 -29 14 -45.5t45 -16.5q33 0 66 23t61.5 72t44.5 127l54 252h83l-114 -536h-68l9 88h-4q-26 -37 -65 -67.5t-92 -30.5zM286 603q-7 22 -20 49.5t-27 54t-25 44.5l1 12h50
q16 -15 34 -39t36 -53q60 56 112 92h52v-12q-17 -16 -43 -43t-51.5 -55.5t-38.5 -49.5h-80z" />
    <glyph glyph-name="uni01D5" unicode="&#x1d5;" horiz-adv-x="602" 
d="M313 939l14 65h258l-14 -65h-258zM331 779q-39 0 -39 39q0 24 14 41.5t38 17.5q36 0 36 -37q0 -27 -14.5 -44t-34.5 -17zM499 779q-17 0 -27.5 10t-10.5 29q0 24 14 41.5t38 17.5q36 0 36 -37q0 -27 -15 -44t-35 -17zM255 -10q-96 0 -144.5 47t-48.5 133q0 18 3 41.5
t8 49.5l97 453h86l-98 -457q-5 -22 -7.5 -44.5t-2.5 -37.5q0 -52 28.5 -80t84.5 -28q75 0 113 43.5t58 132.5l101 471h85l-102 -478q-16 -76 -47 -131t-83.5 -85t-130.5 -30z" />
    <glyph glyph-name="uni01D6" unicode="&#x1d6;" horiz-adv-x="518" 
d="M233 758l13 65h258l-13 -65h-258zM251 599q-39 0 -39 39q0 23 14 40.5t38 17.5q36 0 36 -37q0 -27 -15 -43.5t-34 -16.5zM419 599q-17 0 -27.5 10t-10.5 29q0 23 13.5 40.5t38.5 17.5q36 0 36 -37q0 -27 -15.5 -43.5t-34.5 -16.5zM164 -10q-56 0 -88 31.5t-32 90.5
q0 21 3.5 43t7.5 44l72 337h85l-73 -340q-9 -44 -9 -72q0 -29 14 -45.5t45 -16.5q33 0 66 23t61.5 72t44.5 127l54 252h83l-114 -536h-68l9 88h-4q-26 -37 -65 -67.5t-92 -30.5z" />
    <glyph glyph-name="uni01D7" unicode="&#x1d7;" horiz-adv-x="602" 
d="M383 911q28 34 54 67.5t47 66.5h98l-1 -10q-14 -17 -39.5 -42.5t-54 -50.5t-51.5 -41h-53v10zM330 779q-17 0 -27.5 10t-10.5 29q0 24 13.5 41t37.5 17q36 0 36 -37q0 -27 -14.5 -43.5t-34.5 -16.5zM496 779q-17 0 -27.5 10t-10.5 29q0 24 14 41t38 17q36 0 36 -37
q0 -27 -15 -43.5t-35 -16.5zM255 -10q-96 0 -144.5 47t-48.5 133q0 18 3 41.5t8 49.5l97 453h86l-98 -457q-5 -22 -7.5 -44.5t-2.5 -37.5q0 -52 28.5 -80t84.5 -28q75 0 113 43.5t58 132.5l101 471h85l-102 -478q-16 -76 -47 -131t-83.5 -85t-130.5 -30z" />
    <glyph glyph-name="uni01D8" unicode="&#x1d8;" horiz-adv-x="518" 
d="M303 731q28 33 54 66.5t46 66.5h98v-9q-14 -18 -39.5 -43t-54 -50t-51.5 -41h-54zM250 598q-18 0 -28.5 10t-10.5 30q0 23 14 40.5t38 17.5q36 0 36 -37q0 -27 -14.5 -44t-34.5 -17zM416 598q-17 0 -27.5 10t-10.5 30q0 23 13.5 40.5t38.5 17.5q36 0 36 -37
q0 -27 -15.5 -44t-34.5 -17zM164 -10q-56 0 -88 31.5t-32 90.5q0 21 3.5 43t7.5 44l72 337h85l-73 -340q-9 -44 -9 -72q0 -29 14 -45.5t45 -16.5q33 0 66 23t61.5 72t44.5 127l54 252h83l-114 -536h-68l9 88h-4q-26 -37 -65 -67.5t-92 -30.5z" />
    <glyph glyph-name="uni01D9" unicode="&#x1d9;" horiz-adv-x="602" 
d="M393 918q-11 33 -33 73.5t-39 68.5l1 12h50q16 -16 33.5 -38.5t36.5 -49.5q30 26 58.5 48t53.5 40h52v-12q-17 -16 -43.5 -41.5t-51.5 -53t-38 -47.5h-80zM331 780q-38 0 -38 39q0 24 13.5 41.5t37.5 17.5q36 0 36 -37q0 -28 -14.5 -44.5t-34.5 -16.5zM499 780
q-17 0 -27.5 10t-10.5 29q0 24 13.5 41.5t38.5 17.5q36 0 36 -37q0 -27 -15.5 -44t-34.5 -17zM255 -10q-96 0 -144.5 47t-48.5 133q0 18 3 41.5t8 49.5l97 453h86l-98 -457q-5 -22 -7.5 -44.5t-2.5 -37.5q0 -52 28.5 -80t84.5 -28q75 0 113 43.5t58 132.5l101 471h85
l-102 -478q-16 -76 -47 -131t-83.5 -85t-130.5 -30z" />
    <glyph glyph-name="uni01DA" unicode="&#x1da;" horiz-adv-x="518" 
d="M313 737q-11 33 -33.5 73.5t-38.5 68.5l1 12h49q16 -15 34 -37.5t37 -50.5q29 26 57.5 48.5t53.5 39.5h53l-1 -12q-16 -16 -42.5 -41.5t-51.5 -52.5t-38 -48h-80zM251 600q-39 0 -39 39q0 23 13.5 40.5t38.5 17.5q36 0 36 -37q0 -27 -15 -43.5t-34 -16.5zM419 600
q-17 0 -27.5 10t-10.5 29q0 23 13.5 40.5t37.5 17.5q36 0 36 -37q0 -27 -15 -43.5t-34 -16.5zM164 -10q-56 0 -88 31.5t-32 90.5q0 21 3.5 43t7.5 44l72 337h85l-73 -340q-9 -44 -9 -72q0 -29 14 -45.5t45 -16.5q33 0 66 23t61.5 72t44.5 127l54 252h83l-114 -536h-68l9 88
h-4q-26 -37 -65 -67.5t-92 -30.5z" />
    <glyph glyph-name="uni01DB" unicode="&#x1db;" horiz-adv-x="602" 
d="M418 902q-16 18 -34.5 42t-35 48.5t-27.5 44.5v9h90q11 -34 25.5 -65.5t33.5 -67.5v-11h-52zM332 780q-18 0 -28.5 10t-10.5 29q0 24 13.5 41.5t38.5 17.5q36 0 36 -37q0 -28 -15 -44.5t-34 -16.5zM498 780q-17 0 -27.5 10t-10.5 29q0 24 13.5 41.5t37.5 17.5
q36 0 36 -37q0 -28 -15 -44.5t-34 -16.5zM255 -10q-96 0 -144.5 47t-48.5 133q0 18 3 41.5t8 49.5l97 453h86l-98 -457q-5 -22 -7.5 -44.5t-2.5 -37.5q0 -52 28.5 -80t84.5 -28q75 0 113 43.5t58 132.5l101 471h85l-102 -478q-16 -76 -47 -131t-83.5 -85t-130.5 -30z" />
    <glyph glyph-name="uni01DC" unicode="&#x1dc;" horiz-adv-x="518" 
d="M337 722q-16 17 -34.5 41t-35 49t-26.5 44v10h90q11 -35 25.5 -66.5t32.5 -66.5v-11h-52zM251 600q-17 0 -28 9.5t-11 29.5q0 23 14 40.5t38 17.5q36 0 36 -37q0 -27 -14.5 -43.5t-34.5 -16.5zM417 600q-17 0 -27.5 9.5t-10.5 29.5q0 23 14 40.5t38 17.5q36 0 36 -37
q0 -27 -15 -43.5t-35 -16.5zM164 -10q-56 0 -88 31.5t-32 90.5q0 21 3.5 43t7.5 44l72 337h85l-73 -340q-9 -44 -9 -72q0 -29 14 -45.5t45 -16.5q33 0 66 23t61.5 72t44.5 127l54 252h83l-114 -536h-68l9 88h-4q-26 -37 -65 -67.5t-92 -30.5z" />
    <glyph glyph-name="uni01DD" unicode="&#x1dd;" horiz-adv-x="452" 
d="M155 -10q-66 0 -101.5 31.5t-35.5 88.5q0 82 71.5 136.5t218.5 54.5h14q3 26 3 52q0 59 -26 91t-80 32q-34 0 -64.5 -10t-67.5 -28l3 73q34 16 67.5 25.5t78.5 9.5q83 0 128.5 -50.5t45.5 -137.5q0 -70 -18 -136t-52 -118.5t-81 -83t-104 -30.5zM162 60q45 0 86 47
t61 127h-7q-89 0 -145.5 -29t-56.5 -89q0 -25 15.5 -40.5t46.5 -15.5z" />
    <glyph glyph-name="uni01DE" unicode="&#x1de;" horiz-adv-x="504" 
d="M264 939l13 65h258l-13 -65h-258zM281 780q-38 0 -38 39q0 23 13.5 40.5t38.5 17.5q36 0 36 -37q0 -27 -15 -43.5t-35 -16.5zM449 780q-16 0 -27 10t-11 29q0 23 14 40.5t38 17.5q36 0 36 -37q0 -27 -15 -43.5t-35 -16.5zM-60 0l355 715h97l57 -715h-86l-17 224h-204
l-108 -224h-94zM179 301h163l-9 187q-2 33 -4 70t-2 66h-3q-12 -31 -27.5 -66t-33.5 -72z" />
    <glyph glyph-name="uni01DF" unicode="&#x1df;" horiz-adv-x="515" 
d="M231 761l14 65h258l-14 -65h-258zM249 601q-38 0 -38 39q0 24 13.5 41.5t38.5 17.5q36 0 36 -37q0 -27 -15 -44t-35 -17zM417 601q-17 0 -27.5 10t-10.5 29q0 24 14 41.5t38 17.5q36 0 36 -37q0 -27 -15 -44t-35 -17zM170 -10q-60 0 -95 43.5t-35 127.5q0 68 16.5 136
t48.5 124.5t77.5 90.5t102.5 34q46 0 75 -25t43 -62h5l28 77h67l-114 -536h-67l10 91h-3q-32 -43 -71.5 -72t-87.5 -29zM197 61q36 0 67.5 27t56 71.5t38.5 96.5q9 36 13 65.5t4 55.5q0 44 -22 70.5t-60 26.5q-37 0 -68 -28t-53.5 -74t-34.5 -101t-12 -110q0 -100 71 -100z
" />
    <glyph glyph-name="uni01E0" unicode="&#x1e0;" horiz-adv-x="504" 
d="M260 935l14 67h258l-14 -67h-258zM363 782q-18 0 -29.5 11t-11.5 32q0 25 14 44t39 19q40 0 40 -41q0 -29 -15.5 -47t-36.5 -18zM-60 0l355 715h97l57 -715h-86l-17 224h-204l-108 -224h-94zM179 301h163l-9 187q-2 33 -4 70t-2 66h-3q-12 -31 -27.5 -66t-33.5 -72z" />
    <glyph glyph-name="uni01E1" unicode="&#x1e1;" horiz-adv-x="515" 
d="M229 757l14 67h258l-14 -67h-258zM332 605q-19 0 -30.5 10.5t-11.5 32.5q0 24 14.5 43t39.5 19q40 0 40 -41q0 -28 -16 -46t-36 -18zM170 -10q-60 0 -95 43.5t-35 127.5q0 68 16.5 136t48.5 124.5t77.5 90.5t102.5 34q46 0 75 -25t43 -62h5l28 77h67l-114 -536h-67l10 91
h-3q-32 -43 -71.5 -72t-87.5 -29zM197 61q36 0 67.5 27t56 71.5t38.5 96.5q9 36 13 65.5t4 55.5q0 44 -22 70.5t-60 26.5q-37 0 -68 -28t-53.5 -74t-34.5 -101t-12 -110q0 -100 71 -100z" />
    <glyph glyph-name="uni01E2" unicode="&#x1e2;" horiz-adv-x="725" 
d="M-61 0l413 714h415l-16 -76h-239l-48 -227h223l-15 -76h-224l-54 -259h238l-16 -76h-325l48 224h-178l-127 -224h-95zM206 302h149l71 335h-31zM389 787l14 67h259l-15 -67h-258z" />
    <glyph glyph-name="uni01E3" unicode="&#x1e3;" horiz-adv-x="745" 
d="M158 -10q-54 0 -86.5 43.5t-32.5 126.5q0 74 18 143t50.5 124t76.5 87t96 32q41 0 67.5 -24t40.5 -61h4l27 75h56l-13 -66q23 32 59 54t84 22q51 0 86.5 -30t35.5 -90q0 -83 -71 -137t-218 -54h-15q-2 -12 -3 -25.5t-1 -26.5q0 -57 25.5 -90t82.5 -33q33 0 64.5 10.5
t66.5 28.5l-3 -74q-35 -18 -69.5 -26.5t-74.5 -8.5q-48 0 -83 19.5t-51 56.5l-13 -66h-59l12 89h-3q-34 -45 -70.5 -72t-85.5 -27zM442 302q89 0 146 29t57 88q0 29 -16 43t-41 14q-50 0 -90.5 -47t-62.5 -127h7zM187 61q34 0 64 26t54 70t38 99q9 35 13 65.5t4 56.5
q0 44 -18 70t-51 26q-35 0 -65 -27t-52.5 -72t-35 -100.5t-12.5 -113.5q0 -100 61 -100zM310 607l14 67h259l-15 -67h-258z" />
    <glyph glyph-name="uni01E4" unicode="&#x1e4;" horiz-adv-x="610" 
d="M300 -10q-116 0 -178.5 66t-62.5 188q0 100 26.5 187.5t75 153t115 102.5t147.5 37q57 0 102.5 -11.5t83.5 -31.5l-36 -74q-35 18 -72 29.5t-81 11.5q-59 0 -108.5 -32t-86 -87.5t-56.5 -127.5t-20 -152q0 -83 39 -133t121 -50q32 0 59 4.5t48 11.5l16 80h-123l14 66h124
l17 79h-121l16 73h206l-33 -152h60l-14 -66h-60l-29 -137q-43 -16 -89 -25.5t-100 -9.5z" />
    <glyph glyph-name="uni01E5" unicode="&#x1e5;" horiz-adv-x="475" 
d="M151 -240q-43 0 -80.5 9.5t-62.5 23.5v78q23 -16 63 -28.5t79 -12.5q47 0 76 15t46 45h-139l13 65h149l12 52q4 15 10.5 42.5t13.5 52.5h-3q-32 -43 -70 -71t-86 -28q-59 0 -94.5 41.5t-35.5 124.5q0 67 16 133.5t47 121.5t76.5 88.5t104.5 33.5q47 0 75.5 -25t42.5 -62
h4l28 77h67l-125 -581h60l-13 -65h-68q-28 -67 -79.5 -98.5t-126.5 -31.5zM201 74q34 0 65.5 28t56 73t38.5 98.5t14 105.5q0 43 -19.5 69t-63.5 26q-38 0 -68 -27.5t-51.5 -72.5t-33 -98.5t-11.5 -104.5q0 -50 18.5 -73.5t54.5 -23.5z" />
    <glyph glyph-name="Gcaron" unicode="&#x1e6;" horiz-adv-x="610" 
d="M300 -10q-116 0 -178.5 66t-62.5 188q0 100 26.5 187.5t75 153t115 102.5t147.5 37q57 0 102.5 -11.5t83.5 -31.5l-36 -74q-35 18 -72 29.5t-81 11.5q-59 0 -108.5 -32t-86 -87.5t-56.5 -127.5t-20 -152q0 -83 39 -133t121 -50q32 0 59 4.5t48 11.5l47 219h-121l16 75
h207l-76 -351q-43 -16 -89 -25.5t-100 -9.5zM396 784q-7 22 -20 49.5t-27 54t-25 44.5l1 12h50q16 -15 34 -39t36 -53q60 56 112 92h52v-12q-17 -16 -43 -43t-51.5 -55.5t-38.5 -49.5h-80z" />
    <glyph glyph-name="gcaron" unicode="&#x1e7;" horiz-adv-x="522" 
d="M151 -240q-43 0 -80.5 9.5t-62.5 23.5v79q23 -15 63 -28t79 -13q58 0 94.5 31.5t52.5 100.5l9 37q4 19 10.5 44t11.5 44h-3q-31 -43 -69 -70.5t-87 -27.5q-59 0 -94.5 43t-35.5 126q0 67 16.5 135t48 125t77.5 92t105 35q47 0 75.5 -25t42.5 -62h4l28 77h67l-121 -568
q-24 -112 -81.5 -160t-149.5 -48zM198 61q35 0 66.5 30t56.5 77.5t39.5 103t14.5 107.5q0 43 -19.5 69t-62.5 26q-39 0 -69.5 -29t-52.5 -76t-33.5 -102t-11.5 -106q0 -100 72 -100zM279 606q-7 22 -20 49.5t-27 54t-25 44.5l1 12h50q16 -15 34 -39t36 -53q60 56 112 92h52
v-12q-17 -16 -43 -43t-51.5 -55.5t-38.5 -49.5h-80z" />
    <glyph glyph-name="uni01E8" unicode="&#x1e8;" horiz-adv-x="504" 
d="M26 0l151 714h86l-75 -350l60 73l242 277h101l-279 -319l137 -395h-94l-112 339l-72 -59l-59 -280h-86zM337 784q-7 22 -20 49.5t-27 54t-25 44.5l1 12h50q16 -15 34 -39t36 -53q60 56 112 92h52v-12q-17 -16 -43 -43t-51.5 -55.5t-38.5 -49.5h-80z" />
    <glyph glyph-name="uni01E9" unicode="&#x1e9;" horiz-adv-x="445" 
d="M17 0l161 760h85l-70 -326q-13 -58 -23 -95.5t-16 -58.5h2l228 256h97l-205 -225l112 -311h-92l-87 252l-68 -60l-39 -192h-85zM191 824q-7 22 -20 49.5t-27 54t-25 44.5l1 12h50q16 -15 34 -39t36 -53q60 56 112 92h52v-12q-17 -16 -43 -43t-51.5 -55.5t-38.5 -49.5h-80
z" />
    <glyph glyph-name="uni01EA" unicode="&#x1ea;" horiz-adv-x="639" 
d="M283 -10q-110 0 -167.5 66t-57.5 186q0 89 22.5 174.5t65.5 155t105.5 111.5t142.5 42q106 0 162.5 -66t56.5 -186q0 -68 -13 -136.5t-39 -131t-65.5 -111t-92.5 -76.5t-120 -28zM288 67q56 0 100 36.5t74 97t45.5 132t15.5 141.5q0 85 -35.5 129.5t-99.5 44.5
q-47 0 -85 -24.5t-66.5 -66.5t-48 -94.5t-29.5 -109t-10 -110.5q0 -86 36.5 -131t102.5 -45zM251 -220q-37 0 -60 20t-23 58q0 44 27.5 77t74.5 65h58q-34 -29 -61.5 -60.5t-27.5 -68.5q0 -33 33 -33q9 0 19 1.5t20 3.5l-5 -55q-12 -4 -26.5 -6t-28.5 -2z" />
    <glyph glyph-name="uni01EB" unicode="&#x1eb;" horiz-adv-x="506" 
d="M213 -9q-81 0 -127 50.5t-46 139.5q0 58 15 121t46 118t79 89.5t114 34.5q81 0 127 -50.5t46 -140.5q0 -62 -16 -125.5t-47.5 -117t-79 -86.5t-111.5 -33zM219 62q35 0 64.5 24t51.5 66t34 95.5t12 112.5q0 44 -21 78.5t-69 34.5q-40 0 -71 -26.5t-52.5 -70.5t-32 -95.5
t-10.5 -101.5q0 -56 24 -86.5t70 -30.5zM177 -220q-37 0 -60 20t-23 58q0 44 27.5 77t74.5 65h58q-34 -29 -61.5 -60.5t-27.5 -68.5q0 -33 33 -33q9 0 19 1.5t20 3.5l-5 -55q-12 -4 -26.5 -6t-28.5 -2z" />
    <glyph glyph-name="uni01EC" unicode="&#x1ec;" horiz-adv-x="639" 
d="M283 -10q-110 0 -167.5 66t-57.5 186q0 89 22.5 174.5t65.5 155t105.5 111.5t142.5 42q106 0 162.5 -66t56.5 -186q0 -68 -13 -136.5t-39 -131t-65.5 -111t-92.5 -76.5t-120 -28zM288 67q56 0 100 36.5t74 97t45.5 132t15.5 141.5q0 85 -35.5 129.5t-99.5 44.5
q-47 0 -85 -24.5t-66.5 -66.5t-48 -94.5t-29.5 -109t-10 -110.5q0 -86 36.5 -131t102.5 -45zM292 785l14 67h259l-15 -67h-258zM251 -220q-37 0 -60 20t-23 58q0 44 27.5 77t74.5 65h58q-34 -29 -61.5 -60.5t-27.5 -68.5q0 -33 33 -33q9 0 19 1.5t20 3.5l-5 -55
q-12 -4 -26.5 -6t-28.5 -2z" />
    <glyph glyph-name="uni01ED" unicode="&#x1ed;" horiz-adv-x="506" 
d="M213 -9q-81 0 -127 50.5t-46 139.5q0 58 15 121t46 118t79 89.5t114 34.5q81 0 127 -50.5t46 -140.5q0 -62 -16 -125.5t-47.5 -117t-79 -86.5t-111.5 -33zM219 62q35 0 64.5 24t51.5 66t34 95.5t12 112.5q0 44 -21 78.5t-69 34.5q-40 0 -71 -26.5t-52.5 -70.5t-32 -95.5
t-10.5 -101.5q0 -56 24 -86.5t70 -30.5zM180 607l14 67h259l-15 -67h-258zM177 -220q-37 0 -60 20t-23 58q0 44 27.5 77t74.5 65h58q-34 -29 -61.5 -60.5t-27.5 -68.5q0 -33 33 -33q9 0 19 1.5t20 3.5l-5 -55q-12 -4 -26.5 -6t-28.5 -2z" />
    <glyph glyph-name="uni01EE" unicode="&#x1ee;" horiz-adv-x="477" 
d="M149 -10q-38 0 -80.5 9t-73.5 27v84q33 -21 74 -33.5t83 -12.5q63 0 101.5 23t56.5 60.5t18 80.5q0 58 -34.5 84t-95.5 26h-63l13 66l223 233h-244l16 77h352l-14 -68l-237 -244q79 -4 126.5 -47t47.5 -126q0 -66 -30.5 -120.5t-90 -86.5t-148.5 -32zM281 776
q-7 22 -20 49.5t-27 54t-25 44.5l1 12h50q16 -15 34 -39t36 -53q60 56 112 92h52v-12q-17 -16 -43 -43t-51.5 -55.5t-38.5 -49.5h-80z" />
    <glyph glyph-name="uni01EF" unicode="&#x1ef;" horiz-adv-x="418" 
d="M74 -240q-48 0 -82.5 8.5t-60.5 23.5v82q25 -18 61.5 -30.5t81.5 -12.5q59 0 97.5 27.5t57.5 72.5t19 97q0 69 -37 101t-105 32h-36l13 59l216 245h-226l15 71h325l-12 -61l-226 -253q71 -8 114 -56t43 -133q0 -76 -30 -138t-88 -98.5t-140 -36.5zM212 606
q-7 22 -20 49.5t-27 54t-25 44.5l1 12h50q16 -15 34 -39t36 -53q60 56 112 92h52v-12q-17 -16 -43 -43t-51.5 -55.5t-38.5 -49.5h-80z" />
    <glyph glyph-name="uni01F0" unicode="&#x1f0;" horiz-adv-x="234" 
d="M-69 -240q-34 0 -58 9v72q24 -9 52 -9q31 0 50 25t31 83l126 596h83l-128 -603q-11 -52 -29 -91t-48.5 -60.5t-78.5 -21.5zM143 606q-7 22 -20 49.5t-27 54t-25 44.5l1 12h50q16 -15 34 -39t36 -53q60 56 112 92h52v-12q-17 -16 -43 -43t-51.5 -55.5t-38.5 -49.5h-80z
" />
    <glyph glyph-name="uni01F1" unicode="&#x1f1;" horiz-adv-x="1052" 
d="M26 0l151 714h150q114 0 177.5 -64t63.5 -194q0 -89 -24 -170.5t-72.5 -146t-121 -102t-169.5 -37.5h-155zM188 76q72 0 126.5 31.5t90.5 85.5t54 122t18 140q0 97 -43 140t-117 43h-70l-120 -562h61zM572 0l13 67l399 570h-269l16 77h370l-13 -68l-399 -569h287l-16 -77
h-388z" />
    <glyph glyph-name="uni01F2" unicode="&#x1f2;" horiz-adv-x="979" 
d="M26 0l151 714h150q114 0 177.5 -64t63.5 -194q0 -89 -24 -170.5t-72.5 -146t-121 -102t-169.5 -37.5h-155zM188 76q72 0 126.5 31.5t90.5 85.5t54 122t18 140q0 97 -43 140t-117 43h-70l-120 -562h61zM570 0l12 57l298 413h-197l14 66h289l-13 -65l-294 -405h218l-13 -66
h-314z" />
    <glyph glyph-name="uni01F3" unicode="&#x1f3;" horiz-adv-x="907" 
d="M169 -10q-59 0 -94.5 43t-35.5 128q0 66 16.5 134t48 124.5t76.5 91t104 34.5q47 0 76.5 -24.5t42.5 -60.5h4q5 31 9.5 60t11.5 60l38 180h83l-161 -760h-68l9 90h-3q-33 -44 -70.5 -72t-86.5 -28zM198 61q35 0 67.5 30t57 77.5t39 103t14.5 105.5q0 44 -20 70.5
t-64 26.5q-38 0 -68.5 -29t-52.5 -76t-33.5 -102t-11.5 -106q0 -100 72 -100zM499 0l12 57l298 413h-197l14 66h289l-13 -65l-294 -405h218l-13 -66h-314z" />
    <glyph glyph-name="uni01F4" unicode="&#x1f4;" horiz-adv-x="610" 
d="M300 -10q-116 0 -178.5 66t-62.5 188q0 100 26.5 187.5t75 153t115 102.5t147.5 37q57 0 102.5 -11.5t83.5 -31.5l-36 -74q-35 18 -72 29.5t-81 11.5q-59 0 -108.5 -32t-86 -87.5t-56.5 -127.5t-20 -152q0 -83 39 -133t121 -50q32 0 59 4.5t48 11.5l47 219h-121l16 75
h207l-76 -351q-43 -16 -89 -25.5t-100 -9.5zM384 796q29 32 59.5 73.5t51.5 74.5h97v-9q-14 -18 -42 -47.5t-59 -58t-54 -45.5h-54z" />
    <glyph glyph-name="uni01F5" unicode="&#x1f5;" horiz-adv-x="522" 
d="M151 -240q-43 0 -80.5 9.5t-62.5 23.5v79q23 -15 63 -28t79 -13q58 0 94.5 31.5t52.5 100.5l9 37q4 19 10.5 44t11.5 44h-3q-31 -43 -69 -70.5t-87 -27.5q-59 0 -94.5 43t-35.5 126q0 67 16.5 135t48 125t77.5 92t105 35q47 0 75.5 -25t42.5 -62h4l28 77h67l-121 -568
q-24 -112 -81.5 -160t-149.5 -48zM198 61q35 0 66.5 30t56.5 77.5t39.5 103t14.5 107.5q0 43 -19.5 69t-62.5 26q-39 0 -69.5 -29t-52.5 -76t-33.5 -102t-11.5 -106q0 -100 72 -100zM268 618q29 32 59.5 73.5t51.5 74.5h97v-9q-14 -18 -42 -47.5t-59 -58t-54 -45.5h-54z" />
    <glyph glyph-name="uni01F6" unicode="&#x1f6;" horiz-adv-x="827" 
d="M536 -10q-72 0 -108.5 36.5t-36.5 99.5q0 15 3 35.5t7 39.5l28 133h-247l-70 -334h-86l151 714h86l-64 -303h247l64 303h85l-109 -512q-3 -18 -5.5 -34t-2.5 -29q0 -72 64 -72q44 0 69 33t41 111l70 325h85l-68 -328q-24 -117 -70 -167.5t-133 -50.5z" />
    <glyph glyph-name="uni01F7" unicode="&#x1f7;" horiz-adv-x="575" 
d="M-25 -240l202 955h70l-13 -93h4q26 45 65.5 74t107.5 29q74 0 120.5 -50.5t46.5 -140.5q0 -122 -55.5 -220t-160.5 -177.5t-254 -146.5l-49 -230h-84zM126 79q175 85 269 194t94 249q0 64 -28 95t-77 31q-71 0 -116.5 -59t-68.5 -170z" />
    <glyph glyph-name="uni01F8" unicode="&#x1f8;" horiz-adv-x="636" 
d="M25 0l151 714h95l173 -582h3q6 42 16 95.5t19 96.5l83 390h82l-151 -714h-94l-175 587h-3q-3 -27 -9.5 -64t-14 -75t-13.5 -68l-80 -380h-82zM420 784q-17 18 -37 45.5t-37.5 55.5t-26.5 49v10h93q10 -37 26 -75t35 -74l-1 -11h-52z" />
    <glyph glyph-name="uni01F9" unicode="&#x1f9;" horiz-adv-x="517" 
d="M15 0l114 538h73l-11 -89h2q26 38 64.5 68.5t93.5 30.5q56 0 89.5 -31.5t33.5 -91.5q0 -22 -4 -47t-9 -46l-71 -332h-88l71 336q5 23 8.5 42t3.5 35q0 58 -59 58q-48 0 -96 -51.5t-73 -167.5l-54 -252h-88zM329 606q-17 18 -37 45.5t-37.5 55.5t-26.5 49v10h93
q10 -37 26 -75t35 -74l-1 -11h-52z" />
    <glyph glyph-name="Aringacute" unicode="&#x1fa;" horiz-adv-x="504" 
d="M305 835q26 25 54.5 58t50.5 63h105v-8q-14 -16 -40.5 -38.5t-56.5 -45.5t-54 -38h-59v9zM255 628q-26 24 -26 69q0 48 30 75.5t76 27.5q47 0 77 -28t30 -74q0 -30 -13 -51.5t-34 -34.5l55 -612h-86l-18 221h-203l-108 -221h-94zM335 642q25 0 40 14.5t15 39.5
q0 26 -15 41t-40 15q-24 0 -39 -15t-15 -41q0 -25 13.5 -39.5t40.5 -14.5zM180 299h161l-10 169q-3 30 -5 60t-3 57h-9q-12 -26 -25.5 -56t-28.5 -61z" />
    <glyph glyph-name="aringacute" unicode="&#x1fb;" horiz-adv-x="515" 
d="M305 834q25 25 53.5 58t50.5 63h107v-8q-14 -15 -40.5 -37.5t-56.5 -45.5t-56 -39h-58v9zM328 584q-48 0 -77 27.5t-29 74.5q0 49 30.5 76.5t75.5 27.5q46 0 76 -27.5t30 -74.5q0 -49 -29.5 -76.5t-76.5 -27.5zM328 632q24 0 39.5 15t15.5 39q0 26 -15.5 41t-39.5 15
q-25 0 -39.5 -15t-14.5 -41q0 -25 13.5 -39.5t40.5 -14.5zM170 -10q-60 0 -95.5 43t-35.5 126q0 68 17 136.5t49 125t77.5 91t102.5 34.5q45 0 74.5 -24.5t43.5 -61.5h5l28 76h66l-114 -536h-67l11 89h-4q-32 -42 -71.5 -70.5t-86.5 -28.5zM197 61q35 0 66.5 27t56 71.5
t39.5 96.5q9 36 12.5 65.5t3.5 55.5q0 44 -21.5 70.5t-59.5 26.5q-37 0 -68 -28t-53.5 -74.5t-34.5 -102t-12 -110.5q0 -98 71 -98z" />
    <glyph glyph-name="AEacute" unicode="&#x1fc;" horiz-adv-x="725" 
d="M-61 0l413 714h415l-16 -76h-239l-48 -227h223l-15 -76h-224l-54 -259h238l-16 -76h-325l48 224h-178l-127 -224h-95zM206 302h149l71 335h-31zM418 798q29 32 59.5 73.5t51.5 74.5h97v-9q-14 -18 -42 -47.5t-59 -58t-54 -45.5h-54z" />
    <glyph glyph-name="aeacute" unicode="&#x1fd;" horiz-adv-x="745" 
d="M158 -10q-54 0 -86.5 43.5t-32.5 126.5q0 74 18 143t50.5 124t76.5 87t96 32q41 0 67.5 -24t40.5 -61h4l27 75h56l-13 -66q23 32 59 54t84 22q51 0 86.5 -30t35.5 -90q0 -83 -71 -137t-218 -54h-15q-2 -12 -3 -25.5t-1 -26.5q0 -57 25.5 -90t82.5 -33q33 0 64.5 10.5
t66.5 28.5l-3 -74q-35 -18 -69.5 -26.5t-74.5 -8.5q-48 0 -83 19.5t-51 56.5l-13 -66h-59l12 89h-3q-34 -45 -70.5 -72t-85.5 -27zM442 302q89 0 146 29t57 88q0 29 -16 43t-41 14q-50 0 -90.5 -47t-62.5 -127h7zM187 61q34 0 64 26t54 70t38 99q9 35 13 65.5t4 56.5
q0 44 -18 70t-51 26q-35 0 -65 -27t-52.5 -72t-35 -100.5t-12.5 -113.5q0 -100 61 -100zM389 618q29 32 59.5 73.5t51.5 74.5h97v-9q-14 -18 -42 -47.5t-59 -58t-54 -45.5h-54z" />
    <glyph glyph-name="Oslashacute" unicode="&#x1fe;" horiz-adv-x="639" 
d="M84 -44l-52 39l66 89q-20 31 -30 71t-10 87q0 89 22.5 174.5t65.5 155t105.5 111.5t143.5 42q84 0 140 -50l58 79l53 -39l-69 -92q18 -28 27 -67t9 -83q0 -68 -13 -136.5t-39 -131t-65.5 -111t-92.5 -76.5t-120 -28q-85 0 -140 45zM483 605q-35 44 -95 44q-58 0 -102 -36
t-74.5 -95t-46 -128.5t-16.5 -136.5q0 -47 12 -83zM288 67q55 0 98.5 35t73.5 93.5t46 128.5t17 140q0 21 -2.5 39t-7.5 33l-320 -431q34 -38 95 -38zM379 790q29 32 59.5 73.5t51.5 74.5h97v-9q-14 -18 -42 -47.5t-59 -58t-54 -45.5h-54z" />
    <glyph glyph-name="oslashacute" unicode="&#x1ff;" horiz-adv-x="506" 
d="M62 -46l-49 35l56 76q-29 46 -29 116q0 45 9.5 95t29 97.5t50 86t71.5 61.5t94 23q64 0 106 -32l47 64l49 -34l-56 -72q13 -21 19.5 -51t6.5 -61q0 -46 -9.5 -96.5t-29.5 -98.5t-49.5 -87t-70.5 -62t-93 -23q-61 0 -104 30zM354 449q-10 11 -25 18.5t-38 7.5
q-38 0 -69 -25t-53 -66.5t-34 -91.5t-13 -100q0 -33 6 -49zM219 60q46 0 82.5 39t58.5 103t23 140q1 29 -4 44l-223 -303q22 -23 63 -23zM281 618q29 32 59.5 73.5t51.5 74.5h97v-9q-14 -18 -42 -47.5t-59 -58t-54 -45.5h-54z" />
    <glyph glyph-name="uni0200" unicode="&#x200;" horiz-adv-x="504" 
d="M-60 0l355 715h97l57 -715h-86l-17 224h-204l-108 -224h-94zM179 301h163l-9 187q-2 33 -4 70t-2 66h-3q-12 -31 -27.5 -66t-33.5 -72zM397 784q-18 20 -37.5 47t-36 54.5t-25.5 48.5v10h89q10 -38 26 -76t34 -72l-1 -12h-49zM240 784q-18 19 -37.5 46t-36 55t-25.5 49
v10h89q9 -36 25.5 -76t35.5 -72l-1 -12h-50z" />
    <glyph glyph-name="uni0201" unicode="&#x201;" horiz-adv-x="515" 
d="M170 -10q-60 0 -95 43.5t-35 127.5q0 68 16.5 136t48.5 124.5t77.5 90.5t102.5 34q46 0 75 -25t43 -62h5l28 77h67l-114 -536h-67l10 91h-3q-32 -43 -71.5 -72t-87.5 -29zM197 61q36 0 67.5 27t56 71.5t38.5 96.5q9 36 13 65.5t4 55.5q0 44 -22 70.5t-60 26.5
q-37 0 -68 -28t-53.5 -74t-34.5 -101t-12 -110q0 -100 71 -100zM372 606q-18 20 -37.5 47t-36 54.5t-25.5 48.5v10h89q10 -38 26 -76t34 -72l-1 -12h-49zM215 606q-18 19 -37.5 46t-36 55t-25.5 49v10h89q9 -36 25.5 -76t35.5 -72l-1 -12h-50z" />
    <glyph glyph-name="uni0202" unicode="&#x202;" horiz-adv-x="504" 
d="M-60 0l355 715h97l57 -715h-86l-17 224h-204l-108 -224h-94zM179 301h163l-9 187q-2 33 -4 70t-2 66h-3q-12 -31 -27.5 -66t-33.5 -72zM227 784q15 69 53 101t98 32q53 0 84 -27.5t31 -77.5q0 -7 -0.5 -14t-1.5 -14h-51q0 33 -15.5 49t-53.5 16q-40 0 -61 -16.5
t-29 -48.5h-54z" />
    <glyph glyph-name="uni0203" unicode="&#x203;" horiz-adv-x="515" 
d="M170 -10q-60 0 -95 43.5t-35 127.5q0 68 16.5 136t48.5 124.5t77.5 90.5t102.5 34q46 0 75 -25t43 -62h5l28 77h67l-114 -536h-67l10 91h-3q-32 -43 -71.5 -72t-87.5 -29zM197 61q36 0 67.5 27t56 71.5t38.5 96.5q9 36 13 65.5t4 55.5q0 44 -22 70.5t-60 26.5
q-37 0 -68 -28t-53.5 -74t-34.5 -101t-12 -110q0 -100 71 -100zM196 606q15 69 53 101t98 32q53 0 84 -27.5t31 -77.5q0 -7 -0.5 -14t-1.5 -14h-51q0 33 -15.5 49t-53.5 16q-40 0 -61 -16.5t-29 -48.5h-54z" />
    <glyph glyph-name="uni0204" unicode="&#x204;" horiz-adv-x="460" 
d="M26 0l151 714h324l-16 -76h-239l-47 -227h222l-15 -76h-223l-56 -259h239l-16 -76h-324zM400 784q-18 20 -37.5 47t-36 54.5t-25.5 48.5v10h89q10 -38 26 -76t34 -72l-1 -12h-49zM243 784q-18 19 -37.5 46t-36 55t-25.5 49v10h89q9 -36 25.5 -76t35.5 -72l-1 -12h-50z
" />
    <glyph glyph-name="uni0205" unicode="&#x205;" horiz-adv-x="456" 
d="M213 -10q-83 0 -128.5 50t-45.5 138q0 70 18 136t52 118t81 83t104 31q66 0 101.5 -31.5t35.5 -88.5q0 -82 -71 -136.5t-219 -54.5h-13q-2 -12 -3 -25.5t-1 -26.5q0 -59 26 -91t81 -32q33 0 63 9.5t66 27.5v-71q-33 -17 -67.5 -26.5t-79.5 -9.5zM146 302q90 0 147 29
t57 89q0 25 -15.5 40.5t-47.5 15.5q-45 0 -85.5 -47t-61.5 -127h6zM350 606q-18 20 -37.5 47t-36 54.5t-25.5 48.5v10h89q10 -38 26 -76t34 -72l-1 -12h-49zM193 606q-18 19 -37.5 46t-36 55t-25.5 49v10h89q9 -36 25.5 -76t35.5 -72l-1 -12h-50z" />
    <glyph glyph-name="uni0206" unicode="&#x206;" horiz-adv-x="460" 
d="M26 0l151 714h324l-16 -76h-239l-47 -227h222l-15 -76h-223l-56 -259h239l-16 -76h-324zM221 784q15 69 53 101t98 32q53 0 84 -27.5t31 -77.5q0 -7 -0.5 -14t-1.5 -14h-51q0 33 -15.5 49t-53.5 16q-40 0 -61 -16.5t-29 -48.5h-54z" />
    <glyph glyph-name="uni0207" unicode="&#x207;" horiz-adv-x="456" 
d="M213 -10q-83 0 -128.5 50t-45.5 138q0 70 18 136t52 118t81 83t104 31q66 0 101.5 -31.5t35.5 -88.5q0 -82 -71 -136.5t-219 -54.5h-13q-2 -12 -3 -25.5t-1 -26.5q0 -59 26 -91t81 -32q33 0 63 9.5t66 27.5v-71q-33 -17 -67.5 -26.5t-79.5 -9.5zM146 302q90 0 147 29
t57 89q0 25 -15.5 40.5t-47.5 15.5q-45 0 -85.5 -47t-61.5 -127h6zM173 606q15 69 53 101t98 32q53 0 84 -27.5t31 -77.5q0 -7 -0.5 -14t-1.5 -14h-51q0 33 -15.5 49t-53.5 16q-40 0 -61 -16.5t-29 -48.5h-54z" />
    <glyph glyph-name="uni0208" unicode="&#x208;" horiz-adv-x="301" 
d="M-31 0l10 48l82 18l124 582l-75 18l10 48h243l-10 -48l-83 -18l-123 -582l74 -18l-9 -48h-243zM305 784q-18 20 -37.5 47t-36 54.5t-25.5 48.5v10h89q10 -38 26 -76t34 -72l-1 -12h-49zM148 784q-18 19 -37.5 46t-36 55t-25.5 49v10h89q9 -36 25.5 -76t35.5 -72l-1 -12
h-50z" />
    <glyph glyph-name="uni0209" unicode="&#x209;" horiz-adv-x="234" 
d="M17 0l114 536h84l-114 -536h-84zM234 606q-18 20 -37.5 47t-36 54.5t-25.5 48.5v10h89q10 -38 26 -76t34 -72l-1 -12h-49zM77 606q-18 19 -37.5 46t-36 55t-25.5 49v10h89q9 -36 25.5 -76t35.5 -72l-1 -12h-50z" />
    <glyph glyph-name="uni020A" unicode="&#x20a;" horiz-adv-x="301" 
d="M-31 0l10 48l82 18l124 582l-75 18l10 48h243l-10 -48l-83 -18l-123 -582l74 -18l-9 -48h-243zM130 784q15 69 53 101t98 32q53 0 84 -27.5t31 -77.5q0 -7 -0.5 -14t-1.5 -14h-51q0 33 -15.5 49t-53.5 16q-40 0 -61 -16.5t-29 -48.5h-54z" />
    <glyph glyph-name="uni020B" unicode="&#x20b;" horiz-adv-x="234" 
d="M17 0l114 536h84l-114 -536h-84zM57 606q15 69 53 101t98 32q53 0 84 -27.5t31 -77.5q0 -7 -0.5 -14t-1.5 -14h-51q0 33 -15.5 49t-53.5 16q-40 0 -61 -16.5t-29 -48.5h-54z" />
    <glyph glyph-name="uni020C" unicode="&#x20c;" horiz-adv-x="639" 
d="M283 -10q-110 0 -167.5 66t-57.5 186q0 89 22.5 174.5t65.5 155t105.5 111.5t142.5 42q106 0 162.5 -66t56.5 -186q0 -68 -13 -136.5t-39 -131t-65.5 -111t-92.5 -76.5t-120 -28zM288 67q56 0 100 36.5t74 97t45.5 132t15.5 141.5q0 85 -35.5 129.5t-99.5 44.5
q-47 0 -85 -24.5t-66.5 -66.5t-48 -94.5t-29.5 -109t-10 -110.5q0 -86 36.5 -131t102.5 -45zM468 784q-18 20 -37.5 47t-36 54.5t-25.5 48.5v10h89q10 -38 26 -76t34 -72l-1 -12h-49zM311 784q-18 19 -37.5 46t-36 55t-25.5 49v10h89q9 -36 25.5 -76t35.5 -72l-1 -12h-50z
" />
    <glyph glyph-name="uni020D" unicode="&#x20d;" horiz-adv-x="506" 
d="M213 -9q-81 0 -127 50.5t-46 139.5q0 58 15 121t46 118t79 89.5t114 34.5q81 0 127 -50.5t46 -140.5q0 -62 -16 -125.5t-47.5 -117t-79 -86.5t-111.5 -33zM219 62q35 0 64.5 24t51.5 66t34 95.5t12 112.5q0 44 -21 78.5t-69 34.5q-40 0 -71 -26.5t-52.5 -70.5t-32 -95.5
t-10.5 -101.5q0 -56 24 -86.5t70 -30.5zM358 606q-18 20 -37.5 47t-36 54.5t-25.5 48.5v10h89q10 -38 26 -76t34 -72l-1 -12h-49zM201 606q-18 19 -37.5 46t-36 55t-25.5 49v10h89q9 -36 25.5 -76t35.5 -72l-1 -12h-50z" />
    <glyph glyph-name="uni020E" unicode="&#x20e;" horiz-adv-x="639" 
d="M283 -10q-110 0 -167.5 66t-57.5 186q0 89 22.5 174.5t65.5 155t105.5 111.5t142.5 42q106 0 162.5 -66t56.5 -186q0 -68 -13 -136.5t-39 -131t-65.5 -111t-92.5 -76.5t-120 -28zM288 67q56 0 100 36.5t74 97t45.5 132t15.5 141.5q0 85 -35.5 129.5t-99.5 44.5
q-47 0 -85 -24.5t-66.5 -66.5t-48 -94.5t-29.5 -109t-10 -110.5q0 -86 36.5 -131t102.5 -45zM295 784q15 69 53 101t98 32q53 0 84 -27.5t31 -77.5q0 -7 -0.5 -14t-1.5 -14h-51q0 33 -15.5 49t-53.5 16q-40 0 -61 -16.5t-29 -48.5h-54z" />
    <glyph glyph-name="uni020F" unicode="&#x20f;" horiz-adv-x="506" 
d="M213 -9q-81 0 -127 50.5t-46 139.5q0 58 15 121t46 118t79 89.5t114 34.5q81 0 127 -50.5t46 -140.5q0 -62 -16 -125.5t-47.5 -117t-79 -86.5t-111.5 -33zM219 62q35 0 64.5 24t51.5 66t34 95.5t12 112.5q0 44 -21 78.5t-69 34.5q-40 0 -71 -26.5t-52.5 -70.5t-32 -95.5
t-10.5 -101.5q0 -56 24 -86.5t70 -30.5zM181 606q15 69 53 101t98 32q53 0 84 -27.5t31 -77.5q0 -7 -0.5 -14t-1.5 -14h-51q0 33 -15.5 49t-53.5 16q-40 0 -61 -16.5t-29 -48.5h-54z" />
    <glyph glyph-name="uni0210" unicode="&#x210;" horiz-adv-x="516" 
d="M26 0l151 714h139q99 0 149 -44t50 -127q0 -82 -40 -143.5t-126 -84.5l98 -315h-94l-84 296h-95l-62 -296h-86zM255 370q60 0 97.5 22t55.5 59.5t18 83.5q0 56 -30 80t-89 24h-60l-57 -269h65zM406 784q-18 20 -37.5 47t-36 54.5t-25.5 48.5v10h89q10 -38 26 -76t34 -72
l-1 -12h-49zM249 784q-18 19 -37.5 46t-36 55t-25.5 49v10h89q9 -36 25.5 -76t35.5 -72l-1 -12h-50z" />
    <glyph glyph-name="uni0211" unicode="&#x211;" horiz-adv-x="353" 
d="M18 0l113 536h68l-11 -95h4q28 44 62.5 74.5t84.5 30.5q28 0 51 -7l-21 -80q-22 7 -45 7q-45 0 -78.5 -31.5t-56 -79.5t-33.5 -97l-54 -258h-84zM322 606q-18 20 -37.5 47t-36 54.5t-25.5 48.5v10h89q10 -38 26 -76t34 -72l-1 -12h-49zM165 606q-18 19 -37.5 46t-36 55
t-25.5 49v10h89q9 -36 25.5 -76t35.5 -72l-1 -12h-50z" />
    <glyph glyph-name="uni0212" unicode="&#x212;" horiz-adv-x="516" 
d="M26 0l151 714h139q99 0 149 -44t50 -127q0 -82 -40 -143.5t-126 -84.5l98 -315h-94l-84 296h-95l-62 -296h-86zM255 370q60 0 97.5 22t55.5 59.5t18 83.5q0 56 -30 80t-89 24h-60l-57 -269h65zM231 784q15 69 53 101t98 32q53 0 84 -27.5t31 -77.5q0 -7 -0.5 -14
t-1.5 -14h-51q0 33 -15.5 49t-53.5 16q-40 0 -61 -16.5t-29 -48.5h-54z" />
    <glyph glyph-name="uni0213" unicode="&#x213;" horiz-adv-x="353" 
d="M18 0l113 536h68l-11 -95h4q28 44 62.5 74.5t84.5 30.5q28 0 51 -7l-21 -80q-22 7 -45 7q-45 0 -78.5 -31.5t-56 -79.5t-33.5 -97l-54 -258h-84zM148 606q15 69 53 101t98 32q53 0 84 -27.5t31 -77.5q0 -7 -0.5 -14t-1.5 -14h-51q0 33 -15.5 49t-53.5 16q-40 0 -61 -16.5
t-29 -48.5h-54z" />
    <glyph glyph-name="uni0214" unicode="&#x214;" horiz-adv-x="602" 
d="M255 -10q-96 0 -144.5 47t-48.5 133q0 18 3 41.5t8 49.5l97 453h86l-98 -457q-5 -22 -7.5 -44.5t-2.5 -37.5q0 -52 28.5 -80t84.5 -28q75 0 113 43.5t58 132.5l101 471h85l-102 -478q-16 -76 -47 -131t-83.5 -85t-130.5 -30zM453 784q-18 20 -37.5 47t-36 54.5
t-25.5 48.5v10h89q10 -38 26 -76t34 -72l-1 -12h-49zM296 784q-18 19 -37.5 46t-36 55t-25.5 49v10h89q9 -36 25.5 -76t35.5 -72l-1 -12h-50z" />
    <glyph glyph-name="uni0215" unicode="&#x215;" horiz-adv-x="518" 
d="M164 -10q-56 0 -88 31.5t-32 90.5q0 21 3.5 43t7.5 44l72 337h85l-73 -340q-9 -44 -9 -72q0 -29 14 -45.5t45 -16.5q33 0 66 23t61.5 72t44.5 127l54 252h83l-114 -536h-68l9 88h-4q-26 -37 -65 -67.5t-92 -30.5zM376 606q-18 20 -37.5 47t-36 54.5t-25.5 48.5v10h89
q10 -38 26 -76t34 -72l-1 -12h-49zM219 606q-18 19 -37.5 46t-36 55t-25.5 49v10h89q9 -36 25.5 -76t35.5 -72l-1 -12h-50z" />
    <glyph glyph-name="uni0216" unicode="&#x216;" horiz-adv-x="602" 
d="M255 -10q-96 0 -144.5 47t-48.5 133q0 18 3 41.5t8 49.5l97 453h86l-98 -457q-5 -22 -7.5 -44.5t-2.5 -37.5q0 -52 28.5 -80t84.5 -28q75 0 113 43.5t58 132.5l101 471h85l-102 -478q-16 -76 -47 -131t-83.5 -85t-130.5 -30zM277 784q15 69 53 101t98 32q53 0 84 -27.5
t31 -77.5q0 -7 -0.5 -14t-1.5 -14h-51q0 33 -15.5 49t-53.5 16q-40 0 -61 -16.5t-29 -48.5h-54z" />
    <glyph glyph-name="uni0217" unicode="&#x217;" horiz-adv-x="518" 
d="M164 -10q-56 0 -88 31.5t-32 90.5q0 21 3.5 43t7.5 44l72 337h85l-73 -340q-9 -44 -9 -72q0 -29 14 -45.5t45 -16.5q33 0 66 23t61.5 72t44.5 127l54 252h83l-114 -536h-68l9 88h-4q-26 -37 -65 -67.5t-92 -30.5zM200 606q15 69 53 101t98 32q53 0 84 -27.5t31 -77.5
q0 -7 -0.5 -14t-1.5 -14h-51q0 33 -15.5 49t-53.5 16q-40 0 -61 -16.5t-29 -48.5h-54z" />
    <glyph glyph-name="uni0218" unicode="&#x218;" horiz-adv-x="458" 
d="M159 -10q-95 0 -155 32l4 87q28 -17 66.5 -29.5t85.5 -12.5q63 0 106.5 32.5t43.5 99.5q0 40 -22 68.5t-80 69.5q-50 36 -82 75.5t-32 105.5q0 65 29.5 111t80 70.5t114.5 24.5q48 0 88.5 -11t73.5 -29l-36 -75q-25 15 -58.5 26t-69.5 11q-57 0 -94 -32t-37 -89
q0 -30 10.5 -51t32 -39.5t53.5 -42.5q37 -26 64 -51.5t41.5 -57.5t14.5 -77q0 -102 -65 -159t-177 -57zM69 -208q11 17 24.5 43.5t26.5 54.5t20 49h80v-10q-6 -18 -23 -45.5t-38.5 -56t-41.5 -48.5h-48v13z" />
    <glyph glyph-name="uni0219" unicode="&#x219;" horiz-adv-x="389" 
d="M135 -10q-44 0 -78 8.5t-58 22.5v80q23 -15 58.5 -27.5t72.5 -12.5q52 0 80 23t28 62q0 29 -16 49.5t-61 51.5q-49 33 -73.5 66t-24.5 81q0 67 46 109.5t125 42.5q45 0 83 -10.5t65 -25.5l-31 -67q-23 13 -51.5 22.5t-64.5 9.5q-40 0 -63.5 -20.5t-23.5 -53.5
q0 -26 14.5 -46t59.5 -50q31 -22 54 -43t36 -46t13 -61q0 -79 -51.5 -122t-138.5 -43zM34 -208q11 17 24.5 43.5t26.5 54.5t20 49h80v-10q-6 -18 -23 -45.5t-38.5 -56t-41.5 -48.5h-48v13z" />
    <glyph glyph-name="uni021A" unicode="&#x21a;" horiz-adv-x="443" 
d="M120 0l135 637h-169l17 77h424l-16 -77h-169l-135 -637h-87zM61 -208q11 17 24.5 43.5t26.5 54.5t20 49h80v-10q-6 -18 -23 -45.5t-38.5 -56t-41.5 -48.5h-48v13z" />
    <glyph glyph-name="uni021B" unicode="&#x21b;" horiz-adv-x="298" 
d="M155 -10q-50 0 -80 25t-30 82q0 31 9 71l63 301h-70l9 42l78 32l55 115h53l-27 -122h114l-14 -67h-113l-64 -303q-3 -14 -6 -29.5t-3 -28.5q0 -21 10 -34t34 -13q15 0 30 3t32 8v-65q-14 -7 -37.5 -12t-42.5 -5zM11 -208q11 17 24.5 43.5t26.5 54.5t20 49h80v-10
q-6 -18 -23 -45.5t-38.5 -56t-41.5 -48.5h-48v13z" />
    <glyph glyph-name="uni021C" unicode="&#x21c;" horiz-adv-x="530" 
d="M-37 -97q86 23 161.5 51.5t133 65.5t90.5 87t33 115q0 40 -20.5 67t-54.5 49q-35 -13 -71.5 -23.5t-75.5 -19.5l-1 70q58 15 109 32t90.5 39.5t61.5 54t22 76.5q0 40 -27 61t-73 21q-53 0 -99.5 -15t-93.5 -45l-32 63q60 39 119.5 55.5t121.5 16.5q48 0 88.5 -16t64 -48
t23.5 -80q0 -70 -39.5 -122.5t-108.5 -85.5q33 -20 59.5 -57t26.5 -92q0 -87 -43 -151.5t-117 -111t-168.5 -80.5t-197.5 -60z" />
    <glyph glyph-name="uni021D" unicode="&#x21d;" horiz-adv-x="451" 
d="M-56 -164q68 16 130.5 38t111.5 53t77 73t28 97q0 37 -14.5 59t-39.5 38q-28 -10 -59.5 -19.5t-64.5 -17.5v65q67 17 118.5 39.5t81 56t29.5 83.5q0 38 -22 56t-59 18q-39 0 -75 -9t-72 -27l-24 63q45 23 90.5 33.5t89.5 10.5q45 0 81 -15.5t57.5 -46.5t21.5 -76
q0 -55 -33 -101.5t-88 -77.5q29 -18 49 -48.5t20 -82.5q0 -75 -37.5 -130.5t-101 -95t-144.5 -66.5t-167 -46z" />
    <glyph glyph-name="uni021E" unicode="&#x21e;" horiz-adv-x="608" 
d="M27 0l151 714h85l-64 -303h270l64 303h85l-151 -714h-85l70 334h-269l-71 -334h-85zM364 784q-7 22 -20 49.5t-27 54t-25 44.5l1 12h50q16 -15 34 -39t36 -53q60 56 112 92h52v-12q-17 -16 -43 -43t-51.5 -55.5t-38.5 -49.5h-80z" />
    <glyph glyph-name="uni021F" unicode="&#x21f;" horiz-adv-x="517" 
d="M18 0l161 760h84l-43 -198q-6 -27 -14 -56.5t-15 -57.5h4q25 38 63.5 67.5t93.5 29.5t87.5 -31t32.5 -93q0 -20 -4 -43.5t-9 -47.5l-71 -330h-83l70 333q5 24 8 43.5t3 35.5q0 29 -14.5 45t-45.5 16q-32 0 -65 -21.5t-61 -70t-44 -126.5l-54 -255h-84zM190 821
q-7 22 -20 49.5t-27 54t-25 44.5l1 12h50q16 -15 34 -39t36 -53q60 56 112 92h52v-12q-17 -16 -43 -43t-51.5 -55.5t-38.5 -49.5h-80z" />
    <glyph glyph-name="uni0220" unicode="&#x220;" horiz-adv-x="619" 
d="M498 477q5 20 7.5 39.5t2.5 36.5q0 45 -22.5 70t-74.5 25q-53 0 -96 -31t-72.5 -85t-44.5 -123l-86 -409h-86l151 714h71l-14 -103h4q30 52 81 83t115 31q78 0 120 -40t42 -117q0 -20 -3 -44t-9 -50l-151 -714h-87z" />
    <glyph glyph-name="uni0221" unicode="&#x221;" horiz-adv-x="729" 
d="M353 -102q10 34 22 70t23 61q-37 28 -39 91h-3q-30 -57 -81 -93.5t-105 -36.5q-59 0 -95 43t-36 128q0 70 17 138t48.5 124t77 89t102.5 33q47 0 76 -24.5t43 -60.5h4q4 28 8 54.5t11 56.5l40 189h83l-117 -554q-4 -19 -6.5 -37.5t-2.5 -31.5t2.5 -23t5.5 -16
q24 43 57 72.5t91 29.5q51 0 77 -27.5t26 -69.5q0 -60 -42 -86.5t-106 -26.5q-26 0 -47.5 4t-36.5 9q-9 -22 -19.5 -55t-20.5 -65zM198 61q34 0 66 29t57 76t40 102.5t15 108.5q0 44 -20 70.5t-64 26.5q-38 0 -68.5 -29.5t-52.5 -76.5t-33.5 -101.5t-11.5 -105.5
q0 -100 72 -100zM540 46q42 0 61 15.5t19 40.5q0 44 -49 44q-32 0 -55 -21.5t-42 -64.5q23 -14 66 -14z" />
    <glyph glyph-name="uni0222" unicode="&#x222;" horiz-adv-x="569" 
d="M239 -10q-89 0 -146.5 51.5t-57.5 149.5q0 91 46.5 158t122.5 93q-29 18 -45.5 47.5t-16.5 73.5q0 27 7 57l19 94h86l-20 -98q-6 -28 -6 -50q0 -93 98 -92q65 -1 100 37.5t48 101.5l21 101h86l-22 -105q-14 -67 -45 -111t-85 -64q39 -22 64.5 -64t25.5 -101
q0 -81 -33.5 -144t-96 -99t-150.5 -36zM244 66q59 0 100.5 28.5t63 75.5t21.5 101q0 60 -32.5 94.5t-88.5 34.5t-97 -28.5t-63.5 -76t-22.5 -102.5q0 -60 30.5 -93.5t88.5 -33.5z" />
    <glyph glyph-name="uni0223" unicode="&#x223;" horiz-adv-x="515" 
d="M216 -10q-84 0 -133.5 49t-49.5 135q0 64 17.5 120.5t53 97.5t88.5 58q-25 16 -38.5 41.5t-13.5 64.5q0 30 9 70l28 134h85l-29 -135q-4 -21 -6.5 -37.5t-2.5 -31.5q0 -72 80 -72q50 0 78 32.5t43 106.5l29 137h85l-29 -140q-16 -74 -44.5 -116t-76.5 -59q36 -19 57 -57
t21 -94q0 -55 -14.5 -109t-44.5 -98t-77.5 -70.5t-114.5 -26.5zM223 61q52 0 86.5 35t52 89t17.5 112q0 54 -26 85t-74 31q-53 0 -88 -33.5t-52.5 -86.5t-17.5 -112q0 -54 25.5 -87t76.5 -33z" />
    <glyph glyph-name="uni0224" unicode="&#x224;" horiz-adv-x="459" 
d="M235 -197q-17 0 -31 3t-23 7v71q10 -4 20.5 -6.5t21.5 -2.5q21 0 33.5 12.5t19.5 41.5l15 71h-312l13 67l399 570h-269l16 77h370l-13 -68l-399 -569h288l-35 -166q-12 -60 -41.5 -84t-72.5 -24z" />
    <glyph glyph-name="uni0225" unicode="&#x225;" horiz-adv-x="386" 
d="M157 -197q-16 0 -32 3.5t-25 7.5v70q7 -3 17.5 -5.5t23.5 -2.5q44 0 55 52l14 72h-233l12 57l298 413h-197l14 66h289l-13 -65l-294 -405h219l-31 -150q-12 -58 -40 -85.5t-77 -27.5z" />
    <glyph glyph-name="uni0226" unicode="&#x226;" horiz-adv-x="504" 
d="M-60 0l355 715h97l57 -715h-86l-17 224h-204l-108 -224h-94zM179 301h163l-9 187q-2 33 -4 70t-2 66h-3q-12 -31 -27.5 -66t-33.5 -72zM363 803q-20 0 -32 12t-12 33q0 26 15 46t43 20q43 0 43 -43q0 -30 -17 -49t-40 -19z" />
    <glyph glyph-name="uni0227" unicode="&#x227;" horiz-adv-x="515" 
d="M170 -10q-60 0 -95 43.5t-35 127.5q0 68 16.5 136t48.5 124.5t77.5 90.5t102.5 34q46 0 75 -25t43 -62h5l28 77h67l-114 -536h-67l10 91h-3q-32 -43 -71.5 -72t-87.5 -29zM197 61q36 0 67.5 27t56 71.5t38.5 96.5q9 36 13 65.5t4 55.5q0 44 -22 70.5t-60 26.5
q-37 0 -68 -28t-53.5 -74t-34.5 -101t-12 -110q0 -100 71 -100zM332 625q-20 0 -32 12t-12 33q0 26 15 46t43 20q43 0 43 -43q0 -30 -17 -49t-40 -19z" />
    <glyph glyph-name="uni0228" unicode="&#x228;" horiz-adv-x="460" 
d="M26 0l151 714h324l-16 -76h-239l-47 -227h222l-15 -76h-223l-56 -259h239l-16 -76h-324zM128 -240q-31 0 -52 6v51q19 -5 43 -5q77 0 77 55q0 22 -18 33t-49 15l49 85h53l-32 -55q27 -7 46.5 -24.5t19.5 -51.5q0 -49 -36.5 -79t-100.5 -30z" />
    <glyph glyph-name="uni0229" unicode="&#x229;" horiz-adv-x="456" 
d="M213 -10q-83 0 -128.5 50t-45.5 138q0 70 18 136t52 118t81 83t104 31q66 0 101.5 -31.5t35.5 -88.5q0 -82 -71 -136.5t-219 -54.5h-13q-2 -12 -3 -25.5t-1 -26.5q0 -59 26 -91t81 -32q33 0 63 9.5t66 27.5v-71q-33 -17 -67.5 -26.5t-79.5 -9.5zM146 302q90 0 147 29
t57 89q0 25 -15.5 40.5t-47.5 15.5q-45 0 -85.5 -47t-61.5 -127h6zM130 -240q-31 0 -52 6v51q19 -5 43 -5q77 0 77 55q0 22 -18 33t-49 15l49 85h53l-32 -55q27 -7 46.5 -24.5t19.5 -51.5q0 -49 -36.5 -79t-100.5 -30z" />
    <glyph glyph-name="uni022A" unicode="&#x22a;" horiz-adv-x="639" 
d="M326 939l13 65h258l-13 -65h-258zM344 779q-39 0 -39 39q0 24 14 41.5t38 17.5q36 0 36 -37q0 -27 -14.5 -44t-34.5 -17zM512 779q-17 0 -27.5 10t-10.5 29q0 24 13.5 41.5t38.5 17.5q36 0 36 -37q0 -27 -15.5 -44t-34.5 -17zM283 -10q-110 0 -167.5 66t-57.5 186
q0 89 22.5 174.5t65.5 155t105.5 111.5t142.5 42q106 0 162.5 -66t56.5 -186q0 -68 -13 -136.5t-39 -131t-65.5 -111t-92.5 -76.5t-120 -28zM288 67q56 0 100 36.5t74 97t45.5 132t15.5 141.5q0 85 -35.5 129.5t-99.5 44.5q-47 0 -85 -24.5t-66.5 -66.5t-48 -94.5
t-29.5 -109t-10 -110.5q0 -86 36.5 -131t102.5 -45z" />
    <glyph glyph-name="uni022B" unicode="&#x22b;" horiz-adv-x="506" 
d="M212 761l14 65h258l-14 -65h-258zM230 601q-38 0 -38 39q0 24 13.5 41.5t38.5 17.5q36 0 36 -37q0 -27 -15 -44t-35 -17zM398 601q-17 0 -27.5 10t-10.5 29q0 24 14 41.5t38 17.5q36 0 36 -37q0 -27 -15 -44t-35 -17zM213 -9q-81 0 -127 50.5t-46 139.5q0 58 15 121
t46 118t79 89.5t114 34.5q81 0 127 -50.5t46 -140.5q0 -62 -16 -125.5t-47.5 -117t-79 -86.5t-111.5 -33zM219 62q35 0 64.5 24t51.5 66t34 95.5t12 112.5q0 44 -21 78.5t-69 34.5q-40 0 -71 -26.5t-52.5 -70.5t-32 -95.5t-10.5 -101.5q0 -56 24 -86.5t70 -30.5z" />
    <glyph glyph-name="uni022C" unicode="&#x22c;" horiz-adv-x="639" 
d="M303 938l14 67h283l-14 -67h-283zM262 780q13 53 38 83.5t68 30.5q28 0 48 -13t37 -25.5t36 -12.5q17 0 30 12t24 40h49q-14 -57 -43 -85.5t-66 -28.5q-27 0 -46.5 13t-36.5 25.5t-37 12.5q-19 0 -31 -13t-21 -39h-49zM283 -10q-110 0 -167.5 66t-57.5 186
q0 89 22.5 174.5t65.5 155t105.5 111.5t142.5 42q106 0 162.5 -66t56.5 -186q0 -68 -13 -136.5t-39 -131t-65.5 -111t-92.5 -76.5t-120 -28zM288 67q56 0 100 36.5t74 97t45.5 132t15.5 141.5q0 85 -35.5 129.5t-99.5 44.5q-47 0 -85 -24.5t-66.5 -66.5t-48 -94.5
t-29.5 -109t-10 -110.5q0 -86 36.5 -131t102.5 -45z" />
    <glyph glyph-name="uni022D" unicode="&#x22d;" horiz-adv-x="506" 
d="M195 760l14 67h283l-14 -67h-283zM154 602q13 53 38 83.5t68 30.5q27 0 47 -13t37.5 -25.5t35.5 -12.5t31 12t24 40h49q-14 -57 -43 -85.5t-66 -28.5q-27 0 -46.5 13t-36.5 25.5t-37 12.5t-31.5 -13t-21.5 -39h-48zM213 -9q-81 0 -127 50.5t-46 139.5q0 58 15 121t46 118
t79 89.5t114 34.5q81 0 127 -50.5t46 -140.5q0 -62 -16 -125.5t-47.5 -117t-79 -86.5t-111.5 -33zM219 62q35 0 64.5 24t51.5 66t34 95.5t12 112.5q0 44 -21 78.5t-69 34.5q-40 0 -71 -26.5t-52.5 -70.5t-32 -95.5t-10.5 -101.5q0 -56 24 -86.5t70 -30.5z" />
    <glyph glyph-name="uni022E" unicode="&#x22e;" horiz-adv-x="639" 
d="M283 -10q-110 0 -167.5 66t-57.5 186q0 89 22.5 174.5t65.5 155t105.5 111.5t142.5 42q106 0 162.5 -66t56.5 -186q0 -68 -13 -136.5t-39 -131t-65.5 -111t-92.5 -76.5t-120 -28zM288 67q56 0 100 36.5t74 97t45.5 132t15.5 141.5q0 85 -35.5 129.5t-99.5 44.5
q-47 0 -85 -24.5t-66.5 -66.5t-48 -94.5t-29.5 -109t-10 -110.5q0 -86 36.5 -131t102.5 -45zM431 803q-20 0 -32 12t-12 33q0 26 15 46t43 20q43 0 43 -43q0 -30 -17 -49t-40 -19z" />
    <glyph glyph-name="uni022F" unicode="&#x22f;" horiz-adv-x="506" 
d="M213 -9q-81 0 -127 50.5t-46 139.5q0 58 15 121t46 118t79 89.5t114 34.5q81 0 127 -50.5t46 -140.5q0 -62 -16 -125.5t-47.5 -117t-79 -86.5t-111.5 -33zM219 62q35 0 64.5 24t51.5 66t34 95.5t12 112.5q0 44 -21 78.5t-69 34.5q-40 0 -71 -26.5t-52.5 -70.5t-32 -95.5
t-10.5 -101.5q0 -56 24 -86.5t70 -30.5zM318 625q-20 0 -32 12t-12 33q0 26 15 46t43 20q43 0 43 -43q0 -30 -17 -49t-40 -19z" />
    <glyph glyph-name="uni0230" unicode="&#x230;" horiz-adv-x="639" 
d="M320 934l14 67h259l-15 -67h-258zM424 781q-19 0 -30.5 11.5t-11.5 31.5q0 25 14.5 44.5t39.5 19.5q39 0 39 -42q0 -28 -15.5 -46.5t-35.5 -18.5zM283 -10q-110 0 -167.5 66t-57.5 186q0 89 22.5 174.5t65.5 155t105.5 111.5t142.5 42q106 0 162.5 -66t56.5 -186
q0 -68 -13 -136.5t-39 -131t-65.5 -111t-92.5 -76.5t-120 -28zM288 67q56 0 100 36.5t74 97t45.5 132t15.5 141.5q0 85 -35.5 129.5t-99.5 44.5q-47 0 -85 -24.5t-66.5 -66.5t-48 -94.5t-29.5 -109t-10 -110.5q0 -86 36.5 -131t102.5 -45z" />
    <glyph glyph-name="uni0231" unicode="&#x231;" horiz-adv-x="506" 
d="M209 757l14 67h258l-14 -67h-258zM312 605q-18 0 -29.5 10.5t-11.5 32.5q0 24 14 43t39 19q40 0 40 -41q0 -28 -15.5 -46t-36.5 -18zM213 -9q-81 0 -127 50.5t-46 139.5q0 58 15 121t46 118t79 89.5t114 34.5q81 0 127 -50.5t46 -140.5q0 -62 -16 -125.5t-47.5 -117
t-79 -86.5t-111.5 -33zM219 62q35 0 64.5 24t51.5 66t34 95.5t12 112.5q0 44 -21 78.5t-69 34.5q-40 0 -71 -26.5t-52.5 -70.5t-32 -95.5t-10.5 -101.5q0 -56 24 -86.5t70 -30.5z" />
    <glyph glyph-name="uni0232" unicode="&#x232;" horiz-adv-x="453" 
d="M122 0l58 271l-91 443h87l63 -348l209 348h95l-278 -445l-57 -269h-86zM199 785l14 67h259l-15 -67h-258z" />
    <glyph glyph-name="uni0233" unicode="&#x233;" horiz-adv-x="420" 
d="M-31 -240q-21 0 -35.5 2.5t-27.5 7.5l4 70q12 -4 26 -6.5t29 -2.5q37 0 61.5 24.5t47.5 69.5l36 71l-56 540h84l22 -277q5 -42 6.5 -91t0.5 -80h3q7 18 18.5 45.5t24 55.5t21.5 47l147 300h89l-318 -631q-37 -70 -77 -107.5t-106 -37.5zM138 607l14 67h259l-15 -67h-258z
" />
    <glyph glyph-name="uni0234" unicode="&#x234;" horiz-adv-x="341" 
d="M-51 -10q22 44 47.5 81.5t51.5 64.5q2 11 4 24.5t5 26.5l123 573h84l-119 -551q28 16 63 16q54 0 81.5 -32t27.5 -76q0 -59 -40 -93t-104 -34q-44 0 -74 16.5t-45 45.5q-13 -17 -26 -39t-26 -47zM184 53q27 0 44.5 15.5t17.5 44.5q0 23 -14 36t-35 13q-42 0 -71 -36
q-1 -34 14 -54t44 -19z" />
    <glyph glyph-name="uni0235" unicode="&#x235;" horiz-adv-x="627" 
d="M236 -10q22 44 47.5 81.5t50.5 64.5q2 11 4.5 24.5t5.5 27.5l32 148q5 22 8 42t3 35q0 28 -15 44t-46 16q-49 0 -97.5 -52t-73.5 -169l-53 -252h-85l114 536h69l-11 -89h5q26 38 64.5 68.5t92.5 30.5t87.5 -30.5t33.5 -90.5q0 -28 -4.5 -52t-8.5 -44l-27 -120
q27 16 63 16q54 0 81.5 -32t27.5 -76q0 -59 -40.5 -93t-103.5 -34q-44 0 -74.5 16.5t-44.5 45.5q-14 -17 -27 -39t-25 -47zM470 53q27 0 45 15.5t18 44.5q0 23 -14.5 36t-35.5 13q-41 0 -71 -36q0 -34 14.5 -54t43.5 -19z" />
    <glyph glyph-name="uni0236" unicode="&#x236;" horiz-adv-x="345" 
d="M-50 -10q23 44 48.5 81.5t50.5 64.5q3 25 10 52l58 281h-70l9 42l78 32l55 115h53l-27 -122h114l-14 -67h-113l-56 -260q27 16 64 16q54 0 81.5 -32t26.5 -76q1 -59 -39.5 -93t-103.5 -34q-44 0 -74.5 16.5t-44.5 45.5q-14 -17 -27 -39t-25 -47zM185 53q27 0 44.5 15.5
t17.5 44.5q0 23 -14 36t-35 13q-42 0 -71 -36q-1 -34 14 -54t44 -19z" />
    <glyph glyph-name="uni0237" unicode="&#x237;" horiz-adv-x="234" 
d="M-69 -240q-34 0 -58 9v72q24 -9 52 -9q31 0 50 25t31 83l126 596h83l-128 -603q-11 -52 -29 -91t-48.5 -60.5t-78.5 -21.5z" />
    <glyph glyph-name="uni0238" unicode="&#x238;" horiz-adv-x="808" 
d="M179 -10q-67 0 -103.5 43.5t-36.5 128.5q0 67 16.5 134.5t48 124t77 90.5t104.5 34q48 0 77 -25t41 -61h5q4 30 8.5 58.5t10.5 58.5l39 184h84l-41 -194q-9 -41 -18 -76t-12 -44h3q31 43 69 71t86 28q61 0 96.5 -42.5t35.5 -126.5q0 -67 -16.5 -135t-48.5 -125
t-79.5 -91.5t-110.5 -34.5q-124 0 -142 125q-20 -35 -45.5 -63t-61 -45t-86.5 -17zM517 61q37 0 67.5 29t52.5 75.5t33.5 101.5t11.5 107q0 100 -72 100q-35 0 -66.5 -28t-57 -74t-40 -101t-14.5 -108q0 -48 22 -75t63 -27zM198 61q45 0 78 29.5t55 77.5t33 102.5t11 103.5
q0 44 -20.5 72t-62.5 28q-38 0 -68.5 -29t-52.5 -76t-33.5 -102t-11.5 -106q0 -100 72 -100z" />
    <glyph glyph-name="uni0239" unicode="&#x239;" horiz-adv-x="808" 
d="M630 546q66 0 103 -43t37 -129q0 -67 -16.5 -134.5t-48 -124t-77 -90.5t-104.5 -34q-48 0 -77 25t-42 61h-4q-4 -30 -8.5 -58.5t-10.5 -57.5l-39 -185h-84l41 195q8 40 17.5 75.5t12.5 43.5h-3q-31 -42 -69 -70.5t-87 -28.5q-60 0 -95.5 43t-35.5 127q0 66 16 134t48 125
t79.5 91.5t110.5 34.5q125 0 143 -125q20 35 45.5 63.5t61 45t86.5 16.5zM292 476q-38 0 -68.5 -29t-52 -76t-33 -102t-11.5 -107q0 -100 72 -100q35 0 66.5 28.5t56.5 74.5t39.5 100.5t14.5 107.5q0 48 -21.5 75.5t-62.5 27.5zM611 476q-45 0 -78.5 -30t-55.5 -77.5
t-32.5 -102t-10.5 -104.5q0 -44 20.5 -71.5t62.5 -27.5q38 0 68.5 29t52.5 76t33.5 101.5t11.5 106.5q0 100 -72 100z" />
    <glyph glyph-name="uni023A" unicode="&#x23a;" horiz-adv-x="504" 
d="M-60 0l355 715h97l4 -47l44 92h62l-97 -201l44 -559h-86l-17 224h-102l-143 -299h-62l144 299h-41l-108 -224h-94zM179 301h41l110 230q-1 24 -2 48.5t-1 44.5h-3q-12 -31 -27.5 -66t-33.5 -72zM342 301l-6 115l-54 -115h60z" />
    <glyph glyph-name="uni023B" unicode="&#x23b;" horiz-adv-x="513" 
d="M79 -75l54 115q-74 67 -74 207q0 63 14 129.5t42 128.5t71 111.5t100.5 78.5t129.5 29q17 0 33 -1l17 37h60l-22 -47q35 -9 65 -27l-38 -71q-14 8 -28.5 15t-31.5 11l-255 -553q32 -22 79 -22q34 0 67.5 8t67.5 20v-77q-35 -13 -70.5 -20t-81.5 -7q-55 0 -99 20l-39 -85
h-61zM149 251q0 -73 26 -119l239 516q-54 -1 -97 -26t-74.5 -67.5t-52 -94t-31 -106t-10.5 -103.5z" />
    <glyph glyph-name="uni023C" unicode="&#x23c;" horiz-adv-x="403" 
d="M25 -145l75 170q-29 22 -44.5 60t-15.5 91q0 67 17 133t50.5 119.5t82.5 85.5t112 32q13 0 26 -1l64 145h60l-68 -155q19 -6 35 -14l-27 -70q-18 10 -38 16l-174 -397q20 -9 45 -9q29 0 56.5 9t54.5 22v-71q-24 -14 -55.5 -22.5t-67.5 -8.5q-35 0 -64 9l-63 -144h-61z
M126 180q0 -40 12 -68l159 362q-40 -2 -71.5 -28t-54 -68.5t-34 -94t-11.5 -103.5z" />
    <glyph glyph-name="uni023D" unicode="&#x23d;" horiz-adv-x="426" 
d="M26 0l71 335h-68l14 69h68l66 310h86l-67 -310h135l-15 -69h-135l-54 -258h238l-16 -77h-323z" />
    <glyph glyph-name="uni023E" unicode="&#x23e;" horiz-adv-x="443" 
d="M-49 -36l246 400l58 273h-169l17 77h310l52 85h65l-52 -85h49l-16 -77h-80l-136 -220l-88 -417h-87l43 202l-146 -238h-66zM342 637l-12 -58l36 58h-24z" />
    <glyph glyph-name="uni023F" unicode="&#x23f;" horiz-adv-x="389" 
d="M208 -240q-65 0 -92.5 37t-31.5 116q-3 41 -15 59.5t-34 30.5q-8 5 -18 8.5t-18 9.5v80q23 -15 58.5 -27.5t71.5 -12.5q53 0 81 23t28 62q0 29 -16 49.5t-61 51.5q-49 33 -73.5 66t-24.5 81q0 67 46 109.5t125 42.5q45 0 83 -10.5t65 -25.5l-31 -67q-23 13 -51.5 22.5
t-64.5 9.5q-40 0 -63.5 -20.5t-23.5 -53.5q0 -26 15 -46t59 -50q47 -33 75 -64.5t28 -85.5q0 -76 -49.5 -119.5t-139.5 -45.5q11 -10 16 -29t6 -43q4 -48 17.5 -68.5t43.5 -20.5q15 0 29.5 3.5t25.5 8.5v-68q-10 -5 -28 -9t-38 -4z" />
    <glyph glyph-name="uni0240" unicode="&#x240;" horiz-adv-x="376" 
d="M217 -240q-69 0 -96.5 37t-32.5 114q-4 50 -22.5 69.5t-57.5 19.5h-31l12 57l298 413h-197l14 66h289l-13 -65l-298 -410q41 -13 59.5 -46t24.5 -94q4 -50 18 -71t45 -21q16 0 29 4t25 9v-69q-11 -5 -28.5 -9t-37.5 -4z" />
    <glyph glyph-name="Glottalstopcased" unicode="&#x241;" horiz-adv-x="414" 
d="M119 324q59 20 110 49.5t81.5 71.5t30.5 100q0 46 -25 74.5t-69 28.5q-34 0 -69 -12.5t-68 -34.5l-29 68q38 26 82 40.5t96 14.5q83 0 128 -48.5t45 -125.5q0 -68 -30.5 -120.5t-83.5 -90.5t-122 -61l-58 -278h-86z" />
    <glyph glyph-name="glottalstopcased" unicode="&#x242;" horiz-adv-x="401" 
d="M78 151q59 20 107.5 50t77 71.5t28.5 96.5q0 46 -26 75t-69 29q-35 0 -65 -10t-63 -33l-31 65q38 26 78.5 38.5t91.5 12.5q80 0 125 -47.5t45 -124.5q0 -97 -59 -164.5t-166 -102.5l-21 -107h-84z" />
    <glyph glyph-name="uni0243" unicode="&#x243;" horiz-adv-x="538" 
d="M26 0l37 174h-63l15 71h62l100 469h166q85 0 137.5 -37t52.5 -116q0 -71 -39.5 -121.5t-111.5 -65.5l-1 -4q46 -13 74 -49t28 -90q0 -72 -32 -123.5t-89.5 -79.5t-133.5 -28h-202zM293 409q65 0 107.5 37t42.5 102q0 45 -26.5 68.5t-86.5 23.5h-83l-49 -231h95zM230 72
q80 0 121.5 43.5t41.5 114.5q0 49 -27.5 79t-88.5 30h-94l-20 -94h121l-15 -71h-121l-21 -102h103z" />
    <glyph glyph-name="uni0244" unicode="&#x244;" horiz-adv-x="602" 
d="M255 -10q-96 0 -144.5 47t-48.5 133q0 39 11 91l19 88h-67l15 73h67l63 292h86l-63 -292h276l63 292h86l-63 -292h70l-15 -73h-70l-24 -113q-16 -76 -47 -131t-83.5 -85t-130.5 -30zM262 67q74 0 112.5 43.5t57.5 132.5l22 106h-276l-20 -92q-5 -22 -7.5 -44.5
t-2.5 -37.5q0 -52 29 -80t85 -28z" />
    <glyph glyph-name="uni0245" unicode="&#x245;" horiz-adv-x="503" 
d="M-60 0l357 714h95l58 -714h-86l-33 459q-2 37 -3.5 78t-2.5 76h-2q-15 -38 -32.5 -81t-41.5 -91l-216 -441h-93z" />
    <glyph glyph-name="uni0246" unicode="&#x246;" horiz-adv-x="460" 
d="M26 0l151 714h217l18 46h64l-19 -46h44l-16 -76h-57l-89 -227h82l-15 -76h-96l-101 -259h157l-16 -76h-171l-30 -75h-64l29 75h-88zM199 411h76l89 227h-118zM127 76h17l101 259h-62z" />
    <glyph glyph-name="uni0247" unicode="&#x247;" horiz-adv-x="456" 
d="M90 39q-51 48 -51 139q0 70 18 136t51.5 118t79.5 83t103 31q13 0 26 -2l90 190h62l-97 -205q59 -29 59 -103q0 -67 -46 -116t-142 -66l-75 -166q24 -18 63 -18q34 0 63.5 9.5t65.5 27.5v-71q-33 -17 -67 -26.5t-78 -9.5q-46 0 -79 17l-91 -192h-62zM147 302q31 0 62 4
l78 169q-49 -1 -88.5 -49t-58.5 -124h7zM279 323q34 14 53 38.5t19 58.5q0 24 -12 37zM131 130l47 107l-50 -2q-4 -25 -4 -52q0 -32 7 -53z" />
    <glyph glyph-name="uni0248" unicode="&#x248;" horiz-adv-x="247" 
d="M-80 -191q-47 0 -73 12l9 75q13 -4 29 -7t33 -3q84 0 110 120l67 317h-69l16 74h69l67 317h86l-68 -317h70l-16 -74h-69l-69 -329q-21 -98 -70 -141.5t-122 -43.5z" />
    <glyph glyph-name="uni0249" unicode="&#x249;" horiz-adv-x="234" 
d="M198 625q-19 0 -31 11.5t-12 32.5q0 26 15 46.5t43 20.5q42 0 42 -42q0 -30 -17 -49.5t-40 -19.5zM-69 -240q-34 0 -58 9v72q24 -9 52 -9q31 0 50 25t31 83l65 308h-64l14 68h64l47 220h83l-47 -220h65l-14 -68h-65l-67 -315q-11 -52 -29 -91t-48.5 -60.5t-78.5 -21.5z
" />
    <glyph glyph-name="uni024A" unicode="&#x24a;" horiz-adv-x="649" 
d="M498 -240q-46 0 -74.5 24t-28.5 76q0 23 7 53l21 100q4 19 9.5 38t10.5 37h-3q-28 -40 -71.5 -69t-107.5 -29q-100 0 -150.5 67.5t-50.5 187.5q0 87 21 172t63 154.5t103.5 111.5t140.5 42q61 0 100.5 -29t61.5 -76h4l32 94h72l-170 -800q-2 -11 -3.5 -21t-1.5 -18
q0 -20 10.5 -29t27.5 -9q11 0 21.5 3t21.5 7v-73q-13 -6 -32 -10t-34 -4zM279 66q56 0 96 27.5t65.5 73.5t37.5 101l31 147q6 26 9.5 52t3.5 44q0 67 -36 102t-98 35q-48 0 -86 -25.5t-66.5 -68.5t-47.5 -96t-28.5 -108t-9.5 -103q0 -89 34 -135t95 -46z" />
    <glyph glyph-name="uni024B" unicode="&#x24b;" horiz-adv-x="521" 
d="M382 -240q-46 0 -74 23.5t-28 74.5q0 24 6 56l17 77q3 16 10.5 44t14.5 53h-3q-31 -42 -69 -70t-87 -28q-59 0 -94.5 43t-35.5 126q0 67 16.5 135t48 125t77.5 92t105 35q47 0 76 -25t42 -62h4l28 77h66l-131 -619q-3 -13 -5 -24.5t-2 -21.5q0 -22 11 -31.5t28 -9.5
q15 0 27.5 3t19.5 7v-67q-10 -5 -28.5 -9t-39.5 -4zM198 61q34 0 66 29.5t57 76.5t39.5 102.5t14.5 108.5q0 41 -20 68.5t-63 27.5q-37 0 -68 -29t-53 -75.5t-33.5 -101.5t-11.5 -107q0 -100 72 -100z" />
    <glyph glyph-name="uni024C" unicode="&#x24c;" horiz-adv-x="517" 
d="M26 0l62 296h-70l15 74h71l73 344h139q99 0 149 -44t50 -127q0 -82 -40 -143.5t-126 -84.5l98 -315h-94l-84 296h-95l-62 -296h-86zM255 370q60 0 97.5 22t55.5 59.5t18 83.5q0 56 -30 80t-89 24h-60l-57 -269h65z" />
    <glyph glyph-name="uni024D" unicode="&#x24d;" horiz-adv-x="353" 
d="M18 0l52 248h-64l15 67h64l46 221h68l-11 -95h4q28 44 62.5 74.5t84.5 30.5q28 0 51 -7l-21 -80q-22 7 -45 7q-36 0 -65 -21.5t-50.5 -56t-35.5 -73.5h104l-14 -67h-109l-52 -248h-84z" />
    <glyph glyph-name="uni024E" unicode="&#x24e;" horiz-adv-x="451" 
d="M122 0l58 271l-49 238h-79l15 72h48l-26 133h87l23 -133h169l80 133h95l-83 -133h55l-15 -72h-85l-150 -240l-57 -269h-86zM239 362l86 147h-113z" />
    <glyph glyph-name="uni024F" unicode="&#x24f;" horiz-adv-x="420" 
d="M-31 -240q-21 0 -35.5 2.5t-27.5 7.5l4 70q12 -4 26 -6.5t29 -2.5q37 0 61.5 24.5t47.5 69.5l36 71l-29 277h-78l14 68h57l-20 195h84l16 -195h132l95 195h89l-99 -195h62l-14 -68h-82l-185 -368q-37 -70 -77 -107.5t-106 -37.5zM167 88h3q7 18 18.5 45.5t24 55.5
t21.5 47l18 37h-93l1 -14q5 -42 6.5 -91t0.5 -80z" />
    <glyph glyph-name="uni0250" unicode="&#x250;" horiz-adv-x="500" 
d="M198 -10q-77 0 -115 34t-38 98q0 15 2 30.5t6 32.5l74 350h60l-1 -75h3q64 85 153 85q62 0 98.5 -34.5t36.5 -95.5q0 -70 -36.5 -113t-95.5 -63.5t-128 -23.5l-73 -3l-8 -33q-3 -14 -4.5 -26t-1.5 -23q0 -38 21 -54.5t55 -16.5q33 0 65.5 10t65.5 26l22 -63
q-36 -19 -77 -30.5t-84 -11.5zM217 275q48 2 87 15.5t62 42.5t23 76q0 33 -20.5 50.5t-52.5 17.5q-52 0 -92 -39t-56 -116l-11 -50z" />
    <glyph glyph-name="uni0251" unicode="&#x251;" horiz-adv-x="521" 
d="M170 -10q-60 0 -95.5 43.5t-35.5 127.5q0 68 17 136t49 124.5t77.5 90.5t102.5 34q46 0 75 -25t43 -62h4l29 77h66l-82 -389q-4 -16 -6 -30t-2 -25q0 -32 28 -32q14 0 30 6v-63q-9 -5 -26 -9t-32 -4q-46 0 -64.5 26.5t-18.5 67.5h-3q-31 -40 -70 -67t-86 -27zM197 61
q35 0 67 27t56.5 71.5t37.5 96.5q9 36 13 65.5t4 55.5q0 44 -21.5 70.5t-59.5 26.5q-37 0 -68 -28t-53.5 -74t-34.5 -101t-12 -110q0 -100 71 -100z" />
    <glyph glyph-name="uni0252" unicode="&#x252;" horiz-adv-x="521" 
d="M355 546q60 0 95.5 -43.5t35.5 -126.5q0 -68 -17 -136t-49 -124.5t-77.5 -91t-102.5 -34.5q-46 0 -75 25t-43 63h-5l-28 -78h-66l82 390q4 15 6 29.5t2 24.5q0 33 -28 33q-14 0 -30 -6v63q9 5 25.5 8.5t31.5 3.5q46 0 65 -26t18 -68h3q32 41 70.5 67.5t86.5 26.5z
M328 475q-36 0 -67.5 -27t-56 -71t-37.5 -97q-10 -36 -13.5 -65.5t-3.5 -55.5q0 -43 21.5 -69.5t59.5 -26.5q37 0 68 27.5t53.5 73.5t34.5 101.5t12 109.5q0 100 -71 100z" />
    <glyph glyph-name="uni0253" unicode="&#x253;" horiz-adv-x="520" 
d="M236 -10q-47 0 -77 25t-43 61h-4l-30 -76h-65l136 640q13 62 41 94t85 32q17 0 32 -3.5t24 -7.5v-70q-8 3 -20 6t-26 3q-41 0 -53 -56l-22 -105q-5 -18 -11.5 -43t-11.5 -44h3q32 43 69.5 71t86.5 28q60 0 95.5 -42.5t35.5 -126.5q0 -67 -16 -135t-47.5 -125t-77 -91.5
t-104.5 -34.5zM229 61q38 0 68.5 29t52 75.5t33.5 101.5t12 107q0 100 -73 100q-35 0 -67 -28.5t-57 -75.5t-39.5 -102t-14.5 -108q0 -46 20.5 -72.5t64.5 -26.5z" />
    <glyph glyph-name="uni0254" unicode="&#x254;" horiz-adv-x="403" 
d="M101 -10q-64 0 -117 25l28 70q17 -9 40 -16t49 -7q41 0 74 25.5t56 68.5t35 95t12 106q0 57 -26 87.5t-73 30.5q-29 0 -56.5 -9t-55.5 -22v71q25 14 56.5 22.5t67.5 8.5q80 0 126.5 -46.5t46.5 -139.5q0 -67 -17 -133t-50.5 -119.5t-82.5 -85.5t-113 -32z" />
    </font>
</defs>
</svg>
