<?xml version="1.0" standalone="no"?>
<!DOCTYPE svg PUBLIC "-//W3C//DTD SVG 1.1//EN" "http://www.w3.org/Graphics/SVG/1.1/DTD/svg11.dtd" >
<svg xmlns="http://www.w3.org/2000/svg" xmlns:xlink="http://www.w3.org/1999/xlink" version="1.1">
<metadata>
Created by FontForge 20230101 at Mon Jan  1 11:33:47 2024
 By andreas
Original: Copyright 2022 The Noto Project Authors (https://github.com/notofonts/latin-greek-cyrillic)
Modifications: Copyright 2024 Schweizerisches Idiotikon.
</metadata>
<defs>
<font id="NossikonSansSemiCondensed-Bold" horiz-adv-x="0" >
  <font-face 
    font-family="Nossikon Sans SemiCondensed"
    font-weight="700"
    font-stretch="semi-condensed"
    units-per-em="1000"
    panose-1="2 11 8 2 4 5 4 2 2 4"
    ascent="800"
    descent="-200"
    x-height="546"
    cap-height="714"
    bbox="-603 -389 2803 1077"
    underline-thickness="50"
    underline-position="-125"
    unicode-range="U+000D-1DF1E"
  />
<missing-glyph horiz-adv-x="595" 
d="M91 0v714h411v-714h-411zM142 51h309v612h-309v-612z" />
    <glyph glyph-name="f_f" unicode="ff" horiz-adv-x="709" 
d="M347 436h-114v-436h-142v436h-75v71l75 39v32q0 104 45 145.5t129 41.5q38 0 69 -6.5t57 -16.5l-35 -105q-16 5 -33 9t-38 4q-52 0 -52 -73v-31h114v-110zM701 436h-114v-436h-142v436h-75v71l75 39v32q0 104 45 145.5t129 41.5q38 0 69 -6.5t57 -16.5l-35 -105
q-16 5 -33 9t-38 4q-52 0 -52 -73v-31h114v-110z" />
    <glyph glyph-name="fi" unicode="fi" horiz-adv-x="637" 
d="M347 436h-114v-436h-142v436h-75v71l75 39v32q0 104 45 145.5t129 41.5q38 0 69 -6.5t57 -16.5l-35 -105q-16 5 -33 9t-38 4q-52 0 -52 -73v-31h114v-110zM496 761q34 0 55.5 -17t21.5 -57q0 -39 -22 -56t-55 -17q-34 0 -56 17t-22 56q0 40 21.5 57t56.5 17zM566 546
v-546h-142v546h142z" />
    <glyph glyph-name="fl" unicode="fl" horiz-adv-x="636" 
d="M347 436h-114v-436h-142v436h-75v71l75 39v32q0 104 45 145.5t129 41.5q38 0 69 -6.5t57 -16.5l-35 -105q-16 5 -33 9t-38 4q-52 0 -52 -73v-31h114v-110zM566 0h-142v760h142v-760z" />
    <glyph glyph-name="f_f_i" unicode="ffi" horiz-adv-x="991" 
d="M347 436h-114v-436h-142v436h-75v71l75 39v32q0 104 45 145.5t129 41.5q38 0 69 -6.5t57 -16.5l-35 -105q-16 5 -33 9t-38 4q-52 0 -52 -73v-31h114v-110zM701 436h-114v-436h-142v436h-75v71l75 39v32q0 104 45 145.5t129 41.5q38 0 69 -6.5t57 -16.5l-35 -105
q-16 5 -33 9t-38 4q-52 0 -52 -73v-31h114v-110zM851 761q34 0 55.5 -17t21.5 -57q0 -39 -22 -56t-55 -17q-34 0 -56 17t-22 56q0 40 21.5 57t56.5 17zM921 546v-546h-142v546h142z" />
    <glyph glyph-name="f_f_l" unicode="ffl" horiz-adv-x="991" 
d="M347 436h-114v-436h-142v436h-75v71l75 39v32q0 104 45 145.5t129 41.5q38 0 69 -6.5t57 -16.5l-35 -105q-16 5 -33 9t-38 4q-52 0 -52 -73v-31h114v-110zM701 436h-114v-436h-142v436h-75v71l75 39v32q0 104 45 145.5t129 41.5q38 0 69 -6.5t57 -16.5l-35 -105
q-16 5 -33 9t-38 4q-52 0 -52 -73v-31h114v-110zM921 0h-142v760h142v-760z" />
    <glyph glyph-name="j_uni0334" unicode="j&#x334;" horiz-adv-x="283" 
d="M-49 185q4 66 34 108t82 42h3v211h142v-262h1q32 0 42 52h72q-4 -75 -37 -112q-33 -38 -78 -38v-245q0 -82 -41.5 -131.5t-133.5 -49.5q-23 0 -46.5 3t-41.5 9v115q15 -5 29 -7t31 -2q27 0 44 17t17 63v279h-4q-13 0 -25.5 -12.5t-17.5 -39.5h-72zM64 687q0 40 21.5 57
t56.5 17q34 0 55.5 -17t21.5 -57q0 -39 -22 -56t-55 -17q-34 0 -56 17t-22 56z" />
    <glyph glyph-name="uni0307_uni0307" unicode="&#x307;&#x307;" 
d="M-151 684q0 34 18.5 50.5t46.5 16.5q27 0 46.5 -16.5t19.5 -50.5q0 -32 -19.5 -48.5t-46.5 -16.5q-28 0 -46.5 16t-18.5 49zM20 804q0 34 18.5 50.5t47.5 16.5q27 0 46.5 -16.5t19.5 -50.5q0 -32 -19.5 -48.5t-46.5 -16.5q-29 0 -47.5 16.5t-18.5 48.5z" />
    <glyph glyph-name="uni1D43_uni1D49" unicode="&#x1d43;&#x1d49;" horiz-adv-x="541" 
d="M377 621q65 0 103 -39.5t38 -109.5v-43h-208q1 -40 22 -61.5t59 -21.5q56 0 108 26v-68q-25 -12 -51.5 -17.5t-63.5 -5.5q-40 0 -73.5 14.5t-54.5 44.5q-25 -30 -53 -44.5t-74 -14.5q-47 0 -76 27.5t-29 75.5q0 52 35.5 77.5t105.5 27.5l54 2v21q0 44 -47 44
q-22 0 -43.5 -6t-44.5 -16l-29 58q26 14 57.5 21.5t65.5 7.5q65 0 97 -37q19 18 43.5 27.5t58.5 9.5zM375 558q-27 0 -44 -17t-19 -54h119q0 32 -14.5 51.5t-41.5 19.5zM188 438q-38 -2 -54 -15.5t-16 -37.5q0 -21 11 -30.5t29 -9.5q26 0 43.5 17.5t17.5 48.5v28z" />
    <glyph glyph-name="uni1D43_uni0308" unicode="&#x1d43;&#x308;" horiz-adv-x="360" 
d="M76.3457 697.383q0 20.3994 12.0254 30.2988q12.0254 9.90039 30.2266 9.90039q17.5508 0 30.2266 -9.90039q12.6748 -9.89941 12.6748 -30.2988q0 -19.1992 -12.6748 -29.0986q-12.6758 -9.89941 -30.2266 -9.89941q-18.2012 0 -30.2266 9.59961t-12.0254 29.3984z
M200.501 697.383q0 20.3994 12.0254 30.2988q12.0254 9.90039 30.876 9.90039q17.5508 0 30.2266 -9.90039q12.6748 -9.89941 12.6748 -30.2988q0 -19.1992 -12.6748 -29.0986q-12.6758 -9.89941 -30.2266 -9.89941q-18.8506 0 -30.876 9.89941t-12.0254 29.0986zM183 621
q64 0 98 -29t34 -87v-218h-65l-17 44h-3q-20 -26 -43 -38t-63 -12q-46 0 -73 27.5t-27 75.5q0 52 36.5 77.5t107.5 27.5l55 2v14q0 51 -49 51q-22 0 -44 -6t-46 -17l-29 59q27 14 59.5 21.5t68.5 7.5zM191 438q-40 -2 -56.5 -15.5t-16.5 -37.5q0 -21 11.5 -30.5t30.5 -9.5
q27 0 45 17.5t18 48.5v28z" />
    <glyph glyph-name="uni1D52_uni0308" unicode="&#x1d52;&#x308;" horiz-adv-x="371" 
d="M80.3457 697.383q0 20.3994 12.0254 30.2988q12.0254 9.90039 30.2266 9.90039q17.5508 0 30.2266 -9.90039q12.6748 -9.89941 12.6748 -30.2988q0 -19.1992 -12.6748 -29.0986q-12.6758 -9.89941 -30.2266 -9.89941q-18.2012 0 -30.2266 9.59961t-12.0254 29.3984z
M204.501 697.383q0 20.3994 12.0254 30.2988q12.0254 9.90039 30.876 9.90039q17.5508 0 30.2266 -9.90039q12.6748 -9.89941 12.6748 -30.2988q0 -19.1992 -12.6748 -29.0986q-12.6758 -9.89941 -30.2266 -9.89941q-18.8506 0 -30.876 9.89941t-12.0254 29.0986zM344 452
q0 -52 -18 -90t-53.5 -59.5t-87.5 -21.5q-49 0 -84 21t-54.5 59.5t-19.5 90.5q0 78 41 123.5t118 45.5q47 0 82.5 -19.5t55.5 -57.5t20 -92zM121 451q0 -49 15.5 -74.5t49.5 -25.5t49 25.5t15 75.5q0 49 -15 74t-50 25q-34 0 -49 -25t-15 -75z" />
    <glyph glyph-name="uni1D58_uni0308" unicode="&#x1d58;&#x308;" horiz-adv-x="390" 
d="M89.3457 697.383q0 20.3994 12.0254 30.2988q12.0254 9.90039 30.2266 9.90039q17.5508 0 30.2266 -9.90039q12.6748 -9.89941 12.6748 -30.2988q0 -19.1992 -12.6748 -29.0986q-12.6758 -9.89941 -30.2266 -9.89941q-18.2012 0 -30.2266 9.59961t-12.0254 29.3984z
M213.501 697.383q0 20.3994 12.0254 30.2988q12.0254 9.90039 30.876 9.90039q17.5508 0 30.2266 -9.90039q12.6748 -9.89941 12.6748 -30.2988q0 -19.1992 -12.6748 -29.0986q-12.6758 -9.89941 -30.2266 -9.89941q-18.8506 0 -30.876 9.89941t-12.0254 29.0986zM344 615
v-328h-71l-12 42h-5q-15 -25 -41 -36.5t-57 -11.5q-53 0 -83.5 29.5t-30.5 90.5v214h92v-191q0 -36 11.5 -54t37.5 -18q40 0 53.5 27t13.5 77v159h92z" />
    <glyph glyph-name="uni1D58_uni032F" unicode="&#x1d58;&#x32f;" horiz-adv-x="390" 
d="M190.3 255.201q50.7021 0 80.6035 -26.0986t31.8506 -72.2969h-53.3018q-1.9502 23.999 -18.5254 31.498q-16.5762 7.5 -41.2764 7.5q-21.4512 0 -39.6523 -7.7998q-18.2002 -7.7998 -20.8008 -31.1982h-53.3018q1.9502 44.3975 33.4766 71.3965t80.9277 26.999zM344 615
v-328h-71l-12 42h-5q-15 -25 -41 -36.5t-57 -11.5q-53 0 -83.5 29.5t-30.5 90.5v214h92v-191q0 -36 11.5 -54t37.5 -18q40 0 53.5 27t13.5 77v159h92z" />
    <glyph glyph-name="uni2071_uni032F" unicode="&#x2071;&#x32f;" horiz-adv-x="184" 
d="M94.2998 255.201q50.7021 0 80.6035 -26.0986t31.8506 -72.2969h-53.3018q-1.9502 23.999 -18.5254 31.498q-16.5762 7.5 -41.2764 7.5q-21.4512 0 -39.6523 -7.7998q-18.2002 -7.7998 -20.8008 -31.1982h-53.3018q1.9502 44.3975 33.4766 71.3965t80.9277 26.999z
M92 743q22 0 36 -10t14 -34q0 -23 -14 -33.5t-36 -10.5t-36 10.5t-14 33.5q0 24 13.5 34t36.5 10zM138 615v-328h-92v328h92z" />
    <glyph glyph-name="uni0313_acutecomb" unicode="&#x313;&#x301;" 
d="M-216 606l-53 30q24 16 24 40q0 14 -8.5 23t-28.5 9q-12 0 -19 -2t-11 -4v79q10 4 27 7.5t41 3.5q46 0 75.5 -20t29.5 -65q0 -35 -22.5 -59t-54.5 -42zM-119 617v13l47 157h160v-10l-110 -160h-97z" />
    <glyph glyph-name=".notdef" horiz-adv-x="595" 
d="M91 0v714h411v-714h-411zM142 51h309v612h-309v-612z" />
    <glyph glyph-name=".null" 
 />
    <glyph glyph-name="nonmarkingreturn" horiz-adv-x="333" 
 />
    <glyph glyph-name="NULL" 
 />
    <glyph glyph-name="CR" unicode="&#xd;" horiz-adv-x="230" 
 />
    <glyph glyph-name="space" unicode=" " horiz-adv-x="230" 
 />
    <glyph glyph-name="exclam" unicode="!" horiz-adv-x="275" 
d="M196 235h-116l-24 479h163zM55 70q0 44 23 63.5t60 19.5q35 0 58.5 -19.5t23.5 -63.5q0 -42 -24 -62t-58 -20q-36 0 -59.5 20t-23.5 62z" />
    <glyph glyph-name="quotedbl" unicode="&#x22;" horiz-adv-x="461" 
d="M197 714l-20 -258h-99l-20 258h139zM403 714l-19 -258h-100l-19 258h138z" />
    <glyph glyph-name="numbersign" unicode="#" horiz-adv-x="597" 
d="M456 416l-21 -118h113v-99h-129l-34 -199h-104l35 199h-89l-33 -199h-101l32 199h-104v99h121l21 118h-111v100h127l34 197h103l-34 -197h89l34 197h101l-34 -197h105v-100h-121zM244 298h89l21 118h-89z" />
    <glyph glyph-name="dollar" unicode="$" horiz-adv-x="534" 
d="M236 40q-57 2 -104.5 12.5t-86.5 28.5v125q38 -21 90.5 -37.5t100.5 -18.5v161q-70 27 -112 55t-61.5 62.5t-19.5 83.5q0 75 53.5 119.5t139.5 52.5v75h65v-73q98 -4 181 -44l-40 -108q-35 16 -71.5 25t-69.5 12v-154q54 -20 98 -44t69.5 -59t25.5 -89
q0 -72 -48.5 -121.5t-144.5 -60.5v-101h-65v98zM236 569q-61 -10 -61 -58q0 -23 14.5 -37.5t46.5 -29.5v125zM301 155q62 13 62 62q0 23 -15.5 38t-46.5 30v-130z" />
    <glyph glyph-name="percent" unicode="%" horiz-adv-x="853" 
d="M189 724q77 0 118.5 -59t41.5 -164q0 -106 -39.5 -165.5t-120.5 -59.5q-77 0 -117.5 60t-40.5 165q0 106 38.5 164.5t119.5 58.5zM657 714l-352 -714h-111l352 714h111zM190 626q-44 0 -44 -126q0 -127 44 -127t44 127q0 126 -44 126zM662 439q77 0 119 -59t42 -164
q0 -106 -39.5 -165.5t-121.5 -59.5q-77 0 -117.5 60t-40.5 165q0 107 39 165t119 58zM663 341q-44 0 -44 -126t44 -126t44 126t-44 126z" />
    <glyph glyph-name="ampersand" unicode="&#x26;" horiz-adv-x="687" 
d="M287 724q83 0 134.5 -41.5t51.5 -116.5q0 -64 -36 -110.5t-92 -82.5l118 -129q16 30 28 64.5t20 72.5h149q-12 -57 -38 -120t-66 -118l132 -143h-177l-48 55q-41 -31 -89.5 -48t-107.5 -17q-111 0 -171 56t-60 146q0 72 32 118.5t93 83.5q-35 43 -50.5 81.5t-15.5 84.5
q0 75 53.5 119.5t139.5 44.5zM286 615q-22 0 -40.5 -14t-18.5 -47q0 -25 11.5 -50t31.5 -49q35 23 53 47.5t18 55.5q0 30 -17 43.5t-38 13.5zM238 307q-27 -21 -41 -45.5t-14 -57.5q0 -41 27 -66.5t70 -25.5q29 0 54 9t46 26z" />
    <glyph glyph-name="quotesingle" unicode="'" horiz-adv-x="255" 
d="M197 714l-20 -258h-99l-20 258h139z" />
    <glyph glyph-name="parenleft" unicode="(" horiz-adv-x="329" 
d="M42 277q0 127 36.5 240.5t106.5 201.5h121q-67 -95 -101.5 -207.5t-34.5 -233.5q0 -119 34.5 -230t100.5 -206h-120q-71 87 -107 198t-36 237z" />
    <glyph glyph-name="parenright" unicode=")" horiz-adv-x="329" 
d="M288 277q0 -126 -36.5 -237t-107.5 -198h-120q66 96 100.5 206.5t34.5 229.5q0 121 -34 233.5t-101 207.5h120q71 -88 107.5 -202t36.5 -240z" />
    <glyph glyph-name="asterisk" unicode="*" horiz-adv-x="508" 
d="M317 761l-19 -166l162 49l21 -120l-154 -13l105 -132l-107 -62l-73 143l-67 -143l-109 62l104 132l-153 13l22 120l161 -49l-19 166h126z" />
    <glyph glyph-name="plus" unicode="+" horiz-adv-x="536" 
d="M321 406h175v-107h-175v-187h-107v187h-175v107h175v189h107v-189z" />
    <glyph glyph-name="comma" unicode="," horiz-adv-x="274" 
d="M218 111q-13 -61 -34.5 -124.5t-45.5 -118.5h-106q9 40 18 85.5t16 89.5t11 79h135z" />
    <glyph glyph-name="hyphen" unicode="-" horiz-adv-x="316" 
d="M29 207v123h258v-123h-258z" />
    <glyph glyph-name="period" unicode="." horiz-adv-x="274" 
d="M55 70q0 44 23 63.5t60 19.5q35 0 58.5 -19.5t23.5 -63.5q0 -42 -23.5 -62t-58.5 -20q-36 0 -59.5 20t-23.5 62z" />
    <glyph glyph-name="slash" unicode="/" horiz-adv-x="410" 
d="M404 717l-268 -720h-128l268 720h128z" />
    <glyph glyph-name="zero" unicode="0" horiz-adv-x="534" 
d="M497 357q0 -112 -22 -194.5t-72.5 -127.5t-136.5 -45q-117 0 -173.5 93t-56.5 274q0 179 53.5 273.5t176.5 94.5q118 0 174.5 -95.5t56.5 -272.5zM181 357q0 -124 18 -185t67 -61t67.5 60.5t18.5 185.5q0 123 -18.5 185t-67.5 62t-67 -62t-18 -185z" />
    <glyph glyph-name="one" unicode="1" horiz-adv-x="534" 
d="M393 0h-145v414q0 29 1 67.5t3 70.5q-6 -8 -19.5 -22t-27.5 -27l-75 -65l-75 87l216 189h122v-714z" />
    <glyph glyph-name="two" unicode="2" horiz-adv-x="534" 
d="M495 0h-459v102l164 185q50 57 79 95.5t41.5 69.5t12.5 65q0 41 -21.5 62.5t-59.5 21.5q-36 0 -70 -17.5t-72 -53.5l-76 94q45 45 97 72.5t134 27.5q65 0 113 -25t74 -68.5t26 -99.5q0 -55 -19 -101.5t-57 -94t-95 -105.5l-93 -100v-6h281v-124z" />
    <glyph glyph-name="three" unicode="3" horiz-adv-x="534" 
d="M474 550q0 -68 -39.5 -112t-102.5 -62v-3q161 -25 161 -168q0 -94 -66 -154.5t-200 -60.5q-54 0 -100.5 9t-90.5 28v127q43 -22 88.5 -33.5t85.5 -11.5q71 0 101 27t30 77q0 48 -34 72t-124 24h-47v115h48q86 0 117 27.5t31 72.5q0 38 -22.5 59t-71.5 21q-43 0 -77 -15.5
t-60 -34.5l-64 101q43 33 95 51t123 18q101 0 160 -45.5t59 -128.5z" />
    <glyph glyph-name="four" unicode="4" horiz-adv-x="534" 
d="M519 147h-81v-147h-141v147h-280v106l284 462h137v-453h81v-115zM296 399q0 18 1 47.5t2 55.5t2 35h-4q-16 -42 -38 -78l-118 -197h155v137z" />
    <glyph glyph-name="five" unicode="5" horiz-adv-x="534" 
d="M282 456q60 0 107 -26t73.5 -75t26.5 -117q0 -116 -66.5 -182t-197.5 -66q-52 0 -97 9t-79 28v128q35 -19 81.5 -32t87.5 -13q124 0 124 117q0 110 -128 110q-25 0 -51.5 -5t-47.5 -11l-54 33l25 360h358v-125h-233l-12 -142q18 4 37 6.5t46 2.5z" />
    <glyph glyph-name="six" unicode="6" horiz-adv-x="534" 
d="M36 303q0 81 14 156t49.5 134.5t99 94.5t163.5 35q22 0 48.5 -2t45.5 -6v-119q-19 5 -40.5 7.5t-43.5 2.5q-74 0 -117.5 -26.5t-62.5 -76.5t-22 -121h5q19 37 53 60t86 23q87 0 137 -60.5t50 -166.5q0 -114 -60 -181t-165 -67q-70 0 -124 35t-85 104.5t-31 173.5z
M273 110q39 0 62.5 30.5t23.5 94.5q0 54 -20.5 84t-63.5 30t-68.5 -30.5t-25.5 -68.5q0 -34 10 -66.5t30.5 -53t51.5 -20.5z" />
    <glyph glyph-name="seven" unicode="7" horiz-adv-x="534" 
d="M102 0l247 590h-319v124h470v-94l-246 -620h-152z" />
    <glyph glyph-name="eight" unicode="8" horiz-adv-x="534" 
d="M267 723q61 0 109 -19.5t76 -57.5t28 -94q0 -62 -32.5 -104.5t-86.5 -71.5q58 -34 98.5 -79t40.5 -112q0 -60 -29 -103.5t-81.5 -67.5t-122.5 -24q-112 0 -172.5 51t-60.5 141q0 68 35 114t92 77q-48 33 -77.5 76.5t-29.5 102.5q0 56 28.5 94t77 57.5t107.5 19.5z
M267 614q-33 0 -54.5 -19.5t-21.5 -53.5q0 -35 21.5 -58.5t54.5 -42.5q34 19 55 42t21 59q0 34 -21.5 53.5t-54.5 19.5zM170 188q0 -39 24 -63.5t71 -24.5q50 0 74.5 24t24.5 64q0 36 -26.5 62.5t-63.5 50.5l-13 9q-43 -24 -67 -53t-24 -69z" />
    <glyph glyph-name="nine" unicode="9" horiz-adv-x="534" 
d="M498 411q0 -82 -14.5 -157.5t-50.5 -135t-100 -94t-162 -34.5q-22 0 -48.5 2t-45.5 6v119q18 -5 39.5 -7.5t44.5 -2.5q76 0 119 27.5t62 78t22 117.5h-6q-20 -37 -52 -59.5t-89 -22.5q-86 0 -135.5 60.5t-49.5 166.5q0 114 60 181t166 67q69 0 123.5 -35t85.5 -104
t31 -173zM260 603q-38 0 -62 -30.5t-24 -95.5q0 -54 21 -84t63 -30q30 0 51 15.5t32.5 38.5t11.5 46q0 30 -9.5 62.5t-30 55t-53.5 22.5z" />
    <glyph glyph-name="colon" unicode=":" horiz-adv-x="276" 
d="M56 472q0 43 23 63t60 20q35 0 58 -20t23 -63t-23.5 -63t-57.5 -20q-37 0 -60 20.5t-23 62.5zM56 70q0 44 23 63.5t60 19.5q35 0 58 -19.5t23 -63.5q0 -42 -23.5 -62t-57.5 -20q-37 0 -60 20t-23 62z" />
    <glyph glyph-name="semicolon" unicode=";" horiz-adv-x="276" 
d="M56 472q0 43 23 63t60 20q35 0 58 -20t23 -63t-23.5 -63t-57.5 -20q-37 0 -60 20.5t-23 62.5zM218 111q-13 -61 -34.5 -124.5t-45.5 -118.5h-107q10 40 18.5 85.5t16 89.5t11.5 79h135z" />
    <glyph glyph-name="less" unicode="&#x3c;" horiz-adv-x="536" 
d="M496 107l-458 210v70l458 228v-118l-307 -142l307 -131v-117z" />
    <glyph glyph-name="equal" unicode="=" horiz-adv-x="536" 
d="M39 400v106h457v-106h-457zM39 199v107h457v-107h-457z" />
    <glyph glyph-name="greater" unicode="&#x3e;" horiz-adv-x="536" 
d="M39 224l306 131l-306 142v118l458 -228v-70l-458 -210v117z" />
    <glyph glyph-name="question" unicode="?" horiz-adv-x="437" 
d="M124 272q0 49 18.5 83t62.5 71q41 33 58 57t17 56t-21 49t-59 17q-36 0 -72 -12.5t-75 -34.5l-49 105q46 28 97 44.5t110 16.5q99 0 152 -48.5t53 -126.5q0 -42 -11.5 -72.5t-35.5 -57t-59 -55.5q-28 -22 -41.5 -37.5t-18.5 -30t-5 -34.5v-27h-121v37zM105 70
q0 44 23 63.5t60 19.5q35 0 58.5 -19.5t23.5 -63.5q0 -42 -23.5 -62t-58.5 -20q-36 0 -59.5 20t-23.5 62z" />
    <glyph glyph-name="at" unicode="@" horiz-adv-x="833" 
d="M787 361q0 -67 -19.5 -124.5t-57 -93t-91.5 -35.5q-38 0 -64.5 18.5t-37.5 49.5h-7q-19 -30 -48.5 -49t-71.5 -19q-79 0 -122.5 52.5t-43.5 140.5q0 68 26 120t74.5 81t114.5 29q40 0 84 -8t73 -18l-9 -206q-1 -12 -1.5 -24t-0.5 -18q0 -36 10.5 -49.5t25.5 -13.5
q31 0 47 45.5t16 122.5q0 83 -30.5 142.5t-85 92t-126.5 32.5q-97 0 -161.5 -44.5t-97.5 -121t-33 -171.5q0 -134 66.5 -209.5t195.5 -75.5q52 0 109.5 12.5t106.5 31.5v-91q-46 -20 -99.5 -31t-113.5 -11q-117 0 -199.5 44t-126 127t-43.5 199q0 94 28 172.5t80 136
t124.5 89t162.5 31.5q102 0 180 -44t122 -124t44 -188zM332 300q0 -56 19 -81t51 -25q40 0 57.5 36t21.5 105l6 106q-20 5 -45 5q-58 0 -84 -43t-26 -103z" />
    <glyph glyph-name="A" unicode="A" horiz-adv-x="630" 
d="M473 0l-46 171h-223l-47 -171h-157l223 716h182l225 -716h-157zM349 469q-7 29 -17.5 69t-16.5 69q-4 -19 -10 -45.5t-12.5 -51.5t-10.5 -40l-47 -175h161z" />
    <glyph glyph-name="B" unicode="B" horiz-adv-x="619" 
d="M290 714q131 0 197.5 -41.5t66.5 -137.5q0 -62 -27.5 -104t-77.5 -52v-5q54 -13 87.5 -51t33.5 -116q0 -97 -65 -152t-178 -55h-247v714h210zM301 429q57 0 80.5 22t23.5 64q0 79 -110 79h-69v-165h75zM226 313v-192h86q58 0 82.5 26.5t24.5 73.5q0 42 -25.5 67t-86.5 25
h-81z" />
    <glyph glyph-name="C" unicode="C" horiz-adv-x="581" 
d="M362 601q-78 0 -118.5 -67.5t-40.5 -178.5q0 -116 39.5 -179t122.5 -63q39 0 78 10.5t82 27.5v-125q-41 -18 -83 -27t-93 -9q-100 0 -165.5 44.5t-98 126.5t-32.5 195q0 107 35 190.5t103.5 130.5t167.5 47q49 0 97.5 -12.5t93.5 -35.5l-46 -119q-35 18 -70.5 31
t-71.5 13z" />
    <glyph glyph-name="D" unicode="D" horiz-adv-x="674" 
d="M621 366q0 -180 -92 -273t-259 -93h-190v714h208q154 0 243.5 -89t89.5 -259zM470 361q0 120 -45.5 175.5t-132.5 55.5h-66v-469h53q97 0 144 59.5t47 178.5z" />
    <glyph glyph-name="E" unicode="E" horiz-adv-x="511" 
d="M458 0h-378v714h378v-121h-232v-161h216v-122h-216v-187h232v-123z" />
    <glyph glyph-name="F" unicode="F" horiz-adv-x="500" 
d="M225 0h-145v714h376v-121h-231v-188h216v-122h-216v-283z" />
    <glyph glyph-name="G" unicode="G" horiz-adv-x="669" 
d="M339 401h261v-370q-55 -20 -113 -30.5t-126 -10.5q-150 0 -229 96t-79 272q0 112 39.5 194t116.5 127t187 45q55 0 106.5 -12.5t92.5 -31.5l-46 -118q-32 17 -71 28t-81 11q-91 0 -142.5 -66t-51.5 -180q0 -72 17.5 -126.5t54.5 -85t95 -30.5q28 0 48.5 3.5t38.5 7.5v155
h-118v122z" />
    <glyph glyph-name="H" unicode="H" horiz-adv-x="697" 
d="M616 0h-146v309h-244v-309h-146v714h146v-281h244v281h146v-714z" />
    <glyph glyph-name="I" unicode="I" horiz-adv-x="366" 
d="M335 0h-304v82l79 35v480l-79 35v82h304v-82l-79 -35v-480l79 -35v-82z" />
    <glyph glyph-name="J" unicode="J" horiz-adv-x="306" 
d="M17 -211q-26 0 -47 3t-37 8v123q14 -4 30 -7t35 -3q38 0 60.5 25.5t22.5 101.5v674h145v-673q0 -92 -25.5 -147.5t-72.5 -80t-111 -24.5z" />
    <glyph glyph-name="K" unicode="K" horiz-adv-x="608" 
d="M610 0h-164l-163 297l-57 -43v-254h-146v714h146v-328q11 20 25 42t29 47l168 239h160l-221 -317z" />
    <glyph glyph-name="L" unicode="L" horiz-adv-x="507" 
d="M80 0v714h146v-591h254v-123h-400z" />
    <glyph glyph-name="M" unicode="M" horiz-adv-x="880" 
d="M369 0l-160 548h-4q1 -25 3 -61t3.5 -74t1.5 -68v-345h-133v714h200l156 -525h3l161 525h200v-714h-137v349q0 30 1 66.5t2.5 72t2.5 59.5h-4l-168 -547h-128z" />
    <glyph glyph-name="N" unicode="N" horiz-adv-x="743" 
d="M663 0h-181l-274 525h-4q3 -52 5 -99.5t4 -91.5v-334h-133v714h180l273 -517h3q-2 49 -4 95t-3 89v333h134v-714z" />
    <glyph glyph-name="O" unicode="O" horiz-adv-x="722" 
d="M669 358q0 -112 -33 -194.5t-101.5 -128t-173.5 -45.5t-173.5 45.5t-101.5 128.5t-33 195q0 171 76 268.5t233 97.5q105 0 173 -45t101 -127.5t33 -194.5zM205 358q0 -116 37.5 -179.5t118.5 -63.5q82 0 118.5 63t36.5 180t-36.5 180.5t-117.5 63.5q-82 0 -119.5 -64
t-37.5 -180z" />
    <glyph glyph-name="P" unicode="P" horiz-adv-x="577" 
d="M291 714q128 0 187.5 -58.5t59.5 -163.5q0 -66 -25.5 -120t-81.5 -86t-150 -32h-55v-254h-146v714h211zM283 593h-57v-218h41q58 0 91 26.5t33 86.5q0 105 -108 105z" />
    <glyph glyph-name="Q" unicode="Q" horiz-adv-x="722" 
d="M669 358q0 -123 -39 -209.5t-119 -126.5l152 -192h-180l-115 160h-11q-104 0 -171.5 47t-100 130t-32.5 192q0 171 76 268.5t233 97.5q155 0 231 -97.5t76 -269.5zM205 358q0 -116 37.5 -179.5t118.5 -63.5q82 0 118.5 63t36.5 180t-36.5 180.5t-117.5 63.5
q-82 0 -119.5 -64t-37.5 -180z" />
    <glyph glyph-name="R" unicode="R" horiz-adv-x="606" 
d="M273 714q136 0 201.5 -52.5t65.5 -158.5q0 -71 -34.5 -117.5t-87.5 -73.5l187 -312h-162l-150 276h-67v-276h-146v714h193zM266 593h-40v-199h43q64 0 93.5 26t29.5 77t-31 73.5t-95 22.5z" />
    <glyph glyph-name="S" unicode="S" horiz-adv-x="510" 
d="M473 202q0 -96 -64 -154t-179 -58q-52 0 -99.5 10t-89.5 32v140q46 -23 96 -39.5t98 -16.5q49 0 71.5 21.5t22.5 54.5q0 38 -32 62.5t-92 55.5q-36 19 -72.5 44.5t-60.5 65.5t-24 102q-1 94 60 148t167 54q52 0 99 -12.5t97 -35.5l-45 -119q-44 20 -80 30.5t-72 10.5
q-40 0 -61 -19.5t-21 -51.5q0 -25 12.5 -42.5t39 -34t70.5 -38.5q51 -26 86.5 -54.5t54 -65.5t18.5 -90z" />
    <glyph glyph-name="T" unicode="T" horiz-adv-x="524" 
d="M335 0h-146v591h-171v123h488v-123h-171v-591z" />
    <glyph glyph-name="U" unicode="U" horiz-adv-x="685" 
d="M609 246q0 -116 -67 -186t-202 -70q-129 0 -196.5 68t-67.5 188v468h146v-452q0 -81 30.5 -114t90.5 -33q63 0 92 35t29 113v451h145v-468z" />
    <glyph glyph-name="V" unicode="V" horiz-adv-x="600" 
d="M600 714l-219 -714h-163l-218 714h149l117 -417q4 -15 11 -44.5t13.5 -61.5t9.5 -53q3 21 9.5 52.5t13 61t10.5 45.5l118 417h149z" />
    <glyph glyph-name="W" unicode="W" horiz-adv-x="897" 
d="M896 714l-167 -714h-166l-86 362q-4 18 -10 49t-11.5 64t-7.5 57q-2 -21 -7.5 -53.5t-11.5 -64.5t-11 -52l-85 -362h-166l-167 714h144l81 -379q6 -25 12 -59.5t11.5 -69.5t8.5 -61q4 28 9.5 63t11.5 67t11 53l93 386h133l90 -386q5 -21 11.5 -53.5t12 -67.5t8.5 -62
q3 26 8.5 60.5t12 69t11.5 60.5l82 379h145z" />
    <glyph glyph-name="X" unicode="X" horiz-adv-x="596" 
d="M596 0h-164l-137 259l-140 -259h-155l208 366l-193 348h157l127 -245l123 245h157l-195 -353z" />
    <glyph glyph-name="Y" unicode="Y" horiz-adv-x="569" 
d="M285 421l129 293h155l-212 -437v-277h-145v272l-212 442h156z" />
    <glyph glyph-name="Z" unicode="Z" horiz-adv-x="524" 
d="M501 0h-477v98l301 494h-294v122h462v-98l-301 -493h309v-123z" />
    <glyph glyph-name="bracketleft" unicode="[" horiz-adv-x="322" 
d="M298 -161h-234v880h234v-102h-109v-675h109v-103z" />
    <glyph glyph-name="backslash" unicode="\" horiz-adv-x="410" 
d="M135 717l268 -720h-128l-268 720h128z" />
    <glyph glyph-name="bracketright" unicode="]" horiz-adv-x="322" 
d="M24 -58h109v675h-109v102h234v-880h-234v103z" />
    <glyph glyph-name="asciicircum" unicode="^" horiz-adv-x="546" 
d="M18 262l211 455h70l229 -455h-118l-144 296l-131 -296h-117z" />
    <glyph glyph-name="underscore" unicode="_" horiz-adv-x="434" 
d="M436 -162h-438v79h438v-79z" />
    <glyph glyph-name="grave" unicode="`" horiz-adv-x="343" 
d="M200 766q13 -22 31.5 -49.5t38 -54t33.5 -43.5v-13h-96q-17 13 -40.5 32.5t-47.5 41.5t-45 42t-34 34v10h160z" />
    <glyph glyph-name="a" unicode="a" horiz-adv-x="553" 
d="M281 557q99 0 151.5 -48.5t52.5 -145.5v-363h-101l-26 74h-3q-32 -44 -67.5 -64t-96.5 -20q-71 0 -112.5 46t-41.5 126q0 87 56 129t166 46l85 3v24q0 85 -76 85q-34 0 -68.5 -10.5t-70.5 -28.5l-44 99q41 23 91.5 35.5t104.5 12.5zM293 251q-60 -2 -85.5 -25t-25.5 -62
q0 -35 17.5 -51t46.5 -16q41 0 69.5 29t28.5 81v46z" />
    <glyph glyph-name="b" unicode="b" horiz-adv-x="584" 
d="M212 578q0 -25 -1.5 -53t-3.5 -50h5q22 37 56.5 59t85.5 22q85 0 137 -72.5t52 -209.5t-52.5 -210.5t-139.5 -73.5q-52 0 -83.5 19t-55.5 51h-9l-22 -60h-111v760h142v-182zM308 440q-53 0 -74 -38t-22 -112v-20q0 -81 21.5 -122t75.5 -41q42 0 65.5 42.5t23.5 126.5
q0 82 -23.5 123t-66.5 41z" />
    <glyph glyph-name="c" unicode="c" horiz-adv-x="472" 
d="M278 -10q-115 0 -175.5 68t-60.5 212q0 141 65 213.5t180 72.5q51 0 89 -10t68 -26l-41 -111q-31 14 -58 22t-54 8q-105 0 -105 -168q0 -83 27.5 -123t78.5 -40q39 0 72.5 11.5t64.5 32.5v-121q-31 -21 -66.5 -31t-84.5 -10z" />
    <glyph glyph-name="d" unicode="d" horiz-adv-x="584" 
d="M232 -10q-87 0 -138.5 73t-51.5 210q0 138 52 210.5t139 72.5q50 0 85.5 -21.5t57.5 -58.5h5q-3 22 -6 49.5t-3 54.5v180h142v-760h-110l-25 67h-7q-22 -35 -55 -56t-85 -21zM279 105q53 0 76 37t24 114v21q0 80 -22.5 120.5t-78.5 40.5q-45 0 -68.5 -42.5t-23.5 -123.5
q0 -83 24 -125t69 -42z" />
    <glyph glyph-name="e" unicode="e" horiz-adv-x="542" 
d="M278 556q105 0 165 -65.5t60 -182.5v-72h-319q2 -66 33.5 -101.5t91.5 -35.5q45 0 84 10t81 32v-112q-38 -20 -79.5 -29.5t-96.5 -9.5q-120 0 -188 71t-68 208q0 142 63.5 214.5t172.5 72.5zM279 451q-39 0 -64 -28t-28 -90h183q-1 53 -23 85.5t-68 32.5z" />
    <glyph glyph-name="f" unicode="f" horiz-adv-x="354" 
d="M347 436h-114v-436h-142v436h-75v71l75 39v32q0 104 45 145.5t129 41.5q38 0 69 -6.5t57 -16.5l-35 -105q-16 5 -33 9t-38 4q-52 0 -52 -73v-31h114v-110z" />
    <glyph glyph-name="g" unicode="g" horiz-adv-x="584" 
d="M234 556q92 0 142 -80h6l11 70h121v-536q0 -122 -64 -186t-194 -64q-53 0 -97.5 8t-86.5 26v118q91 -42 188 -42q55 0 83.5 29t28.5 90v11q0 16 1.5 36t3.5 36h-5q-25 -43 -60.5 -62.5t-81.5 -19.5q-88 0 -138 74.5t-50 206.5q0 135 51 210t141 75zM278 438
q-92 0 -92 -169q0 -163 94 -163q50 0 74.5 33.5t24.5 113.5v21q0 87 -24 125.5t-77 38.5z" />
    <glyph glyph-name="h" unicode="h" horiz-adv-x="600" 
d="M212 600q0 -37 -2.5 -70.5t-5.5 -53.5h8q22 41 59 60.5t84 19.5q82 0 129.5 -48.5t47.5 -149.5v-358h-142v321q0 117 -75 117q-59 0 -81 -45t-22 -134v-259h-142v760h142v-160z" />
    <glyph glyph-name="i" unicode="i" horiz-adv-x="283" 
d="M142 761q34 0 55.5 -17t21.5 -57q0 -39 -22 -56t-55 -17q-34 0 -56 17t-22 56q0 40 21.5 57t56.5 17zM212 546v-546h-142v546h142z" />
    <glyph glyph-name="j" unicode="j" horiz-adv-x="283" 
d="M64 687q0 40 21.5 57t56.5 17q34 0 55.5 -17t21.5 -57q0 -39 -22 -56t-55 -17q-34 0 -56 17t-22 56zM37 -240q-23 0 -46.5 3t-41.5 9v115q15 -5 29 -7t31 -2q27 0 44 17t17 63v588h142v-605q0 -82 -41.5 -131.5t-133.5 -49.5z" />
    <glyph glyph-name="k" unicode="k" horiz-adv-x="566" 
d="M212 423q0 -32 -2 -63.5t-5 -62.5h2q13 21 27 41t29 38l135 170h158l-189 -232l200 -314h-161l-135 223l-59 -51v-172h-142v760h142v-337z" />
    <glyph glyph-name="l" unicode="l" horiz-adv-x="282" 
d="M212 0h-142v760h142v-760z" />
    <glyph glyph-name="m" unicode="m" horiz-adv-x="896" 
d="M659 556q84 0 127 -47.5t43 -151.5v-357h-142v320q0 118 -72 118q-52 0 -73.5 -41.5t-21.5 -121.5v-275h-142v320q0 118 -71 118q-55 0 -75 -46t-20 -134v-258h-142v546h110l18 -70h8q21 41 60.5 60.5t86.5 19.5q109 0 147 -79h12q22 41 61 60t86 19z" />
    <glyph glyph-name="n" unicode="n" horiz-adv-x="600" 
d="M356 556q81 0 128.5 -48t47.5 -150v-358h-142v321q0 58 -17.5 87.5t-58.5 29.5q-59 0 -80.5 -44t-21.5 -135v-259h-142v546h110l18 -70h8q23 41 63 60.5t87 19.5z" />
    <glyph glyph-name="o" unicode="o" horiz-adv-x="571" 
d="M529 274q0 -85 -28 -149t-82.5 -99.5t-134.5 -35.5q-74 0 -128.5 35t-84 99t-29.5 150q0 132 63 207t182 75q71 0 126 -32.5t85.5 -95.5t30.5 -154zM186 274q0 -83 23.5 -125.5t76.5 -42.5q52 0 75 42.5t23 125.5t-23 124.5t-76 41.5q-52 0 -75.5 -41.5t-23.5 -124.5z
" />
    <glyph glyph-name="p" unicode="p" horiz-adv-x="584" 
d="M353 556q87 0 138.5 -72.5t51.5 -210.5q0 -136 -53 -209.5t-138 -73.5q-51 0 -84.5 21t-55.5 53h-7q7 -48 7 -84v-220h-142v786h115l20 -71h7q23 39 56.5 60t84.5 21zM308 441q-52 0 -73.5 -37t-22.5 -114v-20q0 -81 21.5 -121.5t75.5 -40.5q89 0 89 166q0 167 -90 167z
" />
    <glyph glyph-name="q" unicode="q" horiz-adv-x="584" 
d="M372 -17q0 36 6 89h-6q-21 -38 -55.5 -60t-86.5 -22q-86 0 -137 72.5t-51 208.5q0 139 52.5 212t138.5 73q53 0 86.5 -21t56.5 -59h5l12 70h121v-786h-142v223zM280 106q53 0 75.5 36t23.5 111v21q0 82 -22.5 123t-78.5 41q-92 0 -92 -169q0 -163 94 -163z" />
    <glyph glyph-name="r" unicode="r" horiz-adv-x="415" 
d="M350 556q25 0 49 -5l-12 -139q-8 2 -20.5 3.5t-24.5 1.5q-53 0 -91.5 -33t-38.5 -106v-278h-142v546h109l20 -91h7q21 41 58 71t86 30z" />
    <glyph glyph-name="s" unicode="s" horiz-adv-x="452" 
d="M418 161q0 -83 -54 -127t-158 -44q-50 0 -89.5 7.5t-76.5 24.5v124q37 -20 82 -33t83 -13t55 13t17 36q0 13 -7 24.5t-29 25t-69 34.5q-67 31 -100 67.5t-33 102.5q0 75 53.5 114t144.5 39q47 0 89 -10.5t86 -32.5l-42 -104q-34 17 -66 28t-66 11q-59 0 -59 -39
q0 -13 7.5 -23.5t29 -23t64.5 -31.5q42 -20 73 -41.5t48 -52t17 -76.5z" />
    <glyph glyph-name="t" unicode="t" horiz-adv-x="391" 
d="M283 107q20 0 40.5 4.5t41.5 11.5v-108q-24 -11 -55.5 -18t-69.5 -7q-72 0 -114.5 39.5t-42.5 138.5v268h-64v65l75 45l39 116h92v-116h133v-110h-133v-266q0 -63 58 -63z" />
    <glyph glyph-name="u" unicode="u" horiz-adv-x="600" 
d="M530 546v-546h-110l-18 70h-8q-23 -41 -63 -60.5t-87 -19.5q-83 0 -129.5 49.5t-46.5 150.5v356h142v-318q0 -60 17.5 -90t57.5 -30q61 0 82 45t21 129v264h142z" />
    <glyph glyph-name="v" unicode="v" horiz-adv-x="523" 
d="M187 0l-186 546h148l90 -303q8 -28 13 -57.5t7 -56.5h4q1 25 6.5 53.5t13.5 58.5l91 305h148l-186 -546h-149z" />
    <glyph glyph-name="w" unicode="w" horiz-adv-x="793" 
d="M440 222q-3 17 -9 45t-12.5 59t-12.5 58t-9 43h-3q-3 -16 -9 -43.5t-12.5 -59t-12 -59.5t-9.5 -44l-47 -221h-155l-140 546h141l54 -230q6 -26 11.5 -59.5t9.5 -66t7 -55.5h3q2 21 6.5 53t9.5 63t9 50l58 245h159l55 -247q4 -19 9 -49.5t9.5 -61.5t5.5 -53h4q2 20 6 50.5
t9.5 63.5t11.5 59l58 238h139l-142 -546h-158z" />
    <glyph glyph-name="x" unicode="x" horiz-adv-x="526" 
d="M170 279l-156 267h158l91 -170l91 170h158l-157 -267l164 -279h-158l-99 183l-98 -183h-158z" />
    <glyph glyph-name="y" unicode="y" horiz-adv-x="523" 
d="M1 546h153l89 -291q7 -24 11.5 -49t6.5 -50h4q2 25 7.5 48.5t12.5 49.5l86 292h151l-206 -610q-30 -91 -83 -133.5t-127 -42.5q-22 0 -39.5 2.5t-31.5 5.5v117q10 -3 24 -4.5t28 -1.5q40 0 63 25t37 72l9 29z" />
    <glyph glyph-name="z" unicode="z" horiz-adv-x="441" 
d="M415 0h-391v85l223 349h-209v112h369v-93l-216 -341h224v-112z" />
    <glyph glyph-name="braceleft" unicode="{" horiz-adv-x="383" 
d="M348 -161q-83 0 -129.5 14.5t-65 46.5t-18.5 86v148q0 46 -29 67t-88 21v111q58 0 87.5 20.5t29.5 67.5v150q0 51 18 83t64 47t131 16v-108q-41 -1 -63.5 -14.5t-22.5 -54.5v-145q0 -98 -106 -114v-6q106 -17 106 -113v-145q0 -40 21.5 -54.5t64.5 -15.5v-108z" />
    <glyph glyph-name="bar" unicode="|" horiz-adv-x="501" 
d="M195 761h110v-990h-110v990z" />
    <glyph glyph-name="braceright" unicode="}" horiz-adv-x="383" 
d="M36 -53q42 1 64 15t22 55v145q0 96 105 113v6q-105 16 -105 114v145q0 42 -24 55t-62 14v108q82 -1 128.5 -15t65.5 -46t19 -85v-150q0 -45 28.5 -66.5t87.5 -21.5v-111q-58 0 -87 -21t-29 -67v-148q0 -52 -18.5 -84t-64.5 -47.5t-130 -15.5v108z" />
    <glyph glyph-name="asciitilde" unicode="~" horiz-adv-x="536" 
d="M251 301q-33 15 -58 21t-47 6q-27 0 -55 -16.5t-53 -42.5v113q47 53 119 53q29 0 57.5 -7t69.5 -24q33 -15 58 -21t47 -6q26 0 55 16.5t53 42.5v-113q-47 -53 -119 -53q-29 0 -57.5 6.5t-69.5 24.5z" />
    <glyph glyph-name="uni00A0" unicode="&#xa0;" horiz-adv-x="230" 
 />
    <glyph glyph-name="exclamdown" unicode="&#xa1;" horiz-adv-x="275" 
d="M220 467q0 -44 -23 -63.5t-60 -19.5q-35 0 -58 19.5t-23 63.5q0 42 23 62t58 20q36 0 59.5 -20t23.5 -62zM79 302h115l24 -483h-163z" />
    <glyph glyph-name="cent" unicode="&#xa2;" horiz-adv-x="534" 
d="M338 647q40 -3 72.5 -12.5t58.5 -23.5l-41 -111q-30 14 -57.5 22.5t-53.5 8.5q-53 0 -79 -41t-26 -127q0 -85 26.5 -124.5t77.5 -39.5q39 0 71.5 10.5t66.5 27.5v-119q-54 -30 -116 -35v-93h-82v96q-92 11 -140.5 80t-48.5 196q0 132 50.5 200t138.5 81v81h82v-77z" />
    <glyph glyph-name="sterling" unicode="&#xa3;" horiz-adv-x="534" 
d="M320 724q49 0 92.5 -11t80.5 -29l-42 -111q-32 15 -62 23t-57 8q-30 0 -49.5 -19.5t-19.5 -65.5v-98h162v-104h-162v-72q0 -49 -21 -77t-49 -44h316v-124h-467v118q38 19 58.5 45t20.5 81v73h-79v104h79v99q0 71 26 116t71 66.5t102 21.5z" />
    <glyph glyph-name="currency" unicode="&#xa4;" horiz-adv-x="562" 
d="M87 353q0 27 7 51.5t21 47.5l-64 63l68 67l62 -62q46 27 99 27t99 -28l63 63l69 -66l-64 -63q28 -45 28 -100t-28 -100l62 -62l-67 -67l-63 62q-22 -12 -47 -19t-52 -7q-57 0 -100 26l-61 -61l-67 67l63 62q-28 45 -28 99zM182 353q0 -41 28.5 -70t69.5 -29q42 0 71.5 29
t29.5 70t-29.5 70.5t-71.5 29.5q-40 0 -69 -29.5t-29 -70.5z" />
    <glyph glyph-name="yen" unicode="&#xa5;" horiz-adv-x="534" 
d="M267 425l110 289h149l-167 -363h96v-87h-120v-68h120v-86h-120v-110h-137v110h-120v86h120v68h-120v87h93l-164 363h149z" />
    <glyph glyph-name="brokenbar" unicode="&#xa6;" horiz-adv-x="501" 
d="M195 758h110v-397h-110v397zM195 168h110v-397h-110v397z" />
    <glyph glyph-name="section" unicode="&#xa7;" horiz-adv-x="458" 
d="M52 391q0 41 19 71t48 49q-31 21 -47.5 49.5t-16.5 64.5q0 63 51.5 101t134.5 38q46 0 86 -11t80 -29l-39 -92q-31 16 -63 27.5t-64 11.5q-69 0 -69 -45q0 -25 23 -41.5t71 -37.5q69 -30 107.5 -67t38.5 -95q0 -46 -16.5 -76t-45.5 -50q59 -42 59 -110q0 -71 -54 -113
t-147 -42q-49 0 -88 10t-71 29v101q34 -20 78.5 -34t79.5 -14q46 0 65.5 15.5t19.5 40.5q0 16 -7 28t-27 24.5t-60 30.5q-73 33 -109.5 68t-36.5 98zM159 404q0 -28 23.5 -49.5t71.5 -44.5l16 -8q13 11 23 27t10 39q0 31 -21 53.5t-82 46.5q-18 -7 -29.5 -24t-11.5 -40z" />
    <glyph glyph-name="dieresis" unicode="&#xa8;" horiz-adv-x="562" 
d="M120 684q0 34 18.5 50.5t46.5 16.5q27 0 46.5 -16.5t19.5 -50.5q0 -32 -19.5 -48.5t-46.5 -16.5q-28 0 -46.5 16t-18.5 49zM311 684q0 34 18.5 50.5t47.5 16.5q27 0 46.5 -16.5t19.5 -50.5q0 -32 -19.5 -48.5t-46.5 -16.5q-29 0 -47.5 16.5t-18.5 48.5z" />
    <glyph glyph-name="copyright" unicode="&#xa9;" horiz-adv-x="830" 
d="M413 -10q-81 0 -148 27.5t-116 77t-76 116.5t-27 146q0 78 28 145t78.5 117t117.5 77.5t145 27.5t145 -27.5t117 -77t78 -116.5t28 -147t-27.5 -147t-77 -116t-117 -76t-148.5 -27zM416 55q83 0 150 38.5t106 106.5t39 156q0 87 -39 155.5t-106 108.5t-151 40
q-87 0 -154 -39.5t-105.5 -108.5t-38.5 -156q0 -89 38.5 -157t106.5 -106t154 -38zM430 129q-101 0 -153 61.5t-52 166.5q0 102 54 165t153 63q68 0 132 -32l-33 -70q-50 25 -95 25q-57 0 -88 -39.5t-31 -112.5q0 -75 28 -113t91 -38q25 0 54 6.5t55 18.5v-75
q-26 -12 -53 -19t-62 -7z" />
    <glyph glyph-name="ordfeminine" unicode="&#xaa;" horiz-adv-x="364" 
d="M190 722q66 0 98.5 -35t32.5 -97v-217h-66l-15 54q-19 -29 -46.5 -44.5t-63.5 -15.5q-49 0 -78 29t-29 80q0 59 42.5 82.5t116.5 27.5l43 3v9q0 48 -55 48q-22 0 -46.5 -8t-50.5 -21l-31 67q32 16 68 27t80 11zM184 528q-37 -3 -50.5 -17t-13.5 -33t10.5 -28t26.5 -9
q31 0 49.5 20t18.5 52v18z" />
    <glyph glyph-name="guillemotleft" unicode="&#xab;" horiz-adv-x="581" 
d="M35 280l170 221l102 -55l-124 -172l124 -171l-102 -56l-170 220v13zM272 280l170 221l102 -55l-123 -172l123 -171l-102 -56l-170 220v13z" />
    <glyph glyph-name="logicalnot" unicode="&#xac;" horiz-adv-x="536" 
d="M494 406v-286h-108v179h-347v107h455z" />
    <glyph glyph-name="uni00AD" unicode="&#xad;" horiz-adv-x="316" 
d="M29 207v123h258v-123h-258z" />
    <glyph glyph-name="registered" unicode="&#xae;" horiz-adv-x="830" 
d="M413 -10q-81 0 -148 27.5t-116 77t-76 116.5t-27 146q0 78 28 145t78.5 117t117.5 77.5t145 27.5t145 -27.5t117 -77t78 -116.5t28 -147t-27.5 -147t-77 -116t-117 -76t-148.5 -27zM416 55q83 0 150 38.5t106 106.5t39 156q0 87 -39 155.5t-106 108.5t-151 40
q-87 0 -154 -39.5t-105.5 -108.5t-38.5 -156q0 -89 38.5 -157t106.5 -106t154 -38zM270 142v437h134q82 0 122 -33.5t40 -98.5q0 -46 -21 -74t-54 -42l109 -189h-99l-88 166h-54v-166h-89zM400 377q37 0 56.5 18t19.5 49q0 33 -17.5 47.5t-58.5 14.5h-41v-129h41z" />
    <glyph glyph-name="overscore" unicode="&#xaf;" horiz-adv-x="490" 
d="M493 760h-496v98h496v-98z" />
    <glyph glyph-name="degree" unicode="&#xb0;" horiz-adv-x="404" 
d="M202 403q-49 0 -86.5 20.5t-58.5 56.5t-21 83t21.5 83.5t59 57t85.5 20.5t85.5 -20.5t58.5 -56.5t21 -84q0 -47 -21.5 -83t-58.5 -56.5t-85 -20.5zM202 491q31 0 52 19.5t21 52.5q0 35 -21 54.5t-52 19.5q-32 0 -52.5 -20t-20.5 -54q0 -33 20.5 -52.5t52.5 -19.5z" />
    <glyph glyph-name="plusminus" unicode="&#xb1;" horiz-adv-x="536" 
d="M321 441h175v-106h-175v-188h-107v188h-175v106h175v189h107v-189zM39 0v107h457v-107h-457z" />
    <glyph glyph-name="uni00B2" unicode="&#xb2;" horiz-adv-x="363" 
d="M326 416h-298v82l102 107q42 44 58 68.5t16 51.5q0 18 -11.5 28.5t-31.5 10.5q-39 0 -82 -43l-55 70q27 27 65 45t87 18q63 0 100.5 -32t37.5 -87q0 -33 -11.5 -60t-37 -57t-67.5 -71l-40 -38h168v-93z" />
    <glyph glyph-name="uni00B3" unicode="&#xb3;" horiz-adv-x="363" 
d="M173 853q60 0 98.5 -30t38.5 -81q0 -71 -76 -100v-5q45 -11 67 -38.5t22 -64.5q0 -59 -43 -92.5t-124 -33.5q-70 0 -126 33v92q29 -19 59.5 -30t65.5 -11q65 0 65 50q0 23 -16.5 38t-59.5 15h-50v77h41q45 0 60 15.5t15 37.5q0 20 -11.5 32t-36.5 12q-23 0 -42.5 -8.5
t-44.5 -28.5l-46 67q29 24 64.5 39t79.5 15z" />
    <glyph glyph-name="acute" unicode="&#xb4;" horiz-adv-x="343" 
d="M303 756q-17 -18 -47 -46.5t-62.5 -56.5t-56.5 -47h-97v13q25 32 54 72.5t49 74.5h160v-10z" />
    <glyph glyph-name="uni00B5" unicode="&#xb5;" horiz-adv-x="602" 
d="M532 546v-546h-109l-19 72h-7q-36 -82 -107 -82q-52 0 -80 44h-3q2 -19 3.5 -53t1.5 -61v-160h-142v786h142v-319q0 -119 75 -119q60 0 81.5 47.5t21.5 131.5v259h142z" />
    <glyph glyph-name="paragraph" unicode="&#xb6;" horiz-adv-x="598" 
d="M521 -127h-77v799h-74v-799h-77v400q-25 -9 -60 -9q-86 0 -134 56.5t-48 188.5q0 136 52 193.5t145 57.5h273v-887z" />
    <glyph glyph-name="periodcentered" unicode="&#xb7;" horiz-adv-x="274" 
d="M55 352q0 44 23 63.5t60 19.5q35 0 58.5 -19.5t23.5 -63.5q0 -42 -23.5 -62t-58.5 -20q-36 0 -59.5 20t-23.5 62z" />
    <glyph glyph-name="cedilla" unicode="&#xb8;" horiz-adv-x="191" 
d="M195 -125q0 -55 -32.5 -85t-108.5 -30q-22 0 -39.5 2.5t-32.5 6.5v80q14 -4 31.5 -6.5t31.5 -2.5q17 0 28 7.5t11 24.5q0 19 -18 32t-59 18l37 78h83l-14 -34q34 -9 58 -31.5t24 -59.5z" />
    <glyph glyph-name="uni00B9" unicode="&#xb9;" horiz-adv-x="363" 
d="M272 844v-428h-109v214q0 22 1 53.5t2 48.5q-6 -8 -15.5 -17t-16.5 -15l-42 -34l-51 63l143 115h88z" />
    <glyph glyph-name="ordmasculine" unicode="&#xba;" horiz-adv-x="367" 
d="M340 545q0 -85 -42 -131.5t-115 -46.5q-70 0 -113 47t-43 131t42.5 130.5t114.5 46.5q68 0 112 -46t44 -131zM124 545q0 -99 60 -99q59 0 59 99q0 98 -59 98q-60 0 -60 -98z" />
    <glyph glyph-name="guillemotright" unicode="&#xbb;" horiz-adv-x="581" 
d="M545 267l-170 -220l-102 56l124 171l-124 172l102 55l170 -221v-13zM309 267l-170 -220l-102 56l123 171l-123 172l102 55l170 -221v-13z" />
    <glyph glyph-name="onequarter" unicode="&#xbc;" horiz-adv-x="818" 
d="M165 0l380 714h113l-381 -714h-112zM147 501q0 21 1 52.5t2 48.5q-14 -18 -32 -32l-42 -33l-51 62l143 115h88v-428h-109v215zM641 0v75h-177v74l175 281h111v-274h57v-81h-57v-75h-109zM551 156h90v87q0 41 3 82q-5 -15 -15 -36t-18 -34z" />
    <glyph glyph-name="onehalf" unicode="&#xbd;" horiz-adv-x="850" 
d="M160 0l380 714h113l-381 -714h-112zM147 501q0 21 1 52.5t2 48.5q-14 -18 -32 -32l-42 -33l-51 62l143 115h88v-428h-109v215zM515 0v83l102 105q43 44 59 68.5t16 51.5q0 18 -12 29t-32 11q-39 0 -82 -43l-55 71q27 27 65 44.5t87 17.5q63 0 100.5 -31.5t37.5 -87.5
q0 -49 -24.5 -85.5t-73.5 -83.5l-58 -57h168v-93h-298z" />
    <glyph glyph-name="threequarters" unicode="&#xbe;" horiz-adv-x="830" 
d="M165 278q-69 0 -126 33v92q29 -19 60 -30t65 -11q66 0 66 50q0 23 -17 38t-60 15h-49v78h41q44 0 59.5 15t15.5 38q0 19 -12 31.5t-37 12.5q-22 0 -42 -9t-45 -29l-46 68q29 24 64.5 38.5t80.5 14.5q60 0 98.5 -29.5t38.5 -80.5q0 -73 -77 -100v-6q45 -11 67.5 -38.5
t22.5 -64.5q0 -59 -43 -92.5t-125 -33.5zM188 0l380 714h113l-381 -714h-112zM653 0v75h-177v74l174 281h111v-274h58v-81h-58v-75h-108zM562 156h91v87q0 41 3 82q-6 -15 -16 -36t-17 -34z" />
    <glyph glyph-name="questiondown" unicode="&#xbf;" horiz-adv-x="437" 
d="M316 264q0 -49 -18.5 -83t-63.5 -71q-40 -33 -57.5 -57t-17.5 -56t21 -49t59 -17q37 0 73 12.5t74 34.5l50 -105q-46 -28 -97.5 -44.5t-110.5 -16.5q-98 0 -151.5 48.5t-53.5 126.5q0 42 12 72.5t35.5 57t59.5 55.5q27 22 41 37.5t18.5 30t4.5 34.5v27h122v-37zM334 466
q0 -44 -23 -63.5t-60 -19.5q-35 0 -58.5 19.5t-23.5 63.5q0 42 23.5 62t58.5 20q36 0 59.5 -20t23.5 -62z" />
    <glyph glyph-name="Agrave" unicode="&#xc0;" horiz-adv-x="630" 
d="M473 0l-46 171h-223l-47 -171h-157l223 716h182l225 -716h-157zM349 469q-7 29 -17.5 69t-16.5 69q-4 -19 -10 -45.5t-12.5 -51.5t-10.5 -40l-47 -175h161zM310 934q13 -22 31.5 -49.5t38 -54t33.5 -43.5v-13h-96q-17 13 -40.5 32.5t-47.5 41.5t-45 42t-34 34v10h160z
" />
    <glyph glyph-name="Aacute" unicode="&#xc1;" horiz-adv-x="630" 
d="M473 0l-46 171h-223l-47 -171h-157l223 716h182l225 -716h-157zM349 469q-7 29 -17.5 69t-16.5 69q-4 -19 -10 -45.5t-12.5 -51.5t-10.5 -40l-47 -175h161zM509 924q-17 -18 -47 -46.5t-62.5 -56.5t-56.5 -47h-97v13q25 32 54 72.5t49 74.5h160v-10z" />
    <glyph glyph-name="Acircumflex" unicode="&#xc2;" horiz-adv-x="630" 
d="M473 0l-46 171h-223l-47 -171h-157l223 716h182l225 -716h-157zM349 469q-7 29 -17.5 69t-16.5 69q-4 -19 -10 -45.5t-12.5 -51.5t-10.5 -40l-47 -175h161zM392 934q13 -22 32.5 -48.5t41 -52.5t39.5 -46v-13h-91q-23 15 -49.5 36.5t-50.5 47.5q-25 -26 -50.5 -47.5
t-47.5 -36.5h-92v13q17 19 39 45.5t42.5 53.5t32.5 48h154z" />
    <glyph glyph-name="Atilde" unicode="&#xc3;" horiz-adv-x="630" 
d="M473 0l-46 171h-223l-47 -171h-157l223 716h182l225 -716h-157zM349 469q-7 29 -17.5 69t-16.5 69q-4 -19 -10 -45.5t-12.5 -51.5t-10.5 -40l-47 -175h161zM127 773q4 66 34 108t82 42q27 0 51.5 -12.5t48 -25.5t46.5 -13q32 0 42 52h72q-4 -75 -37 -112.5t-79 -37.5
q-26 0 -51.5 12.5t-49 25.5t-44.5 13q-13 0 -25.5 -12.5t-17.5 -39.5h-72z" />
    <glyph glyph-name="Adieresis" unicode="&#xc4;" horiz-adv-x="630" 
d="M473 0l-46 171h-223l-47 -171h-157l223 716h182l225 -716h-157zM349 469q-7 29 -17.5 69t-16.5 69q-4 -19 -10 -45.5t-12.5 -51.5t-10.5 -40l-47 -175h161zM153 852q0 34 18.5 50.5t46.5 16.5q27 0 46.5 -16.5t19.5 -50.5q0 -32 -19.5 -48.5t-46.5 -16.5q-28 0 -46.5 16
t-18.5 49zM344 852q0 34 18.5 50.5t47.5 16.5q27 0 46.5 -16.5t19.5 -50.5q0 -32 -19.5 -48.5t-46.5 -16.5q-29 0 -47.5 16.5t-18.5 48.5z" />
    <glyph glyph-name="Aring" unicode="&#xc5;" horiz-adv-x="630" 
d="M473 0l-46 171h-223l-47 -171h-157l223 716h182l225 -716h-157zM349 469q-7 29 -17.5 69t-16.5 69q-4 -19 -10 -45.5t-12.5 -51.5t-10.5 -40l-47 -175h161zM314 647q-53 0 -86 31.5t-33 84.5t33 84t86 31q52 0 87 -31t35 -83q0 -53 -34.5 -85t-87.5 -32zM315 717
q20 0 33 12.5t13 33.5t-13 33.5t-33 12.5t-33.5 -12.5t-13.5 -33.5t12 -33.5t35 -12.5z" />
    <glyph glyph-name="AE" unicode="&#xc6;" horiz-adv-x="857" 
d="M804 0h-387v171h-202l-64 -171h-152l283 714h522v-122h-242v-160h226v-122h-226v-187h242v-123zM261 295h156v294h-47z" />
    <glyph glyph-name="Ccedilla" unicode="&#xc7;" horiz-adv-x="581" 
d="M362 601q-78 0 -118.5 -67.5t-40.5 -178.5q0 -116 39.5 -179t122.5 -63q39 0 78 10.5t82 27.5v-125q-41 -18 -83 -27t-93 -9q-100 0 -165.5 44.5t-98 126.5t-32.5 195q0 107 35 190.5t103.5 130.5t167.5 47q49 0 97.5 -12.5t93.5 -35.5l-46 -119q-35 18 -70.5 31
t-71.5 13zM445 -125q0 -55 -32.5 -85t-108.5 -30q-22 0 -39.5 2.5t-32.5 6.5v80q14 -4 31.5 -6.5t31.5 -2.5q17 0 28 7.5t11 24.5q0 19 -18 32t-59 18l37 78h83l-14 -34q34 -9 58 -31.5t24 -59.5z" />
    <glyph glyph-name="Egrave" unicode="&#xc8;" horiz-adv-x="511" 
d="M458 0h-378v714h378v-121h-232v-161h216v-122h-216v-187h232v-123zM268 934q13 -22 31.5 -49.5t38 -54t33.5 -43.5v-13h-96q-17 13 -40.5 32.5t-47.5 41.5t-45 42t-34 34v10h160z" />
    <glyph glyph-name="Eacute" unicode="&#xc9;" horiz-adv-x="511" 
d="M458 0h-378v714h378v-121h-232v-161h216v-122h-216v-187h232v-123zM467 924q-17 -18 -47 -46.5t-62.5 -56.5t-56.5 -47h-97v13q25 32 54 72.5t49 74.5h160v-10z" />
    <glyph glyph-name="Ecircumflex" unicode="&#xca;" horiz-adv-x="511" 
d="M458 0h-378v714h378v-121h-232v-161h216v-122h-216v-187h232v-123zM350 934q13 -22 32.5 -48.5t41 -52.5t39.5 -46v-13h-91q-23 15 -49.5 36.5t-50.5 47.5q-25 -26 -50.5 -47.5t-47.5 -36.5h-92v13q17 19 39 45.5t42.5 53.5t32.5 48h154z" />
    <glyph glyph-name="Edieresis" unicode="&#xcb;" horiz-adv-x="511" 
d="M458 0h-378v714h378v-121h-232v-161h216v-122h-216v-187h232v-123zM111 852q0 34 18.5 50.5t46.5 16.5q27 0 46.5 -16.5t19.5 -50.5q0 -32 -19.5 -48.5t-46.5 -16.5q-28 0 -46.5 16t-18.5 49zM302 852q0 34 18.5 50.5t47.5 16.5q27 0 46.5 -16.5t19.5 -50.5
q0 -32 -19.5 -48.5t-46.5 -16.5q-29 0 -47.5 16.5t-18.5 48.5z" />
    <glyph glyph-name="Igrave" unicode="&#xcc;" horiz-adv-x="366" 
d="M335 0h-304v82l79 35v480l-79 35v82h304v-82l-79 -35v-480l79 -35v-82zM179 934q13 -22 31.5 -49.5t38 -54t33.5 -43.5v-13h-96q-17 13 -40.5 32.5t-47.5 41.5t-45 42t-34 34v10h160z" />
    <glyph glyph-name="Iacute" unicode="&#xcd;" horiz-adv-x="366" 
d="M335 0h-304v82l79 35v480l-79 35v82h304v-82l-79 -35v-480l79 -35v-82zM377 924q-17 -18 -47 -46.5t-62.5 -56.5t-56.5 -47h-97v13q25 32 54 72.5t49 74.5h160v-10z" />
    <glyph glyph-name="Icircumflex" unicode="&#xce;" horiz-adv-x="366" 
d="M335 0h-304v82l79 35v480l-79 35v82h304v-82l-79 -35v-480l79 -35v-82zM261 934q13 -22 32.5 -48.5t41 -52.5t39.5 -46v-13h-91q-23 15 -49.5 36.5t-50.5 47.5q-25 -26 -50.5 -47.5t-47.5 -36.5h-92v13q17 19 39 45.5t42.5 53.5t32.5 48h154z" />
    <glyph glyph-name="Idieresis" unicode="&#xcf;" horiz-adv-x="366" 
d="M335 0h-304v82l79 35v480l-79 35v82h304v-82l-79 -35v-480l79 -35v-82zM22 852q0 34 18.5 50.5t46.5 16.5q27 0 46.5 -16.5t19.5 -50.5q0 -32 -19.5 -48.5t-46.5 -16.5q-28 0 -46.5 16t-18.5 49zM213 852q0 34 18.5 50.5t47.5 16.5q27 0 46.5 -16.5t19.5 -50.5
q0 -32 -19.5 -48.5t-46.5 -16.5q-29 0 -47.5 16.5t-18.5 48.5z" />
    <glyph glyph-name="Eth" unicode="&#xd0;" horiz-adv-x="674" 
d="M288 714q154 0 243.5 -89t89.5 -259q0 -180 -92 -273t-259 -93h-190v301h-62v116h62v297h208zM291 592h-65v-175h103v-116h-103v-178h52q192 0 192 238q0 120 -46 175.5t-133 55.5z" />
    <glyph glyph-name="Ntilde" unicode="&#xd1;" horiz-adv-x="743" 
d="M663 0h-181l-274 525h-4q3 -52 5 -99.5t4 -91.5v-334h-133v714h180l273 -517h3q-2 49 -4 95t-3 89v333h134v-714zM184 773q4 66 34 108t82 42q27 0 51.5 -12.5t48 -25.5t46.5 -13q32 0 42 52h72q-4 -75 -37 -112.5t-79 -37.5q-26 0 -51.5 12.5t-49 25.5t-44.5 13
q-13 0 -25.5 -12.5t-17.5 -39.5h-72z" />
    <glyph glyph-name="Ograve" unicode="&#xd2;" horiz-adv-x="722" 
d="M669 358q0 -112 -33 -194.5t-101.5 -128t-173.5 -45.5t-173.5 45.5t-101.5 128.5t-33 195q0 171 76 268.5t233 97.5q105 0 173 -45t101 -127.5t33 -194.5zM205 358q0 -116 37.5 -179.5t118.5 -63.5q82 0 118.5 63t36.5 180t-36.5 180.5t-117.5 63.5q-82 0 -119.5 -64
t-37.5 -180zM356 934q13 -22 31.5 -49.5t38 -54t33.5 -43.5v-13h-96q-17 13 -40.5 32.5t-47.5 41.5t-45 42t-34 34v10h160z" />
    <glyph glyph-name="Oacute" unicode="&#xd3;" horiz-adv-x="722" 
d="M669 358q0 -112 -33 -194.5t-101.5 -128t-173.5 -45.5t-173.5 45.5t-101.5 128.5t-33 195q0 171 76 268.5t233 97.5q105 0 173 -45t101 -127.5t33 -194.5zM205 358q0 -116 37.5 -179.5t118.5 -63.5q82 0 118.5 63t36.5 180t-36.5 180.5t-117.5 63.5q-82 0 -119.5 -64
t-37.5 -180zM555 924q-17 -18 -47 -46.5t-62.5 -56.5t-56.5 -47h-97v13q25 32 54 72.5t49 74.5h160v-10z" />
    <glyph glyph-name="Ocircumflex" unicode="&#xd4;" horiz-adv-x="722" 
d="M669 358q0 -112 -33 -194.5t-101.5 -128t-173.5 -45.5t-173.5 45.5t-101.5 128.5t-33 195q0 171 76 268.5t233 97.5q105 0 173 -45t101 -127.5t33 -194.5zM205 358q0 -116 37.5 -179.5t118.5 -63.5q82 0 118.5 63t36.5 180t-36.5 180.5t-117.5 63.5q-82 0 -119.5 -64
t-37.5 -180zM438 934q13 -22 32.5 -48.5t41 -52.5t39.5 -46v-13h-91q-23 15 -49.5 36.5t-50.5 47.5q-25 -26 -50.5 -47.5t-47.5 -36.5h-92v13q17 19 39 45.5t42.5 53.5t32.5 48h154z" />
    <glyph glyph-name="Otilde" unicode="&#xd5;" horiz-adv-x="722" 
d="M669 358q0 -112 -33 -194.5t-101.5 -128t-173.5 -45.5t-173.5 45.5t-101.5 128.5t-33 195q0 171 76 268.5t233 97.5q105 0 173 -45t101 -127.5t33 -194.5zM205 358q0 -116 37.5 -179.5t118.5 -63.5q82 0 118.5 63t36.5 180t-36.5 180.5t-117.5 63.5q-82 0 -119.5 -64
t-37.5 -180zM173 773q4 66 34 108t82 42q27 0 51.5 -12.5t48 -25.5t46.5 -13q32 0 42 52h72q-4 -75 -37 -112.5t-79 -37.5q-26 0 -51.5 12.5t-49 25.5t-44.5 13q-13 0 -25.5 -12.5t-17.5 -39.5h-72z" />
    <glyph glyph-name="Odieresis" unicode="&#xd6;" horiz-adv-x="722" 
d="M669 358q0 -112 -33 -194.5t-101.5 -128t-173.5 -45.5t-173.5 45.5t-101.5 128.5t-33 195q0 171 76 268.5t233 97.5q105 0 173 -45t101 -127.5t33 -194.5zM205 358q0 -116 37.5 -179.5t118.5 -63.5q82 0 118.5 63t36.5 180t-36.5 180.5t-117.5 63.5q-82 0 -119.5 -64
t-37.5 -180zM199 852q0 34 18.5 50.5t46.5 16.5q27 0 46.5 -16.5t19.5 -50.5q0 -32 -19.5 -48.5t-46.5 -16.5q-28 0 -46.5 16t-18.5 49zM390 852q0 34 18.5 50.5t47.5 16.5q27 0 46.5 -16.5t19.5 -50.5q0 -32 -19.5 -48.5t-46.5 -16.5q-29 0 -47.5 16.5t-18.5 48.5z" />
    <glyph glyph-name="multiply" unicode="&#xd7;" horiz-adv-x="536" 
d="M408 568l74 -73l-141 -142l139 -141l-73 -73l-141 139l-140 -139l-73 74l138 140l-138 140l73 74l140 -138z" />
    <glyph glyph-name="Oslash" unicode="&#xd8;" horiz-adv-x="722" 
d="M669 358q0 -171 -76 -269.5t-232 -98.5q-86 0 -148 32l-41 -69l-75 46l44 75q-46 51 -67 123t-21 162q0 171 76 268.5t233 97.5q87 0 152 -35l38 63l74 -44l-43 -72q44 -48 65 -118.5t21 -160.5zM204 358q0 -44 5.5 -80t16.5 -65l220 362q-34 28 -84 28q-82 0 -120 -64
t-38 -181zM518 358q0 83 -20 137l-217 -359q32 -23 80 -23q82 0 119.5 64t37.5 181z" />
    <glyph glyph-name="Ugrave" unicode="&#xd9;" horiz-adv-x="685" 
d="M609 246q0 -116 -67 -186t-202 -70q-129 0 -196.5 68t-67.5 188v468h146v-452q0 -81 30.5 -114t90.5 -33q63 0 92 35t29 113v451h145v-468zM338 934q13 -22 31.5 -49.5t38 -54t33.5 -43.5v-13h-96q-17 13 -40.5 32.5t-47.5 41.5t-45 42t-34 34v10h160z" />
    <glyph glyph-name="Uacute" unicode="&#xda;" horiz-adv-x="685" 
d="M609 246q0 -116 -67 -186t-202 -70q-129 0 -196.5 68t-67.5 188v468h146v-452q0 -81 30.5 -114t90.5 -33q63 0 92 35t29 113v451h145v-468zM537 924q-17 -18 -47 -46.5t-62.5 -56.5t-56.5 -47h-97v13q25 32 54 72.5t49 74.5h160v-10z" />
    <glyph glyph-name="Ucircumflex" unicode="&#xdb;" horiz-adv-x="685" 
d="M609 246q0 -116 -67 -186t-202 -70q-129 0 -196.5 68t-67.5 188v468h146v-452q0 -81 30.5 -114t90.5 -33q63 0 92 35t29 113v451h145v-468zM420 934q13 -22 32.5 -48.5t41 -52.5t39.5 -46v-13h-91q-23 15 -49.5 36.5t-50.5 47.5q-25 -26 -50.5 -47.5t-47.5 -36.5h-92v13
q17 19 39 45.5t42.5 53.5t32.5 48h154z" />
    <glyph glyph-name="Udieresis" unicode="&#xdc;" horiz-adv-x="685" 
d="M609 246q0 -116 -67 -186t-202 -70q-129 0 -196.5 68t-67.5 188v468h146v-452q0 -81 30.5 -114t90.5 -33q63 0 92 35t29 113v451h145v-468zM181 852q0 34 18.5 50.5t46.5 16.5q27 0 46.5 -16.5t19.5 -50.5q0 -32 -19.5 -48.5t-46.5 -16.5q-28 0 -46.5 16t-18.5 49z
M372 852q0 34 18.5 50.5t47.5 16.5q27 0 46.5 -16.5t19.5 -50.5q0 -32 -19.5 -48.5t-46.5 -16.5q-29 0 -47.5 16.5t-18.5 48.5z" />
    <glyph glyph-name="Yacute" unicode="&#xdd;" horiz-adv-x="569" 
d="M285 421l129 293h155l-212 -437v-277h-145v272l-212 442h156zM479 924q-17 -18 -47 -46.5t-62.5 -56.5t-56.5 -47h-97v13q25 32 54 72.5t49 74.5h160v-10z" />
    <glyph glyph-name="Thorn" unicode="&#xde;" horiz-adv-x="572" 
d="M535 379q0 -65 -24 -118.5t-78 -86t-145 -32.5h-62v-142h-146v714h146v-112h71q122 0 180 -59.5t58 -163.5zM267 262q62 0 92 27t30 89q0 53 -27 78t-84 25h-52v-219h41z" />
    <glyph glyph-name="germandbls" unicode="&#xdf;" horiz-adv-x="647" 
d="M556 603q0 -37 -12.5 -63.5t-31 -45.5t-37 -34t-31 -28t-12.5 -27q0 -18 19 -34.5t65 -47.5q47 -34 73 -69.5t26 -93.5q0 -83 -52.5 -126.5t-151.5 -43.5q-41 0 -74.5 7t-61.5 23v120q23 -17 58 -29t65 -12q71 0 71 57q0 16 -6 29t-23.5 28t-51.5 36q-57 38 -77.5 69.5
t-20.5 69.5q0 30 12.5 51t30.5 37.5t36 31.5t30 33t12 42q0 30 -26 49t-69 19q-47 0 -75.5 -26t-28.5 -79v-546h-142v554q0 69 31.5 116t87 71t128.5 24q69 0 123 -19t85 -55.5t31 -87.5z" />
    <glyph glyph-name="agrave" unicode="&#xe0;" horiz-adv-x="553" 
d="M281 557q99 0 151.5 -48.5t52.5 -145.5v-363h-101l-26 74h-3q-32 -44 -67.5 -64t-96.5 -20q-71 0 -112.5 46t-41.5 126q0 87 56 129t166 46l85 3v24q0 85 -76 85q-34 0 -68.5 -10.5t-70.5 -28.5l-44 99q41 23 91.5 35.5t104.5 12.5zM293 251q-60 -2 -85.5 -25t-25.5 -62
q0 -35 17.5 -51t46.5 -16q41 0 69.5 29t28.5 81v46zM275 766q13 -22 31.5 -49.5t38 -54t33.5 -43.5v-13h-96q-17 13 -40.5 32.5t-47.5 41.5t-45 42t-34 34v10h160z" />
    <glyph glyph-name="aacute" unicode="&#xe1;" horiz-adv-x="553" 
d="M281 557q99 0 151.5 -48.5t52.5 -145.5v-363h-101l-26 74h-3q-32 -44 -67.5 -64t-96.5 -20q-71 0 -112.5 46t-41.5 126q0 87 56 129t166 46l85 3v24q0 85 -76 85q-34 0 -68.5 -10.5t-70.5 -28.5l-44 99q41 23 91.5 35.5t104.5 12.5zM293 251q-60 -2 -85.5 -25t-25.5 -62
q0 -35 17.5 -51t46.5 -16q41 0 69.5 29t28.5 81v46zM473 756q-17 -18 -47 -46.5t-62.5 -56.5t-56.5 -47h-97v13q25 32 54 72.5t49 74.5h160v-10z" />
    <glyph glyph-name="acircumflex" unicode="&#xe2;" horiz-adv-x="553" 
d="M281 557q99 0 151.5 -48.5t52.5 -145.5v-363h-101l-26 74h-3q-32 -44 -67.5 -64t-96.5 -20q-71 0 -112.5 46t-41.5 126q0 87 56 129t166 46l85 3v24q0 85 -76 85q-34 0 -68.5 -10.5t-70.5 -28.5l-44 99q41 23 91.5 35.5t104.5 12.5zM293 251q-60 -2 -85.5 -25t-25.5 -62
q0 -35 17.5 -51t46.5 -16q41 0 69.5 29t28.5 81v46zM357 766q13 -22 32.5 -48.5t41 -52.5t39.5 -46v-13h-91q-23 15 -49.5 36.5t-50.5 47.5q-25 -26 -50.5 -47.5t-47.5 -36.5h-92v13q17 19 39 45.5t42.5 53.5t32.5 48h154z" />
    <glyph glyph-name="atilde" unicode="&#xe3;" horiz-adv-x="553" 
d="M281 557q99 0 151.5 -48.5t52.5 -145.5v-363h-101l-26 74h-3q-32 -44 -67.5 -64t-96.5 -20q-71 0 -112.5 46t-41.5 126q0 87 56 129t166 46l85 3v24q0 85 -76 85q-34 0 -68.5 -10.5t-70.5 -28.5l-44 99q41 23 91.5 35.5t104.5 12.5zM293 251q-60 -2 -85.5 -25t-25.5 -62
q0 -35 17.5 -51t46.5 -16q41 0 69.5 29t28.5 81v46zM92 605q4 66 34 108t82 42q27 0 51.5 -12.5t48 -25.5t46.5 -13q32 0 42 52h72q-4 -75 -37 -112.5t-79 -37.5q-26 0 -51.5 12.5t-49 25.5t-44.5 13q-13 0 -25.5 -12.5t-17.5 -39.5h-72z" />
    <glyph glyph-name="adieresis" unicode="&#xe4;" horiz-adv-x="553" 
d="M281 557q99 0 151.5 -48.5t52.5 -145.5v-363h-101l-26 74h-3q-32 -44 -67.5 -64t-96.5 -20q-71 0 -112.5 46t-41.5 126q0 87 56 129t166 46l85 3v24q0 85 -76 85q-34 0 -68.5 -10.5t-70.5 -28.5l-44 99q41 23 91.5 35.5t104.5 12.5zM293 251q-60 -2 -85.5 -25t-25.5 -62
q0 -35 17.5 -51t46.5 -16q41 0 69.5 29t28.5 81v46zM118 684q0 34 18.5 50.5t46.5 16.5q27 0 46.5 -16.5t19.5 -50.5q0 -32 -19.5 -48.5t-46.5 -16.5q-28 0 -46.5 16t-18.5 49zM309 684q0 34 18.5 50.5t47.5 16.5q27 0 46.5 -16.5t19.5 -50.5q0 -32 -19.5 -48.5t-46.5 -16.5
q-29 0 -47.5 16.5t-18.5 48.5z" />
    <glyph glyph-name="aring" unicode="&#xe5;" horiz-adv-x="553" 
d="M281 557q99 0 151.5 -48.5t52.5 -145.5v-363h-101l-26 74h-3q-32 -44 -67.5 -64t-96.5 -20q-71 0 -112.5 46t-41.5 126q0 87 56 129t166 46l85 3v24q0 85 -76 85q-34 0 -68.5 -10.5t-70.5 -28.5l-44 99q41 23 91.5 35.5t104.5 12.5zM293 251q-60 -2 -85.5 -25t-25.5 -62
q0 -35 17.5 -51t46.5 -16q41 0 69.5 29t28.5 81v46zM278 605q-53 0 -86 31.5t-33 84.5t33 84t86 31q52 0 87 -31t35 -83q0 -53 -34.5 -85t-87.5 -32zM279 675q20 0 33 12.5t13 33.5t-13 33.5t-33 12.5t-33.5 -12.5t-13.5 -33.5t12 -33.5t35 -12.5z" />
    <glyph glyph-name="ae" unicode="&#xe6;" horiz-adv-x="836" 
d="M580 556q99 0 157.5 -65.5t58.5 -182.5v-72h-319q2 -66 33.5 -101.5t90.5 -35.5q86 0 166 42v-112q-37 -20 -78.5 -29.5t-97.5 -9.5q-62 0 -113.5 24.5t-83.5 74.5q-39 -51 -82 -75t-114 -24t-116 46t-45 126q0 87 55 129t161 46l84 3v34q0 75 -73 75q-33 0 -66.5 -10
t-68.5 -28l-44 98q40 22 88.5 35t100.5 13q101 0 149 -62q29 31 67 46t90 15zM578 451q-43 0 -69 -28t-30 -90h184q0 53 -22 85.5t-63 32.5zM289 251q-58 -2 -82.5 -24.5t-24.5 -62.5q0 -35 16.5 -51t44.5 -16q40 0 67 29t27 81v46z" />
    <glyph glyph-name="ccedilla" unicode="&#xe7;" horiz-adv-x="472" 
d="M278 -10q-115 0 -175.5 68t-60.5 212q0 141 65 213.5t180 72.5q51 0 89 -10t68 -26l-41 -111q-31 14 -58 22t-54 8q-105 0 -105 -168q0 -83 27.5 -123t78.5 -40q39 0 72.5 11.5t64.5 32.5v-121q-31 -21 -66.5 -31t-84.5 -10zM382 -125q0 -55 -32.5 -85t-108.5 -30
q-22 0 -39.5 2.5t-32.5 6.5v80q14 -4 31.5 -6.5t31.5 -2.5q17 0 28 7.5t11 24.5q0 19 -18 32t-59 18l37 78h83l-14 -34q34 -9 58 -31.5t24 -59.5z" />
    <glyph glyph-name="egrave" unicode="&#xe8;" horiz-adv-x="542" 
d="M278 556q105 0 165 -65.5t60 -182.5v-72h-319q2 -66 33.5 -101.5t91.5 -35.5q45 0 84 10t81 32v-112q-38 -20 -79.5 -29.5t-96.5 -9.5q-120 0 -188 71t-68 208q0 142 63.5 214.5t172.5 72.5zM279 451q-39 0 -64 -28t-28 -90h183q-1 53 -23 85.5t-68 32.5zM268 766
q13 -22 31.5 -49.5t38 -54t33.5 -43.5v-13h-96q-17 13 -40.5 32.5t-47.5 41.5t-45 42t-34 34v10h160z" />
    <glyph glyph-name="eacute" unicode="&#xe9;" horiz-adv-x="542" 
d="M278 556q105 0 165 -65.5t60 -182.5v-72h-319q2 -66 33.5 -101.5t91.5 -35.5q45 0 84 10t81 32v-112q-38 -20 -79.5 -29.5t-96.5 -9.5q-120 0 -188 71t-68 208q0 142 63.5 214.5t172.5 72.5zM279 451q-39 0 -64 -28t-28 -90h183q-1 53 -23 85.5t-68 32.5zM467 756
q-17 -18 -47 -46.5t-62.5 -56.5t-56.5 -47h-97v13q25 32 54 72.5t49 74.5h160v-10z" />
    <glyph glyph-name="ecircumflex" unicode="&#xea;" horiz-adv-x="542" 
d="M278 556q105 0 165 -65.5t60 -182.5v-72h-319q2 -66 33.5 -101.5t91.5 -35.5q45 0 84 10t81 32v-112q-38 -20 -79.5 -29.5t-96.5 -9.5q-120 0 -188 71t-68 208q0 142 63.5 214.5t172.5 72.5zM279 451q-39 0 -64 -28t-28 -90h183q-1 53 -23 85.5t-68 32.5zM350 766
q13 -22 32.5 -48.5t41 -52.5t39.5 -46v-13h-91q-23 15 -49.5 36.5t-50.5 47.5q-25 -26 -50.5 -47.5t-47.5 -36.5h-92v13q17 19 39 45.5t42.5 53.5t32.5 48h154z" />
    <glyph glyph-name="edieresis" unicode="&#xeb;" horiz-adv-x="542" 
d="M278 556q105 0 165 -65.5t60 -182.5v-72h-319q2 -66 33.5 -101.5t91.5 -35.5q45 0 84 10t81 32v-112q-38 -20 -79.5 -29.5t-96.5 -9.5q-120 0 -188 71t-68 208q0 142 63.5 214.5t172.5 72.5zM279 451q-39 0 -64 -28t-28 -90h183q-1 53 -23 85.5t-68 32.5zM111 684
q0 34 18.5 50.5t46.5 16.5q27 0 46.5 -16.5t19.5 -50.5q0 -32 -19.5 -48.5t-46.5 -16.5q-28 0 -46.5 16t-18.5 49zM302 684q0 34 18.5 50.5t47.5 16.5q27 0 46.5 -16.5t19.5 -50.5q0 -32 -19.5 -48.5t-46.5 -16.5q-29 0 -47.5 16.5t-18.5 48.5z" />
    <glyph glyph-name="igrave" unicode="&#xec;" horiz-adv-x="283" 
d="M212 0h-142v546h142v-546zM137 766q13 -22 31.5 -49.5t38 -54t33.5 -43.5v-13h-96q-17 13 -40.5 32.5t-47.5 41.5t-45 42t-34 34v10h160z" />
    <glyph glyph-name="iacute" unicode="&#xed;" horiz-adv-x="283" 
d="M212 0h-142v546h142v-546zM335 756q-17 -18 -47 -46.5t-62.5 -56.5t-56.5 -47h-97v13q25 32 54 72.5t49 74.5h160v-10z" />
    <glyph glyph-name="icircumflex" unicode="&#xee;" horiz-adv-x="283" 
d="M212 0h-142v546h142v-546zM219 766q13 -22 32.5 -48.5t41 -52.5t39.5 -46v-13h-91q-23 15 -49.5 36.5t-50.5 47.5q-25 -26 -50.5 -47.5t-47.5 -36.5h-92v13q17 19 39 45.5t42.5 53.5t32.5 48h154z" />
    <glyph glyph-name="idieresis" unicode="&#xef;" horiz-adv-x="283" 
d="M212 0h-142v546h142v-546zM-20 684q0 34 18.5 50.5t46.5 16.5q27 0 46.5 -16.5t19.5 -50.5q0 -32 -19.5 -48.5t-46.5 -16.5q-28 0 -46.5 16t-18.5 49zM171 684q0 34 18.5 50.5t47.5 16.5q27 0 46.5 -16.5t19.5 -50.5q0 -32 -19.5 -48.5t-46.5 -16.5q-29 0 -47.5 16.5
t-18.5 48.5z" />
    <glyph glyph-name="eth" unicode="&#xf0;" horiz-adv-x="571" 
d="M211 765q29 -13 56.5 -29t52.5 -34l96 63l49 -71l-76 -49q68 -68 104.5 -156t36.5 -213q0 -136 -65.5 -211t-180.5 -75q-72 0 -126.5 30t-85 86t-30.5 133q0 79 28 134.5t77 84t112 28.5q79 0 111 -39l4 2q-13 37 -33.5 68.5t-48.5 61.5l-94 -62l-49 71l78 51
q-33 24 -68 45zM286 376q-53 0 -76.5 -34.5t-23.5 -103.5q0 -62 23.5 -100t76.5 -38t76 38.5t23 114.5q0 52 -24 87.5t-75 35.5z" />
    <glyph glyph-name="ntilde" unicode="&#xf1;" horiz-adv-x="600" 
d="M356 556q81 0 128.5 -48t47.5 -150v-358h-142v321q0 58 -17.5 87.5t-58.5 29.5q-59 0 -80.5 -44t-21.5 -135v-259h-142v546h110l18 -70h8q23 41 63 60.5t87 19.5zM116 605q4 66 34 108t82 42q27 0 51.5 -12.5t48 -25.5t46.5 -13q32 0 42 52h72q-4 -75 -37 -112.5
t-79 -37.5q-26 0 -51.5 12.5t-49 25.5t-44.5 13q-13 0 -25.5 -12.5t-17.5 -39.5h-72z" />
    <glyph glyph-name="ograve" unicode="&#xf2;" horiz-adv-x="571" 
d="M529 274q0 -85 -28 -149t-82.5 -99.5t-134.5 -35.5q-74 0 -128.5 35t-84 99t-29.5 150q0 132 63 207t182 75q71 0 126 -32.5t85.5 -95.5t30.5 -154zM186 274q0 -83 23.5 -125.5t76.5 -42.5q52 0 75 42.5t23 125.5t-23 124.5t-76 41.5q-52 0 -75.5 -41.5t-23.5 -124.5z
M281 766q13 -22 31.5 -49.5t38 -54t33.5 -43.5v-13h-96q-17 13 -40.5 32.5t-47.5 41.5t-45 42t-34 34v10h160z" />
    <glyph glyph-name="oacute" unicode="&#xf3;" horiz-adv-x="571" 
d="M529 274q0 -85 -28 -149t-82.5 -99.5t-134.5 -35.5q-74 0 -128.5 35t-84 99t-29.5 150q0 132 63 207t182 75q71 0 126 -32.5t85.5 -95.5t30.5 -154zM186 274q0 -83 23.5 -125.5t76.5 -42.5q52 0 75 42.5t23 125.5t-23 124.5t-76 41.5q-52 0 -75.5 -41.5t-23.5 -124.5z
M480 756q-17 -18 -47 -46.5t-62.5 -56.5t-56.5 -47h-97v13q25 32 54 72.5t49 74.5h160v-10z" />
    <glyph glyph-name="ocircumflex" unicode="&#xf4;" horiz-adv-x="571" 
d="M529 274q0 -85 -28 -149t-82.5 -99.5t-134.5 -35.5q-74 0 -128.5 35t-84 99t-29.5 150q0 132 63 207t182 75q71 0 126 -32.5t85.5 -95.5t30.5 -154zM186 274q0 -83 23.5 -125.5t76.5 -42.5q52 0 75 42.5t23 125.5t-23 124.5t-76 41.5q-52 0 -75.5 -41.5t-23.5 -124.5z
M363 766q13 -22 32.5 -48.5t41 -52.5t39.5 -46v-13h-91q-23 15 -49.5 36.5t-50.5 47.5q-25 -26 -50.5 -47.5t-47.5 -36.5h-92v13q17 19 39 45.5t42.5 53.5t32.5 48h154z" />
    <glyph glyph-name="otilde" unicode="&#xf5;" horiz-adv-x="571" 
d="M529 274q0 -85 -28 -149t-82.5 -99.5t-134.5 -35.5q-74 0 -128.5 35t-84 99t-29.5 150q0 132 63 207t182 75q71 0 126 -32.5t85.5 -95.5t30.5 -154zM186 274q0 -83 23.5 -125.5t76.5 -42.5q52 0 75 42.5t23 125.5t-23 124.5t-76 41.5q-52 0 -75.5 -41.5t-23.5 -124.5z
M98 605q4 66 34 108t82 42q27 0 51.5 -12.5t48 -25.5t46.5 -13q32 0 42 52h72q-4 -75 -37 -112.5t-79 -37.5q-26 0 -51.5 12.5t-49 25.5t-44.5 13q-13 0 -25.5 -12.5t-17.5 -39.5h-72z" />
    <glyph glyph-name="odieresis" unicode="&#xf6;" horiz-adv-x="571" 
d="M529 274q0 -85 -28 -149t-82.5 -99.5t-134.5 -35.5q-74 0 -128.5 35t-84 99t-29.5 150q0 132 63 207t182 75q71 0 126 -32.5t85.5 -95.5t30.5 -154zM186 274q0 -83 23.5 -125.5t76.5 -42.5q52 0 75 42.5t23 125.5t-23 124.5t-76 41.5q-52 0 -75.5 -41.5t-23.5 -124.5z
M124 684q0 34 18.5 50.5t46.5 16.5q27 0 46.5 -16.5t19.5 -50.5q0 -32 -19.5 -48.5t-46.5 -16.5q-28 0 -46.5 16t-18.5 49zM315 684q0 34 18.5 50.5t47.5 16.5q27 0 46.5 -16.5t19.5 -50.5q0 -32 -19.5 -48.5t-46.5 -16.5q-29 0 -47.5 16.5t-18.5 48.5z" />
    <glyph glyph-name="divide" unicode="&#xf7;" horiz-adv-x="536" 
d="M267 455q-29 0 -48.5 18.5t-19.5 56.5q0 40 19 57.5t49 17.5q29 0 48.5 -17.5t19.5 -57.5q0 -38 -19.5 -56.5t-48.5 -18.5zM39 299v107h457v-107h-457zM267 100q-29 0 -48.5 18.5t-19.5 56.5q0 40 19 57.5t49 17.5q29 0 48.5 -17.5t19.5 -57.5q0 -38 -19.5 -56.5
t-48.5 -18.5z" />
    <glyph glyph-name="oslash" unicode="&#xf8;" horiz-adv-x="571" 
d="M529 274q0 -135 -65 -209.5t-180 -74.5q-57 0 -104 22l-34 -58l-72 44l37 63q-34 40 -51.5 92.5t-17.5 120.5q0 136 65 209t180 73q60 0 109 -25l29 48l70 -45l-31 -54q31 -36 48 -88t17 -118zM184 274q0 -50 8 -82l143 236q-19 14 -50 14q-53 0 -77 -42t-24 -126z
M387 274q0 41 -6 73l-140 -232q18 -11 44 -11q54 0 78 43t24 127z" />
    <glyph glyph-name="ugrave" unicode="&#xf9;" horiz-adv-x="600" 
d="M530 546v-546h-110l-18 70h-8q-23 -41 -63 -60.5t-87 -19.5q-83 0 -129.5 49.5t-46.5 150.5v356h142v-318q0 -60 17.5 -90t57.5 -30q61 0 82 45t21 129v264h142zM296 766q13 -22 31.5 -49.5t38 -54t33.5 -43.5v-13h-96q-17 13 -40.5 32.5t-47.5 41.5t-45 42t-34 34v10
h160z" />
    <glyph glyph-name="uacute" unicode="&#xfa;" horiz-adv-x="600" 
d="M530 546v-546h-110l-18 70h-8q-23 -41 -63 -60.5t-87 -19.5q-83 0 -129.5 49.5t-46.5 150.5v356h142v-318q0 -60 17.5 -90t57.5 -30q61 0 82 45t21 129v264h142zM495 756q-17 -18 -47 -46.5t-62.5 -56.5t-56.5 -47h-97v13q25 32 54 72.5t49 74.5h160v-10z" />
    <glyph glyph-name="ucircumflex" unicode="&#xfb;" horiz-adv-x="600" 
d="M530 546v-546h-110l-18 70h-8q-23 -41 -63 -60.5t-87 -19.5q-83 0 -129.5 49.5t-46.5 150.5v356h142v-318q0 -60 17.5 -90t57.5 -30q61 0 82 45t21 129v264h142zM378 766q13 -22 32.5 -48.5t41 -52.5t39.5 -46v-13h-91q-23 15 -49.5 36.5t-50.5 47.5q-25 -26 -50.5 -47.5
t-47.5 -36.5h-92v13q17 19 39 45.5t42.5 53.5t32.5 48h154z" />
    <glyph glyph-name="udieresis" unicode="&#xfc;" horiz-adv-x="600" 
d="M530 546v-546h-110l-18 70h-8q-23 -41 -63 -60.5t-87 -19.5q-83 0 -129.5 49.5t-46.5 150.5v356h142v-318q0 -60 17.5 -90t57.5 -30q61 0 82 45t21 129v264h142zM139 684q0 34 18.5 50.5t46.5 16.5q27 0 46.5 -16.5t19.5 -50.5q0 -32 -19.5 -48.5t-46.5 -16.5
q-28 0 -46.5 16t-18.5 49zM330 684q0 34 18.5 50.5t47.5 16.5q27 0 46.5 -16.5t19.5 -50.5q0 -32 -19.5 -48.5t-46.5 -16.5q-29 0 -47.5 16.5t-18.5 48.5z" />
    <glyph glyph-name="yacute" unicode="&#xfd;" horiz-adv-x="523" 
d="M1 546h153l89 -291q7 -24 11.5 -49t6.5 -50h4q2 25 7.5 48.5t12.5 49.5l86 292h151l-206 -610q-30 -91 -83 -133.5t-127 -42.5q-22 0 -39.5 2.5t-31.5 5.5v117q10 -3 24 -4.5t28 -1.5q40 0 63 25t37 72l9 29zM456 756q-17 -18 -47 -46.5t-62.5 -56.5t-56.5 -47h-97v13
q25 32 54 72.5t49 74.5h160v-10z" />
    <glyph glyph-name="thorn" unicode="&#xfe;" horiz-adv-x="584" 
d="M543 273q0 -136 -51.5 -209.5t-136.5 -73.5q-52 0 -87 20t-56 53h-6q3 -22 4.5 -44.5t1.5 -38.5v-220h-142v1000h142v-189q0 -24 -2 -50.5t-4 -45.5h6q23 39 57 60t84 21q86 0 138 -72.5t52 -210.5zM398 274q0 167 -90 167q-52 0 -73.5 -37t-22.5 -114v-20
q0 -81 21.5 -121.5t75.5 -40.5q46 0 67.5 43.5t21.5 122.5z" />
    <glyph glyph-name="ydieresis" unicode="&#xff;" horiz-adv-x="523" 
d="M1 546h153l89 -291q7 -24 11.5 -49t6.5 -50h4q2 25 7.5 48.5t12.5 49.5l86 292h151l-206 -610q-30 -91 -83 -133.5t-127 -42.5q-22 0 -39.5 2.5t-31.5 5.5v117q10 -3 24 -4.5t28 -1.5q40 0 63 25t37 72l9 29zM100 684q0 34 18.5 50.5t46.5 16.5q27 0 46.5 -16.5
t19.5 -50.5q0 -32 -19.5 -48.5t-46.5 -16.5q-28 0 -46.5 16t-18.5 49zM291 684q0 34 18.5 50.5t47.5 16.5q27 0 46.5 -16.5t19.5 -50.5q0 -32 -19.5 -48.5t-46.5 -16.5q-29 0 -47.5 16.5t-18.5 48.5z" />
    <glyph glyph-name="Amacron" unicode="&#x100;" horiz-adv-x="630" 
d="M473 0l-46 171h-223l-47 -171h-157l223 716h182l225 -716h-157zM349 469q-7 29 -17.5 69t-16.5 69q-4 -19 -10 -45.5t-12.5 -51.5t-10.5 -40l-47 -175h161zM470 878v-100h-311v100h311z" />
    <glyph glyph-name="amacron" unicode="&#x101;" horiz-adv-x="553" 
d="M281 557q99 0 151.5 -48.5t52.5 -145.5v-363h-101l-26 74h-3q-32 -44 -67.5 -64t-96.5 -20q-71 0 -112.5 46t-41.5 126q0 87 56 129t166 46l85 3v24q0 85 -76 85q-34 0 -68.5 -10.5t-70.5 -28.5l-44 99q41 23 91.5 35.5t104.5 12.5zM293 251q-60 -2 -85.5 -25t-25.5 -62
q0 -35 17.5 -51t46.5 -16q41 0 69.5 29t28.5 81v46zM435 710v-100h-311v100h311z" />
    <glyph glyph-name="Abreve" unicode="&#x102;" horiz-adv-x="630" 
d="M473 0l-46 171h-223l-47 -171h-157l223 716h182l225 -716h-157zM349 469q-7 29 -17.5 69t-16.5 69q-4 -19 -10 -45.5t-12.5 -51.5t-10.5 -40l-47 -175h161zM489 938q-3 -73 -52 -118.5t-124 -45.5q-78 0 -124 43.5t-49 120.5h82q3 -40 28 -52t64 -12q33 0 61 13t32 51h82
z" />
    <glyph glyph-name="abreve" unicode="&#x103;" horiz-adv-x="553" 
d="M281 557q99 0 151.5 -48.5t52.5 -145.5v-363h-101l-26 74h-3q-32 -44 -67.5 -64t-96.5 -20q-71 0 -112.5 46t-41.5 126q0 87 56 129t166 46l85 3v24q0 85 -76 85q-34 0 -68.5 -10.5t-70.5 -28.5l-44 99q41 23 91.5 35.5t104.5 12.5zM293 251q-60 -2 -85.5 -25t-25.5 -62
q0 -35 17.5 -51t46.5 -16q41 0 69.5 29t28.5 81v46zM454 770q-3 -73 -52 -118.5t-124 -45.5q-78 0 -124 43.5t-49 120.5h82q3 -40 28 -52t64 -12q33 0 61 13t32 51h82z" />
    <glyph glyph-name="Aogonek" unicode="&#x104;" horiz-adv-x="630" 
d="M473 0l-46 171h-223l-47 -171h-157l223 716h182l225 -716h-157zM349 469q-7 29 -17.5 69t-16.5 69q-4 -19 -10 -45.5t-12.5 -51.5t-10.5 -40l-47 -175h161zM516 -108q0 -20 11 -30.5t29 -10.5q15 0 27.5 3t21.5 6v-86q-14 -5 -31.5 -8.5t-40.5 -3.5q-56 0 -87.5 30
t-31.5 79q0 41 27.5 79t73.5 66l67 -16q-34 -33 -50 -58t-16 -50z" />
    <glyph glyph-name="aogonek" unicode="&#x105;" horiz-adv-x="553" 
d="M281 557q99 0 151.5 -48.5t52.5 -145.5v-363h-101l-26 74h-3q-32 -44 -67.5 -64t-96.5 -20q-71 0 -112.5 46t-41.5 126q0 87 56 129t166 46l85 3v24q0 85 -76 85q-34 0 -68.5 -10.5t-70.5 -28.5l-44 99q41 23 91.5 35.5t104.5 12.5zM293 251q-60 -2 -85.5 -25t-25.5 -62
q0 -35 17.5 -51t46.5 -16q41 0 69.5 29t28.5 81v46zM407 -108q0 -20 11 -30.5t29 -10.5q15 0 27.5 3t21.5 6v-86q-14 -5 -31.5 -8.5t-40.5 -3.5q-56 0 -87.5 30t-31.5 79q0 41 27.5 79t73.5 66l67 -16q-34 -33 -50 -58t-16 -50z" />
    <glyph glyph-name="Cacute" unicode="&#x106;" horiz-adv-x="581" 
d="M362 601q-78 0 -118.5 -67.5t-40.5 -178.5q0 -116 39.5 -179t122.5 -63q39 0 78 10.5t82 27.5v-125q-41 -18 -83 -27t-93 -9q-100 0 -165.5 44.5t-98 126.5t-32.5 195q0 107 35 190.5t103.5 130.5t167.5 47q49 0 97.5 -12.5t93.5 -35.5l-46 -119q-35 18 -70.5 31
t-71.5 13zM538 924q-17 -18 -47 -46.5t-62.5 -56.5t-56.5 -47h-97v13q25 32 54 72.5t49 74.5h160v-10z" />
    <glyph glyph-name="cacute" unicode="&#x107;" horiz-adv-x="472" 
d="M278 -10q-115 0 -175.5 68t-60.5 212q0 141 65 213.5t180 72.5q51 0 89 -10t68 -26l-41 -111q-31 14 -58 22t-54 8q-105 0 -105 -168q0 -83 27.5 -123t78.5 -40q39 0 72.5 11.5t64.5 32.5v-121q-31 -21 -66.5 -31t-84.5 -10zM461 756q-17 -18 -47 -46.5t-62.5 -56.5
t-56.5 -47h-97v13q25 32 54 72.5t49 74.5h160v-10z" />
    <glyph glyph-name="Ccircumflex" unicode="&#x108;" horiz-adv-x="581" 
d="M362 601q-78 0 -118.5 -67.5t-40.5 -178.5q0 -116 39.5 -179t122.5 -63q39 0 78 10.5t82 27.5v-125q-41 -18 -83 -27t-93 -9q-100 0 -165.5 44.5t-98 126.5t-32.5 195q0 107 35 190.5t103.5 130.5t167.5 47q49 0 97.5 -12.5t93.5 -35.5l-46 -119q-35 18 -70.5 31
t-71.5 13zM421 934q13 -22 32.5 -48.5t41 -52.5t39.5 -46v-13h-91q-23 15 -49.5 36.5t-50.5 47.5q-25 -26 -50.5 -47.5t-47.5 -36.5h-92v13q17 19 39 45.5t42.5 53.5t32.5 48h154z" />
    <glyph glyph-name="ccircumflex" unicode="&#x109;" horiz-adv-x="472" 
d="M278 -10q-115 0 -175.5 68t-60.5 212q0 141 65 213.5t180 72.5q51 0 89 -10t68 -26l-41 -111q-31 14 -58 22t-54 8q-105 0 -105 -168q0 -83 27.5 -123t78.5 -40q39 0 72.5 11.5t64.5 32.5v-121q-31 -21 -66.5 -31t-84.5 -10zM344 766q13 -22 32.5 -48.5t41 -52.5
t39.5 -46v-13h-91q-23 15 -49.5 36.5t-50.5 47.5q-25 -26 -50.5 -47.5t-47.5 -36.5h-92v13q17 19 39 45.5t42.5 53.5t32.5 48h154z" />
    <glyph glyph-name="Cdotaccent" unicode="&#x10a;" horiz-adv-x="581" 
d="M362 601q-78 0 -118.5 -67.5t-40.5 -178.5q0 -116 39.5 -179t122.5 -63q39 0 78 10.5t82 27.5v-125q-41 -18 -83 -27t-93 -9q-100 0 -165.5 44.5t-98 126.5t-32.5 195q0 107 35 190.5t103.5 130.5t167.5 47q49 0 97.5 -12.5t93.5 -35.5l-46 -119q-35 18 -70.5 31
t-71.5 13zM348 929q35 0 56.5 -17t21.5 -57q0 -39 -22 -56t-56 -17t-55.5 17t-21.5 56q0 40 21 57t56 17z" />
    <glyph glyph-name="cdotaccent" unicode="&#x10b;" horiz-adv-x="472" 
d="M278 -10q-115 0 -175.5 68t-60.5 212q0 141 65 213.5t180 72.5q51 0 89 -10t68 -26l-41 -111q-31 14 -58 22t-54 8q-105 0 -105 -168q0 -83 27.5 -123t78.5 -40q39 0 72.5 11.5t64.5 32.5v-121q-31 -21 -66.5 -31t-84.5 -10zM271 761q35 0 56.5 -17t21.5 -57
q0 -39 -22 -56t-56 -17t-55.5 17t-21.5 56q0 40 21 57t56 17z" />
    <glyph glyph-name="Ccaron" unicode="&#x10c;" horiz-adv-x="581" 
d="M362 601q-78 0 -118.5 -67.5t-40.5 -178.5q0 -116 39.5 -179t122.5 -63q39 0 78 10.5t82 27.5v-125q-41 -18 -83 -27t-93 -9q-100 0 -165.5 44.5t-98 126.5t-32.5 195q0 107 35 190.5t103.5 130.5t167.5 47q49 0 97.5 -12.5t93.5 -35.5l-46 -119q-35 18 -70.5 31
t-71.5 13zM267 774q-12 21 -32.5 48.5t-42.5 53.5t-39 45v13h92q22 -16 48 -37t50 -47q25 27 51 47.5t49 36.5h91v-13q-16 -18 -38 -44.5t-42 -53.5t-33 -49h-154z" />
    <glyph glyph-name="ccaron" unicode="&#x10d;" horiz-adv-x="472" 
d="M278 -10q-115 0 -175.5 68t-60.5 212q0 141 65 213.5t180 72.5q51 0 89 -10t68 -26l-41 -111q-31 14 -58 22t-54 8q-105 0 -105 -168q0 -83 27.5 -123t78.5 -40q39 0 72.5 11.5t64.5 32.5v-121q-31 -21 -66.5 -31t-84.5 -10zM190 606q-12 21 -32.5 48.5t-42.5 53.5
t-39 45v13h92q22 -16 48 -37t50 -47q25 27 51 47.5t49 36.5h91v-13q-16 -18 -38 -44.5t-42 -53.5t-33 -49h-154z" />
    <glyph glyph-name="Dcaron" unicode="&#x10e;" horiz-adv-x="674" 
d="M621 366q0 -180 -92 -273t-259 -93h-190v714h208q154 0 243.5 -89t89.5 -259zM470 361q0 120 -45.5 175.5t-132.5 55.5h-66v-469h53q97 0 144 59.5t47 178.5zM259 774q-12 21 -32.5 48.5t-42.5 53.5t-39 45v13h92q22 -16 48 -37t50 -47q25 27 51 47.5t49 36.5h91v-13
q-16 -18 -38 -44.5t-42 -53.5t-33 -49h-154z" />
    <glyph glyph-name="dcaron" unicode="&#x10f;" horiz-adv-x="584" 
d="M709 750q-13 -35 -32 -74.5t-42 -75.5h-86v13q4 18 9.5 44.5t10 54.5t6.5 48h134v-10zM232 -10q-87 0 -138.5 73t-51.5 210q0 138 52 210.5t139 72.5q50 0 85.5 -21.5t57.5 -58.5h5q-3 22 -6 49.5t-3 54.5v180h142v-760h-110l-25 67h-7q-22 -35 -55 -56t-85 -21zM279 105
q53 0 76 37t24 114v21q0 80 -22.5 120.5t-78.5 40.5q-45 0 -68.5 -42.5t-23.5 -123.5q0 -83 24 -125t69 -42z" />
    <glyph glyph-name="Dcroat" unicode="&#x110;" horiz-adv-x="674" 
d="M288 714q154 0 243.5 -89t89.5 -259q0 -180 -92 -273t-259 -93h-190v301h-62v116h62v297h208zM291 592h-65v-175h103v-116h-103v-178h52q192 0 192 238q0 120 -46 175.5t-133 55.5z" />
    <glyph glyph-name="dcroat" unicode="&#x111;" horiz-adv-x="594" 
d="M232 -10q-87 0 -138.5 70t-51.5 201t52 200.5t139 69.5q50 0 85.5 -22t57.5 -58h5q-3 25 -6 54.5t-3 51.5v28h-131v96h131v79h142v-79h70v-96h-70v-585h-110l-25 67h-7q-23 -35 -55.5 -56t-84.5 -21zM279 105q53 0 76 34.5t24 106.5v18q0 74 -22.5 111.5t-78.5 37.5
q-45 0 -68.5 -39t-23.5 -115t24 -115t69 -39z" />
    <glyph glyph-name="Emacron" unicode="&#x112;" horiz-adv-x="511" 
d="M458 0h-378v714h378v-121h-232v-161h216v-122h-216v-187h232v-123zM428 878v-100h-311v100h311z" />
    <glyph glyph-name="emacron" unicode="&#x113;" horiz-adv-x="542" 
d="M278 556q105 0 165 -65.5t60 -182.5v-72h-319q2 -66 33.5 -101.5t91.5 -35.5q45 0 84 10t81 32v-112q-38 -20 -79.5 -29.5t-96.5 -9.5q-120 0 -188 71t-68 208q0 142 63.5 214.5t172.5 72.5zM279 451q-39 0 -64 -28t-28 -90h183q-1 53 -23 85.5t-68 32.5zM428 710v-100
h-311v100h311z" />
    <glyph glyph-name="Ebreve" unicode="&#x114;" horiz-adv-x="511" 
d="M458 0h-378v714h378v-121h-232v-161h216v-122h-216v-187h232v-123zM447 938q-3 -73 -52 -118.5t-124 -45.5q-78 0 -124 43.5t-49 120.5h82q3 -40 28 -52t64 -12q33 0 61 13t32 51h82z" />
    <glyph glyph-name="ebreve" unicode="&#x115;" horiz-adv-x="542" 
d="M278 556q105 0 165 -65.5t60 -182.5v-72h-319q2 -66 33.5 -101.5t91.5 -35.5q45 0 84 10t81 32v-112q-38 -20 -79.5 -29.5t-96.5 -9.5q-120 0 -188 71t-68 208q0 142 63.5 214.5t172.5 72.5zM279 451q-39 0 -64 -28t-28 -90h183q-1 53 -23 85.5t-68 32.5zM447 770
q-3 -73 -52 -118.5t-124 -45.5q-78 0 -124 43.5t-49 120.5h82q3 -40 28 -52t64 -12q33 0 61 13t32 51h82z" />
    <glyph glyph-name="Edotaccent" unicode="&#x116;" horiz-adv-x="511" 
d="M458 0h-378v714h378v-121h-232v-161h216v-122h-216v-187h232v-123zM276 929q35 0 56.5 -17t21.5 -57q0 -39 -22 -56t-56 -17t-55.5 17t-21.5 56q0 40 21 57t56 17z" />
    <glyph glyph-name="edotaccent" unicode="&#x117;" horiz-adv-x="542" 
d="M278 556q105 0 165 -65.5t60 -182.5v-72h-319q2 -66 33.5 -101.5t91.5 -35.5q45 0 84 10t81 32v-112q-38 -20 -79.5 -29.5t-96.5 -9.5q-120 0 -188 71t-68 208q0 142 63.5 214.5t172.5 72.5zM279 451q-39 0 -64 -28t-28 -90h183q-1 53 -23 85.5t-68 32.5zM277 761
q35 0 56.5 -17t21.5 -57q0 -39 -22 -56t-56 -17t-55.5 17t-21.5 56q0 40 21 57t56 17z" />
    <glyph glyph-name="Eogonek" unicode="&#x118;" horiz-adv-x="511" 
d="M458 0h-378v714h378v-121h-232v-161h216v-122h-216v-187h232v-123zM370 -108q0 -20 11 -30.5t29 -10.5q15 0 27.5 3t21.5 6v-86q-14 -5 -31.5 -8.5t-40.5 -3.5q-56 0 -87.5 30t-31.5 79q0 41 27.5 79t73.5 66l67 -16q-34 -33 -50 -58t-16 -50z" />
    <glyph glyph-name="eogonek" unicode="&#x119;" horiz-adv-x="542" 
d="M380 -109q0 -19 10.5 -29t27.5 -10q14 0 28.5 3t23.5 6v-87q-16 -5 -35 -8t-40 -3q-57 0 -87.5 30t-30.5 79q0 34 19.5 64.5t51.5 55.5q-23 -2 -50 -2q-120 0 -188 71t-68 208q0 142 63.5 214.5t172.5 72.5q105 0 165 -65.5t60 -182.5v-72h-319q2 -66 33.5 -101.5
t91.5 -35.5q45 0 84 10t81 32v-112q-54 -50 -74 -81.5t-20 -56.5zM279 451q-39 0 -64 -28t-28 -90h183q-1 53 -23 85.5t-68 32.5z" />
    <glyph glyph-name="Ecaron" unicode="&#x11a;" horiz-adv-x="511" 
d="M458 0h-378v714h378v-121h-232v-161h216v-122h-216v-187h232v-123zM196 774q-12 21 -32.5 48.5t-42.5 53.5t-39 45v13h92q22 -16 48 -37t50 -47q25 27 51 47.5t49 36.5h91v-13q-16 -18 -38 -44.5t-42 -53.5t-33 -49h-154z" />
    <glyph glyph-name="ecaron" unicode="&#x11b;" horiz-adv-x="542" 
d="M278 556q105 0 165 -65.5t60 -182.5v-72h-319q2 -66 33.5 -101.5t91.5 -35.5q45 0 84 10t81 32v-112q-38 -20 -79.5 -29.5t-96.5 -9.5q-120 0 -188 71t-68 208q0 142 63.5 214.5t172.5 72.5zM279 451q-39 0 -64 -28t-28 -90h183q-1 53 -23 85.5t-68 32.5zM196 606
q-12 21 -32.5 48.5t-42.5 53.5t-39 45v13h92q22 -16 48 -37t50 -47q25 27 51 47.5t49 36.5h91v-13q-16 -18 -38 -44.5t-42 -53.5t-33 -49h-154z" />
    <glyph glyph-name="Gcircumflex" unicode="&#x11c;" horiz-adv-x="669" 
d="M339 401h261v-370q-55 -20 -113 -30.5t-126 -10.5q-150 0 -229 96t-79 272q0 112 39.5 194t116.5 127t187 45q55 0 106.5 -12.5t92.5 -31.5l-46 -118q-32 17 -71 28t-81 11q-91 0 -142.5 -66t-51.5 -180q0 -72 17.5 -126.5t54.5 -85t95 -30.5q28 0 48.5 3.5t38.5 7.5v155
h-118v122zM448 934q13 -22 32.5 -48.5t41 -52.5t39.5 -46v-13h-91q-23 15 -49.5 36.5t-50.5 47.5q-25 -26 -50.5 -47.5t-47.5 -36.5h-92v13q17 19 39 45.5t42.5 53.5t32.5 48h154z" />
    <glyph glyph-name="gcircumflex" unicode="&#x11d;" horiz-adv-x="584" 
d="M234 556q92 0 142 -80h6l11 70h121v-536q0 -122 -64 -186t-194 -64q-53 0 -97.5 8t-86.5 26v118q91 -42 188 -42q55 0 83.5 29t28.5 90v11q0 16 1.5 36t3.5 36h-5q-25 -43 -60.5 -62.5t-81.5 -19.5q-88 0 -138 74.5t-50 206.5q0 135 51 210t141 75zM278 438
q-92 0 -92 -169q0 -163 94 -163q50 0 74.5 33.5t24.5 113.5v21q0 87 -24 125.5t-77 38.5zM371 766q13 -22 32.5 -48.5t41 -52.5t39.5 -46v-13h-91q-23 15 -49.5 36.5t-50.5 47.5q-25 -26 -50.5 -47.5t-47.5 -36.5h-92v13q17 19 39 45.5t42.5 53.5t32.5 48h154z" />
    <glyph glyph-name="Gbreve" unicode="&#x11e;" horiz-adv-x="669" 
d="M339 401h261v-370q-55 -20 -113 -30.5t-126 -10.5q-150 0 -229 96t-79 272q0 112 39.5 194t116.5 127t187 45q55 0 106.5 -12.5t92.5 -31.5l-46 -118q-32 17 -71 28t-81 11q-91 0 -142.5 -66t-51.5 -180q0 -72 17.5 -126.5t54.5 -85t95 -30.5q28 0 48.5 3.5t38.5 7.5v155
h-118v122zM545 938q-3 -73 -52 -118.5t-124 -45.5q-78 0 -124 43.5t-49 120.5h82q3 -40 28 -52t64 -12q33 0 61 13t32 51h82z" />
    <glyph glyph-name="gbreve" unicode="&#x11f;" horiz-adv-x="584" 
d="M234 556q92 0 142 -80h6l11 70h121v-536q0 -122 -64 -186t-194 -64q-53 0 -97.5 8t-86.5 26v118q91 -42 188 -42q55 0 83.5 29t28.5 90v11q0 16 1.5 36t3.5 36h-5q-25 -43 -60.5 -62.5t-81.5 -19.5q-88 0 -138 74.5t-50 206.5q0 135 51 210t141 75zM278 438
q-92 0 -92 -169q0 -163 94 -163q50 0 74.5 33.5t24.5 113.5v21q0 87 -24 125.5t-77 38.5zM468 770q-3 -73 -52 -118.5t-124 -45.5q-78 0 -124 43.5t-49 120.5h82q3 -40 28 -52t64 -12q33 0 61 13t32 51h82z" />
    <glyph glyph-name="Gdotaccent" unicode="&#x120;" horiz-adv-x="669" 
d="M339 401h261v-370q-55 -20 -113 -30.5t-126 -10.5q-150 0 -229 96t-79 272q0 112 39.5 194t116.5 127t187 45q55 0 106.5 -12.5t92.5 -31.5l-46 -118q-32 17 -71 28t-81 11q-91 0 -142.5 -66t-51.5 -180q0 -72 17.5 -126.5t54.5 -85t95 -30.5q28 0 48.5 3.5t38.5 7.5v155
h-118v122zM375 929q35 0 56.5 -17t21.5 -57q0 -39 -22 -56t-56 -17t-55.5 17t-21.5 56q0 40 21 57t56 17z" />
    <glyph glyph-name="gdotaccent" unicode="&#x121;" horiz-adv-x="584" 
d="M234 556q92 0 142 -80h6l11 70h121v-536q0 -122 -64 -186t-194 -64q-53 0 -97.5 8t-86.5 26v118q91 -42 188 -42q55 0 83.5 29t28.5 90v11q0 16 1.5 36t3.5 36h-5q-25 -43 -60.5 -62.5t-81.5 -19.5q-88 0 -138 74.5t-50 206.5q0 135 51 210t141 75zM278 438
q-92 0 -92 -169q0 -163 94 -163q50 0 74.5 33.5t24.5 113.5v21q0 87 -24 125.5t-77 38.5zM297 761q35 0 56.5 -17t21.5 -57q0 -39 -22 -56t-56 -17t-55.5 17t-21.5 56q0 40 21 57t56 17z" />
    <glyph glyph-name="uni0122" unicode="&#x122;" horiz-adv-x="669" 
d="M339 401h261v-370q-55 -20 -113 -30.5t-126 -10.5q-150 0 -229 96t-79 272q0 112 39.5 194t116.5 127t187 45q55 0 106.5 -12.5t92.5 -31.5l-46 -118q-32 17 -71 28t-81 11q-91 0 -142.5 -66t-51.5 -180q0 -72 17.5 -126.5t54.5 -85t95 -30.5q28 0 48.5 3.5t38.5 7.5v155
h-118v122zM444 -71q-13 -35 -32.5 -74t-42.5 -76h-86v13q5 19 10.5 45.5t10 53.5t6.5 48h134v-10z" />
    <glyph glyph-name="uni0123" unicode="&#x123;" horiz-adv-x="584" 
d="M368 753q-9 -33 -17.5 -74.5t-11.5 -72.5h-133v10q13 34 32 73t44 77h86v-13zM234 556q92 0 142 -80h6l11 70h121v-536q0 -122 -64 -186t-194 -64q-53 0 -97.5 8t-86.5 26v118q91 -42 188 -42q55 0 83.5 29t28.5 90v11q0 16 1.5 36t3.5 36h-5q-25 -43 -60.5 -62.5
t-81.5 -19.5q-88 0 -138 74.5t-50 206.5q0 135 51 210t141 75zM278 438q-92 0 -92 -169q0 -163 94 -163q50 0 74.5 33.5t24.5 113.5v21q0 87 -24 125.5t-77 38.5z" />
    <glyph glyph-name="Hcircumflex" unicode="&#x124;" horiz-adv-x="697" 
d="M616 0h-146v309h-244v-309h-146v714h146v-281h244v281h146v-714zM426 934q13 -22 32.5 -48.5t41 -52.5t39.5 -46v-13h-91q-23 15 -49.5 36.5t-50.5 47.5q-25 -26 -50.5 -47.5t-47.5 -36.5h-92v13q17 19 39 45.5t42.5 53.5t32.5 48h154z" />
    <glyph glyph-name="hcircumflex" unicode="&#x125;" horiz-adv-x="600" 
d="M212 600q0 -37 -2.5 -70.5t-5.5 -53.5h8q22 41 59 60.5t84 19.5q82 0 129.5 -48.5t47.5 -149.5v-358h-142v321q0 117 -75 117q-59 0 -81 -45t-22 -134v-259h-142v760h142v-160zM220 980q13 -22 32.5 -48.5t41 -52.5t39.5 -46v-13h-91q-23 15 -49.5 36.5t-50.5 47.5
q-25 -26 -50.5 -47.5t-47.5 -36.5h-92v13q17 19 39 45.5t42.5 53.5t32.5 48h154z" />
    <glyph glyph-name="Hbar" unicode="&#x126;" horiz-adv-x="697" 
d="M81 0v523h-82v96h82v95h145v-95h245v95h146v-95h81v-96h-81v-523h-146v309h-245v-309h-145zM226 433h245v90h-245v-90z" />
    <glyph glyph-name="hbar" unicode="&#x127;" horiz-adv-x="600" 
d="M212 760v-79h134v-96h-134v-18q0 -33 -2.5 -64.5t-5.5 -50.5h8q23 40 59.5 59.5t83.5 19.5q83 0 130 -48.5t47 -149.5v-333h-142v296q0 117 -75 117q-59 0 -81 -44t-22 -135v-234h-142v585h-69v96h69v79h142z" />
    <glyph glyph-name="Itilde" unicode="&#x128;" horiz-adv-x="366" 
d="M335 0h-304v82l79 35v480l-79 35v82h304v-82l-79 -35v-480l79 -35v-82zM-4 773q4 66 34 108t82 42q27 0 51.5 -12.5t48 -25.5t46.5 -13q32 0 42 52h72q-4 -75 -37 -112.5t-79 -37.5q-26 0 -51.5 12.5t-49 25.5t-44.5 13q-13 0 -25.5 -12.5t-17.5 -39.5h-72z" />
    <glyph glyph-name="itilde" unicode="&#x129;" horiz-adv-x="283" 
d="M212 0h-142v546h142v-546zM-46 605q4 66 34 108t82 42q27 0 51.5 -12.5t48 -25.5t46.5 -13q32 0 42 52h72q-4 -75 -37 -112.5t-79 -37.5q-26 0 -51.5 12.5t-49 25.5t-44.5 13q-13 0 -25.5 -12.5t-17.5 -39.5h-72z" />
    <glyph glyph-name="Imacron" unicode="&#x12a;" horiz-adv-x="366" 
d="M335 0h-304v82l79 35v480l-79 35v82h304v-82l-79 -35v-480l79 -35v-82zM339 878v-100h-311v100h311z" />
    <glyph glyph-name="imacron" unicode="&#x12b;" horiz-adv-x="283" 
d="M212 0h-142v546h142v-546zM297 710v-100h-311v100h311z" />
    <glyph glyph-name="Ibreve" unicode="&#x12c;" horiz-adv-x="366" 
d="M335 0h-304v82l79 35v480l-79 35v82h304v-82l-79 -35v-480l79 -35v-82zM358 938q-3 -73 -52 -118.5t-124 -45.5q-78 0 -124 43.5t-49 120.5h82q3 -40 28 -52t64 -12q33 0 61 13t32 51h82z" />
    <glyph glyph-name="ibreve" unicode="&#x12d;" horiz-adv-x="283" 
d="M212 0h-142v546h142v-546zM316 770q-3 -73 -52 -118.5t-124 -45.5q-78 0 -124 43.5t-49 120.5h82q3 -40 28 -52t64 -12q33 0 61 13t32 51h82z" />
    <glyph glyph-name="Iogonek" unicode="&#x12e;" horiz-adv-x="366" 
d="M335 0h-304v82l79 35v480l-79 35v82h304v-82l-79 -35v-480l79 -35v-82zM241 -108q0 -20 11 -30.5t29 -10.5q15 0 27.5 3t21.5 6v-86q-14 -5 -31.5 -8.5t-40.5 -3.5q-56 0 -87.5 30t-31.5 79q0 41 27.5 79t73.5 66l67 -16q-34 -33 -50 -58t-16 -50z" />
    <glyph glyph-name="iogonek" unicode="&#x12f;" horiz-adv-x="283" 
d="M142 761q34 0 55.5 -17t21.5 -57q0 -39 -22 -56t-55 -17q-34 0 -56 17t-22 56q0 40 21.5 57t56.5 17zM212 546v-546h-142v546h142zM133 -108q0 -20 11 -30.5t29 -10.5q15 0 27.5 3t21.5 6v-86q-14 -5 -31.5 -8.5t-40.5 -3.5q-56 0 -87.5 30t-31.5 79q0 41 27.5 79
t73.5 66l67 -16q-34 -33 -50 -58t-16 -50z" />
    <glyph glyph-name="Idotaccent" unicode="&#x130;" horiz-adv-x="366" 
d="M335 0h-304v82l79 35v480l-79 35v82h304v-82l-79 -35v-480l79 -35v-82zM187 929q35 0 56.5 -17t21.5 -57q0 -39 -22 -56t-56 -17t-55.5 17t-21.5 56q0 40 21 57t56 17z" />
    <glyph glyph-name="dotlessi" unicode="&#x131;" horiz-adv-x="283" 
d="M212 0h-142v546h142v-546z" />
    <glyph glyph-name="IJ" unicode="&#x132;" horiz-adv-x="670" 
d="M335 0h-304v82l79 35v480l-79 35v82h304v-82l-79 -35v-480l79 -35v-82zM380 -211q-26 0 -47 3t-37 8v123q14 -4 30 -7t35 -3q38 0 60.5 25.5t22.5 101.5v674h145v-673q0 -92 -25.5 -147.5t-72.5 -80t-111 -24.5z" />
    <glyph glyph-name="ij" unicode="&#x133;" horiz-adv-x="565" 
d="M142 761q34 0 55.5 -17t21.5 -57q0 -39 -22 -56t-55 -17q-34 0 -56 17t-22 56q0 40 21.5 57t56.5 17zM212 546v-546h-142v546h142zM347 687q0 40 21.5 57t56.5 17q34 0 55.5 -17t21.5 -57q0 -39 -22 -56t-55 -17q-34 0 -56 17t-22 56zM320 -240q-23 0 -46.5 3t-41.5 9
v115q15 -5 29 -7t31 -2q27 0 44 17t17 63v588h142v-605q0 -82 -41.5 -131.5t-133.5 -49.5z" />
    <glyph glyph-name="Jcircumflex" unicode="&#x134;" horiz-adv-x="306" 
d="M17 -211q-26 0 -47 3t-37 8v123q14 -4 30 -7t35 -3q38 0 60.5 25.5t22.5 101.5v674h145v-673q0 -92 -25.5 -147.5t-72.5 -80t-111 -24.5zM231 934q13 -22 32.5 -48.5t41 -52.5t39.5 -46v-13h-91q-23 15 -49.5 36.5t-50.5 47.5q-25 -26 -50.5 -47.5t-47.5 -36.5h-92v13
q17 19 39 45.5t42.5 53.5t32.5 48h154z" />
    <glyph glyph-name="jcircumflex" unicode="&#x135;" horiz-adv-x="283" 
d="M37 -240q-22 0 -47 3.5t-41 8.5v115q15 -5 29 -7t31 -2q27 0 44 17t17 61v590h142v-605q0 -79 -41.5 -130t-133.5 -51zM219 766q13 -22 32.5 -48.5t41 -52.5t39.5 -46v-13h-91q-23 15 -49.5 36.5t-50.5 47.5q-25 -26 -50.5 -47.5t-47.5 -36.5h-92v13q17 19 39 45.5
t42.5 53.5t32.5 48h154z" />
    <glyph glyph-name="uni0136" unicode="&#x136;" horiz-adv-x="608" 
d="M610 0h-164l-163 297l-57 -43v-254h-146v714h146v-328q11 20 25 42t29 47l168 239h160l-221 -317zM404 -71q-13 -35 -32.5 -74t-42.5 -76h-86v13q5 19 10.5 45.5t10 53.5t6.5 48h134v-10z" />
    <glyph glyph-name="uni0137" unicode="&#x137;" horiz-adv-x="566" 
d="M212 423q0 -32 -2 -63.5t-5 -62.5h2q13 21 27 41t29 38l135 170h158l-189 -232l200 -314h-161l-135 223l-59 -51v-172h-142v760h142v-337zM369 -71q-13 -35 -32.5 -74t-42.5 -76h-86v13q5 19 10.5 45.5t10 53.5t6.5 48h134v-10z" />
    <glyph glyph-name="kgreenlandic" unicode="&#x138;" horiz-adv-x="566" 
d="M556 546l-188 -240l199 -306h-160l-132 215l-63 -47v-168h-142v546h142v-133q-1 -32 -1.5 -63.5t-2.5 -61.5h3q14 21 28 40.5t29 37.5l136 180h152z" />
    <glyph glyph-name="Lacute" unicode="&#x139;" horiz-adv-x="507" 
d="M80 0v714h146v-591h254v-123h-400zM347 924q-17 -18 -47 -46.5t-62.5 -56.5t-56.5 -47h-97v13q25 32 54 72.5t49 74.5h160v-10z" />
    <glyph glyph-name="lacute" unicode="&#x13a;" horiz-adv-x="282" 
d="M212 0h-142v760h142v-760zM336 970q-17 -18 -47 -46.5t-62.5 -56.5t-56.5 -47h-97v13q25 32 54 72.5t49 74.5h160v-10z" />
    <glyph glyph-name="uni013B" unicode="&#x13b;" horiz-adv-x="507" 
d="M80 0v714h146v-591h254v-123h-400zM360 -71q-13 -35 -32.5 -74t-42.5 -76h-86v13q5 19 10.5 45.5t10 53.5t6.5 48h134v-10z" />
    <glyph glyph-name="uni013C" unicode="&#x13c;" horiz-adv-x="282" 
d="M212 0h-142v760h142v-760zM222 -71q-13 -35 -32.5 -74t-42.5 -76h-86v13q5 19 10.5 45.5t10 53.5t6.5 48h134v-10z" />
    <glyph glyph-name="Lcaron" unicode="&#x13d;" horiz-adv-x="507" 
d="M80 0v714h146v-591h254v-123h-400zM513 703q-13 -34 -32.5 -73.5t-42.5 -75.5h-85v13q4 17 9.5 44t10 54.5t6.5 48.5h134v-11z" />
    <glyph glyph-name="lcaron" unicode="&#x13e;" horiz-adv-x="282" 
d="M402 750q-13 -35 -32.5 -74.5t-42.5 -75.5h-85v13q4 18 9.5 44.5t10 54.5t6.5 48h134v-10zM212 0h-142v760h142v-760z" />
    <glyph glyph-name="Ldot" unicode="&#x13f;" horiz-adv-x="507" 
d="M80 0v714h146v-591h254v-123h-400zM405 465q35 0 56.5 -17t21.5 -57q0 -39 -22 -56t-56 -17t-55.5 17t-21.5 56q0 40 21 57t56 17z" />
    <glyph glyph-name="ldot" unicode="&#x140;" horiz-adv-x="354" 
d="M212 0h-142v760h142v-760zM318 456q35 0 56.5 -17t21.5 -57q0 -39 -22 -56t-56 -17t-55.5 17t-21.5 56q0 40 21 57t56 17z" />
    <glyph glyph-name="Lslash" unicode="&#x141;" horiz-adv-x="513" 
d="M87 0v240l-35 -22l-58 90l93 63v343h146v-249l74 49l59 -91l-133 -88v-212h253v-123h-399z" />
    <glyph glyph-name="lslash" unicode="&#x142;" horiz-adv-x="298" 
d="M78 0v243l-36 -24l-59 90l95 65v386h142v-293l36 25l59 -91l-95 -65v-336h-142z" />
    <glyph glyph-name="Nacute" unicode="&#x143;" horiz-adv-x="743" 
d="M663 0h-181l-274 525h-4q3 -52 5 -99.5t4 -91.5v-334h-133v714h180l273 -517h3q-2 49 -4 95t-3 89v333h134v-714zM566 924q-17 -18 -47 -46.5t-62.5 -56.5t-56.5 -47h-97v13q25 32 54 72.5t49 74.5h160v-10z" />
    <glyph glyph-name="nacute" unicode="&#x144;" horiz-adv-x="600" 
d="M356 556q81 0 128.5 -48t47.5 -150v-358h-142v321q0 58 -17.5 87.5t-58.5 29.5q-59 0 -80.5 -44t-21.5 -135v-259h-142v546h110l18 -70h8q23 41 63 60.5t87 19.5zM498 756q-17 -18 -47 -46.5t-62.5 -56.5t-56.5 -47h-97v13q25 32 54 72.5t49 74.5h160v-10z" />
    <glyph glyph-name="uni0145" unicode="&#x145;" horiz-adv-x="743" 
d="M663 0h-181l-274 525h-4q3 -52 5 -99.5t4 -91.5v-334h-133v714h180l273 -517h3q-2 49 -4 95t-3 89v333h134v-714zM452 -71q-13 -35 -32.5 -74t-42.5 -76h-86v13q5 19 10.5 45.5t10 53.5t6.5 48h134v-10z" />
    <glyph glyph-name="uni0146" unicode="&#x146;" horiz-adv-x="600" 
d="M356 556q81 0 128.5 -48t47.5 -150v-358h-142v321q0 58 -17.5 87.5t-58.5 29.5q-59 0 -80.5 -44t-21.5 -135v-259h-142v546h110l18 -70h8q23 41 63 60.5t87 19.5zM381 -71q-13 -35 -32.5 -74t-42.5 -76h-86v13q5 19 10.5 45.5t10 53.5t6.5 48h134v-10z" />
    <glyph glyph-name="Ncaron" unicode="&#x147;" horiz-adv-x="743" 
d="M663 0h-181l-274 525h-4q3 -52 5 -99.5t4 -91.5v-334h-133v714h180l273 -517h3q-2 49 -4 95t-3 89v333h134v-714zM295 774q-12 21 -32.5 48.5t-42.5 53.5t-39 45v13h92q22 -16 48 -37t50 -47q25 27 51 47.5t49 36.5h91v-13q-16 -18 -38 -44.5t-42 -53.5t-33 -49h-154z
" />
    <glyph glyph-name="ncaron" unicode="&#x148;" horiz-adv-x="600" 
d="M356 556q81 0 128.5 -48t47.5 -150v-358h-142v321q0 58 -17.5 87.5t-58.5 29.5q-59 0 -80.5 -44t-21.5 -135v-259h-142v546h110l18 -70h8q23 41 63 60.5t87 19.5zM227 606q-12 21 -32.5 48.5t-42.5 53.5t-39 45v13h92q22 -16 48 -37t50 -47q25 27 51 47.5t49 36.5h91v-13
q-16 -18 -38 -44.5t-42 -53.5t-33 -49h-154z" />
    <glyph glyph-name="napostrophe" unicode="&#x149;" horiz-adv-x="714" 
d="M470 556q81 0 128.5 -48t47.5 -150v-358h-142v321q0 58 -17.5 87.5t-58.5 29.5q-59 0 -80.5 -44t-21.5 -135v-259h-142v546h110l18 -70h8q23 41 63 60.5t87 19.5zM189 703q-13 -61 -34.5 -124.5t-45.5 -118.5h-107q9 38 18 84t16.5 91t11.5 79h134z" />
    <glyph glyph-name="Eng" unicode="&#x14a;" horiz-adv-x="743" 
d="M455 -211q-27 0 -49.5 3t-39.5 8v118q16 -4 34 -7t38 -3q48 0 70 22.5t24 72.5l-324 528h-4q4 -46 6.5 -100t2.5 -90v-341h-133v714h180l273 -440h3q-3 44 -5 96.5t-2 87.5v256h134v-705q0 -113 -55.5 -166.5t-152.5 -53.5z" />
    <glyph glyph-name="eng" unicode="&#x14b;" horiz-adv-x="600" 
d="M367 -240q-21 0 -43.5 3t-39.5 9v115q27 -9 52 -9q24 0 39 17t15 63v370q0 110 -75 110q-58 0 -80.5 -42.5t-22.5 -136.5v-259h-142v546h110l18 -70h8q23 41 63 60.5t87 19.5q83 0 129.5 -49.5t46.5 -150.5v-415q0 -50 -16.5 -91t-53 -65.5t-95.5 -24.5z" />
    <glyph glyph-name="Omacron" unicode="&#x14c;" horiz-adv-x="722" 
d="M669 358q0 -112 -33 -194.5t-101.5 -128t-173.5 -45.5t-173.5 45.5t-101.5 128.5t-33 195q0 171 76 268.5t233 97.5q105 0 173 -45t101 -127.5t33 -194.5zM205 358q0 -116 37.5 -179.5t118.5 -63.5q82 0 118.5 63t36.5 180t-36.5 180.5t-117.5 63.5q-82 0 -119.5 -64
t-37.5 -180zM516 878v-100h-311v100h311z" />
    <glyph glyph-name="omacron" unicode="&#x14d;" horiz-adv-x="571" 
d="M529 274q0 -85 -28 -149t-82.5 -99.5t-134.5 -35.5q-74 0 -128.5 35t-84 99t-29.5 150q0 132 63 207t182 75q71 0 126 -32.5t85.5 -95.5t30.5 -154zM186 274q0 -83 23.5 -125.5t76.5 -42.5q52 0 75 42.5t23 125.5t-23 124.5t-76 41.5q-52 0 -75.5 -41.5t-23.5 -124.5z
M441 710v-100h-311v100h311z" />
    <glyph glyph-name="Obreve" unicode="&#x14e;" horiz-adv-x="722" 
d="M669 358q0 -112 -33 -194.5t-101.5 -128t-173.5 -45.5t-173.5 45.5t-101.5 128.5t-33 195q0 171 76 268.5t233 97.5q105 0 173 -45t101 -127.5t33 -194.5zM205 358q0 -116 37.5 -179.5t118.5 -63.5q82 0 118.5 63t36.5 180t-36.5 180.5t-117.5 63.5q-82 0 -119.5 -64
t-37.5 -180zM535 938q-3 -73 -52 -118.5t-124 -45.5q-78 0 -124 43.5t-49 120.5h82q3 -40 28 -52t64 -12q33 0 61 13t32 51h82z" />
    <glyph glyph-name="obreve" unicode="&#x14f;" horiz-adv-x="571" 
d="M529 274q0 -85 -28 -149t-82.5 -99.5t-134.5 -35.5q-74 0 -128.5 35t-84 99t-29.5 150q0 132 63 207t182 75q71 0 126 -32.5t85.5 -95.5t30.5 -154zM186 274q0 -83 23.5 -125.5t76.5 -42.5q52 0 75 42.5t23 125.5t-23 124.5t-76 41.5q-52 0 -75.5 -41.5t-23.5 -124.5z
M460 770q-3 -73 -52 -118.5t-124 -45.5q-78 0 -124 43.5t-49 120.5h82q3 -40 28 -52t64 -12q33 0 61 13t32 51h82z" />
    <glyph glyph-name="Ohungarumlaut" unicode="&#x150;" horiz-adv-x="722" 
d="M669 358q0 -112 -33 -194.5t-101.5 -128t-173.5 -45.5t-173.5 45.5t-101.5 128.5t-33 195q0 171 76 268.5t233 97.5q105 0 173 -45t101 -127.5t33 -194.5zM205 358q0 -116 37.5 -179.5t118.5 -63.5q82 0 118.5 63t36.5 180t-36.5 180.5t-117.5 63.5q-82 0 -119.5 -64
t-37.5 -180zM565 924q-10 -18 -37 -46.5t-58.5 -57t-54.5 -46.5h-75v13q22 35 47.5 76.5t39.5 70.5h138v-10zM382 924q-11 -19 -37.5 -46.5t-58 -56t-56.5 -47.5h-73v13q23 35 48 76.5t39 70.5h138v-10z" />
    <glyph glyph-name="ohungarumlaut" unicode="&#x151;" horiz-adv-x="571" 
d="M529 274q0 -85 -28 -149t-82.5 -99.5t-134.5 -35.5q-74 0 -128.5 35t-84 99t-29.5 150q0 132 63 207t182 75q71 0 126 -32.5t85.5 -95.5t30.5 -154zM186 274q0 -83 23.5 -125.5t76.5 -42.5q52 0 75 42.5t23 125.5t-23 124.5t-76 41.5q-52 0 -75.5 -41.5t-23.5 -124.5z
M490 756q-10 -18 -37 -46.5t-58.5 -57t-54.5 -46.5h-75v13q22 35 47.5 76.5t39.5 70.5h138v-10zM307 756q-11 -19 -37.5 -46.5t-58 -56t-56.5 -47.5h-73v13q23 35 48 76.5t39 70.5h138v-10z" />
    <glyph glyph-name="OE" unicode="&#x152;" horiz-adv-x="876" 
d="M349 724q24 0 50 -2.5t45 -7.5h379v-121h-241v-161h225v-122h-225v-187h241v-123h-380q-19 -4 -45 -6.5t-50 -2.5q-101 0 -166.5 46t-97 129t-31.5 193t31.5 192.5t97 127.5t167.5 45zM352 601q-78 0 -113 -64.5t-35 -178.5t35 -178t113 -64q23 0 47 3.5t38 9.5v456
q-14 7 -37.5 11.5t-47.5 4.5z" />
    <glyph glyph-name="oe" unicode="&#x153;" horiz-adv-x="890" 
d="M622 556q108 0 168.5 -65.5t60.5 -182.5v-72h-326q4 -137 127 -137q47 0 87 10t83 32v-112q-39 -20 -80.5 -29.5t-98.5 -9.5q-59 0 -105.5 18.5t-79.5 57.5q-61 -76 -173 -76q-74 0 -128.5 34t-84.5 98t-30 152q0 133 62.5 207.5t181.5 74.5q51 0 94.5 -18.5t73.5 -56.5
q62 75 168 75zM624 451q-41 0 -67 -28t-30 -90h191q-1 53 -24.5 85.5t-69.5 32.5zM285 440q-52 0 -75.5 -41.5t-23.5 -124.5t24 -125.5t76 -42.5t75 42.5t23 125.5t-23 124.5t-76 41.5z" />
    <glyph glyph-name="Racute" unicode="&#x154;" horiz-adv-x="606" 
d="M273 714q136 0 201.5 -52.5t65.5 -158.5q0 -71 -34.5 -117.5t-87.5 -73.5l187 -312h-162l-150 276h-67v-276h-146v714h193zM266 593h-40v-199h43q64 0 93.5 26t29.5 77t-31 73.5t-95 22.5zM504 924q-17 -18 -47 -46.5t-62.5 -56.5t-56.5 -47h-97v13q25 32 54 72.5
t49 74.5h160v-10z" />
    <glyph glyph-name="racute" unicode="&#x155;" horiz-adv-x="415" 
d="M350 556q25 0 49 -5l-12 -139q-8 2 -20.5 3.5t-24.5 1.5q-53 0 -91.5 -33t-38.5 -106v-278h-142v546h109l20 -91h7q21 41 58 71t86 30zM426 756q-17 -18 -47 -46.5t-62.5 -56.5t-56.5 -47h-97v13q25 32 54 72.5t49 74.5h160v-10z" />
    <glyph glyph-name="uni0156" unicode="&#x156;" horiz-adv-x="606" 
d="M273 714q136 0 201.5 -52.5t65.5 -158.5q0 -71 -34.5 -117.5t-87.5 -73.5l187 -312h-162l-150 276h-67v-276h-146v714h193zM266 593h-40v-199h43q64 0 93.5 26t29.5 77t-31 73.5t-95 22.5zM405 -71q-13 -35 -32.5 -74t-42.5 -76h-86v13q5 19 10.5 45.5t10 53.5t6.5 48
h134v-10z" />
    <glyph glyph-name="uni0157" unicode="&#x157;" horiz-adv-x="415" 
d="M350 556q25 0 49 -5l-12 -139q-8 2 -20.5 3.5t-24.5 1.5q-53 0 -91.5 -33t-38.5 -106v-278h-142v546h109l20 -91h7q21 41 58 71t86 30zM226 -71q-13 -35 -32.5 -74t-42.5 -76h-86v13q5 19 10.5 45.5t10 53.5t6.5 48h134v-10z" />
    <glyph glyph-name="Rcaron" unicode="&#x158;" horiz-adv-x="606" 
d="M273 714q136 0 201.5 -52.5t65.5 -158.5q0 -71 -34.5 -117.5t-87.5 -73.5l187 -312h-162l-150 276h-67v-276h-146v714h193zM266 593h-40v-199h43q64 0 93.5 26t29.5 77t-31 73.5t-95 22.5zM233 774q-12 21 -32.5 48.5t-42.5 53.5t-39 45v13h92q22 -16 48 -37t50 -47
q25 27 51 47.5t49 36.5h91v-13q-16 -18 -38 -44.5t-42 -53.5t-33 -49h-154z" />
    <glyph glyph-name="rcaron" unicode="&#x159;" horiz-adv-x="415" 
d="M350 556q25 0 49 -5l-12 -139q-8 2 -20.5 3.5t-24.5 1.5q-53 0 -91.5 -33t-38.5 -106v-278h-142v546h109l20 -91h7q21 41 58 71t86 30zM155 606q-12 21 -32.5 48.5t-42.5 53.5t-39 45v13h92q22 -16 48 -37t50 -47q25 27 51 47.5t49 36.5h91v-13q-16 -18 -38 -44.5
t-42 -53.5t-33 -49h-154z" />
    <glyph glyph-name="Sacute" unicode="&#x15a;" horiz-adv-x="510" 
d="M473 202q0 -96 -64 -154t-179 -58q-52 0 -99.5 10t-89.5 32v140q46 -23 96 -39.5t98 -16.5q49 0 71.5 21.5t22.5 54.5q0 38 -32 62.5t-92 55.5q-36 19 -72.5 44.5t-60.5 65.5t-24 102q-1 94 60 148t167 54q52 0 99 -12.5t97 -35.5l-45 -119q-44 20 -80 30.5t-72 10.5
q-40 0 -61 -19.5t-21 -51.5q0 -25 12.5 -42.5t39 -34t70.5 -38.5q51 -26 86.5 -54.5t54 -65.5t18.5 -90zM459 924q-17 -18 -47 -46.5t-62.5 -56.5t-56.5 -47h-97v13q25 32 54 72.5t49 74.5h160v-10z" />
    <glyph glyph-name="sacute" unicode="&#x15b;" horiz-adv-x="452" 
d="M418 161q0 -83 -54 -127t-158 -44q-50 0 -89.5 7.5t-76.5 24.5v124q37 -20 82 -33t83 -13t55 13t17 36q0 13 -7 24.5t-29 25t-69 34.5q-67 31 -100 67.5t-33 102.5q0 75 53.5 114t144.5 39q47 0 89 -10.5t86 -32.5l-42 -104q-34 17 -66 28t-66 11q-59 0 -59 -39
q0 -13 7.5 -23.5t29 -23t64.5 -31.5q42 -20 73 -41.5t48 -52t17 -76.5zM423 756q-17 -18 -47 -46.5t-62.5 -56.5t-56.5 -47h-97v13q25 32 54 72.5t49 74.5h160v-10z" />
    <glyph glyph-name="Scircumflex" unicode="&#x15c;" horiz-adv-x="510" 
d="M473 202q0 -96 -64 -154t-179 -58q-52 0 -99.5 10t-89.5 32v140q46 -23 96 -39.5t98 -16.5q49 0 71.5 21.5t22.5 54.5q0 38 -32 62.5t-92 55.5q-36 19 -72.5 44.5t-60.5 65.5t-24 102q-1 94 60 148t167 54q52 0 99 -12.5t97 -35.5l-45 -119q-44 20 -80 30.5t-72 10.5
q-40 0 -61 -19.5t-21 -51.5q0 -25 12.5 -42.5t39 -34t70.5 -38.5q51 -26 86.5 -54.5t54 -65.5t18.5 -90zM342 934q13 -22 32.5 -48.5t41 -52.5t39.5 -46v-13h-91q-23 15 -49.5 36.5t-50.5 47.5q-25 -26 -50.5 -47.5t-47.5 -36.5h-92v13q17 19 39 45.5t42.5 53.5t32.5 48h154
z" />
    <glyph glyph-name="scircumflex" unicode="&#x15d;" horiz-adv-x="452" 
d="M418 161q0 -83 -54 -127t-158 -44q-50 0 -89.5 7.5t-76.5 24.5v124q37 -20 82 -33t83 -13t55 13t17 36q0 13 -7 24.5t-29 25t-69 34.5q-67 31 -100 67.5t-33 102.5q0 75 53.5 114t144.5 39q47 0 89 -10.5t86 -32.5l-42 -104q-34 17 -66 28t-66 11q-59 0 -59 -39
q0 -13 7.5 -23.5t29 -23t64.5 -31.5q42 -20 73 -41.5t48 -52t17 -76.5zM306 766q13 -22 32.5 -48.5t41 -52.5t39.5 -46v-13h-91q-23 15 -49.5 36.5t-50.5 47.5q-25 -26 -50.5 -47.5t-47.5 -36.5h-92v13q17 19 39 45.5t42.5 53.5t32.5 48h154z" />
    <glyph glyph-name="Scedilla" unicode="&#x15e;" horiz-adv-x="510" 
d="M473 202q0 -96 -64 -154t-179 -58q-52 0 -99.5 10t-89.5 32v140q46 -23 96 -39.5t98 -16.5q49 0 71.5 21.5t22.5 54.5q0 38 -32 62.5t-92 55.5q-36 19 -72.5 44.5t-60.5 65.5t-24 102q-1 94 60 148t167 54q52 0 99 -12.5t97 -35.5l-45 -119q-44 20 -80 30.5t-72 10.5
q-40 0 -61 -19.5t-21 -51.5q0 -25 12.5 -42.5t39 -34t70.5 -38.5q51 -26 86.5 -54.5t54 -65.5t18.5 -90zM352 -125q0 -55 -32.5 -85t-108.5 -30q-22 0 -39.5 2.5t-32.5 6.5v80q14 -4 31.5 -6.5t31.5 -2.5q17 0 28 7.5t11 24.5q0 19 -18 32t-59 18l37 78h83l-14 -34
q34 -9 58 -31.5t24 -59.5z" />
    <glyph glyph-name="scedilla" unicode="&#x15f;" horiz-adv-x="452" 
d="M418 161q0 -83 -54 -127t-158 -44q-50 0 -89.5 7.5t-76.5 24.5v124q37 -20 82 -33t83 -13t55 13t17 36q0 13 -7 24.5t-29 25t-69 34.5q-67 31 -100 67.5t-33 102.5q0 75 53.5 114t144.5 39q47 0 89 -10.5t86 -32.5l-42 -104q-34 17 -66 28t-66 11q-59 0 -59 -39
q0 -13 7.5 -23.5t29 -23t64.5 -31.5q42 -20 73 -41.5t48 -52t17 -76.5zM328 -125q0 -55 -32.5 -85t-108.5 -30q-22 0 -39.5 2.5t-32.5 6.5v80q14 -4 31.5 -6.5t31.5 -2.5q17 0 28 7.5t11 24.5q0 19 -18 32t-59 18l37 78h83l-14 -34q34 -9 58 -31.5t24 -59.5z" />
    <glyph glyph-name="Scaron" unicode="&#x160;" horiz-adv-x="510" 
d="M473 202q0 -96 -64 -154t-179 -58q-52 0 -99.5 10t-89.5 32v140q46 -23 96 -39.5t98 -16.5q49 0 71.5 21.5t22.5 54.5q0 38 -32 62.5t-92 55.5q-36 19 -72.5 44.5t-60.5 65.5t-24 102q-1 94 60 148t167 54q52 0 99 -12.5t97 -35.5l-45 -119q-44 20 -80 30.5t-72 10.5
q-40 0 -61 -19.5t-21 -51.5q0 -25 12.5 -42.5t39 -34t70.5 -38.5q51 -26 86.5 -54.5t54 -65.5t18.5 -90zM188 774q-12 21 -32.5 48.5t-42.5 53.5t-39 45v13h92q22 -16 48 -37t50 -47q25 27 51 47.5t49 36.5h91v-13q-16 -18 -38 -44.5t-42 -53.5t-33 -49h-154z" />
    <glyph glyph-name="scaron" unicode="&#x161;" horiz-adv-x="452" 
d="M418 161q0 -83 -54 -127t-158 -44q-50 0 -89.5 7.5t-76.5 24.5v124q37 -20 82 -33t83 -13t55 13t17 36q0 13 -7 24.5t-29 25t-69 34.5q-67 31 -100 67.5t-33 102.5q0 75 53.5 114t144.5 39q47 0 89 -10.5t86 -32.5l-42 -104q-34 17 -66 28t-66 11q-59 0 -59 -39
q0 -13 7.5 -23.5t29 -23t64.5 -31.5q42 -20 73 -41.5t48 -52t17 -76.5zM152 606q-12 21 -32.5 48.5t-42.5 53.5t-39 45v13h92q22 -16 48 -37t50 -47q25 27 51 47.5t49 36.5h91v-13q-16 -18 -38 -44.5t-42 -53.5t-33 -49h-154z" />
    <glyph glyph-name="uni0162" unicode="&#x162;" horiz-adv-x="524" 
d="M335 0h-146v591h-171v123h488v-123h-171v-591zM371 -125q0 -55 -32.5 -85t-108.5 -30q-22 0 -39.5 2.5t-32.5 6.5v80q14 -4 31.5 -6.5t31.5 -2.5q17 0 28 7.5t11 24.5q0 19 -18 32t-59 18l37 78h83l-14 -34q34 -9 58 -31.5t24 -59.5z" />
    <glyph glyph-name="uni0163" unicode="&#x163;" horiz-adv-x="391" 
d="M283 107q20 0 40.5 4.5t41.5 11.5v-108q-24 -11 -55.5 -18t-69.5 -7q-72 0 -114.5 39.5t-42.5 138.5v268h-64v65l75 45l39 116h92v-116h133v-110h-133v-266q0 -63 58 -63zM331 -125q0 -55 -32.5 -85t-108.5 -30q-22 0 -39.5 2.5t-32.5 6.5v80q14 -4 31.5 -6.5t31.5 -2.5
q17 0 28 7.5t11 24.5q0 19 -18 32t-59 18l37 78h83l-14 -34q34 -9 58 -31.5t24 -59.5z" />
    <glyph glyph-name="Tcaron" unicode="&#x164;" horiz-adv-x="524" 
d="M335 0h-146v591h-171v123h488v-123h-171v-591zM186 774q-12 21 -32.5 48.5t-42.5 53.5t-39 45v13h92q22 -16 48 -37t50 -47q25 27 51 47.5t49 36.5h91v-13q-16 -18 -38 -44.5t-42 -53.5t-33 -49h-154z" />
    <glyph glyph-name="tcaron" unicode="&#x165;" horiz-adv-x="391" 
d="M526 750q-13 -35 -32 -74.5t-42 -75.5h-86v13q4 18 9.5 44.5t10 54.5t6.5 48h134v-10zM283 107q20 0 40.5 4.5t41.5 11.5v-108q-24 -11 -55.5 -18t-69.5 -7q-72 0 -114.5 39.5t-42.5 138.5v268h-64v65l75 45l39 116h92v-116h133v-110h-133v-266q0 -63 58 -63z" />
    <glyph glyph-name="Tbar" unicode="&#x166;" horiz-adv-x="524" 
d="M189 0v294h-109v117h109v179h-171v124h488v-124h-171v-179h109v-117h-109v-294h-146z" />
    <glyph glyph-name="tbar" unicode="&#x167;" horiz-adv-x="391" 
d="M26 242v96h57v98h-64v65l75 45l39 116h92v-116h133v-110h-133v-98h120v-96h-120v-72q0 -63 58 -63q20 0 40.5 4.5t41.5 11.5v-108q-24 -11 -55.5 -18t-69.5 -7q-72 0 -114.5 39.5t-42.5 138.5v74h-57z" />
    <glyph glyph-name="Utilde" unicode="&#x168;" horiz-adv-x="685" 
d="M609 246q0 -116 -67 -186t-202 -70q-129 0 -196.5 68t-67.5 188v468h146v-452q0 -81 30.5 -114t90.5 -33q63 0 92 35t29 113v451h145v-468zM155 773q4 66 34 108t82 42q27 0 51.5 -12.5t48 -25.5t46.5 -13q32 0 42 52h72q-4 -75 -37 -112.5t-79 -37.5q-26 0 -51.5 12.5
t-49 25.5t-44.5 13q-13 0 -25.5 -12.5t-17.5 -39.5h-72z" />
    <glyph glyph-name="utilde" unicode="&#x169;" horiz-adv-x="600" 
d="M530 546v-546h-110l-18 70h-8q-23 -41 -63 -60.5t-87 -19.5q-83 0 -129.5 49.5t-46.5 150.5v356h142v-318q0 -60 17.5 -90t57.5 -30q61 0 82 45t21 129v264h142zM113 605q4 66 34 108t82 42q27 0 51.5 -12.5t48 -25.5t46.5 -13q32 0 42 52h72q-4 -75 -37 -112.5
t-79 -37.5q-26 0 -51.5 12.5t-49 25.5t-44.5 13q-13 0 -25.5 -12.5t-17.5 -39.5h-72z" />
    <glyph glyph-name="Umacron" unicode="&#x16a;" horiz-adv-x="685" 
d="M609 246q0 -116 -67 -186t-202 -70q-129 0 -196.5 68t-67.5 188v468h146v-452q0 -81 30.5 -114t90.5 -33q63 0 92 35t29 113v451h145v-468zM498 878v-100h-311v100h311z" />
    <glyph glyph-name="umacron" unicode="&#x16b;" horiz-adv-x="600" 
d="M530 546v-546h-110l-18 70h-8q-23 -41 -63 -60.5t-87 -19.5q-83 0 -129.5 49.5t-46.5 150.5v356h142v-318q0 -60 17.5 -90t57.5 -30q61 0 82 45t21 129v264h142zM456 710v-100h-311v100h311z" />
    <glyph glyph-name="Ubreve" unicode="&#x16c;" horiz-adv-x="685" 
d="M609 246q0 -116 -67 -186t-202 -70q-129 0 -196.5 68t-67.5 188v468h146v-452q0 -81 30.5 -114t90.5 -33q63 0 92 35t29 113v451h145v-468zM517 938q-3 -73 -52 -118.5t-124 -45.5q-78 0 -124 43.5t-49 120.5h82q3 -40 28 -52t64 -12q33 0 61 13t32 51h82z" />
    <glyph glyph-name="ubreve" unicode="&#x16d;" horiz-adv-x="600" 
d="M530 546v-546h-110l-18 70h-8q-23 -41 -63 -60.5t-87 -19.5q-83 0 -129.5 49.5t-46.5 150.5v356h142v-318q0 -60 17.5 -90t57.5 -30q61 0 82 45t21 129v264h142zM475 770q-3 -73 -52 -118.5t-124 -45.5q-78 0 -124 43.5t-49 120.5h82q3 -40 28 -52t64 -12q33 0 61 13
t32 51h82z" />
    <glyph glyph-name="Uring" unicode="&#x16e;" horiz-adv-x="685" 
d="M609 246q0 -116 -67 -186t-202 -70q-129 0 -196.5 68t-67.5 188v468h146v-452q0 -81 30.5 -114t90.5 -33q63 0 92 35t29 113v451h145v-468zM341 773q-53 0 -86 31.5t-33 84.5t33 84t86 31q52 0 87 -31t35 -83q0 -53 -34.5 -85t-87.5 -32zM342 843q20 0 33 12.5t13 33.5
t-13 33.5t-33 12.5t-33.5 -12.5t-13.5 -33.5t12 -33.5t35 -12.5z" />
    <glyph glyph-name="uring" unicode="&#x16f;" horiz-adv-x="600" 
d="M530 546v-546h-110l-18 70h-8q-23 -41 -63 -60.5t-87 -19.5q-83 0 -129.5 49.5t-46.5 150.5v356h142v-318q0 -60 17.5 -90t57.5 -30q61 0 82 45t21 129v264h142zM299 605q-53 0 -86 31.5t-33 84.5t33 84t86 31q52 0 87 -31t35 -83q0 -53 -34.5 -85t-87.5 -32zM300 675
q20 0 33 12.5t13 33.5t-13 33.5t-33 12.5t-33.5 -12.5t-13.5 -33.5t12 -33.5t35 -12.5z" />
    <glyph glyph-name="Uhungarumlaut" unicode="&#x170;" horiz-adv-x="685" 
d="M609 246q0 -116 -67 -186t-202 -70q-129 0 -196.5 68t-67.5 188v468h146v-452q0 -81 30.5 -114t90.5 -33q63 0 92 35t29 113v451h145v-468zM546 924q-10 -18 -37 -46.5t-58.5 -57t-54.5 -46.5h-75v13q22 35 47.5 76.5t39.5 70.5h138v-10zM363 924q-11 -19 -37.5 -46.5
t-58 -56t-56.5 -47.5h-73v13q23 35 48 76.5t39 70.5h138v-10z" />
    <glyph glyph-name="uhungarumlaut" unicode="&#x171;" horiz-adv-x="600" 
d="M530 546v-546h-110l-18 70h-8q-23 -41 -63 -60.5t-87 -19.5q-83 0 -129.5 49.5t-46.5 150.5v356h142v-318q0 -60 17.5 -90t57.5 -30q61 0 82 45t21 129v264h142zM504 756q-10 -18 -37 -46.5t-58.5 -57t-54.5 -46.5h-75v13q22 35 47.5 76.5t39.5 70.5h138v-10zM321 756
q-11 -19 -37.5 -46.5t-58 -56t-56.5 -47.5h-73v13q23 35 48 76.5t39 70.5h138v-10z" />
    <glyph glyph-name="Uogonek" unicode="&#x172;" horiz-adv-x="685" 
d="M432 -102q0 -23 11.5 -34.5t28.5 -11.5q14 0 27.5 3t22.5 6v-88q-15 -5 -34 -8t-40 -3q-57 0 -87.5 31t-30.5 83q0 32 14.5 62t38.5 54q-20 -2 -43 -2q-129 0 -196.5 68t-67.5 188v468h146v-452q0 -81 30.5 -114t90.5 -33q63 0 92 35t29 113v451h145v-468q0 -67 -22 -119
t-67 -86q-47 -46 -67.5 -80t-20.5 -63z" />
    <glyph glyph-name="uogonek" unicode="&#x173;" horiz-adv-x="600" 
d="M530 546v-546h-110l-18 70h-8q-23 -41 -63 -60.5t-87 -19.5q-83 0 -129.5 49.5t-46.5 150.5v356h142v-318q0 -60 17.5 -90t57.5 -30q61 0 82 45t21 129v264h142zM437 -108q0 -20 11 -30.5t29 -10.5q15 0 27.5 3t21.5 6v-86q-14 -5 -31.5 -8.5t-40.5 -3.5q-56 0 -87.5 30
t-31.5 79q0 41 27.5 79t73.5 66l67 -16q-34 -33 -50 -58t-16 -50z" />
    <glyph glyph-name="Wcircumflex" unicode="&#x174;" horiz-adv-x="897" 
d="M896 714l-167 -714h-166l-86 362q-4 18 -10 49t-11.5 64t-7.5 57q-2 -21 -7.5 -53.5t-11.5 -64.5t-11 -52l-85 -362h-166l-167 714h144l81 -379q6 -25 12 -59.5t11.5 -69.5t8.5 -61q4 28 9.5 63t11.5 67t11 53l93 386h133l90 -386q5 -21 11.5 -53.5t12 -67.5t8.5 -62
q3 26 8.5 60.5t12 69t11.5 60.5l82 379h145zM526 934q13 -22 32.5 -48.5t41 -52.5t39.5 -46v-13h-91q-23 15 -49.5 36.5t-50.5 47.5q-25 -26 -50.5 -47.5t-47.5 -36.5h-92v13q17 19 39 45.5t42.5 53.5t32.5 48h154z" />
    <glyph glyph-name="wcircumflex" unicode="&#x175;" horiz-adv-x="793" 
d="M440 222q-3 17 -9 45t-12.5 59t-12.5 58t-9 43h-3q-3 -16 -9 -43.5t-12.5 -59t-12 -59.5t-9.5 -44l-47 -221h-155l-140 546h141l54 -230q6 -26 11.5 -59.5t9.5 -66t7 -55.5h3q2 21 6.5 53t9.5 63t9 50l58 245h159l55 -247q4 -19 9 -49.5t9.5 -61.5t5.5 -53h4q2 20 6 50.5
t9.5 63.5t11.5 59l58 238h139l-142 -546h-158zM474 766q13 -22 32.5 -48.5t41 -52.5t39.5 -46v-13h-91q-23 15 -49.5 36.5t-50.5 47.5q-25 -26 -50.5 -47.5t-47.5 -36.5h-92v13q17 19 39 45.5t42.5 53.5t32.5 48h154z" />
    <glyph glyph-name="Ycircumflex" unicode="&#x176;" horiz-adv-x="569" 
d="M285 421l129 293h155l-212 -437v-277h-145v272l-212 442h156zM362 934q13 -22 32.5 -48.5t41 -52.5t39.5 -46v-13h-91q-23 15 -49.5 36.5t-50.5 47.5q-25 -26 -50.5 -47.5t-47.5 -36.5h-92v13q17 19 39 45.5t42.5 53.5t32.5 48h154z" />
    <glyph glyph-name="ycircumflex" unicode="&#x177;" horiz-adv-x="523" 
d="M1 546h153l89 -291q7 -24 11.5 -49t6.5 -50h4q2 25 7.5 48.5t12.5 49.5l86 292h151l-206 -610q-30 -91 -83 -133.5t-127 -42.5q-22 0 -39.5 2.5t-31.5 5.5v117q10 -3 24 -4.5t28 -1.5q40 0 63 25t37 72l9 29zM339 766q13 -22 32.5 -48.5t41 -52.5t39.5 -46v-13h-91
q-23 15 -49.5 36.5t-50.5 47.5q-25 -26 -50.5 -47.5t-47.5 -36.5h-92v13q17 19 39 45.5t42.5 53.5t32.5 48h154z" />
    <glyph glyph-name="Ydieresis" unicode="&#x178;" horiz-adv-x="569" 
d="M285 421l129 293h155l-212 -437v-277h-145v272l-212 442h156zM123 852q0 34 18.5 50.5t46.5 16.5q27 0 46.5 -16.5t19.5 -50.5q0 -32 -19.5 -48.5t-46.5 -16.5q-28 0 -46.5 16t-18.5 49zM314 852q0 34 18.5 50.5t47.5 16.5q27 0 46.5 -16.5t19.5 -50.5q0 -32 -19.5 -48.5
t-46.5 -16.5q-29 0 -47.5 16.5t-18.5 48.5z" />
    <glyph glyph-name="Zacute" unicode="&#x179;" horiz-adv-x="524" 
d="M501 0h-477v98l301 494h-294v122h462v-98l-301 -493h309v-123zM460 924q-17 -18 -47 -46.5t-62.5 -56.5t-56.5 -47h-97v13q25 32 54 72.5t49 74.5h160v-10z" />
    <glyph glyph-name="zacute" unicode="&#x17a;" horiz-adv-x="441" 
d="M415 0h-391v85l223 349h-209v112h369v-93l-216 -341h224v-112zM417 756q-17 -18 -47 -46.5t-62.5 -56.5t-56.5 -47h-97v13q25 32 54 72.5t49 74.5h160v-10z" />
    <glyph glyph-name="Zdotaccent" unicode="&#x17b;" horiz-adv-x="524" 
d="M501 0h-477v98l301 494h-294v122h462v-98l-301 -493h309v-123zM269 929q35 0 56.5 -17t21.5 -57q0 -39 -22 -56t-56 -17t-55.5 17t-21.5 56q0 40 21 57t56 17z" />
    <glyph glyph-name="zdotaccent" unicode="&#x17c;" horiz-adv-x="441" 
d="M415 0h-391v85l223 349h-209v112h369v-93l-216 -341h224v-112zM226 761q35 0 56.5 -17t21.5 -57q0 -39 -22 -56t-56 -17t-55.5 17t-21.5 56q0 40 21 57t56 17z" />
    <glyph glyph-name="Zcaron" unicode="&#x17d;" horiz-adv-x="524" 
d="M501 0h-477v98l301 494h-294v122h462v-98l-301 -493h309v-123zM189 774q-12 21 -32.5 48.5t-42.5 53.5t-39 45v13h92q22 -16 48 -37t50 -47q25 27 51 47.5t49 36.5h91v-13q-16 -18 -38 -44.5t-42 -53.5t-33 -49h-154z" />
    <glyph glyph-name="zcaron" unicode="&#x17e;" horiz-adv-x="441" 
d="M415 0h-391v85l223 349h-209v112h369v-93l-216 -341h224v-112zM146 606q-12 21 -32.5 48.5t-42.5 53.5t-39 45v13h92q22 -16 48 -37t50 -47q25 27 51 47.5t49 36.5h91v-13q-16 -18 -38 -44.5t-42 -53.5t-33 -49h-154z" />
    <glyph glyph-name="longs" unicode="&#x17f;" horiz-adv-x="346" 
d="M270 650q-30 0 -41.5 -19t-12.5 -54v-577h-142v578q0 104 45 145.5t129 41.5q41 0 70 -6.5t55 -16.5l-32 -105q-16 5 -33.5 9t-37.5 4z" />
    <glyph glyph-name="uni0180" unicode="&#x180;" horiz-adv-x="584" 
d="M351 -10q-52 0 -83.5 19t-55.5 51h-9l-23 -60h-110v585h-69v96h69v79h142v-79h134v-96h-134v-25q0 -23 -1.5 -46.5t-3.5 -50.5h5q22 37 56 59t86 22q85 0 137 -67t52 -206q0 -138 -52.5 -209.5t-139.5 -71.5zM309 107q42 0 65.5 41t23.5 125q0 79 -23.5 116.5t-66.5 37.5
q-94 0 -96 -149v-11q0 -81 21.5 -120.5t75.5 -39.5z" />
    <glyph glyph-name="uni0181" unicode="&#x181;" horiz-adv-x="737" 
d="M199 0v594h-23q-28 0 -41 -16.5t-13 -38.5q0 -19 3.5 -32t6.5 -20h-115q-4 8 -7.5 24.5t-3.5 38.5q0 44 17 81.5t56 60t106 22.5h224q131 0 197 -41.5t66 -137.5q0 -62 -27.5 -104t-77.5 -52v-5q55 -13 88 -51t33 -116q0 -97 -65 -152t-178 -55h-246zM419 429
q57 0 80.5 22t23.5 64q0 79 -110 79h-69v-165h75zM430 121q58 0 82.5 26.5t24.5 73.5q0 42 -25.5 67t-86.5 25h-81v-192h86z" />
    <glyph glyph-name="uni0182" unicode="&#x182;" horiz-adv-x="584" 
d="M80 0v714h415v-123h-269v-150h47q138 0 205 -58.5t67 -158.5q0 -107 -67 -165.5t-204 -58.5h-194zM268 121q61 0 95.5 24t34.5 78q0 55 -36 76t-102 21h-34v-199h42z" />
    <glyph glyph-name="uni0183" unicode="&#x183;" horiz-adv-x="584" 
d="M351 -10q-52 0 -83.5 19t-55.5 51h-9l-22 -60h-111v760h420v-111h-278v-83q0 -26 -2 -56.5t-3 -46.5h5q22 37 56.5 59t85.5 22q85 0 137 -66t52 -207q0 -137 -52.5 -209t-139.5 -72zM309 107q42 0 65.5 41.5t23.5 124.5q0 80 -23.5 117t-66.5 37q-94 0 -96 -146v-11
q0 -80 21.5 -121.5t75.5 -41.5z" />
    <glyph glyph-name="uni0184" unicode="&#x184;" horiz-adv-x="607" 
d="M320 -10q-116 0 -180 51.5t-64 168.5v504h146v-274h76q93 0 153 -28.5t88.5 -78.5t28.5 -115q0 -106 -62 -167t-186 -61zM316 112q46 0 75 24.5t29 81.5q0 61 -38 80t-104 19h-56v-99q0 -56 24.5 -81t69.5 -25z" />
    <glyph glyph-name="uni0185" unicode="&#x185;" horiz-adv-x="579" 
d="M301 -10q-110 0 -171.5 71.5t-61.5 205.5v493h142v-177q0 -31 -2 -61t-4 -47h6q19 34 54.5 57.5t89.5 23.5q81 0 132.5 -72t51.5 -211q0 -95 -30.5 -158t-84.5 -94t-122 -31zM303 109q44 0 67 38.5t23 125.5q0 83 -23.5 124t-63.5 41q-50 0 -73 -38t-23 -109v-26
q0 -83 24 -119.5t69 -36.5z" />
    <glyph glyph-name="uni0186" unicode="&#x186;" horiz-adv-x="581" 
d="M224 -10q-51 0 -91.5 9t-80.5 27v125q43 -17 80 -27.5t77 -10.5q82 0 125 64t43 180q0 111 -41.5 177.5t-119.5 66.5q-39 0 -73 -13t-67 -31l-45 119q89 48 200 48q98 0 164 -45t99.5 -126.5t33.5 -190.5q0 -113 -34.5 -197t-102 -129.5t-167.5 -45.5z" />
    <glyph glyph-name="uni0187" unicode="&#x187;" horiz-adv-x="581" 
d="M576 878q23 0 41.5 -4.5t26.5 -9.5v-114q-7 3 -20.5 7t-29.5 4q-21 0 -32.5 -12.5t-11.5 -43.5v-35l-46 -113q-35 18 -70.5 31t-71.5 13q-78 0 -118.5 -67.5t-40.5 -178.5q0 -116 39.5 -179t122.5 -63q39 0 78 10.5t82 27.5v-125q-41 -18 -83 -27t-93 -9
q-100 0 -165.5 44.5t-98 126.5t-32.5 195q0 107 35 190.5t103.5 130.5t167.5 47q37 0 74 -9v14q0 52 20 85t52.5 48.5t70.5 15.5z" />
    <glyph glyph-name="uni0188" unicode="&#x188;" horiz-adv-x="472" 
d="M278 -10q-115 0 -175.5 68t-60.5 212q0 141 65 213.5t180 72.5q23 0 41 -3v48q0 87 40.5 125.5t103.5 38.5q23 0 41 -5t26 -10v-111q-8 3 -21 6.5t-29 3.5q-21 0 -32.5 -12.5t-11.5 -42.5v-77l-42 -108q-31 14 -58 22t-54 8q-105 0 -105 -168q0 -83 27.5 -123t78.5 -40
q39 0 72.5 11.5t64.5 32.5v-121q-31 -21 -66.5 -31t-84.5 -10z" />
    <glyph glyph-name="Dtail" unicode="&#x189;" horiz-adv-x="674" 
d="M288 714q154 0 243.5 -89t89.5 -259q0 -180 -92 -273t-259 -93h-190v301h-62v116h62v297h208zM291 592h-65v-175h103v-116h-103v-178h52q192 0 192 238q0 120 -46 175.5t-133 55.5z" />
    <glyph glyph-name="uni018A" unicode="&#x18a;" horiz-adv-x="792" 
d="M199 0v592h-24q-27 0 -40 -16.5t-13 -40.5q0 -17 3 -29t6 -19h-114q-3 8 -7.5 23t-4.5 34q0 46 17 85t56 62t106 23h222q155 0 244 -89t89 -259q0 -180 -92 -273t-259 -93h-189zM396 123q98 0 145 59.5t47 178.5q0 120 -45.5 175.5t-132.5 55.5h-66v-469h52z" />
    <glyph glyph-name="uni018B" unicode="&#x18b;" horiz-adv-x="584" 
d="M303 0q-135 0 -199.5 57.5t-64.5 164.5q0 100 67.5 159.5t207.5 59.5h44v150h-269v123h414v-714h-200zM316 121h42v199h-34q-65 0 -101.5 -21t-36.5 -77q0 -54 34.5 -77.5t95.5 -23.5z" />
    <glyph glyph-name="uni018C" unicode="&#x18c;" horiz-adv-x="584" 
d="M232 -10q-87 0 -138.5 72t-51.5 209q0 131 52 203t139 72q50 0 85.5 -22t57.5 -58h5q-3 24 -6 53.5t-3 49.5v80h-278v111h420v-760h-110l-25 67h-7q-22 -35 -55 -56t-85 -21zM279 105q53 0 76 36.5t24 112.5v21q0 76 -22.5 114.5t-78.5 38.5q-45 0 -68.5 -40.5
t-23.5 -117.5q0 -83 24 -124t69 -41z" />
    <glyph glyph-name="uni018D" unicode="&#x18d;" horiz-adv-x="570" 
d="M297 556q110 0 175.5 -61t65.5 -169q0 -63 -22 -108.5t-58.5 -76t-80.5 -48.5q40 -27 64.5 -64t24.5 -90q0 -73 -55.5 -115t-143.5 -42q-58 0 -107 15.5t-86 49.5l52 102q33 -30 67 -44.5t66 -14.5q37 0 53 16t16 38q0 26 -24 46.5t-74 51.5q-96 56 -137.5 119t-41.5 152
q0 118 66.5 180.5t179.5 62.5zM294 440q-47 0 -73 -35.5t-26 -93.5q0 -54 24.5 -92.5t68.5 -64.5q49 19 77.5 59.5t28.5 100.5q0 58 -26.5 92t-73.5 34z" />
    <glyph glyph-name="uni018E" unicode="&#x18e;" horiz-adv-x="511" 
d="M53 0v123h232v187h-216v122h216v161h-232v121h378v-714h-378z" />
    <glyph glyph-name="uni018F" unicode="&#x18f;" horiz-adv-x="729" 
d="M345 601q-74 0 -138 -22.5t-105 -46.5v130q45 25 104.5 44t145.5 19q159 0 241.5 -98.5t82.5 -270.5q0 -113 -35.5 -195t-104 -126.5t-167.5 -44.5q-105 0 -172 45t-99 129.5t-32 201.5v39h458q-6 91 -48.5 143.5t-130.5 52.5zM369 112q66 0 107 45t46 129h-306
q1 -83 36 -128.5t117 -45.5z" />
    <glyph glyph-name="uni0190" unicode="&#x190;" horiz-adv-x="588" 
d="M309 724q79 0 135.5 -19t106.5 -52l-61 -103q-35 24 -76.5 39t-89.5 15q-56 0 -85.5 -21.5t-29.5 -59.5q0 -44 39 -68.5t142 -24.5h58v-118h-64q-193 0 -193 -99q0 -52 37 -78t120 -26q46 0 101.5 12t95.5 34v-126q-41 -18 -99 -28.5t-127 -10.5q-140 0 -207.5 58
t-67.5 151q0 74 47.5 119t134.5 53v3q-73 13 -116.5 52t-43.5 112q0 55 30 97t84.5 65.5t128.5 23.5z" />
    <glyph glyph-name="uni0191" unicode="&#x191;" horiz-adv-x="619" 
d="M165 -242q-85 0 -133 43t-48 122q0 28 6.5 50.5t15.5 39.5l109 -41q-10 -20 -10 -43q0 -30 15.5 -45.5t41.5 -15.5q27 0 42 21t15 66v759h357v-121h-212v-158h196v-122h-196v-361q0 -96 -54 -145t-145 -49z" />
    <glyph glyph-name="fhook" unicode="&#x192;" horiz-adv-x="476" 
d="M174 -242q-88 0 -131.5 45t-43.5 118q0 25 5 44t10 33l114 -34q-7 -21 -7 -42q0 -26 12.5 -40t31.5 -14q22 0 35 17.5t13 50.5v500h-75v71l75 39v32q0 104 45 145.5t129 41.5q38 0 69 -6.5t57 -16.5l-35 -105q-16 5 -33 9t-38 4q-52 0 -52 -73v-31h114v-110h-114v-491
q0 -92 -50 -139.5t-131 -47.5z" />
    <glyph glyph-name="uni0193" unicode="&#x193;" horiz-adv-x="669" 
d="M623 878q22 0 40.5 -4.5t27.5 -9.5v-114q-8 3 -21.5 7t-29.5 4q-21 0 -32.5 -12.5t-11.5 -43.5v-31l-47 -112q-32 17 -71 28t-81 11q-91 0 -142.5 -66t-51.5 -180q0 -72 17.5 -126.5t54.5 -85t95 -30.5q28 0 48.5 3.5t38.5 7.5v155h-118v122h261v-370q-55 -20 -113 -30.5
t-126 -10.5q-150 0 -229 96t-79 272q0 112 39.5 194t116.5 127t187 45q43 0 84 -9v15q0 52 20 84.5t52.5 48t70.5 15.5z" />
    <glyph glyph-name="Gammalatin" unicode="&#x194;" horiz-adv-x="600" 
d="M296 -240q-71 0 -106 39.5t-35 107.5q0 49 18 104t48 118l-221 585h151l108 -306q5 -17 12.5 -45t14 -56.5t10.5 -49.5q6 33 17.5 76t22.5 72l113 309h151l-229 -587q31 -63 50 -120t19 -100q0 -65 -36 -106t-108 -41zM297 -152q33 0 33 55q0 23 -8 57.5t-25 70.5
q-17 -35 -24.5 -69.5t-7.5 -56.5q0 -30 9 -43.5t23 -13.5z" />
    <glyph glyph-name="uni0195" unicode="&#x195;" horiz-adv-x="904" 
d="M610 -11q-116 0 -171 51t-55 173v108q0 117 -73 117q-56 0 -77.5 -45t-21.5 -134v-259h-142v760h142v-159q0 -32 -2 -63t-6 -62h8q45 80 141 80q79 0 126 -49.5t47 -151.5v-121q0 -66 20.5 -96t62.5 -30q44 0 64.5 30.5t20.5 106.5v301h142v-310q0 -126 -56 -186.5
t-170 -60.5z" />
    <glyph glyph-name="Iotalatin" unicode="&#x196;" horiz-adv-x="367" 
d="M239 -10q-73 0 -118 40t-45 140v544h151v-534q0 -32 14.5 -49t40.5 -17q21 0 39 4.5t37 12.5v-116q-22 -11 -53 -18t-66 -7z" />
    <glyph glyph-name="uni0197" unicode="&#x197;" horiz-adv-x="366" 
d="M335 714v-82l-79 -35v-176h85v-116h-85v-188l79 -35v-82h-304v82l79 35v188h-86v116h86v176l-79 35v82h304z" />
    <glyph glyph-name="uni0198" unicode="&#x198;" horiz-adv-x="617" 
d="M535 725q24 0 42.5 -5t29.5 -10v-117q-8 3 -19.5 6t-25.5 3q-37 0 -67 -44l-109 -161l224 -397h-164l-163 297l-57 -43v-254h-146v714h146v-329q13 22 27.5 45.5t29.5 47.5l76 115q41 61 79.5 96.5t96.5 35.5z" />
    <glyph glyph-name="uni0199" unicode="&#x199;" horiz-adv-x="566" 
d="M234 766q22 0 43 -4.5t32 -8.5v-114q-9 4 -22 7t-28 3q-23 0 -35 -14t-12 -46v-166q0 -32 -2 -64t-5 -62h2q12 21 26.5 41t29.5 38l135 170h158l-189 -232l200 -314h-161l-135 223l-59 -51v-172h-142v594q0 88 44.5 130t119.5 42z" />
    <glyph glyph-name="uni019A" unicode="&#x19a;" horiz-adv-x="303" 
d="M80 0v313h-73v106h73v341h143v-341h73v-106h-73v-313h-143z" />
    <glyph glyph-name="uni019B" unicode="&#x19b;" horiz-adv-x="566" 
d="M4 0l207 512l-9 29l-86 -28l-29 81l79 26q-24 27 -65 27q-12 0 -24 -1.5t-22 -4.5v118q14 3 35 5t39 2q64 0 103.5 -25t65.5 -74l82 28l29 -82l-79 -26l126 -391q18 -52 34.5 -68t36.5 -16q16 0 34 5v-115q-12 -5 -35 -8.5t-40 -3.5q-62 0 -93.5 32t-51.5 96l-40 125
q-9 27 -16 53.5t-11 47.5h-3q-6 -23 -13 -48t-14 -45l-93 -251h-147z" />
    <glyph glyph-name="uni019C" unicode="&#x19c;" horiz-adv-x="977" 
d="M261 -10q-87 -1 -136 46.5t-49 151.5v526h146v-485q0 -57 19 -86t63 -29q53 0 81 39.5t28 115.5v445h145v-485q0 -57 19.5 -86t63.5 -29q108 1 108 165v435h147v-714h-115l-19 75h-8q-26 -43 -68.5 -64t-93.5 -21q-60 0 -98.5 23.5t-59.5 67.5h-6q-55 -90 -167 -91z" />
    <glyph glyph-name="uni019D" unicode="&#x19d;" horiz-adv-x="743" 
d="M42 -230q-23 0 -42 4.5t-32 9.5v115q10 -4 24 -7t31 -3q28 0 42.5 19.5t14.5 64.5v741h180l273 -517h3q-3 45 -5 97t-2 87v333h134v-714h-181l-274 525h-4q4 -46 6.5 -100t2.5 -91v-372q0 -102 -45.5 -147t-125.5 -45z" />
    <glyph glyph-name="uni019E" unicode="&#x19e;" horiz-adv-x="600" 
d="M380 -240v561q0 58 -16 87.5t-57 29.5q-53 0 -74 -44t-21 -135v-259h-142v546h110l18 -70h8q23 41 60.5 60.5t82.5 19.5q82 0 127.5 -48t45.5 -150v-598h-142z" />
    <glyph glyph-name="uni019F" unicode="&#x19f;" horiz-adv-x="727" 
d="M674 358q0 -112 -33.5 -194.5t-102 -128t-174.5 -45.5q-107 0 -175.5 45.5t-102 128.5t-33.5 195q0 171 76.5 268.5t234.5 97.5q106 0 174.5 -45t102 -127.5t33.5 -194.5zM365 602q-71 0 -110 -45.5t-49 -131.5h315q-10 85 -48.5 131t-107.5 46zM364 114q73 0 112 49.5
t46 141.5h-318q8 -92 47.5 -141.5t112.5 -49.5z" />
    <glyph glyph-name="Ohorn" unicode="&#x1a0;" horiz-adv-x="746" 
d="M669 358q0 -112 -33 -194.5t-101.5 -128t-173.5 -45.5t-173.5 45.5t-101.5 128.5t-33 195q0 171 76 268.5t233 97.5q77 0 135 -25t96 -72q22 20 31.5 53.5t9.5 78.5h137l7 -11q-13 -85 -45 -135t-91 -75q27 -77 27 -181zM205 358q0 -116 37.5 -179.5t118.5 -63.5
q82 0 118.5 63t36.5 180t-36.5 180.5t-117.5 63.5q-82 0 -119.5 -64t-37.5 -180z" />
    <glyph glyph-name="ohorn" unicode="&#x1a1;" horiz-adv-x="627" 
d="M529 274q0 -135 -65 -209.5t-180 -74.5q-72 0 -126.5 33.5t-85 97t-30.5 153.5q0 136 65 209t180 73q51 0 96 -17.5t77 -51.5q36 11 50.5 50t14.5 91h137l7 -11q-13 -85 -48 -137.5t-113 -73.5q21 -58 21 -132zM186 274q0 -83 24 -125.5t76 -42.5t75 42.5t23 125.5
t-23 124.5t-76 41.5q-52 0 -75.5 -41.5t-23.5 -124.5z" />
    <glyph glyph-name="uni01A2" unicode="&#x1a2;" horiz-adv-x="1043" 
d="M656 358q0 -113 -32.5 -195.5t-99 -127.5t-169.5 -45t-170 45.5t-99.5 128t-32.5 195.5q0 171 74.5 268.5t227.5 97.5q74 0 129.5 -25t92.5 -70q36 44 83 69t109 26q88 0 142.5 -52t54.5 -166v-507h-145v486q0 116 -96 115q-35 0 -59.5 -14t-41.5 -35q32 -82 32 -194z
M205 358q0 -116 36 -179.5t114 -63.5t113.5 63t35.5 180t-35.5 180.5t-113.5 63.5t-114 -64t-36 -180z" />
    <glyph glyph-name="uni01A3" unicode="&#x1a3;" horiz-adv-x="868" 
d="M517 274q0 -85 -27.5 -149t-80.5 -99.5t-131 -35.5q-73 0 -126 34.5t-81.5 98.5t-28.5 151q0 132 61.5 207t176.5 75q114 0 177 -81q59 81 163 81q83 0 131.5 -48t48.5 -150v-598h-142v566q0 57 -19 84.5t-60 27.5q-28 0 -48 -9.5t-34 -26.5q9 -27 14.5 -59t5.5 -69z
M186 274q0 -83 22.5 -125.5t70.5 -42.5q49 0 71 42.5t22 125.5t-22 124.5t-71 41.5q-48 0 -70.5 -41.5t-22.5 -124.5z" />
    <glyph glyph-name="uni01A4" unicode="&#x1a4;" horiz-adv-x="695" 
d="M198 0v592h-23q-27 0 -40 -16.5t-13 -40.5q0 -17 3 -29t6 -19h-114q-3 8 -7.5 23t-4.5 34q0 46 17 85t56 62t106 23h224q127 0 187 -58.5t60 -163.5q0 -66 -25 -120t-81.5 -86t-150.5 -32h-55v-254h-145zM384 375q58 0 91 26.5t33 86.5q0 105 -109 105h-56v-218h41z" />
    <glyph glyph-name="uni01A5" unicode="&#x1a5;" horiz-adv-x="584" 
d="M234 765q22 0 43 -4.5t32 -9.5v-113q-9 4 -22 7t-28 3q-47 0 -47 -59v-35q0 -17 -2 -37t-4 -42h6q23 39 57 60t84 21q86 0 138 -72.5t52 -210.5q0 -136 -51.5 -209.5t-136.5 -73.5q-52 0 -86.5 20t-55.5 53h-6q3 -24 4 -45t1 -40v-218h-142v832q0 89 44.5 131t119.5 42z
M308 441q-52 0 -73.5 -37t-22.5 -114v-20q0 -81 21.5 -121.5t75.5 -40.5q89 0 89 166q0 167 -90 167z" />
    <glyph glyph-name="uni01A6" unicode="&#x1a6;" horiz-adv-x="606" 
d="M443 -100l-150 276h-67v-176h-146v714h146v-100h47q136 0 201.5 -52.5t65.5 -158.5q0 -71 -34.5 -117.5t-87.5 -73.5l187 -312h-162zM269 294q64 0 93.5 26t29.5 77t-31 73.5t-95 22.5h-40v-199h43z" />
    <glyph glyph-name="uni01A7" unicode="&#x1a7;" horiz-adv-x="510" 
d="M254 724q99 0 157 -50.5t58 -144.5q0 -62 -22.5 -102.5t-59.5 -67.5t-81 -48q-61 -29 -92.5 -54t-31.5 -64q0 -36 24 -56.5t71 -20.5t95.5 12.5t95.5 35.5v-131q-86 -43 -203 -43q-112 0 -169.5 55.5t-57.5 149.5q0 78 41 129t118 87q46 22 74 38.5t41 35t13 46.5
q0 31 -21.5 49t-62.5 18q-35 0 -72 -10.5t-81 -30.5l-43 119q47 23 100 35.5t109 12.5z" />
    <glyph glyph-name="uni01A8" unicode="&#x1a8;" horiz-adv-x="452" 
d="M229 556q83 0 135 -38t52 -111q0 -66 -34.5 -103.5t-103.5 -69.5q-45 -19 -67 -33t-29 -25.5t-7 -25.5q0 -50 76 -50q38 0 79 11t80 32v-117q-38 -18 -80 -27t-94 -9q-98 0 -150 41.5t-52 120.5q0 70 38 109t100 67q43 18 65.5 30.5t31 23.5t8.5 24q0 20 -17 31t-47 11
q-32 0 -64.5 -11t-66.5 -28l-38 104q44 22 91 32.5t94 10.5z" />
    <glyph glyph-name="uni01A9" unicode="&#x1a9;" horiz-adv-x="523" 
d="M24 0v116l193 258l-186 229v111h462v-121h-199q-23 0 -46 0.5t-45 3.5l159 -199v-35l-186 -246q30 3 56.5 4.5t55.5 1.5h212v-123h-476z" />
    <glyph glyph-name="uni01AA" unicode="&#x1aa;" horiz-adv-x="386" 
d="M132 770q88 0 124.5 -48t36.5 -130v-655q0 -31 14.5 -45.5t40.5 -14.5q22 0 42 5t40 12v-109q-22 -11 -52 -18t-65 -7q-49 0 -85.5 16.5t-56.5 54.5t-20 105v594h-24q-71 0 -103.5 34.5t-32.5 87.5q0 46 34.5 82t106.5 36zM111 689q-16 0 -25 -11t-9 -26q0 -21 13 -33
t39 -12h22v31q0 51 -40 51z" />
    <glyph glyph-name="uni01AB" unicode="&#x1ab;" horiz-adv-x="391" 
d="M222 -240q-44 0 -76 12v107q10 -4 21.5 -6.5t23.5 -2.5q24 0 37 13.5t13 47.5v60h-11q-65 0 -106 38.5t-41 125.5v281h-64v65l75 45l39 116h92v-116h133v-110h-133v-270q0 -59 58 -59q20 0 40.5 4.5t41.5 11.5v-194q0 -169 -143 -169z" />
    <glyph glyph-name="uni01AC" unicode="&#x1ac;" horiz-adv-x="568" 
d="M233 0v591h-58q-27 0 -40 -16.5t-13 -40.5q0 -16 3 -28t6 -19h-114q-3 8 -7.5 23t-4.5 34q0 46 17 85t56 62t106 23h366v-123h-171v-591h-146z" />
    <glyph glyph-name="uni01AD" unicode="&#x1ad;" horiz-adv-x="391" 
d="M257 765q24 0 48 -4.5t37 -9.5v-113q-12 4 -29 7t-34 3q-54 0 -54 -60v-42h133v-110h-133v-266q0 -63 58 -63q20 0 40.5 4.5t41.5 11.5v-108q-24 -11 -55.5 -18t-69.5 -7q-72 0 -114.5 39.5t-42.5 138.5v268h-64v65l64 38v53q0 89 47 131t127 42z" />
    <glyph glyph-name="uni01AE" unicode="&#x1ae;" horiz-adv-x="524" 
d="M364 -230q-84 0 -129.5 43.5t-45.5 141.5v636h-171v123h488v-123h-171v-631q0 -71 54 -71q17 0 31 3t24 7v-115q-14 -6 -35.5 -10t-44.5 -4z" />
    <glyph glyph-name="Uhorn" unicode="&#x1af;" horiz-adv-x="803" 
d="M609 619q38 9 53.5 48.5t15.5 92.5h137l7 -11q-10 -64 -32.5 -110.5t-65.5 -74t-115 -35.5v-273q0 -120 -67 -193t-202 -73q-129 0 -196.5 70.5t-67.5 195.5v458h146v-449q0 -80 30.5 -115t90.5 -35q63 0 92 37t29 114v448h145v-95z" />
    <glyph glyph-name="uhorn" unicode="&#x1b0;" horiz-adv-x="701" 
d="M742 616q-9 -64 -31.5 -110t-65.5 -73.5t-115 -36.5v-396h-110l-18 70h-8q-24 -41 -63.5 -60.5t-86.5 -19.5q-83 0 -129.5 49.5t-46.5 150.5v356h142v-318q0 -60 17.5 -90t57.5 -30q58 0 80.5 43.5t22.5 135.5v259h142v-60q37 10 53 49t16 92h137z" />
    <glyph glyph-name="Upsilonlatin" unicode="&#x1b1;" horiz-adv-x="717" 
d="M359 113q74 0 116.5 53t42.5 153q0 90 -24.5 155t-88.5 107v133h287v-124h-165q65 -43 102.5 -121t37.5 -177q0 -93 -38 -160.5t-107 -104.5t-163 -37t-163.5 37.5t-107.5 105.5t-38 160q0 101 38 177t104 120h-166v124h288v-133q-65 -42 -90 -108t-25 -155
q0 -97 42 -151t118 -54z" />
    <glyph glyph-name="uni01B2" unicode="&#x1b2;" horiz-adv-x="685" 
d="M340 -10q-129 0 -196.5 68t-67.5 188v468h146v-452q0 -81 30.5 -114t90.5 -33q63 0 92 35t29 113v283q0 30 -14 42t-34 12q-35 0 -65 -17v116q19 10 50.5 17.5t64.5 7.5q71 0 107 -39t36 -112v-327q0 -116 -67 -186t-202 -70z" />
    <glyph glyph-name="uni01B3" unicode="&#x1b3;" horiz-adv-x="589" 
d="M212 0v273l-212 441h155l130 -293l74 185q23 58 55.5 88t88.5 30q22 0 42 -5t32 -11v-115q-7 3 -18 6t-20 3q-14 0 -25 -6t-22.5 -22.5t-26.5 -50.5l-108 -246v-277h-145z" />
    <glyph glyph-name="uni01B4" unicode="&#x1b4;" horiz-adv-x="565" 
d="M483 556q20 0 42.5 -4.5t35.5 -10.5v-114q-19 5 -32 5q-14 0 -26 -7.5t-24.5 -28.5t-25.5 -63l-129 -394q-29 -89 -81 -134t-133 -45q-18 0 -36.5 2.5t-32.5 5.5v117q10 -3 24.5 -4.5t26.5 -1.5q38 0 61.5 22.5t39.5 72.5l9 31l-195 541h153l78 -258q8 -26 15.5 -57
t11.5 -60h3q5 22 12 51t17 62l47 150q16 50 47 86t92 36z" />
    <glyph glyph-name="uni01B5" unicode="&#x1b5;" horiz-adv-x="524" 
d="M55 418h165l105 174h-294v122h462v-98l-121 -198h87v-116h-161l-106 -179h309v-123h-477v98l123 204h-92v116z" />
    <glyph glyph-name="uni01B6" unicode="&#x1b6;" horiz-adv-x="441" 
d="M407 546v-93l-80 -127h70v-97h-132l-74 -117h224v-112h-391v85l92 144h-71v97h134l68 108h-209v112h369z" />
    <glyph glyph-name="uni01B7" unicode="&#x1b7;" horiz-adv-x="551" 
d="M480 714v-97l-189 -199q110 -8 165 -63.5t55 -145.5q0 -97 -68 -158t-213 -61q-118 0 -202 38v129q41 -23 93.5 -35t95.5 -12q82 0 114.5 28.5t32.5 78.5q0 48 -40.5 74t-135.5 26h-58v101l160 174h-240v122h430z" />
    <glyph glyph-name="uni01B8" unicode="&#x1b8;" horiz-adv-x="551" 
d="M318 -10q-140 0 -209 58.5t-69 157.5q0 94 57 148t163 64l-189 199v97h430v-122h-240l160 -174v-101h-58q-96 0 -136 -27t-40 -74q0 -52 34.5 -79t112.5 -27q44 0 96 12t93 35v-129q-84 -38 -205 -38z" />
    <glyph glyph-name="uni01B9" unicode="&#x1b9;" horiz-adv-x="526" 
d="M305 -240q-132 0 -201 68t-69 179q0 99 53 160.5t162 76.5l-190 209v93h429v-112h-256l173 -193v-102h-50q-99 0 -138 -34.5t-39 -93.5t34 -95.5t109 -36.5q45 0 91 12t85 31v-124q-36 -16 -83 -27t-110 -11z" />
    <glyph glyph-name="uni01BA" unicode="&#x1ba;" horiz-adv-x="523" 
d="M228 -240q-89 0 -144 38.5t-55 117.5q0 68 43.5 111t146.5 47q56 4 84 18.5t28 50.5q0 34 -32 48t-103 14h-67v96l138 133h-221v112h407v-93l-163 -147q82 -7 133.5 -47t51.5 -119q0 -49 -20.5 -88.5t-71 -64.5t-141.5 -30q-86 -4 -86 -42q0 -24 24 -35t67 -11
q60 0 107.5 13.5t80.5 25.5v-109q-33 -15 -88.5 -27t-118.5 -12z" />
    <glyph glyph-name="uni01BB" unicode="&#x1bb;" horiz-adv-x="533" 
d="M246 765q66 0 114 -26.5t74 -73t26 -105.5q0 -41 -9 -76t-26 -66h64v-96h-127l-165 -200v-7h289v-115h-458v106l175 216h-156v96h229q22 33 31 66t9 70q0 41 -23 66.5t-62 25.5q-40 0 -71 -18t-63 -52l-67 91q36 40 87 69t129 29z" />
    <glyph glyph-name="uni01BC" unicode="&#x1bc;" horiz-adv-x="538" 
d="M218 -10q-52 0 -100 9t-82 28v128q35 -19 84.5 -32t90.5 -13q64 0 102 28.5t38 85.5q0 111 -131 111h-114v256h-81v123h448v-123h-224v-135h22q106 0 166.5 -60.5t60.5 -163.5q0 -113 -69.5 -177.5t-210.5 -64.5z" />
    <glyph glyph-name="uni01BD" unicode="&#x1bd;" horiz-adv-x="495" 
d="M206 -10q-49 0 -95.5 9t-76.5 25v119q31 -17 75 -28t85 -11q59 0 91.5 15.5t32.5 49.5q0 32 -33.5 47.5t-91.5 15.5h-82v203h-74v111h405v-111h-197v-99h10q59 0 105 -16.5t72 -52.5t26 -94q0 -83 -61 -133t-191 -50z" />
    <glyph glyph-name="uni01BE" unicode="&#x1be;" horiz-adv-x="454" 
d="M208 -10q-49 0 -96.5 8.5t-79.5 24.5v122q33 -18 76.5 -30.5t81.5 -12.5q88 0 88 54q0 27 -20 42.5t-51 36.5q-27 19 -47.5 38t-31.5 47.5t-11 71.5v44h-84v65l89 45l39 116h92v-116h125v-110h-125v-37q0 -25 9.5 -40t35.5 -33q34 -23 61.5 -45t43 -51t15.5 -76
q0 -70 -49.5 -117t-160.5 -47z" />
    <glyph glyph-name="uni01BF" unicode="&#x1bf;" horiz-adv-x="584" 
d="M353 556q87 0 138.5 -65t51.5 -179q0 -90 -40 -160t-114 -113.5t-177 -54.5v-224h-142v786h115l20 -71h7q22 39 56 60t85 21zM308 441q-52 0 -74 -38t-22 -115v-182q51 6 93.5 31.5t67.5 69.5t25 105q0 58 -22 93.5t-68 35.5z" />
    <glyph glyph-name="uni01C0" unicode="&#x1c0;" horiz-adv-x="296" 
d="M93 0v763h110v-763h-110z" />
    <glyph glyph-name="uni01C1" unicode="&#x1c1;" horiz-adv-x="552" 
d="M93 0v763h110v-763h-110zM349 0v763h110v-763h-110z" />
    <glyph glyph-name="uni01C2" unicode="&#x1c2;" horiz-adv-x="480" 
d="M294 763v-227h139v-100h-139v-87h139v-100h-139v-249h-110v249h-138v100h138v87h-138v100h138v227h110z" />
    <glyph glyph-name="uni01C3" unicode="&#x1c3;" horiz-adv-x="275" 
d="M196 235h-116l-24 479h163zM55 70q0 44 23 63.5t60 19.5q35 0 58.5 -19.5t23.5 -63.5q0 -42 -24 -62t-58 -20q-36 0 -59.5 20t-23.5 62z" />
    <glyph glyph-name="uni01C4" unicode="&#x1c4;" horiz-adv-x="1191" 
d="M621 366q0 -180 -92 -273t-259 -93h-190v714h208q154 0 243.5 -89t89.5 -259zM470 361q0 120 -45.5 175.5t-132.5 55.5h-66v-469h53q97 0 144 59.5t47 178.5zM1168 0h-477v98l301 494h-294v122h462v-98l-301 -493h309v-123zM857 774q-12 21 -32.5 48.5t-42.5 53.5t-39 45
v13h92q22 -16 48 -37t50 -47q25 27 51 47.5t49 36.5h91v-13q-16 -18 -38 -44.5t-42 -53.5t-33 -49h-154z" />
    <glyph glyph-name="uni01C5" unicode="&#x1c5;" horiz-adv-x="1115" 
d="M621 366q0 -180 -92 -273t-259 -93h-190v714h208q154 0 243.5 -89t89.5 -259zM470 361q0 120 -45.5 175.5t-132.5 55.5h-66v-469h53q97 0 144 59.5t47 178.5zM1089 0h-391v85l223 349h-209v112h369v-93l-216 -341h224v-112zM821 606q-12 21 -32.5 48.5t-42.5 53.5t-39 45
v13h92q22 -16 48 -37t50 -47q25 27 51 47.5t49 36.5h91v-13q-16 -18 -38 -44.5t-42 -53.5t-33 -49h-154z" />
    <glyph glyph-name="uni01C6" unicode="&#x1c6;" horiz-adv-x="1026" 
d="M232 -10q-87 0 -138.5 73t-51.5 210q0 138 52 210.5t139 72.5q50 0 85.5 -21.5t57.5 -58.5h5q-3 22 -6 49.5t-3 54.5v180h142v-760h-110l-25 67h-7q-22 -35 -55 -56t-85 -21zM279 105q53 0 76 37t24 114v21q0 80 -22.5 120.5t-78.5 40.5q-45 0 -68.5 -42.5t-23.5 -123.5
q0 -83 24 -125t69 -42zM999 0h-391v85l223 349h-209v112h369v-93l-216 -341h224v-112zM732 606q-12 21 -32.5 48.5t-42.5 53.5t-39 45v13h92q22 -16 48 -37t50 -47q25 27 51 47.5t49 36.5h91v-13q-16 -18 -38 -44.5t-42 -53.5t-33 -49h-154z" />
    <glyph glyph-name="uni01C7" unicode="&#x1c7;" horiz-adv-x="813" 
d="M80 0v714h146v-591h254v-123h-400zM524 -211q-26 0 -47 3t-37 8v123q14 -4 30 -7t35 -3q38 0 60.5 25.5t22.5 101.5v674h145v-673q0 -92 -25.5 -147.5t-72.5 -80t-111 -24.5z" />
    <glyph glyph-name="uni01C8" unicode="&#x1c8;" horiz-adv-x="789" 
d="M80 0v714h146v-591h254v-123h-400zM571 687q0 40 21.5 57t56.5 17q34 0 55.5 -17t21.5 -57q0 -39 -22 -56t-55 -17q-34 0 -56 17t-22 56zM544 -240q-23 0 -46.5 3t-41.5 9v115q15 -5 29 -7t31 -2q27 0 44 17t17 63v588h142v-605q0 -82 -41.5 -131.5t-133.5 -49.5z" />
    <glyph glyph-name="uni01C9" unicode="&#x1c9;" horiz-adv-x="565" 
d="M212 0h-142v760h142v-760zM346 687q0 40 21.5 57t56.5 17q34 0 55.5 -17t21.5 -57q0 -39 -22 -56t-55 -17q-34 0 -56 17t-22 56zM319 -240q-23 0 -46.5 3t-41.5 9v115q15 -5 29 -7t31 -2q27 0 44 17t17 63v588h142v-605q0 -82 -41.5 -131.5t-133.5 -49.5z" />
    <glyph glyph-name="uni01CA" unicode="&#x1ca;" horiz-adv-x="1049" 
d="M663 0h-181l-274 525h-4q3 -52 5 -99.5t4 -91.5v-334h-133v714h180l273 -517h3q-2 49 -4 95t-3 89v333h134v-714zM760 -211q-26 0 -47 3t-37 8v123q14 -4 30 -7t35 -3q38 0 60.5 25.5t22.5 101.5v674h145v-673q0 -92 -25.5 -147.5t-72.5 -80t-111 -24.5z" />
    <glyph glyph-name="uni01CB" unicode="&#x1cb;" horiz-adv-x="1026" 
d="M663 0h-181l-274 525h-4q3 -52 5 -99.5t4 -91.5v-334h-133v714h180l273 -517h3q-2 49 -4 95t-3 89v333h134v-714zM807 687q0 40 21.5 57t56.5 17q34 0 55.5 -17t21.5 -57q0 -39 -22 -56t-55 -17q-34 0 -56 17t-22 56zM780 -240q-23 0 -46.5 3t-41.5 9v115q15 -5 29 -7
t31 -2q27 0 44 17t17 63v588h142v-605q0 -82 -41.5 -131.5t-133.5 -49.5z" />
    <glyph glyph-name="uni01CC" unicode="&#x1cc;" horiz-adv-x="882" 
d="M356 556q81 0 128.5 -48t47.5 -150v-358h-142v321q0 58 -17.5 87.5t-58.5 29.5q-59 0 -80.5 -44t-21.5 -135v-259h-142v546h110l18 -70h8q23 41 63 60.5t87 19.5zM664 687q0 40 21.5 57t56.5 17q34 0 55.5 -17t21.5 -57q0 -39 -22 -56t-55 -17q-34 0 -56 17t-22 56z
M637 -240q-23 0 -46.5 3t-41.5 9v115q15 -5 29 -7t31 -2q27 0 44 17t17 63v588h142v-605q0 -82 -41.5 -131.5t-133.5 -49.5z" />
    <glyph glyph-name="uni01CD" unicode="&#x1cd;" horiz-adv-x="630" 
d="M473 0l-46 171h-223l-47 -171h-157l223 716h182l225 -716h-157zM349 469q-7 29 -17.5 69t-16.5 69q-4 -19 -10 -45.5t-12.5 -51.5t-10.5 -40l-47 -175h161zM239 774q-12 21 -32.5 48.5t-42.5 53.5t-39 45v13h92q22 -16 48 -37t50 -47q25 27 51 47.5t49 36.5h91v-13
q-16 -18 -38 -44.5t-42 -53.5t-33 -49h-154z" />
    <glyph glyph-name="uni01CE" unicode="&#x1ce;" horiz-adv-x="553" 
d="M281 557q99 0 151.5 -48.5t52.5 -145.5v-363h-101l-26 74h-3q-32 -44 -67.5 -64t-96.5 -20q-71 0 -112.5 46t-41.5 126q0 87 56 129t166 46l85 3v24q0 85 -76 85q-34 0 -68.5 -10.5t-70.5 -28.5l-44 99q41 23 91.5 35.5t104.5 12.5zM293 251q-60 -2 -85.5 -25t-25.5 -62
q0 -35 17.5 -51t46.5 -16q41 0 69.5 29t28.5 81v46zM204 606q-12 21 -32.5 48.5t-42.5 53.5t-39 45v13h92q22 -16 48 -37t50 -47q25 27 51 47.5t49 36.5h91v-13q-16 -18 -38 -44.5t-42 -53.5t-33 -49h-154z" />
    <glyph glyph-name="uni01CF" unicode="&#x1cf;" horiz-adv-x="366" 
d="M335 0h-304v82l79 35v480l-79 35v82h304v-82l-79 -35v-480l79 -35v-82zM108 774q-12 21 -32.5 48.5t-42.5 53.5t-39 45v13h92q22 -16 48 -37t50 -47q25 27 51 47.5t49 36.5h91v-13q-16 -18 -38 -44.5t-42 -53.5t-33 -49h-154z" />
    <glyph glyph-name="uni01D0" unicode="&#x1d0;" horiz-adv-x="283" 
d="M212 0h-142v546h142v-546zM66 606q-12 21 -32.5 48.5t-42.5 53.5t-39 45v13h92q22 -16 48 -37t50 -47q25 27 51 47.5t49 36.5h91v-13q-16 -18 -38 -44.5t-42 -53.5t-33 -49h-154z" />
    <glyph glyph-name="uni01D1" unicode="&#x1d1;" horiz-adv-x="722" 
d="M669 358q0 -112 -33 -194.5t-101.5 -128t-173.5 -45.5t-173.5 45.5t-101.5 128.5t-33 195q0 171 76 268.5t233 97.5q105 0 173 -45t101 -127.5t33 -194.5zM205 358q0 -116 37.5 -179.5t118.5 -63.5q82 0 118.5 63t36.5 180t-36.5 180.5t-117.5 63.5q-82 0 -119.5 -64
t-37.5 -180zM286 774q-12 21 -32.5 48.5t-42.5 53.5t-39 45v13h92q22 -16 48 -37t50 -47q25 27 51 47.5t49 36.5h91v-13q-16 -18 -38 -44.5t-42 -53.5t-33 -49h-154z" />
    <glyph glyph-name="uni01D2" unicode="&#x1d2;" horiz-adv-x="571" 
d="M529 274q0 -85 -28 -149t-82.5 -99.5t-134.5 -35.5q-74 0 -128.5 35t-84 99t-29.5 150q0 132 63 207t182 75q71 0 126 -32.5t85.5 -95.5t30.5 -154zM186 274q0 -83 23.5 -125.5t76.5 -42.5q52 0 75 42.5t23 125.5t-23 124.5t-76 41.5q-52 0 -75.5 -41.5t-23.5 -124.5z
M210 606q-12 21 -32.5 48.5t-42.5 53.5t-39 45v13h92q22 -16 48 -37t50 -47q25 27 51 47.5t49 36.5h91v-13q-16 -18 -38 -44.5t-42 -53.5t-33 -49h-154z" />
    <glyph glyph-name="uni01D3" unicode="&#x1d3;" horiz-adv-x="685" 
d="M609 246q0 -116 -67 -186t-202 -70q-129 0 -196.5 68t-67.5 188v468h146v-452q0 -81 30.5 -114t90.5 -33q63 0 92 35t29 113v451h145v-468zM267 774q-12 21 -32.5 48.5t-42.5 53.5t-39 45v13h92q22 -16 48 -37t50 -47q25 27 51 47.5t49 36.5h91v-13q-16 -18 -38 -44.5
t-42 -53.5t-33 -49h-154z" />
    <glyph glyph-name="uni01D4" unicode="&#x1d4;" horiz-adv-x="600" 
d="M530 546v-546h-110l-18 70h-8q-23 -41 -63 -60.5t-87 -19.5q-83 0 -129.5 49.5t-46.5 150.5v356h142v-318q0 -60 17.5 -90t57.5 -30q61 0 82 45t21 129v264h142zM225 606q-12 21 -32.5 48.5t-42.5 53.5t-39 45v13h92q22 -16 48 -37t50 -47q25 27 51 47.5t49 36.5h91v-13
q-16 -18 -38 -44.5t-42 -53.5t-33 -49h-154z" />
    <glyph glyph-name="uni01D5" unicode="&#x1d5;" horiz-adv-x="685" 
d="M498 1019v-89h-311v89h311zM247 887q27 0 44 -15t17 -45q0 -29 -17 -44t-44 -15t-43.5 15t-16.5 44q0 30 16.5 45t43.5 15zM436 887q27 0 44 -15t17 -45q0 -29 -17 -44t-44 -15t-43 15t-16 44q0 30 16 45t43 15zM609 246q0 -116 -67 -186t-202 -70q-129 0 -196.5 68
t-67.5 188v468h146v-452q0 -81 30.5 -114t90.5 -33q63 0 92 35t29 113v451h145v-468z" />
    <glyph glyph-name="uni01D6" unicode="&#x1d6;" horiz-adv-x="600" 
d="M456 851v-89h-311v89h311zM205 720q27 0 44 -15t17 -46q0 -29 -17 -44t-44 -15t-43.5 15t-16.5 44q0 31 16.5 46t43.5 15zM394 720q27 0 44 -15t17 -46q0 -29 -17 -44t-44 -15t-43 15t-16 44q0 31 16 46t43 15zM530 546v-546h-110l-18 70h-8q-23 -41 -63 -60.5t-87 -19.5
q-83 0 -129.5 49.5t-46.5 150.5v356h142v-318q0 -60 17.5 -90t57.5 -30q61 0 82 45t21 129v264h142z" />
    <glyph glyph-name="uni01D7" unicode="&#x1d7;" horiz-adv-x="685" 
d="M282 917q23 28 44 63.5t37 68.5h153v-10q-16 -20 -40.5 -45t-50.5 -49t-48 -41h-95v13zM250 769q-27 0 -43.5 15t-16.5 44q0 30 16.5 45t43.5 15q26 0 43.5 -15t17.5 -45q0 -29 -17.5 -44t-43.5 -15zM433 769q-26 0 -42.5 15t-16.5 44q0 30 16.5 45t42.5 15
q27 0 44.5 -15t17.5 -45q0 -29 -17.5 -44t-44.5 -15zM609 246q0 -116 -67 -186t-202 -70q-129 0 -196.5 68t-67.5 188v468h146v-452q0 -81 30.5 -114t90.5 -33q63 0 92 35t29 113v451h145v-468z" />
    <glyph glyph-name="uni01D8" unicode="&#x1d8;" horiz-adv-x="600" 
d="M240 749q23 28 44 63.5t37 68.5h153v-10q-16 -20 -40.5 -45t-50.5 -49t-48 -41h-95v13zM208 601q-27 0 -43.5 15t-16.5 44q0 31 16.5 45.5t43.5 14.5q26 0 43.5 -14.5t17.5 -45.5q0 -29 -17.5 -44t-43.5 -15zM391 601q-26 0 -42.5 15t-16.5 44q0 31 16.5 45.5t42.5 14.5
q27 0 44.5 -14.5t17.5 -45.5q0 -29 -17.5 -44t-44.5 -15zM530 546v-546h-110l-18 70h-8q-23 -41 -63 -60.5t-87 -19.5q-83 0 -129.5 49.5t-46.5 150.5v356h142v-318q0 -60 17.5 -90t57.5 -30q61 0 82 45t21 129v264h142z" />
    <glyph glyph-name="uni01D9" unicode="&#x1d9;" horiz-adv-x="685" 
d="M279 909q-22 34 -50 66t-55 62v12h62q29 -15 56 -34t50 -42q25 24 52 42t54 34h63v-12q-25 -28 -54 -61t-51 -67h-127zM250 768q-27 0 -43.5 15t-16.5 44q0 30 16.5 45t43.5 15q26 0 43.5 -15t17.5 -45q0 -29 -17.5 -44t-43.5 -15zM434 768q-27 0 -43.5 15t-16.5 44
q0 30 16.5 45t43.5 15q26 0 43.5 -15t17.5 -45q0 -29 -17.5 -44t-43.5 -15zM609 246q0 -116 -67 -186t-202 -70q-129 0 -196.5 68t-67.5 188v468h146v-452q0 -81 30.5 -114t90.5 -33q63 0 92 35t29 113v451h145v-468z" />
    <glyph glyph-name="uni01DA" unicode="&#x1da;" horiz-adv-x="600" 
d="M237 741q-22 34 -50 66t-55 62v13h62q29 -16 56 -34.5t50 -42.5q25 24 52 42t54 35h63v-13q-25 -27 -54 -60.5t-51 -67.5h-127zM208 600q-27 0 -43.5 15.5t-16.5 43.5q0 31 16.5 46t43.5 15q26 0 43.5 -15t17.5 -46q0 -28 -17.5 -43.5t-43.5 -15.5zM392 600
q-27 0 -43.5 15.5t-16.5 43.5q0 31 16.5 46t43.5 15q26 0 43.5 -15t17.5 -46q0 -28 -17.5 -43.5t-43.5 -15.5zM530 546v-546h-110l-18 70h-8q-23 -41 -63 -60.5t-87 -19.5q-83 0 -129.5 49.5t-46.5 150.5v356h142v-318q0 -60 17.5 -90t57.5 -30q61 0 82 45t21 129v264h142z
" />
    <glyph glyph-name="uni01DB" unicode="&#x1db;" horiz-adv-x="685" 
d="M322 1049q16 -33 37 -68.5t44 -63.5v-13h-95q-22 17 -48 41t-50.5 49t-40.5 45v10h153zM250 888q26 0 43.5 -15t17.5 -45q0 -29 -17.5 -44t-43.5 -15q-27 0 -43.5 15t-16.5 44q0 30 16.5 45t43.5 15zM433 888q27 0 44.5 -15t17.5 -45q0 -29 -17.5 -44t-44.5 -15
q-26 0 -42.5 15t-16.5 44q0 30 16.5 45t42.5 15zM609 246q0 -116 -67 -186t-202 -70q-129 0 -196.5 68t-67.5 188v468h146v-452q0 -81 30.5 -114t90.5 -33q63 0 92 35t29 113v451h145v-468z" />
    <glyph glyph-name="uni01DC" unicode="&#x1dc;" horiz-adv-x="600" 
d="M280 881q16 -33 37 -68.5t44 -63.5v-13h-95q-22 17 -48 41t-50.5 49t-40.5 45v10h153zM208 720q26 0 43.5 -14.5t17.5 -45.5q0 -29 -17.5 -44t-43.5 -15q-27 0 -43.5 15t-16.5 44q0 31 16.5 45.5t43.5 14.5zM391 720q27 0 44.5 -14.5t17.5 -45.5q0 -29 -17.5 -44
t-44.5 -15q-26 0 -42.5 15t-16.5 44q0 31 16.5 45.5t42.5 14.5zM530 546v-546h-110l-18 70h-8q-23 -41 -63 -60.5t-87 -19.5q-83 0 -129.5 49.5t-46.5 150.5v356h142v-318q0 -60 17.5 -90t57.5 -30q61 0 82 45t21 129v264h142z" />
    <glyph glyph-name="uni01DD" unicode="&#x1dd;" horiz-adv-x="542" 
d="M245 556q119 0 187.5 -71t68.5 -209q0 -141 -64 -213.5t-172 -72.5q-106 0 -166 65t-60 182v73h319q-2 66 -33.5 101.5t-90.5 35.5q-46 0 -85 -10t-81 -32v112q38 20 79.5 29.5t97.5 9.5zM172 213q1 -53 23.5 -85.5t67.5 -32.5q39 0 64 28t29 90h-184z" />
    <glyph glyph-name="uni01DE" unicode="&#x1de;" horiz-adv-x="630" 
d="M470 1019v-89h-310v89h310zM220 887q26 0 43.5 -15t17.5 -45q0 -29 -17.5 -44t-43.5 -15q-27 0 -43.5 15t-16.5 44q0 30 16.5 45t43.5 15zM409 887q26 0 43.5 -15t17.5 -45q0 -29 -17.5 -44t-43.5 -15q-27 0 -43.5 15t-16.5 44q0 30 16.5 45t43.5 15zM473 0l-46 171h-223
l-47 -171h-157l223 716h182l225 -716h-157zM349 469q-7 29 -17.5 69t-16.5 69q-4 -19 -10 -45.5t-12.5 -51.5t-10.5 -40l-47 -175h161z" />
    <glyph glyph-name="uni01DF" unicode="&#x1df;" horiz-adv-x="553" 
d="M435 851v-89h-311v89h311zM184 720q27 0 44 -15t17 -46q0 -29 -17 -44t-44 -15t-43.5 15t-16.5 44q0 31 16.5 46t43.5 15zM373 720q27 0 44 -15t17 -46q0 -29 -17 -44t-44 -15t-43 15t-16 44q0 31 16 46t43 15zM281 557q99 0 151.5 -48.5t52.5 -145.5v-363h-101l-26 74
h-3q-32 -44 -67.5 -64t-96.5 -20q-71 0 -112.5 46t-41.5 126q0 87 56 129t166 46l85 3v24q0 85 -76 85q-34 0 -68.5 -10.5t-70.5 -28.5l-44 99q41 23 91.5 35.5t104.5 12.5zM293 251q-60 -2 -85.5 -25t-25.5 -62q0 -35 17.5 -51t46.5 -16q41 0 69.5 29t28.5 81v46z" />
    <glyph glyph-name="uni01E0" unicode="&#x1e0;" horiz-adv-x="630" 
d="M471 1019v-92h-312v92h312zM315 887q28 0 45.5 -15.5t17.5 -46.5q0 -29 -17.5 -44.5t-45.5 -15.5q-29 0 -46 15.5t-17 44.5q0 31 17 46.5t46 15.5zM473 0l-46 171h-223l-47 -171h-157l223 716h182l225 -716h-157zM349 469q-7 29 -17.5 69t-16.5 69q-4 -19 -10 -45.5
t-12.5 -51.5t-10.5 -40l-47 -175h161z" />
    <glyph glyph-name="uni01E1" unicode="&#x1e1;" horiz-adv-x="553" 
d="M434 851v-90h-309v90h309zM279 722q27 0 44 -15.5t17 -45.5q0 -29 -17 -44.5t-44 -15.5t-43.5 15.5t-16.5 44.5q0 30 16.5 45.5t43.5 15.5zM281 557q99 0 151.5 -48.5t52.5 -145.5v-363h-101l-26 74h-3q-32 -44 -67.5 -64t-96.5 -20q-71 0 -112.5 46t-41.5 126
q0 87 56 129t166 46l85 3v24q0 85 -76 85q-34 0 -68.5 -10.5t-70.5 -28.5l-44 99q41 23 91.5 35.5t104.5 12.5zM293 251q-60 -2 -85.5 -25t-25.5 -62q0 -35 17.5 -51t46.5 -16q41 0 69.5 29t28.5 81v46z" />
    <glyph glyph-name="uni01E2" unicode="&#x1e2;" horiz-adv-x="857" 
d="M804 0h-387v171h-202l-64 -171h-152l283 714h522v-122h-242v-160h226v-122h-226v-187h242v-123zM261 295h156v294h-47zM604 878v-100h-311v100h311z" />
    <glyph glyph-name="uni01E3" unicode="&#x1e3;" horiz-adv-x="836" 
d="M580 556q99 0 157.5 -65.5t58.5 -182.5v-72h-319q2 -66 33.5 -101.5t90.5 -35.5q86 0 166 42v-112q-37 -20 -78.5 -29.5t-97.5 -9.5q-62 0 -113.5 24.5t-83.5 74.5q-39 -51 -82 -75t-114 -24t-116 46t-45 126q0 87 55 129t161 46l84 3v34q0 75 -73 75q-33 0 -66.5 -10
t-68.5 -28l-44 98q40 22 88.5 35t100.5 13q101 0 149 -62q29 31 67 46t90 15zM578 451q-43 0 -69 -28t-30 -90h184q0 53 -22 85.5t-63 32.5zM289 251q-58 -2 -82.5 -24.5t-24.5 -62.5q0 -35 16.5 -51t44.5 -16q40 0 67 29t27 81v46zM581 710v-100h-311v100h311z" />
    <glyph glyph-name="uni01E4" unicode="&#x1e4;" horiz-adv-x="669" 
d="M361 -10q-150 0 -229 96t-79 272q0 112 39.5 194t116.5 127t187 45q55 0 106.5 -12.5t92.5 -31.5l-46 -118q-32 17 -71 28t-81 11q-91 0 -142.5 -66t-51.5 -180q0 -119 41 -184.5t129 -65.5q24 0 44.5 2.5t39.5 7.5v45h-112v97h112v49h-118v114h261v-163h58v-97h-58v-129
q-55 -20 -113 -30.5t-126 -10.5z" />
    <glyph glyph-name="uni01E5" unicode="&#x1e5;" horiz-adv-x="584" 
d="M234 556q92 0 142 -80h6l11 70h121v-556h58v-77h-66q-36 -153 -250 -153q-53 0 -97.5 7.5t-86.5 25.5v109q91 -40 188 -40q38 0 64.5 12t35.5 39h-139v77h151v49q0 16 1 36.5t4 38.5h-5q-25 -42 -60.5 -61t-81.5 -19q-88 0 -138 66.5t-50 189.5q0 126 51 196t141 70z
M278 438q-92 0 -92 -148q0 -144 94 -144q50 0 74.5 29t24.5 99v16q0 78 -24 113t-77 35z" />
    <glyph glyph-name="Gcaron" unicode="&#x1e6;" horiz-adv-x="669" 
d="M339 401h261v-370q-55 -20 -113 -30.5t-126 -10.5q-150 0 -229 96t-79 272q0 112 39.5 194t116.5 127t187 45q55 0 106.5 -12.5t92.5 -31.5l-46 -118q-32 17 -71 28t-81 11q-91 0 -142.5 -66t-51.5 -180q0 -72 17.5 -126.5t54.5 -85t95 -30.5q28 0 48.5 3.5t38.5 7.5v155
h-118v122zM296 774q-12 21 -32.5 48.5t-42.5 53.5t-39 45v13h92q22 -16 48 -37t50 -47q25 27 51 47.5t49 36.5h91v-13q-16 -18 -38 -44.5t-42 -53.5t-33 -49h-154z" />
    <glyph glyph-name="gcaron" unicode="&#x1e7;" horiz-adv-x="584" 
d="M234 556q92 0 142 -80h6l11 70h121v-536q0 -122 -64 -186t-194 -64q-53 0 -97.5 8t-86.5 26v118q91 -42 188 -42q55 0 83.5 29t28.5 90v11q0 16 1.5 36t3.5 36h-5q-25 -43 -60.5 -62.5t-81.5 -19.5q-88 0 -138 74.5t-50 206.5q0 135 51 210t141 75zM278 438
q-92 0 -92 -169q0 -163 94 -163q50 0 74.5 33.5t24.5 113.5v21q0 87 -24 125.5t-77 38.5zM218 606q-12 21 -32.5 48.5t-42.5 53.5t-39 45v13h92q22 -16 48 -37t50 -47q25 27 51 47.5t49 36.5h91v-13q-16 -18 -38 -44.5t-42 -53.5t-33 -49h-154z" />
    <glyph glyph-name="uni01E8" unicode="&#x1e8;" horiz-adv-x="608" 
d="M610 0h-164l-163 297l-57 -43v-254h-146v714h146v-328q11 20 25 42t29 47l168 239h160l-221 -317zM250 774q-12 21 -32.5 48.5t-42.5 53.5t-39 45v13h92q22 -16 48 -37t50 -47q25 27 51 47.5t49 36.5h91v-13q-16 -18 -38 -44.5t-42 -53.5t-33 -49h-154z" />
    <glyph glyph-name="uni01E9" unicode="&#x1e9;" horiz-adv-x="566" 
d="M212 423q0 -32 -2 -63.5t-5 -62.5h2q13 21 27 41t29 38l135 170h158l-189 -232l200 -314h-161l-135 223l-59 -51v-172h-142v760h142v-337zM70 820q-12 21 -32.5 48.5t-42.5 53.5t-39 45v13h92q22 -16 48 -37t50 -47q25 27 51 47.5t49 36.5h91v-13q-16 -18 -38 -44.5
t-42 -53.5t-33 -49h-154z" />
    <glyph glyph-name="uni01EA" unicode="&#x1ea;" horiz-adv-x="722" 
d="M669 358q0 -112 -33 -194.5t-101.5 -128t-173.5 -45.5t-173.5 45.5t-101.5 128.5t-33 195q0 171 76 268.5t233 97.5q105 0 173 -45t101 -127.5t33 -194.5zM205 358q0 -116 37.5 -179.5t118.5 -63.5q82 0 118.5 63t36.5 180t-36.5 180.5t-117.5 63.5q-82 0 -119.5 -64
t-37.5 -180zM368 -108q0 -20 11 -30.5t29 -10.5q15 0 27.5 3t21.5 6v-86q-14 -5 -31.5 -8.5t-40.5 -3.5q-56 0 -87.5 30t-31.5 79q0 41 27.5 79t73.5 66l67 -16q-34 -33 -50 -58t-16 -50z" />
    <glyph glyph-name="uni01EB" unicode="&#x1eb;" horiz-adv-x="571" 
d="M529 274q0 -85 -28 -149t-82.5 -99.5t-134.5 -35.5q-74 0 -128.5 35t-84 99t-29.5 150q0 132 63 207t182 75q71 0 126 -32.5t85.5 -95.5t30.5 -154zM186 274q0 -83 23.5 -125.5t76.5 -42.5q52 0 75 42.5t23 125.5t-23 124.5t-76 41.5q-52 0 -75.5 -41.5t-23.5 -124.5z
M287 -108q0 -20 11 -30.5t29 -10.5q15 0 27.5 3t21.5 6v-86q-14 -5 -31.5 -8.5t-40.5 -3.5q-56 0 -87.5 30t-31.5 79q0 41 27.5 79t73.5 66l67 -16q-34 -33 -50 -58t-16 -50z" />
    <glyph glyph-name="uni01EC" unicode="&#x1ec;" horiz-adv-x="722" 
d="M669 358q0 -112 -33 -194.5t-101.5 -128t-173.5 -45.5t-173.5 45.5t-101.5 128.5t-33 195q0 171 76 268.5t233 97.5q105 0 173 -45t101 -127.5t33 -194.5zM205 358q0 -116 37.5 -179.5t118.5 -63.5q82 0 118.5 63t36.5 180t-36.5 180.5t-117.5 63.5q-82 0 -119.5 -64
t-37.5 -180zM517 878v-100h-311v100h311zM368 -108q0 -20 11 -30.5t29 -10.5q15 0 27.5 3t21.5 6v-86q-14 -5 -31.5 -8.5t-40.5 -3.5q-56 0 -87.5 30t-31.5 79q0 41 27.5 79t73.5 66l67 -16q-34 -33 -50 -58t-16 -50z" />
    <glyph glyph-name="uni01ED" unicode="&#x1ed;" horiz-adv-x="571" 
d="M529 274q0 -85 -28 -149t-82.5 -99.5t-134.5 -35.5q-74 0 -128.5 35t-84 99t-29.5 150q0 132 63 207t182 75q71 0 126 -32.5t85.5 -95.5t30.5 -154zM186 274q0 -83 23.5 -125.5t76.5 -42.5q52 0 75 42.5t23 125.5t-23 124.5t-76 41.5q-52 0 -75.5 -41.5t-23.5 -124.5z
M442 710v-100h-311v100h311zM287 -108q0 -20 11 -30.5t29 -10.5q15 0 27.5 3t21.5 6v-86q-14 -5 -31.5 -8.5t-40.5 -3.5q-56 0 -87.5 30t-31.5 79q0 41 27.5 79t73.5 66l67 -16q-34 -33 -50 -58t-16 -50z" />
    <glyph glyph-name="uni01EE" unicode="&#x1ee;" horiz-adv-x="551" 
d="M480 714v-97l-189 -199q110 -8 165 -63.5t55 -145.5q0 -97 -68 -158t-213 -61q-118 0 -202 38v129q41 -23 93.5 -35t95.5 -12q82 0 114.5 28.5t32.5 78.5q0 48 -40.5 74t-135.5 26h-58v101l160 174h-240v122h430zM193 774q-12 21 -32.5 48.5t-42.5 53.5t-39 45v13h92
q22 -16 48 -37t50 -47q25 27 51 47.5t49 36.5h91v-13q-16 -18 -38 -44.5t-42 -53.5t-33 -49h-154z" />
    <glyph glyph-name="uni01EF" unicode="&#x1ef;" horiz-adv-x="526" 
d="M469 546v-93l-193 -209q112 -13 163.5 -75t51.5 -161q0 -73 -31 -129t-93 -87.5t-155 -31.5q-59 0 -106.5 10.5t-83.5 26.5v125q39 -19 86.5 -31t92.5 -12q79 0 112.5 37.5t33.5 93.5q0 59 -39 94t-137 35h-50v102l176 193h-257v112h429zM180 606q-12 21 -32.5 48.5
t-42.5 53.5t-39 45v13h92q22 -16 48 -37t50 -47q25 27 51 47.5t49 36.5h91v-13q-16 -18 -38 -44.5t-42 -53.5t-33 -49h-154z" />
    <glyph glyph-name="uni01F0" unicode="&#x1f0;" horiz-adv-x="283" 
d="M37 -240q-22 0 -47 3.5t-41 8.5v115q15 -5 29 -7t31 -2q27 0 44 17t17 61v590h142v-605q0 -79 -41.5 -130t-133.5 -51zM67 606q-12 21 -32.5 48.5t-42.5 53.5t-39 45v13h92q22 -16 48 -37t50 -47q25 27 51 47.5t49 36.5h91v-13q-16 -18 -38 -44.5t-42 -53.5t-33 -49h-154
z" />
    <glyph glyph-name="uni01F1" unicode="&#x1f1;" horiz-adv-x="1189" 
d="M621 366q0 -180 -92 -273t-259 -93h-190v714h208q154 0 243.5 -89t89.5 -259zM470 361q0 120 -45.5 175.5t-132.5 55.5h-66v-469h53q97 0 144 59.5t47 178.5zM1166 0h-477v98l301 494h-294v122h462v-98l-301 -493h309v-123z" />
    <glyph glyph-name="uni01F2" unicode="&#x1f2;" horiz-adv-x="1114" 
d="M621 366q0 -180 -92 -273t-259 -93h-190v714h208q154 0 243.5 -89t89.5 -259zM470 361q0 120 -45.5 175.5t-132.5 55.5h-66v-469h53q97 0 144 59.5t47 178.5zM1087 0h-391v85l223 349h-209v112h369v-93l-216 -341h224v-112z" />
    <glyph glyph-name="uni01F3" unicode="&#x1f3;" horiz-adv-x="1026" 
d="M232 -10q-87 0 -138.5 73t-51.5 210q0 138 52 210.5t139 72.5q50 0 85.5 -21.5t57.5 -58.5h5q-3 22 -6 49.5t-3 54.5v180h142v-760h-110l-25 67h-7q-22 -35 -55 -56t-85 -21zM279 105q53 0 76 37t24 114v21q0 80 -22.5 120.5t-78.5 40.5q-45 0 -68.5 -42.5t-23.5 -123.5
q0 -83 24 -125t69 -42zM999 0h-391v85l223 349h-209v112h369v-93l-216 -341h224v-112z" />
    <glyph glyph-name="uni01F4" unicode="&#x1f4;" horiz-adv-x="669" 
d="M339 401h261v-370q-55 -20 -113 -30.5t-126 -10.5q-150 0 -229 96t-79 272q0 112 39.5 194t116.5 127t187 45q55 0 106.5 -12.5t92.5 -31.5l-46 -118q-32 17 -71 28t-81 11q-91 0 -142.5 -66t-51.5 -180q0 -72 17.5 -126.5t54.5 -85t95 -30.5q28 0 48.5 3.5t38.5 7.5v155
h-118v122zM565 924q-17 -18 -47 -46.5t-62.5 -56.5t-56.5 -47h-97v13q25 32 54 72.5t49 74.5h160v-10z" />
    <glyph glyph-name="uni01F5" unicode="&#x1f5;" horiz-adv-x="584" 
d="M234 556q92 0 142 -80h6l11 70h121v-536q0 -122 -64 -186t-194 -64q-53 0 -97.5 8t-86.5 26v118q91 -42 188 -42q55 0 83.5 29t28.5 90v11q0 16 1.5 36t3.5 36h-5q-25 -43 -60.5 -62.5t-81.5 -19.5q-88 0 -138 74.5t-50 206.5q0 135 51 210t141 75zM278 438
q-92 0 -92 -169q0 -163 94 -163q50 0 74.5 33.5t24.5 113.5v21q0 87 -24 125.5t-77 38.5zM488 756q-17 -18 -47 -46.5t-62.5 -56.5t-56.5 -47h-97v13q25 32 54 72.5t49 74.5h160v-10z" />
    <glyph glyph-name="uni01F6" unicode="&#x1f6;" horiz-adv-x="977" 
d="M80 0v714h146v-281h214v281h146v-486q0 -63 19.5 -90.5t65.5 -27.5t66 28t20 97v311h146v-322q0 -114 -56 -174t-176 -60t-175.5 54.5t-55.5 164.5v100h-214v-309h-146z" />
    <glyph glyph-name="uni01F7" unicode="&#x1f7;" horiz-adv-x="638" 
d="M386 724q95 0 150.5 -70t55.5 -200q0 -108 -44 -199t-126 -156t-196 -97v-242h-146v954h116l21 -85h4q25 40 67 67.5t98 27.5zM346 601q-56 0 -88 -47.5t-32 -134.5v-284q60 21 109 65t78.5 108.5t29.5 147.5q0 69 -24 107t-73 38z" />
    <glyph glyph-name="uni01F8" unicode="&#x1f8;" horiz-adv-x="743" 
d="M663 0h-181l-274 525h-4q3 -52 5 -99.5t4 -91.5v-334h-133v714h180l273 -517h3q-2 49 -4 95t-3 89v333h134v-714zM367 934q13 -22 31.5 -49.5t38 -54t33.5 -43.5v-13h-96q-17 13 -40.5 32.5t-47.5 41.5t-45 42t-34 34v10h160z" />
    <glyph glyph-name="uni01F9" unicode="&#x1f9;" horiz-adv-x="600" 
d="M356 556q81 0 128.5 -48t47.5 -150v-358h-142v321q0 58 -17.5 87.5t-58.5 29.5q-59 0 -80.5 -44t-21.5 -135v-259h-142v546h110l18 -70h8q23 41 63 60.5t87 19.5zM299 766q13 -22 31.5 -49.5t38 -54t33.5 -43.5v-13h-96q-17 13 -40.5 32.5t-47.5 41.5t-45 42t-34 34v10
h160z" />
    <glyph glyph-name="Aringacute" unicode="&#x1fa;" horiz-adv-x="630" 
d="M251 865q29 29 48.5 52t32.5 42h163v-6q-11 -12 -37.5 -30.5t-56 -36.5t-49.5 -30h-101v9zM216 646q-22 27 -22 66q0 53 33 84.5t87 31.5q51 0 86 -31.5t35 -83.5q0 -21 -6.5 -37.5t-16.5 -29.5l218 -646h-157l-45 160h-225l-46 -160h-157zM314 667q47 0 47 46
q0 21 -13.5 33.5t-33.5 12.5q-21 0 -34 -12.5t-13 -33.5t12 -33.5t35 -12.5zM232 284h167l-46 155q-5 18 -13 45.5t-15.5 53.5t-9.5 41q-4 -15 -11.5 -42l-15 -54t-10.5 -40z" />
    <glyph glyph-name="aringacute" unicode="&#x1fb;" horiz-adv-x="553" 
d="M453 953q-11 -13 -37.5 -33t-56 -39t-48.5 -30h-102v9q27 30 47 54t34 45h163v-6zM280 817q52 0 87.5 -31t35.5 -83q0 -53 -35 -84.5t-88 -31.5t-86 31t-33 84t33 84t86 31zM281 748q-20 0 -33.5 -12.5t-13.5 -33.5t12 -34t35 -13q20 0 33 13t13 34t-13 33.5t-33 12.5z
M281 557q99 0 151.5 -48.5t52.5 -145.5v-363h-101l-26 74h-3q-32 -44 -67.5 -64t-96.5 -20q-71 0 -112.5 46t-41.5 126q0 87 56 129t166 46l85 3v24q0 85 -76 85q-34 0 -68.5 -10.5t-70.5 -28.5l-44 99q41 23 91.5 35.5t104.5 12.5zM293 251q-60 -2 -85.5 -25t-25.5 -62
q0 -35 17.5 -51t46.5 -16q41 0 69.5 29t28.5 81v46z" />
    <glyph glyph-name="AEacute" unicode="&#x1fc;" horiz-adv-x="857" 
d="M804 0h-387v171h-202l-64 -171h-152l283 714h522v-122h-242v-160h226v-122h-226v-187h242v-123zM261 295h156v294h-47zM643 924q-17 -18 -47 -46.5t-62.5 -56.5t-56.5 -47h-97v13q25 32 54 72.5t49 74.5h160v-10z" />
    <glyph glyph-name="aeacute" unicode="&#x1fd;" horiz-adv-x="836" 
d="M580 556q99 0 157.5 -65.5t58.5 -182.5v-72h-319q2 -66 33.5 -101.5t90.5 -35.5q86 0 166 42v-112q-37 -20 -78.5 -29.5t-97.5 -9.5q-62 0 -113.5 24.5t-83.5 74.5q-39 -51 -82 -75t-114 -24t-116 46t-45 126q0 87 55 129t161 46l84 3v34q0 75 -73 75q-33 0 -66.5 -10
t-68.5 -28l-44 98q40 22 88.5 35t100.5 13q101 0 149 -62q29 31 67 46t90 15zM578 451q-43 0 -69 -28t-30 -90h184q0 53 -22 85.5t-63 32.5zM289 251q-58 -2 -82.5 -24.5t-24.5 -62.5q0 -35 16.5 -51t44.5 -16q40 0 67 29t27 81v46zM619 756q-17 -18 -47 -46.5t-62.5 -56.5
t-56.5 -47h-97v13q25 32 54 72.5t49 74.5h160v-10z" />
    <glyph glyph-name="Oslashacute" unicode="&#x1fe;" horiz-adv-x="722" 
d="M669 358q0 -171 -76 -269.5t-232 -98.5q-86 0 -148 32l-41 -69l-75 46l44 75q-46 51 -67 123t-21 162q0 171 76 268.5t233 97.5q87 0 152 -35l38 63l74 -44l-43 -72q44 -48 65 -118.5t21 -160.5zM204 358q0 -44 5.5 -80t16.5 -65l220 362q-34 28 -84 28q-82 0 -120 -64
t-38 -181zM518 358q0 83 -20 137l-217 -359q32 -23 80 -23q82 0 119.5 64t37.5 181zM558 924q-17 -18 -47 -46.5t-62.5 -56.5t-56.5 -47h-97v13q25 32 54 72.5t49 74.5h160v-10z" />
    <glyph glyph-name="oslashacute" unicode="&#x1ff;" horiz-adv-x="571" 
d="M529 274q0 -135 -65 -209.5t-180 -74.5q-57 0 -104 22l-34 -58l-72 44l37 63q-34 40 -51.5 92.5t-17.5 120.5q0 136 65 209t180 73q60 0 109 -25l29 48l70 -45l-31 -54q31 -36 48 -88t17 -118zM184 274q0 -50 8 -82l143 236q-19 14 -50 14q-53 0 -77 -42t-24 -126z
M387 274q0 41 -6 73l-140 -232q18 -11 44 -11q54 0 78 43t24 127zM481 756q-17 -18 -47 -46.5t-62.5 -56.5t-56.5 -47h-97v13q25 32 54 72.5t49 74.5h160v-10z" />
    <glyph glyph-name="uni0200" unicode="&#x200;" horiz-adv-x="630" 
d="M473 0l-46 171h-223l-47 -171h-157l223 716h182l225 -716h-157zM349 469q-7 29 -17.5 69t-16.5 69q-4 -19 -10 -45.5t-12.5 -51.5t-10.5 -40l-47 -175h161zM380 934q13 -29 35.5 -70.5t45.5 -76.5v-13h-73q-24 19 -54 47.5t-56 56.5t-36 46v10h138zM197 934
q14 -31 36 -71.5t44 -75.5v-13h-74q-16 14 -37.5 33.5t-43 41.5t-39 42t-24.5 33v10h138z" />
    <glyph glyph-name="uni0201" unicode="&#x201;" horiz-adv-x="553" 
d="M281 557q99 0 151.5 -48.5t52.5 -145.5v-363h-101l-26 74h-3q-32 -44 -67.5 -64t-96.5 -20q-71 0 -112.5 46t-41.5 126q0 87 56 129t166 46l85 3v24q0 85 -76 85q-34 0 -68.5 -10.5t-70.5 -28.5l-44 99q41 23 91.5 35.5t104.5 12.5zM293 251q-60 -2 -85.5 -25t-25.5 -62
q0 -35 17.5 -51t46.5 -16q41 0 69.5 29t28.5 81v46zM344 766q13 -29 35.5 -70.5t45.5 -76.5v-13h-73q-24 19 -54 47.5t-56 56.5t-36 46v10h138zM161 766q14 -31 36 -71.5t44 -75.5v-13h-74q-16 14 -37.5 33.5t-43 41.5t-39 42t-24.5 33v10h138z" />
    <glyph glyph-name="uni0202" unicode="&#x202;" horiz-adv-x="630" 
d="M473 0l-46 171h-223l-47 -171h-157l223 716h182l225 -716h-157zM349 469q-7 29 -17.5 69t-16.5 69q-4 -19 -10 -45.5t-12.5 -51.5t-10.5 -40l-47 -175h161zM317 938q78 0 124 -43.5t49 -120.5h-82q-3 40 -28.5 52.5t-63.5 12.5q-33 0 -61 -13t-32 -52h-82q3 74 51.5 119
t124.5 45z" />
    <glyph glyph-name="uni0203" unicode="&#x203;" horiz-adv-x="553" 
d="M281 557q99 0 151.5 -48.5t52.5 -145.5v-363h-101l-26 74h-3q-32 -44 -67.5 -64t-96.5 -20q-71 0 -112.5 46t-41.5 126q0 87 56 129t166 46l85 3v24q0 85 -76 85q-34 0 -68.5 -10.5t-70.5 -28.5l-44 99q41 23 91.5 35.5t104.5 12.5zM293 251q-60 -2 -85.5 -25t-25.5 -62
q0 -35 17.5 -51t46.5 -16q41 0 69.5 29t28.5 81v46zM281 770q78 0 124 -43.5t49 -120.5h-82q-3 40 -28.5 52.5t-63.5 12.5q-33 0 -61 -13t-32 -52h-82q3 74 51.5 119t124.5 45z" />
    <glyph glyph-name="uni0204" unicode="&#x204;" horiz-adv-x="511" 
d="M458 0h-378v714h378v-121h-232v-161h216v-122h-216v-187h232v-123zM338 934q13 -29 35.5 -70.5t45.5 -76.5v-13h-73q-24 19 -54 47.5t-56 56.5t-36 46v10h138zM155 934q14 -31 36 -71.5t44 -75.5v-13h-74q-16 14 -37.5 33.5t-43 41.5t-39 42t-24.5 33v10h138z" />
    <glyph glyph-name="uni0205" unicode="&#x205;" horiz-adv-x="542" 
d="M278 556q105 0 165 -65.5t60 -182.5v-72h-319q2 -66 33.5 -101.5t91.5 -35.5q45 0 84 10t81 32v-112q-38 -20 -79.5 -29.5t-96.5 -9.5q-120 0 -188 71t-68 208q0 142 63.5 214.5t172.5 72.5zM279 451q-39 0 -64 -28t-28 -90h183q-1 53 -23 85.5t-68 32.5zM338 766
q13 -29 35.5 -70.5t45.5 -76.5v-13h-73q-24 19 -54 47.5t-56 56.5t-36 46v10h138zM155 766q14 -31 36 -71.5t44 -75.5v-13h-74q-16 14 -37.5 33.5t-43 41.5t-39 42t-24.5 33v10h138z" />
    <glyph glyph-name="uni0206" unicode="&#x206;" horiz-adv-x="511" 
d="M458 0h-378v714h378v-121h-232v-161h216v-122h-216v-187h232v-123zM275 938q78 0 124 -43.5t49 -120.5h-82q-3 40 -28.5 52.5t-63.5 12.5q-33 0 -61 -13t-32 -52h-82q3 74 51.5 119t124.5 45z" />
    <glyph glyph-name="uni0207" unicode="&#x207;" horiz-adv-x="542" 
d="M278 556q105 0 165 -65.5t60 -182.5v-72h-319q2 -66 33.5 -101.5t91.5 -35.5q45 0 84 10t81 32v-112q-38 -20 -79.5 -29.5t-96.5 -9.5q-120 0 -188 71t-68 208q0 142 63.5 214.5t172.5 72.5zM279 451q-39 0 -64 -28t-28 -90h183q-1 53 -23 85.5t-68 32.5zM275 770
q78 0 124 -43.5t49 -120.5h-82q-3 40 -28.5 52.5t-63.5 12.5q-33 0 -61 -13t-32 -52h-82q3 74 51.5 119t124.5 45z" />
    <glyph glyph-name="uni0208" unicode="&#x208;" horiz-adv-x="366" 
d="M335 0h-304v82l79 35v480l-79 35v82h304v-82l-79 -35v-480l79 -35v-82zM248 934q13 -29 35.5 -70.5t45.5 -76.5v-13h-73q-24 19 -54 47.5t-56 56.5t-36 46v10h138zM65 934q14 -31 36 -71.5t44 -75.5v-13h-74q-16 14 -37.5 33.5t-43 41.5t-39 42t-24.5 33v10h138z" />
    <glyph glyph-name="uni0209" unicode="&#x209;" horiz-adv-x="283" 
d="M212 0h-142v546h142v-546zM206 766q13 -29 35.5 -70.5t45.5 -76.5v-13h-73q-24 19 -54 47.5t-56 56.5t-36 46v10h138zM23 766q14 -31 36 -71.5t44 -75.5v-13h-74q-16 14 -37.5 33.5t-43 41.5t-39 42t-24.5 33v10h138z" />
    <glyph glyph-name="uni020A" unicode="&#x20a;" horiz-adv-x="366" 
d="M335 0h-304v82l79 35v480l-79 35v82h304v-82l-79 -35v-480l79 -35v-82zM185 938q78 0 124 -43.5t49 -120.5h-82q-3 40 -28.5 52.5t-63.5 12.5q-33 0 -61 -13t-32 -52h-82q3 74 51.5 119t124.5 45z" />
    <glyph glyph-name="uni020B" unicode="&#x20b;" horiz-adv-x="283" 
d="M212 0h-142v546h142v-546zM143 770q78 0 124 -43.5t49 -120.5h-82q-3 40 -28.5 52.5t-63.5 12.5q-33 0 -61 -13t-32 -52h-82q3 74 51.5 119t124.5 45z" />
    <glyph glyph-name="uni020C" unicode="&#x20c;" horiz-adv-x="722" 
d="M669 358q0 -112 -33 -194.5t-101.5 -128t-173.5 -45.5t-173.5 45.5t-101.5 128.5t-33 195q0 171 76 268.5t233 97.5q105 0 173 -45t101 -127.5t33 -194.5zM205 358q0 -116 37.5 -179.5t118.5 -63.5q82 0 118.5 63t36.5 180t-36.5 180.5t-117.5 63.5q-82 0 -119.5 -64
t-37.5 -180zM426 934q13 -29 35.5 -70.5t45.5 -76.5v-13h-73q-24 19 -54 47.5t-56 56.5t-36 46v10h138zM243 934q14 -31 36 -71.5t44 -75.5v-13h-74q-16 14 -37.5 33.5t-43 41.5t-39 42t-24.5 33v10h138z" />
    <glyph glyph-name="uni020D" unicode="&#x20d;" horiz-adv-x="571" 
d="M529 274q0 -85 -28 -149t-82.5 -99.5t-134.5 -35.5q-74 0 -128.5 35t-84 99t-29.5 150q0 132 63 207t182 75q71 0 126 -32.5t85.5 -95.5t30.5 -154zM186 274q0 -83 23.5 -125.5t76.5 -42.5q52 0 75 42.5t23 125.5t-23 124.5t-76 41.5q-52 0 -75.5 -41.5t-23.5 -124.5z
M351 766q13 -29 35.5 -70.5t45.5 -76.5v-13h-73q-24 19 -54 47.5t-56 56.5t-36 46v10h138zM168 766q14 -31 36 -71.5t44 -75.5v-13h-74q-16 14 -37.5 33.5t-43 41.5t-39 42t-24.5 33v10h138z" />
    <glyph glyph-name="uni020E" unicode="&#x20e;" horiz-adv-x="722" 
d="M669 358q0 -112 -33 -194.5t-101.5 -128t-173.5 -45.5t-173.5 45.5t-101.5 128.5t-33 195q0 171 76 268.5t233 97.5q105 0 173 -45t101 -127.5t33 -194.5zM205 358q0 -116 37.5 -179.5t118.5 -63.5q82 0 118.5 63t36.5 180t-36.5 180.5t-117.5 63.5q-82 0 -119.5 -64
t-37.5 -180zM363 938q78 0 124 -43.5t49 -120.5h-82q-3 40 -28.5 52.5t-63.5 12.5q-33 0 -61 -13t-32 -52h-82q3 74 51.5 119t124.5 45z" />
    <glyph glyph-name="uni020F" unicode="&#x20f;" horiz-adv-x="571" 
d="M529 274q0 -85 -28 -149t-82.5 -99.5t-134.5 -35.5q-74 0 -128.5 35t-84 99t-29.5 150q0 132 63 207t182 75q71 0 126 -32.5t85.5 -95.5t30.5 -154zM186 274q0 -83 23.5 -125.5t76.5 -42.5q52 0 75 42.5t23 125.5t-23 124.5t-76 41.5q-52 0 -75.5 -41.5t-23.5 -124.5z
M288 770q78 0 124 -43.5t49 -120.5h-82q-3 40 -28.5 52.5t-63.5 12.5q-33 0 -61 -13t-32 -52h-82q3 74 51.5 119t124.5 45z" />
    <glyph glyph-name="uni0210" unicode="&#x210;" horiz-adv-x="606" 
d="M273 714q136 0 201.5 -52.5t65.5 -158.5q0 -71 -34.5 -117.5t-87.5 -73.5l187 -312h-162l-150 276h-67v-276h-146v714h193zM266 593h-40v-199h43q64 0 93.5 26t29.5 77t-31 73.5t-95 22.5zM375 934q13 -29 35.5 -70.5t45.5 -76.5v-13h-73q-24 19 -54 47.5t-56 56.5
t-36 46v10h138zM192 934q14 -31 36 -71.5t44 -75.5v-13h-74q-16 14 -37.5 33.5t-43 41.5t-39 42t-24.5 33v10h138z" />
    <glyph glyph-name="uni0211" unicode="&#x211;" horiz-adv-x="415" 
d="M350 556q25 0 49 -5l-12 -139q-8 2 -20.5 3.5t-24.5 1.5q-53 0 -91.5 -33t-38.5 -106v-278h-142v546h109l20 -91h7q21 41 58 71t86 30zM297 766q13 -29 35.5 -70.5t45.5 -76.5v-13h-73q-24 19 -54 47.5t-56 56.5t-36 46v10h138zM114 766q14 -31 36 -71.5t44 -75.5v-13
h-74q-16 14 -37.5 33.5t-43 41.5t-39 42t-24.5 33v10h138z" />
    <glyph glyph-name="uni0212" unicode="&#x212;" horiz-adv-x="606" 
d="M273 714q136 0 201.5 -52.5t65.5 -158.5q0 -71 -34.5 -117.5t-87.5 -73.5l187 -312h-162l-150 276h-67v-276h-146v714h193zM266 593h-40v-199h43q64 0 93.5 26t29.5 77t-31 73.5t-95 22.5zM312 938q78 0 124 -43.5t49 -120.5h-82q-3 40 -28.5 52.5t-63.5 12.5
q-33 0 -61 -13t-32 -52h-82q3 74 51.5 119t124.5 45z" />
    <glyph glyph-name="uni0213" unicode="&#x213;" horiz-adv-x="415" 
d="M350 556q25 0 49 -5l-12 -139q-8 2 -20.5 3.5t-24.5 1.5q-53 0 -91.5 -33t-38.5 -106v-278h-142v546h109l20 -91h7q21 41 58 71t86 30zM234 770q78 0 124 -43.5t49 -120.5h-82q-3 40 -28.5 52.5t-63.5 12.5q-33 0 -61 -13t-32 -52h-82q3 74 51.5 119t124.5 45z" />
    <glyph glyph-name="uni0214" unicode="&#x214;" horiz-adv-x="685" 
d="M609 246q0 -116 -67 -186t-202 -70q-129 0 -196.5 68t-67.5 188v468h146v-452q0 -81 30.5 -114t90.5 -33q63 0 92 35t29 113v451h145v-468zM407 934q13 -29 35.5 -70.5t45.5 -76.5v-13h-73q-24 19 -54 47.5t-56 56.5t-36 46v10h138zM224 934q14 -31 36 -71.5t44 -75.5
v-13h-74q-16 14 -37.5 33.5t-43 41.5t-39 42t-24.5 33v10h138z" />
    <glyph glyph-name="uni0215" unicode="&#x215;" horiz-adv-x="600" 
d="M530 546v-546h-110l-18 70h-8q-23 -41 -63 -60.5t-87 -19.5q-83 0 -129.5 49.5t-46.5 150.5v356h142v-318q0 -60 17.5 -90t57.5 -30q61 0 82 45t21 129v264h142zM365 766q13 -29 35.5 -70.5t45.5 -76.5v-13h-73q-24 19 -54 47.5t-56 56.5t-36 46v10h138zM182 766
q14 -31 36 -71.5t44 -75.5v-13h-74q-16 14 -37.5 33.5t-43 41.5t-39 42t-24.5 33v10h138z" />
    <glyph glyph-name="uni0216" unicode="&#x216;" horiz-adv-x="685" 
d="M609 246q0 -116 -67 -186t-202 -70q-129 0 -196.5 68t-67.5 188v468h146v-452q0 -81 30.5 -114t90.5 -33q63 0 92 35t29 113v451h145v-468zM344 938q78 0 124 -43.5t49 -120.5h-82q-3 40 -28.5 52.5t-63.5 12.5q-33 0 -61 -13t-32 -52h-82q3 74 51.5 119t124.5 45z" />
    <glyph glyph-name="uni0217" unicode="&#x217;" horiz-adv-x="600" 
d="M530 546v-546h-110l-18 70h-8q-23 -41 -63 -60.5t-87 -19.5q-83 0 -129.5 49.5t-46.5 150.5v356h142v-318q0 -60 17.5 -90t57.5 -30q61 0 82 45t21 129v264h142zM302 770q78 0 124 -43.5t49 -120.5h-82q-3 40 -28.5 52.5t-63.5 12.5q-33 0 -61 -13t-32 -52h-82
q3 74 51.5 119t124.5 45z" />
    <glyph glyph-name="uni0218" unicode="&#x218;" horiz-adv-x="510" 
d="M473 202q0 -96 -64 -154t-179 -58q-52 0 -99.5 10t-89.5 32v140q46 -23 96 -39.5t98 -16.5q49 0 71.5 21.5t22.5 54.5q0 38 -32 62.5t-92 55.5q-36 19 -72.5 44.5t-60.5 65.5t-24 102q-1 94 60 148t167 54q52 0 99 -12.5t97 -35.5l-45 -119q-44 20 -80 30.5t-72 10.5
q-40 0 -61 -19.5t-21 -51.5q0 -25 12.5 -42.5t39 -34t70.5 -38.5q51 -26 86.5 -54.5t54 -65.5t18.5 -90zM326 -71q-13 -35 -32.5 -74t-42.5 -76h-86v13q5 19 10.5 45.5t10 53.5t6.5 48h134v-10z" />
    <glyph glyph-name="uni0219" unicode="&#x219;" horiz-adv-x="452" 
d="M418 161q0 -83 -54 -127t-158 -44q-50 0 -89.5 7.5t-76.5 24.5v124q37 -20 82 -33t83 -13t55 13t17 36q0 13 -7 24.5t-29 25t-69 34.5q-67 31 -100 67.5t-33 102.5q0 75 53.5 114t144.5 39q47 0 89 -10.5t86 -32.5l-42 -104q-34 17 -66 28t-66 11q-59 0 -59 -39
q0 -13 7.5 -23.5t29 -23t64.5 -31.5q42 -20 73 -41.5t48 -52t17 -76.5zM302 -71q-13 -35 -32.5 -74t-42.5 -76h-86v13q5 19 10.5 45.5t10 53.5t6.5 48h134v-10z" />
    <glyph glyph-name="uni021A" unicode="&#x21a;" horiz-adv-x="524" 
d="M335 0h-146v591h-171v123h488v-123h-171v-591zM343 -71q-13 -35 -32.5 -74t-42.5 -76h-86v13q5 19 10.5 45.5t10 53.5t6.5 48h134v-10z" />
    <glyph glyph-name="uni021B" unicode="&#x21b;" horiz-adv-x="391" 
d="M283 107q20 0 40.5 4.5t41.5 11.5v-108q-24 -11 -55.5 -18t-69.5 -7q-72 0 -114.5 39.5t-42.5 138.5v268h-64v65l75 45l39 116h92v-116h133v-110h-133v-266q0 -63 58 -63zM302 -71q-13 -35 -32.5 -74t-42.5 -76h-86v13q5 19 10.5 45.5t10 53.5t6.5 48h134v-10z" />
    <glyph glyph-name="uni021C" unicode="&#x21c;" horiz-adv-x="563" 
d="M41 -54q103 26 168.5 53t101.5 56.5t50 62.5t14 71q0 48 -19 78.5t-52 50.5q-32 -11 -67.5 -21t-73.5 -19l-26 108q109 27 166.5 55.5t57.5 80.5q0 42 -27 62t-73 20q-45 0 -87 -14.5t-81 -41.5l-62 99q54 40 116 58.5t131 18.5q100 0 163 -47t63 -147q0 -51 -24.5 -89.5
t-67.5 -68.5q45 -26 77 -70t32 -113q0 -92 -50.5 -160.5t-156.5 -119t-273 -89.5v126z" />
    <glyph glyph-name="uni021D" unicode="&#x21d;" horiz-adv-x="475" 
d="M26 -125q145 32 210 75t65 114q0 38 -13 65t-39 47q-50 -20 -115 -36l-27 103q101 25 141 53.5t40 71.5q0 36 -24 52.5t-60 16.5q-37 0 -70.5 -10t-65.5 -25l-41 107q44 23 90.5 35t97.5 12q60 0 107 -19.5t74 -58.5t27 -98q0 -47 -20 -84t-57 -66q41 -24 66.5 -64.5
t25.5 -101.5q0 -70 -30.5 -119.5t-86 -83.5t-131 -58t-164.5 -43v115z" />
    <glyph glyph-name="uni021E" unicode="&#x21e;" horiz-adv-x="697" 
d="M616 0h-146v309h-244v-309h-146v714h146v-281h244v281h146v-714zM272 774q-12 21 -32.5 48.5t-42.5 53.5t-39 45v13h92q22 -16 48 -37t50 -47q25 27 51 47.5t49 36.5h91v-13q-16 -18 -38 -44.5t-42 -53.5t-33 -49h-154z" />
    <glyph glyph-name="uni021F" unicode="&#x21f;" horiz-adv-x="600" 
d="M212 600q0 -37 -2.5 -70.5t-5.5 -53.5h8q22 41 59 60.5t84 19.5q82 0 129.5 -48.5t47.5 -149.5v-358h-142v321q0 117 -75 117q-59 0 -81 -45t-22 -134v-259h-142v760h142v-160zM66 820q-12 21 -32.5 48.5t-42.5 53.5t-39 45v13h92q22 -16 48 -37t50 -47q25 27 51 47.5
t49 36.5h91v-13q-16 -18 -38 -44.5t-42 -53.5t-33 -49h-154z" />
    <glyph glyph-name="uni0220" unicode="&#x220;" horiz-adv-x="690" 
d="M409 725q93 0 149 -52.5t56 -167.5v-745h-145v708q0 66 -25.5 99.5t-82.5 33.5q-70 0 -102.5 -49t-32.5 -140v-412h-146v714h116l21 -85h4q32 47 81 71t107 25z" />
    <glyph glyph-name="uni0221" unicode="&#x221;" horiz-adv-x="808" 
d="M451 -100q1 36 5.5 67.5t10.5 59.5q-20 10 -33 27t-16 31h-5q-21 -41 -61.5 -68t-107.5 -27q-96 0 -149 72t-53 211q0 138 52 210.5t139 72.5q50 0 85.5 -21.5t57.5 -58.5h5q-3 25 -6 54t-3 50v180h142v-540q0 -34 8 -58q30 46 68.5 67t82.5 20q64 0 98.5 -32t34.5 -80
q0 -37 -17.5 -68.5t-59 -50.5t-113.5 -19q-11 0 -23 0.5t-22 1.5q-4 -23 -6.5 -50t-4.5 -56zM279 105q53 0 76 37t24 114v21q0 80 -22.5 120.5t-78.5 40.5q-45 0 -68.5 -42.5t-23.5 -123.5q0 -83 24 -125t69 -42zM627 96q70 0 70 30q0 12 -9.5 18.5t-24.5 6.5
q-21 0 -36.5 -14t-27.5 -39q12 -2 28 -2z" />
    <glyph glyph-name="uni0222" unicode="&#x222;" horiz-adv-x="703" 
d="M351 -10q-154 0 -228 69t-74 185q0 69 31.5 119.5t94.5 78.5q-51 28 -72 75t-21 114v83h146v-85q0 -65 30 -99t94 -34q65 0 94 34t29 100v84h146v-81q0 -67 -22 -114.5t-72 -76.5q64 -28 95 -78.5t31 -119.5q0 -116 -73.5 -185t-228.5 -69zM351 115q79 0 114 33.5
t35 96.5q0 62 -35 96t-113 34t-114 -34t-36 -96t36 -96t113 -34z" />
    <glyph glyph-name="uni0223" unicode="&#x223;" horiz-adv-x="582" 
d="M290 -10q-75 0 -131 31.5t-86.5 89.5t-30.5 137q0 150 117 206q-49 25 -69 71t-20 117v120h142v-123q0 -66 17.5 -97t61.5 -31t62 32t18 95v124h142v-122q0 -69 -22 -114.5t-71 -70.5q57 -26 89 -77.5t32 -127.5q0 -119 -65.5 -189.5t-185.5 -70.5zM292 106
q104 0 104 146t-105 146t-105 -147q0 -145 106 -145z" />
    <glyph glyph-name="uni0224" unicode="&#x224;" horiz-adv-x="524" 
d="M338 -233q-25 0 -48.5 3t-39.5 8v115q14 -5 26.5 -7t27.5 -2q26 0 41.5 16.5t15.5 60.5v39h-337v98l301 494h-294v122h462v-98l-301 -493h309v-176q0 -80 -40 -130t-123 -50z" />
    <glyph glyph-name="uni0225" unicode="&#x225;" horiz-adv-x="441" 
d="M407 546v-93l-216 -341h231v-184q0 -85 -33 -123.5t-99 -38.5q-24 0 -43.5 3.5t-35.5 8.5v102q22 -8 44 -8q24 0 35 13.5t11 47.5v67h-277v85l223 349h-209v112h369z" />
    <glyph glyph-name="uni0226" unicode="&#x226;" horiz-adv-x="630" 
d="M473 0l-46 171h-223l-47 -171h-157l223 716h182l225 -716h-157zM349 469q-7 29 -17.5 69t-16.5 69q-4 -19 -10 -45.5t-12.5 -51.5t-10.5 -40l-47 -175h161zM319 929q35 0 56.5 -17t21.5 -57q0 -39 -22 -56t-56 -17t-55.5 17t-21.5 56q0 40 21 57t56 17z" />
    <glyph glyph-name="uni0227" unicode="&#x227;" horiz-adv-x="553" 
d="M281 557q99 0 151.5 -48.5t52.5 -145.5v-363h-101l-26 74h-3q-32 -44 -67.5 -64t-96.5 -20q-71 0 -112.5 46t-41.5 126q0 87 56 129t166 46l85 3v24q0 85 -76 85q-34 0 -68.5 -10.5t-70.5 -28.5l-44 99q41 23 91.5 35.5t104.5 12.5zM293 251q-60 -2 -85.5 -25t-25.5 -62
q0 -35 17.5 -51t46.5 -16q41 0 69.5 29t28.5 81v46zM283 761q35 0 56.5 -17t21.5 -57q0 -39 -22 -56t-56 -17t-55.5 17t-21.5 56q0 40 21 57t56 17z" />
    <glyph glyph-name="uni0228" unicode="&#x228;" horiz-adv-x="511" 
d="M458 0h-378v714h378v-121h-232v-161h216v-122h-216v-187h232v-123zM385 -125q0 -55 -32.5 -85t-108.5 -30q-22 0 -39.5 2.5t-32.5 6.5v80q14 -4 31.5 -6.5t31.5 -2.5q17 0 28 7.5t11 24.5q0 19 -18 32t-59 18l37 78h83l-14 -34q34 -9 58 -31.5t24 -59.5z" />
    <glyph glyph-name="uni0229" unicode="&#x229;" horiz-adv-x="542" 
d="M278 556q105 0 165 -65.5t60 -182.5v-72h-319q2 -66 33.5 -101.5t91.5 -35.5q45 0 84 10t81 32v-112q-38 -20 -79.5 -29.5t-96.5 -9.5q-120 0 -188 71t-68 208q0 142 63.5 214.5t172.5 72.5zM279 451q-39 0 -64 -28t-28 -90h183q-1 53 -23 85.5t-68 32.5zM388 -125
q0 -55 -32.5 -85t-108.5 -30q-22 0 -39.5 2.5t-32.5 6.5v80q14 -4 31.5 -6.5t31.5 -2.5q17 0 28 7.5t11 24.5q0 19 -18 32t-59 18l37 78h83l-14 -34q34 -9 58 -31.5t24 -59.5z" />
    <glyph glyph-name="uni022A" unicode="&#x22a;" horiz-adv-x="722" 
d="M516 1019v-89h-310v89h310zM266 887q26 0 43.5 -15t17.5 -45q0 -29 -17.5 -44t-43.5 -15q-27 0 -43.5 15t-16.5 44q0 30 16.5 45t43.5 15zM455 887q26 0 43.5 -15t17.5 -45q0 -29 -17.5 -44t-43.5 -15q-27 0 -43.5 15t-16.5 44q0 30 16.5 45t43.5 15zM669 358
q0 -112 -33 -194.5t-101.5 -128t-173.5 -45.5t-173.5 45.5t-101.5 128.5t-33 195q0 171 76 268.5t233 97.5q105 0 173 -45t101 -127.5t33 -194.5zM205 358q0 -116 37.5 -179.5t118.5 -63.5q82 0 118.5 63t36.5 180t-36.5 180.5t-117.5 63.5q-82 0 -119.5 -64t-37.5 -180z
" />
    <glyph glyph-name="uni022B" unicode="&#x22b;" horiz-adv-x="571" 
d="M441 851v-89h-310v89h310zM191 720q26 0 43.5 -15t17.5 -46q0 -29 -17.5 -44t-43.5 -15q-28 0 -44 15t-16 44q0 31 16 46t44 15zM380 720q26 0 43.5 -15t17.5 -46q0 -29 -17.5 -44t-43.5 -15q-27 0 -43.5 15t-16.5 44q0 31 16.5 46t43.5 15zM529 274q0 -85 -28 -149
t-82.5 -99.5t-134.5 -35.5q-74 0 -128.5 35t-84 99t-29.5 150q0 132 63 207t182 75q71 0 126 -32.5t85.5 -95.5t30.5 -154zM186 274q0 -83 23.5 -125.5t76.5 -42.5q52 0 75 42.5t23 125.5t-23 124.5t-76 41.5q-52 0 -75.5 -41.5t-23.5 -124.5z" />
    <glyph glyph-name="uni022C" unicode="&#x22c;" horiz-adv-x="722" 
d="M206 925v90h310v-90h-310zM198 773q4 48 28 81t70 33q30 0 52.5 -11t41 -22t36.5 -11q17 0 26 11.5t13 32.5h59q-5 -48 -28 -81t-71 -33q-27 0 -49.5 11t-41.5 22t-36 11q-18 0 -26.5 -10.5t-14.5 -33.5h-59zM669 358q0 -112 -33 -194.5t-101.5 -128t-173.5 -45.5
t-173.5 45.5t-101.5 128.5t-33 195q0 171 76 268.5t233 97.5q105 0 173 -45t101 -127.5t33 -194.5zM205 358q0 -116 37.5 -179.5t118.5 -63.5q82 0 118.5 63t36.5 180t-36.5 180.5t-117.5 63.5q-82 0 -119.5 -64t-37.5 -180z" />
    <glyph glyph-name="uni022D" unicode="&#x22d;" horiz-adv-x="571" 
d="M131 758v89h310v-89h-310zM123 606q4 48 28 81t70 33q30 0 52.5 -11.5t41 -22.5t36.5 -11q17 0 26 11.5t13 32.5h59q-5 -48 -28 -80.5t-71 -32.5q-27 0 -50 11t-41.5 22t-35.5 11q-18 0 -26.5 -10.5t-14.5 -33.5h-59zM529 274q0 -85 -28 -149t-82.5 -99.5t-134.5 -35.5
q-74 0 -128.5 35t-84 99t-29.5 150q0 132 63 207t182 75q71 0 126 -32.5t85.5 -95.5t30.5 -154zM186 274q0 -83 23.5 -125.5t76.5 -42.5q52 0 75 42.5t23 125.5t-23 124.5t-76 41.5q-52 0 -75.5 -41.5t-23.5 -124.5z" />
    <glyph glyph-name="uni022E" unicode="&#x22e;" horiz-adv-x="722" 
d="M669 358q0 -112 -33 -194.5t-101.5 -128t-173.5 -45.5t-173.5 45.5t-101.5 128.5t-33 195q0 171 76 268.5t233 97.5q105 0 173 -45t101 -127.5t33 -194.5zM205 358q0 -116 37.5 -179.5t118.5 -63.5q82 0 118.5 63t36.5 180t-36.5 180.5t-117.5 63.5q-82 0 -119.5 -64
t-37.5 -180zM365 929q35 0 56.5 -17t21.5 -57q0 -39 -22 -56t-56 -17t-55.5 17t-21.5 56q0 40 21 57t56 17z" />
    <glyph glyph-name="uni022F" unicode="&#x22f;" horiz-adv-x="571" 
d="M529 274q0 -85 -28 -149t-82.5 -99.5t-134.5 -35.5q-74 0 -128.5 35t-84 99t-29.5 150q0 132 63 207t182 75q71 0 126 -32.5t85.5 -95.5t30.5 -154zM186 274q0 -83 23.5 -125.5t76.5 -42.5q52 0 75 42.5t23 125.5t-23 124.5t-76 41.5q-52 0 -75.5 -41.5t-23.5 -124.5z
M290 761q35 0 56.5 -17t21.5 -57q0 -39 -22 -56t-56 -17t-55.5 17t-21.5 56q0 40 21 57t56 17z" />
    <glyph glyph-name="uni0230" unicode="&#x230;" horiz-adv-x="722" 
d="M517 1019v-92h-312v92h312zM361 887q28 0 45.5 -15.5t17.5 -46.5q0 -29 -17.5 -44.5t-45.5 -15.5q-29 0 -46 15.5t-17 44.5q0 31 17 46.5t46 15.5zM669 358q0 -112 -33 -194.5t-101.5 -128t-173.5 -45.5t-173.5 45.5t-101.5 128.5t-33 195q0 171 76 268.5t233 97.5
q105 0 173 -45t101 -127.5t33 -194.5zM205 358q0 -116 37.5 -179.5t118.5 -63.5q82 0 118.5 63t36.5 180t-36.5 180.5t-117.5 63.5q-82 0 -119.5 -64t-37.5 -180z" />
    <glyph glyph-name="uni0231" unicode="&#x231;" horiz-adv-x="571" 
d="M440 851v-90h-309v90h309zM286 722q26 0 43.5 -15.5t17.5 -45.5q0 -29 -17.5 -44.5t-43.5 -15.5q-28 0 -44 15.5t-16 44.5q0 30 16 45.5t44 15.5zM529 274q0 -85 -28 -149t-82.5 -99.5t-134.5 -35.5q-74 0 -128.5 35t-84 99t-29.5 150q0 132 63 207t182 75
q71 0 126 -32.5t85.5 -95.5t30.5 -154zM186 274q0 -83 23.5 -125.5t76.5 -42.5q52 0 75 42.5t23 125.5t-23 124.5t-76 41.5q-52 0 -75.5 -41.5t-23.5 -124.5z" />
    <glyph glyph-name="uni0232" unicode="&#x232;" horiz-adv-x="569" 
d="M285 421l129 293h155l-212 -437v-277h-145v272l-212 442h156zM440 878v-100h-311v100h311z" />
    <glyph glyph-name="uni0233" unicode="&#x233;" horiz-adv-x="523" 
d="M1 546h153l89 -291q7 -24 11.5 -49t6.5 -50h4q2 25 7.5 48.5t12.5 49.5l86 292h151l-206 -610q-30 -91 -83 -133.5t-127 -42.5q-22 0 -39.5 2.5t-31.5 5.5v117q10 -3 24 -4.5t28 -1.5q40 0 63 25t37 72l9 29zM417 710v-100h-311v100h311z" />
    <glyph glyph-name="uni0234" unicode="&#x234;" horiz-adv-x="420" 
d="M24 -2q15 33 29.5 61.5t29.5 50.5q-6 14 -7 35t-1 44v573h142v-527q12 7 30 11t36 4q61 0 95.5 -34t34.5 -95q0 -59 -39.5 -95t-115.5 -36q-39 0 -70.5 8.5t-52.5 25.5q-8 -13 -15 -28t-15 -34zM270 80q21 0 31.5 11.5t10.5 28.5q0 40 -42 40q-31 0 -54 -21q5 -59 54 -59
z" />
    <glyph glyph-name="uni0235" unicode="&#x235;" horiz-adv-x="722" 
d="M327 -1q15 32 29.5 60.5t28.5 50.5q-5 14 -6.5 35t-1.5 44v132q0 58 -16 87.5t-53 29.5q-55 0 -75.5 -44t-20.5 -135v-259h-142v546h110l18 -70h8q22 41 60.5 60.5t84.5 19.5q77 0 122.5 -48t45.5 -150v-123q29 16 67 16q60 0 95 -34t35 -96q0 -59 -40 -95t-115 -36
q-40 0 -71 8t-52 26q-8 -13 -15 -27.5t-16 -33.5zM573 80q20 0 31 11.5t11 28.5q0 21 -11.5 31t-30.5 10q-30 0 -54 -21q4 -60 54 -60z" />
    <glyph glyph-name="uni0236" unicode="&#x236;" horiz-adv-x="430" 
d="M35 -1q15 33 29.5 61t29.5 50q-6 14 -7 35t-1 45v246h-65v65l75 45l39 116h93v-116h132v-110h-132v-201q28 16 66 16q61 0 95.5 -34t34.5 -96q0 -59 -40 -95t-115 -36q-40 0 -71 8.5t-52 26.5q-8 -14 -15 -28.5t-15 -33.5zM281 80q21 0 32 11.5t11 28.5q0 21 -12 31
t-31 10q-30 0 -54 -21q4 -60 54 -60z" />
    <glyph glyph-name="uni0237" unicode="&#x237;" horiz-adv-x="283" 
d="M37 -240q-22 0 -47 3.5t-41 8.5v115q15 -5 29 -7t31 -2q27 0 44 17t17 61v590h142v-605q0 -79 -41.5 -130t-133.5 -51z" />
    <glyph glyph-name="uni0238" unicode="&#x238;" horiz-adv-x="887" 
d="M276 -10q-113 0 -173.5 76.5t-60.5 207.5q0 137 51.5 209t136.5 72q51 0 85.5 -22t56.5 -58h6q-2 26 -4 51t-2 52v182h142v-182q0 -27 -1.5 -52.5t-3.5 -50.5h6q21 36 55.5 58t85.5 22q86 0 137.5 -72t51.5 -209q0 -131 -62.5 -207.5t-174.5 -76.5q-113 0 -166 92
q-53 -92 -166 -92zM278 106q49 0 71.5 39.5t22.5 129.5q0 86 -22 125t-74 39q-43 0 -66.5 -41.5t-23.5 -123.5q0 -88 23.5 -128t68.5 -40zM608 106q45 0 68.5 40t23.5 128q0 83 -23.5 124t-66.5 41q-53 0 -74.5 -40.5t-21.5 -123.5q0 -91 23 -130t71 -39z" />
    <glyph glyph-name="uni0239" unicode="&#x239;" horiz-adv-x="887" 
d="M611 556q113 0 173.5 -76t60.5 -207q0 -138 -51.5 -210t-136.5 -72q-52 0 -86.5 22t-55.5 58h-6q2 -25 3.5 -50.5t1.5 -51.5v-199h-142v199q0 26 2 51.5t4 51.5h-6q-22 -37 -56.5 -59t-85.5 -22q-85 0 -136.5 72t-51.5 210q0 130 62 206.5t175 76.5t165 -92q53 92 167 92
zM278 440q-45 0 -68.5 -40t-23.5 -128q0 -82 24 -123t67 -41q53 0 74 40t21 123q0 91 -22.5 130t-71.5 39zM608 440q-49 0 -71.5 -39.5t-22.5 -129.5q0 -85 22 -124t74 -39q43 0 66.5 41t23.5 123q0 88 -23.5 128t-68.5 40z" />
    <glyph glyph-name="uni023A" unicode="&#x23a;" horiz-adv-x="630" 
d="M473 0l-46 171h-114l-71 -246h-81l71 246h-28l-47 -171h-157l223 716h168l12 44h81l-44 -154l190 -606h-157zM235 295h33l67 229q-6 22 -11 44t-9 39q-4 -19 -10 -45.5t-12.5 -51.5t-10.5 -40zM396 295l-23 83l-24 -83h47z" />
    <glyph glyph-name="uni023B" unicode="&#x23b;" horiz-adv-x="581" 
d="M508 760l-17 -59q30 -10 59 -25l-46 -119q-11 6 -23 12t-24 10l-130 -462q18 -4 38 -4q39 0 78 10.5t82 27.5v-125q-41 -18 -83 -27t-93 -9q-30 0 -57 4l-19 -69h-81l26 91q-83 38 -124 126t-41 214q0 107 35 190.5t103.5 130.5t167.5 47q28 0 56 -4l12 40h81zM362 601
q-78 0 -118.5 -67.5t-40.5 -178.5q0 -138 54 -198l125 443q-10 1 -20 1z" />
    <glyph glyph-name="uni023C" unicode="&#x23c;" horiz-adv-x="472" 
d="M278 -10q-17 0 -34 2l-56 -200h-81l62 218q-63 27 -95 91t-32 169q0 141 65 213.5t180 72.5q18 0 35 -1l58 205h80l-62 -220q24 -8 46 -20l-41 -111q-20 9 -37 15l-89 -315q7 -1 15 -1q39 0 72.5 11.5t64.5 32.5v-121q-31 -21 -66.5 -31t-84.5 -10zM186 271
q0 -75 24 -116l80 284q-104 -1 -104 -168z" />
    <glyph glyph-name="uni023D" unicode="&#x23d;" horiz-adv-x="507" 
d="M80 0v303h-62v107h62v304h146v-304h117v-107h-117v-180h254v-123h-400z" />
    <glyph glyph-name="uni023E" unicode="&#x23e;" horiz-adv-x="524" 
d="M335 0h-146v43l-52 -118h-71l123 277v389h-171v123h401l20 46h71l-20 -46h16v-123h-71l-100 -224v-367zM335 591v-65l28 65h-28z" />
    <glyph glyph-name="uni023F" unicode="&#x23f;" horiz-adv-x="452" 
d="M316 -240q-55 0 -87.5 19t-52 53.5t-35.5 79.5q-14 43 -31 64.5t-49 35.5q-6 3 -11.5 5.5t-9.5 5.5v123q37 -20 82 -33t83 -13t55 13t17 36q0 13 -7 24t-29 25t-69 35q-67 31 -100 67.5t-33 102.5q0 75 53.5 114t144.5 39q47 0 89 -10.5t86 -32.5l-42 -104q-34 17 -66 28
t-66 11q-59 0 -59 -39q0 -13 7.5 -23.5t29 -23t64.5 -31.5q42 -20 73 -41.5t48 -52t17 -76.5q0 -76 -46 -119.5t-134 -50.5q14 -17 23 -43q15 -42 34 -58.5t48 -16.5q15 0 28 2.5t25 6.5v-109q-14 -6 -36 -9.5t-44 -3.5z" />
    <glyph glyph-name="uni0240" unicode="&#x240;" horiz-adv-x="440" 
d="M365 -240q-58 0 -93 20.5t-55 55t-33 76.5q-13 43 -33.5 65.5t-65.5 22.5h-61v85l223 349h-210v112h370v-93l-226 -352q54 -11 82.5 -48t41.5 -78q20 -59 41 -79t48 -20q31 0 59 9v-112q-16 -6 -40.5 -9.5t-47.5 -3.5z" />
    <glyph glyph-name="Glottalstopcased" unicode="&#x241;" horiz-adv-x="448" 
d="M202 725q69 0 118.5 -26t76 -72.5t26.5 -106.5q0 -85 -41.5 -147.5t-126.5 -113.5v-259h-142v316q65 29 100.5 61.5t49 66.5t13.5 68q0 43 -25.5 68t-64.5 25q-38 0 -74 -14t-60 -30l-50 106q93 58 200 58z" />
    <glyph glyph-name="glottalstopcased" unicode="&#x242;" horiz-adv-x="452" 
d="M202 556q103 0 160 -57t57 -148q0 -85 -41 -143.5t-126 -106.5v-101h-140v158q66 27 101 57t48.5 62.5t13.5 66.5q0 42 -26.5 67.5t-64.5 25.5q-39 0 -73.5 -14t-58.5 -31l-50 106q46 29 95.5 43.5t104.5 14.5z" />
    <glyph glyph-name="uni0243" unicode="&#x243;" horiz-adv-x="619" 
d="M80 0v174h-70v90h70v450h210q131 0 197.5 -41.5t66.5 -137.5q0 -62 -28 -104t-78 -52v-5q55 -13 88.5 -51t33.5 -116q0 -97 -65 -152t-178 -55h-247zM301 429q57 0 80.5 22t23.5 64q0 79 -110 79h-69v-165h75zM312 121q58 0 82.5 27t24.5 74q0 42 -25.5 68t-86.5 26h-81
v-52h100v-90h-100v-53h86z" />
    <glyph glyph-name="uni0244" unicode="&#x244;" horiz-adv-x="685" 
d="M1 333v116h75v265h146v-265h242v265h145v-265h75v-116h-75v-87q0 -116 -67 -186t-202 -70q-129 0 -196.5 68t-67.5 188v87h-75zM222 262q0 -81 30.5 -114t90.5 -33q63 0 92 35t29 113v70h-242v-71z" />
    <glyph glyph-name="uni0245" unicode="&#x245;" horiz-adv-x="617" 
d="M0 0l217 716h182l218 -716h-157l-120 469q-7 29 -16 69t-15 69q-4 -19 -10 -45.5t-11.5 -51.5t-9.5 -40l-121 -470h-157z" />
    <glyph glyph-name="uni0246" unicode="&#x246;" horiz-adv-x="511" 
d="M458 0h-177l-15 -75h-80l16 75h-122v714h266l9 46h79l-9 -46h33v-121h-58l-32 -161h74v-122h-99l-37 -187h152v-123zM226 432h63l32 161h-95v-161zM226 123v0l38 187h-38v-187z" />
    <glyph glyph-name="uni0247" unicode="&#x247;" horiz-adv-x="542" 
d="M131 -52l-71 41l44 78q-30 35 -46 86t-16 116q0 142 63.5 214.5t172.5 72.5q53 0 95 -17l30 51l71 -41l-32 -57q61 -65 61 -184v-72h-207l-65 -114q30 -23 78 -23q45 0 84 10t81 32v-112q-38 -20 -79.5 -29.5t-96.5 -9.5q-73 0 -128 26zM279 451q-39 0 -64 -28t-28 -90
h69l63 110q-18 8 -40 8zM370 333q0 16 -2 29l-17 -29h19zM184 236q1 -13 2 -25l14 25h-16z" />
    <glyph glyph-name="uni0248" unicode="&#x248;" horiz-adv-x="306" 
d="M17 -211q-26 0 -47 3t-37 8v123q14 -4 30 -7t35 -3q38 0 60.5 25.5t22.5 101.5v259h-79v116h79v299h145v-299h79v-116h-79v-258q0 -92 -25.5 -147.5t-72.5 -80t-111 -24.5z" />
    <glyph glyph-name="uni0249" unicode="&#x249;" horiz-adv-x="283" 
d="M64 687q0 40 21.5 57t56.5 17q34 0 55.5 -17t21.5 -57q0 -39 -22 -56t-55 -17q-34 0 -56 17t-22 56zM37 -240q-23 0 -46.5 3t-41.5 9v115q15 -5 29 -7t31 -2q27 0 44 17t17 63v273h-70v96h70v219h142v-219h70v-96h-70v-290q0 -82 -41.5 -131.5t-133.5 -49.5z" />
    <glyph glyph-name="uni024A" unicode="&#x24a;" horiz-adv-x="708" 
d="M299 725q66 0 108.5 -24.5t67.5 -63.5h5l19 77h128v-775q0 -32 14 -46.5t36 -14.5q16 0 30.5 3.5t21.5 6.5v-113q-11 -5 -33.5 -10t-46.5 -5q-79 0 -122.5 41t-43.5 135v39v56t1 56h-7q-29 -44 -70 -70.5t-109 -26.5q-69 0 -124.5 41.5t-88 123t-32.5 202.5t33 203
t89 123.5t124 41.5zM343 600q-61 0 -99.5 -62.5t-38.5 -182.5q0 -123 39 -181.5t101 -58.5q66 0 102 60t36 185v24q0 105 -34 160.5t-106 55.5z" />
    <glyph glyph-name="uni024B" unicode="&#x24b;" horiz-adv-x="584" 
d="M233 556q53 0 86.5 -21t56.5 -59h5l12 70h121v-607q0 -29 13.5 -45t36.5 -16q15 0 26.5 2.5t25.5 7.5v-113q-16 -8 -39.5 -11.5t-48.5 -3.5q-86 0 -121 48t-35 128v37q0 19 2 45.5t4 53.5h-6q-21 -38 -55.5 -60t-86.5 -22q-86 0 -137 72.5t-51 208.5q0 139 52.5 212
t138.5 73zM278 438q-92 0 -92 -169q0 -163 94 -163q53 0 75.5 36t23.5 111v21q0 82 -22.5 123t-78.5 41z" />
    <glyph glyph-name="uni024C" unicode="&#x24c;" horiz-adv-x="606" 
d="M273 714q136 0 201.5 -52.5t65.5 -158.5q0 -71 -34.5 -117.5t-87.5 -73.5l187 -312h-162l-150 276h-67v-276h-146v276h-72v118h72v320h193zM266 593h-40v-199h43q64 0 93.5 26t29.5 77t-31 73.5t-95 22.5z" />
    <glyph glyph-name="uni024D" unicode="&#x24d;" horiz-adv-x="415" 
d="M314 317v-96h-102v-221h-142v221h-68v96h68v229h109l20 -91h7q21 41 58 71t86 30q25 0 49 -5l-12 -139q-8 2 -20.5 3.5t-24.5 1.5q-45 0 -80.5 -24t-45.5 -76h98z" />
    <glyph glyph-name="uni024E" unicode="&#x24e;" horiz-adv-x="569" 
d="M567 609v-89h-92l-118 -243v-277h-145v272l-119 248h-91v89h48l-50 105h156l46 -105h166l46 105h155l-51 -105h49zM285 421l43 99h-86z" />
    <glyph glyph-name="uni024F" unicode="&#x24f;" horiz-adv-x="523" 
d="M1 546h153l49 -161h121l47 161h151l-55 -161h48v-89h-78l-121 -360q-30 -91 -83 -133.5t-127 -42.5q-22 0 -39.5 2.5t-31.5 5.5v117q10 -3 24 -4.5t28 -1.5q40 0 63 25t37 72l9 29l-105 291h-83v89h51zM261 156h4q2 25 7.5 48.5t12.5 49.5l12 42h-67l13 -41
q7 -24 11.5 -49t6.5 -50z" />
    <glyph glyph-name="uni0250" unicode="&#x250;" horiz-adv-x="553" 
d="M271 -11q-98 0 -150.5 48.5t-52.5 145.5v363h100l26 -73h4q31 43 67 63t97 20q71 0 112 -46t41 -126q0 -86 -55.5 -128.5t-165.5 -46.5l-85 -3v-23q0 -85 76 -85q34 0 68 10.5t71 28.5l44 -100q-41 -22 -91.5 -35t-105.5 -13zM259 295q61 2 86.5 25t25.5 63
q0 35 -17.5 50.5t-46.5 15.5q-42 0 -70 -28.5t-28 -80.5v-47z" />
    <glyph glyph-name="uni0251" unicode="&#x251;" horiz-adv-x="588" 
d="M238 -10q-91 0 -143.5 72.5t-52.5 208.5q0 139 52.5 212t139.5 73q51 0 85 -21t57 -59h5l12 70h121v-376q0 -32 11.5 -46t27.5 -14t28 5v-112q-6 -5 -27 -9t-36 -4q-51 0 -81 18.5t-46 63.5h-6q-22 -36 -58 -59t-89 -23zM279 106q53 0 76.5 36.5t23.5 111.5v20
q0 82 -22.5 123t-79.5 41q-44 0 -67.5 -42t-23.5 -127q0 -84 24 -123.5t69 -39.5z" />
    <glyph glyph-name="uni0252" unicode="&#x252;" horiz-adv-x="588" 
d="M350 556q91 0 143.5 -72t52.5 -209q0 -139 -52.5 -212t-139.5 -73q-52 0 -86 21t-56 59h-5l-13 -70h-120v376q0 33 -11.5 46.5t-27.5 13.5t-28 -5v113q6 4 27 8t36 4q51 0 81 -18t46 -64h6q22 36 58 59t89 23zM309 441q-53 0 -76.5 -36.5t-23.5 -112.5v-20
q0 -82 22.5 -123t79.5 -41q43 0 67 42t24 127q0 84 -24 124t-69 40z" />
    <glyph glyph-name="uni0253" unicode="&#x253;" horiz-adv-x="584" 
d="M235 765q23 0 44 -4.5t32 -9.5v-113q-10 4 -23 7t-28 3q-24 0 -35.5 -13.5t-12.5 -45.5v-18q0 -23 -1.5 -47t-3.5 -49h5q22 37 56.5 59t85.5 22q85 0 137 -72.5t52 -209.5t-52.5 -210.5t-139.5 -73.5q-52 0 -83.5 19t-55.5 51h-9l-22 -60h-111v592q0 89 45 131t120 42z
M308 440q-53 0 -74 -39.5t-22 -122.5q0 -87 21.5 -129t75.5 -42q42 0 65.5 42.5t23.5 126.5q0 82 -23.5 123t-66.5 41z" />
    <glyph glyph-name="uni0254" unicode="&#x254;" horiz-adv-x="472" 
d="M190 556q117 0 178.5 -71t61.5 -208q0 -143 -65 -215t-180 -72q-48 0 -81.5 9.5t-64.5 28.5v123q32 -21 64.5 -32t72.5 -11q51 0 80 42t29 124q0 83 -30 124t-83 41q-27 0 -53 -8t-53 -22l-38 110q31 17 71.5 27t90.5 10z" />
    <glyph glyph-name="uni0255" unicode="&#x255;" horiz-adv-x="498" 
d="M295 556q52 0 89 -10.5t67 -25.5l-41 -111q-30 13 -56.5 21.5t-54.5 8.5q-112 0 -112 -168q0 -10 0.5 -21t2.5 -22q26 22 59.5 34.5t73.5 12.5q68 0 107.5 -37t39.5 -99q0 -51 -24 -84t-65 -49t-92 -16q-87 0 -140 35q-9 -18 -16 -34.5t-15 -37.5l-82 34q11 31 22.5 56
t25.5 50q-21 35 -31.5 78.5t-10.5 98.5q0 141 66.5 213.5t186.5 72.5zM313 185q-31 0 -55 -14.5t-41 -35.5q27 -43 85 -43q28 0 45.5 13.5t17.5 34.5q0 45 -52 45z" />
    <glyph glyph-name="uni0256" unicode="&#x256;" horiz-adv-x="584" 
d="M525 -240q-83 0 -118 45t-35 128v45q0 24 2 46.5t4 42.5h-6q-22 -35 -55 -56t-85 -21q-87 0 -138.5 73t-51.5 210q0 138 52 210.5t139 72.5q50 0 85.5 -21.5t57.5 -58.5h5q-3 25 -6 54t-3 50v180h142v-825q0 -58 48 -58q16 0 29.5 3.5t27.5 9.5v-111q-18 -10 -42.5 -14.5
t-51.5 -4.5zM279 105q53 0 76 37t24 114v21q0 80 -22.5 120.5t-78.5 40.5q-45 0 -68.5 -42.5t-23.5 -123.5q0 -83 24 -125t69 -42z" />
    <glyph glyph-name="uni0257" unicode="&#x257;" horiz-adv-x="584" 
d="M232 -10q-87 0 -138.5 73t-51.5 210q0 138 52 210.5t139 72.5q50 0 85.5 -21.5t57.5 -58.5h5q-3 20 -6 47t-3 48v24q0 88 42 131t122 43q25 0 47 -4.5t33 -9.5v-113q-10 4 -22.5 7t-27.5 3q-52 0 -52 -61v-591h-110l-25 67h-7q-22 -35 -55 -56t-85 -21zM279 105
q53 0 76 37t24 114v21q0 80 -22.5 120.5t-78.5 40.5q-45 0 -68.5 -42.5t-23.5 -123.5q0 -83 24 -125t69 -42z" />
    <glyph glyph-name="uni0258" unicode="&#x258;" horiz-adv-x="542" 
d="M264 556q109 0 172.5 -72.5t63.5 -214.5q0 -137 -68 -208t-188 -71q-55 0 -96.5 9.5t-79.5 29.5v112q42 -22 80.5 -32t84.5 -10q59 0 91 35.5t34 101.5h-319v72q0 117 60 182.5t165 65.5zM262 451q-45 0 -67.5 -32.5t-22.5 -85.5h183q-3 62 -28 90t-65 28z" />
    <glyph glyph-name="uni0259" unicode="&#x259;" horiz-adv-x="542" 
d="M245 556q119 0 187.5 -71t68.5 -209q0 -141 -64 -213.5t-172 -72.5q-106 0 -166 65t-60 182v73h319q-2 66 -33.5 101.5t-90.5 35.5q-46 0 -85 -10t-81 -32v112q38 20 79.5 29.5t97.5 9.5zM172 213q1 -53 23.5 -85.5t67.5 -32.5q39 0 64 28t29 90h-184z" />
    <glyph glyph-name="uni025A" unicode="&#x25a;" horiz-adv-x="766" 
d="M269 -10q-106 0 -167 64t-61 184l323 96q-9 59 -40 86t-85 27q-47 0 -87 -10t-83 -32v112q39 20 81 29.5t99 9.5q97 0 162 -46.5t86 -137.5l106 34l13 -51q12 -48 23 -67t33 -19q19 0 33 6.5t28 16.5l33 -82q-21 -17 -47.5 -28.5t-58.5 -11.5q-46 0 -77 28t-49 89
l-26 -10q-1 -86 -26 -150.5t-78 -100.5t-135 -36zM267 95q99 0 99 144l-190 -56q5 -32 25 -60t66 -28z" />
    <glyph glyph-name="uni025B" unicode="&#x25b;" horiz-adv-x="500" 
d="M370 335v-102h-68q-67 0 -95.5 -17.5t-28.5 -50.5q0 -28 26.5 -45t85.5 -17q50 0 96 12t79 29v-117q-74 -37 -191 -37q-125 0 -181.5 44.5t-56.5 117.5q0 56 33.5 88t89.5 43v5q-48 12 -72 44.5t-24 80.5q0 49 28.5 80.5t77 47t108.5 15.5q50 0 99.5 -10.5t91.5 -30.5
l-45 -104q-32 15 -65 25.5t-73 10.5q-92 0 -92 -51q0 -34 28.5 -47.5t88.5 -13.5h60z" />
    <glyph glyph-name="uni025C" unicode="&#x25c;" horiz-adv-x="500" 
d="M242 556q56 0 102.5 -16t74.5 -48.5t28 -80.5q0 -47 -27 -77.5t-72 -42.5v-5q51 -12 83.5 -41.5t32.5 -86.5q0 -47 -26.5 -85t-79.5 -60.5t-134 -22.5q-59 0 -106.5 8.5t-83.5 26.5v120q33 -17 77 -29.5t92 -12.5q53 0 87 15t34 49q0 32 -32 49t-100 17h-53v102h49
q62 0 95 13t33 47q0 26 -22 39t-70 13q-33 0 -71 -8.5t-72 -24.5l-44 101q45 20 93.5 30.5t111.5 10.5z" />
    <glyph glyph-name="uni025D" unicode="&#x25d;" horiz-adv-x="707" 
d="M242 556q68 0 121.5 -23.5t73.5 -70.5l107 34l13 -50q12 -48 23 -67t33 -19q19 0 33 6.5t27 16.5l34 -82q-21 -18 -47.5 -29t-58.5 -11q-46 0 -77 28t-49 89l-36 -12q-11 -28 -34.5 -47t-56.5 -28v-5q51 -12 83.5 -41.5t32.5 -86.5q0 -47 -26.5 -85t-79.5 -60.5
t-134 -22.5q-59 0 -106.5 8.5t-83.5 26.5v120q33 -17 77 -29.5t92 -12.5q53 0 87 15t34 49q0 32 -32 49t-100 17h-53v102h49q62 0 95 13t33 47q0 26 -22 39t-70 13q-33 0 -71 -8.5t-72 -24.5l-44 101q45 20 93.5 30.5t111.5 10.5z" />
    <glyph glyph-name="uni025E" unicode="&#x25e;" horiz-adv-x="586" 
d="M316 556q104 0 160.5 -38.5t56.5 -109.5q0 -48 -27 -77.5t-73 -43.5v-5q50 -10 83.5 -37.5t33.5 -81.5q0 -80 -65.5 -126.5t-176.5 -46.5q-122 0 -194 71t-72 213q0 91 34.5 154t96.5 95.5t143 32.5zM311 447q-55 0 -90 -43.5t-35 -130.5q0 -94 34.5 -132t90.5 -38
q41 0 69.5 16.5t28.5 50.5q0 33 -26 46.5t-84 13.5h-23v101h19q55 0 81 13.5t26 46.5q0 26 -25.5 41t-65.5 15z" />
    <glyph glyph-name="uni025F" unicode="&#x25f;" horiz-adv-x="283" 
d="M37 -240q-23 0 -46.5 3t-41.5 9v115q15 -5 29 -7t31 -2q27 0 44 17t17 63v277h-70v96h70v215h142v-215h70v-96h-70v-294q0 -82 -41.5 -131.5t-133.5 -49.5z" />
    <glyph glyph-name="uni0260" unicode="&#x260;" horiz-adv-x="584" 
d="M536 769q25 0 47 -4.5t33 -9.5v-113q-10 4 -22.5 7t-27.5 3q-52 0 -52 -61v-581q0 -122 -64 -186t-194 -64q-53 0 -97.5 8t-86.5 26v118q91 -42 188 -42q55 0 83.5 29t28.5 90v11q0 17 1 35.5t2 36.5h-3q-25 -43 -60.5 -62.5t-81.5 -19.5q-88 0 -138 74.5t-50 206.5
q0 135 51 210t141 75q92 0 142 -80h5q-3 22 -6 46.5t-3 48.5v24q0 88 42 131t122 43zM278 438q-92 0 -92 -169q0 -163 94 -163q50 0 74.5 34t24.5 113v21q0 87 -24 125.5t-77 38.5z" />
    <glyph glyph-name="uni0261" unicode="&#x261;" horiz-adv-x="584" 
d="M234 556q92 0 142 -80h6l11 70h121v-536q0 -122 -64 -186t-194 -64q-53 0 -97.5 8t-86.5 26v118q91 -42 188 -42q55 0 83.5 29t28.5 90v11q0 16 1.5 36t3.5 36h-5q-25 -43 -60.5 -62.5t-81.5 -19.5q-88 0 -138 74.5t-50 206.5q0 135 51 210t141 75zM278 438
q-92 0 -92 -169q0 -163 94 -163q50 0 74.5 33.5t24.5 113.5v21q0 87 -24 125.5t-77 38.5z" />
    <glyph glyph-name="uni0262" unicode="&#x262;" horiz-adv-x="555" 
d="M319 556q46 0 88.5 -9.5t75.5 -24.5l-40 -104q-56 28 -119 28q-67 0 -103 -47.5t-36 -126.5q0 -82 30.5 -126.5t91.5 -44.5q15 0 29 1t25 4v104h-86v101h213v-284q-37 -15 -85.5 -25.5t-102.5 -10.5q-118 0 -184.5 70.5t-66.5 211.5q0 85 30.5 149t90.5 99t149 35z" />
    <glyph glyph-name="uni0263" unicode="&#x263;" horiz-adv-x="523" 
d="M256 -240q-66 0 -101 39.5t-35 104.5q0 48 16 97.5t44 109.5l-180 435h151l81 -225q9 -23 17 -59t10 -60h3q2 25 10.5 58.5t18.5 61.5l80 224h151l-188 -447q28 -55 43.5 -105.5t15.5 -90.5q0 -61 -36 -102t-101 -41zM257 -152q29 0 29 55q0 20 -7 51.5t-22 66.5
q-17 -34 -23.5 -65.5t-6.5 -50.5q0 -57 30 -57z" />
    <glyph glyph-name="uni0264" unicode="&#x264;" horiz-adv-x="532" 
d="M459 555q16 0 37 -4t32 -9v-109q-8 2 -14 3t-13 1q-28 0 -44 -13.5t-39 -48.5l-68 -102q25 -36 41 -72.5t16 -78.5q0 -58 -36.5 -96t-104.5 -38q-67 0 -102.5 38t-35.5 97q0 43 14.5 79t36.5 70l-65 101q-21 34 -39.5 49.5t-38.5 15.5q-14 0 -32 -5v109q12 6 31.5 9.5
t36.5 3.5q43 0 72 -19t51 -55l34 -57l20 -32t18 -31h3q8 15 16.5 31t20.5 33l33 55q24 40 51 57.5t68 17.5zM268 202q-17 -23 -24 -44t-7 -38q0 -20 8 -32.5t23 -12.5t22.5 12t7.5 31q0 38 -30 84z" />
    <glyph glyph-name="uni0265" unicode="&#x265;" horiz-adv-x="600" 
d="M388 -53q0 36 2.5 70t5.5 53h-8q-22 -41 -59 -60.5t-84 -19.5q-82 0 -129.5 48.5t-47.5 150.5v357h142v-320q0 -118 75 -118q59 0 81 45.5t22 133.5v259h142v-760h-142v161z" />
    <glyph glyph-name="uni0266" unicode="&#x266;" horiz-adv-x="600" 
d="M70 592q0 89 45 131t120 42q23 0 44 -4.5t32 -9.5v-113q-10 4 -23 7t-28 3q-24 0 -36 -13.5t-12 -44.5v-28q0 -26 -2.5 -53t-5.5 -39h8q22 41 59 60.5t84 19.5q82 0 129.5 -48.5t47.5 -149.5v-352h-142v315q0 117 -75 117q-59 0 -81 -45t-22 -134v-253h-142v592z" />
    <glyph glyph-name="uni0267" unicode="&#x267;" horiz-adv-x="600" 
d="M235 765q23 0 44 -4.5t32 -9.5v-113q-10 4 -23 7t-28 3q-24 0 -36 -13.5t-12 -44.5v-21q0 -28 -2.5 -54.5t-5.5 -38.5h8q44 80 144 80q82 0 129 -48.5t47 -149.5v-422q0 -80 -37 -128t-123 -48q-25 0 -50 4.5t-43 12.5v113q15 -6 29 -9t30 -3q23 0 37.5 15t14.5 57v378
q0 110 -75 110q-60 0 -81.5 -45t-21.5 -134v-259h-142v592q0 89 45 131t120 42z" />
    <glyph glyph-name="uni0268" unicode="&#x268;" horiz-adv-x="283" 
d="M142 761q34 0 55.5 -17t21.5 -57q0 -39 -22 -56t-55 -17q-34 0 -56 17t-22 56q0 40 21.5 57t56.5 17zM282 331v-96h-70v-235h-142v235h-70v96h70v215h142v-215h70z" />
    <glyph glyph-name="uni0269" unicode="&#x269;" horiz-adv-x="360" 
d="M245 -10q-91 0 -133 49.5t-42 131.5v375h142v-358q0 -46 17 -63t45 -17q16 0 30 2t29 7v-115q-17 -6 -41 -9t-47 -3z" />
    <glyph glyph-name="iotaserifed" unicode="&#x26a;" horiz-adv-x="339" 
d="M304 546v-73l-68 -27v-346l68 -25v-75h-269v75l68 25v346l-68 27v73h269z" />
    <glyph glyph-name="uni026B" unicode="&#x26b;" horiz-adv-x="419" 
d="M138 348q-6 2 -11.5 3.5t-11.5 1.5q-33 0 -40 -54h-75q2 68 32 109t82 41q11 0 24 -3v314h142v-358q6 -2 12 -3.5t12 -1.5q17 0 26 13.5t14 40.5h75q-2 -80 -34.5 -115.5t-78.5 -35.5q-6 0 -13 1t-13 3v-304h-142v348z" />
    <glyph glyph-name="uni026C" unicode="&#x26c;" horiz-adv-x="387" 
d="M150 0v289h-34q-66 0 -96 32t-30 79q0 50 28.5 80t79.5 30q29 0 52 -17v267h142v-391h93v-80h-93v-289h-142zM121 369h29v14q0 51 -40 51q-33 0 -33 -32q0 -19 12.5 -26t31.5 -7z" />
    <glyph glyph-name="uni026D" unicode="&#x26d;" horiz-adv-x="283" 
d="M223 -240q-83 0 -118 45t-35 128v827h142v-825q0 -58 48 -58q16 0 29.5 3.5t27.5 9.5v-111q-18 -10 -42.5 -14.5t-51.5 -4.5z" />
    <glyph glyph-name="uni026E" unicode="&#x26e;" horiz-adv-x="693" 
d="M379 -240q-59 0 -106.5 10.5t-84.5 26.5v125q40 -19 87.5 -31t91.5 -12q80 0 113.5 37.5t33.5 93.5q0 59 -39.5 94t-137.5 35h-50v102l176 193h-251v-434h-142v760h142v-214h424v-93l-193 -209q111 -13 163 -75t52 -161q0 -73 -31.5 -129t-93.5 -87.5t-154 -31.5z" />
    <glyph glyph-name="uni026F" unicode="&#x26f;" horiz-adv-x="896" 
d="M237 -10q-84 0 -127 48t-43 151v357h142v-320q0 -118 72 -118q52 0 73 41.5t21 121.5v275h143v-320q0 -118 71 -118q55 0 75 46t20 134v258h142v-546h-110l-18 70h-8q-21 -41 -60.5 -60.5t-86.5 -19.5q-109 0 -147 79h-12q-23 -40 -62 -59.5t-85 -19.5z" />
    <glyph glyph-name="uni0270" unicode="&#x270;" horiz-adv-x="896" 
d="M684 -7q0 39 7 78h-5q-23 -42 -59 -61.5t-80 -19.5q-111 0 -151 79h-12q-22 -40 -62 -59.5t-84 -19.5q-85 0 -127.5 48t-42.5 151v357h142v-320q0 -118 71 -118q51 0 73 41.5t22 121.5v275h142v-320q0 -118 71 -118q54 0 74.5 46t20.5 134v258h142v-786h-142v233z" />
    <glyph glyph-name="uni0271" unicode="&#x271;" horiz-adv-x="896" 
d="M659 556q84 0 127 -47.5t43 -151.5v-421q0 -80 -37.5 -128t-123.5 -48q-25 0 -50 4.5t-43 12.5v113q15 -6 29 -9t30 -3q23 0 38 15t15 57v370q0 118 -72 118q-51 0 -73 -41.5t-22 -121.5v-275h-142v320q0 118 -71 118q-54 0 -74.5 -46t-20.5 -134v-258h-142v546h110
l18 -70h8q21 41 60 60.5t83 19.5q111 0 151 -79h12q22 41 62 60t85 19z" />
    <glyph glyph-name="uni0272" unicode="&#x272;" horiz-adv-x="600" 
d="M357 556q81 0 128 -48t47 -150v-358h-142v321q0 58 -17.5 87.5t-57.5 29.5q-59 0 -81 -44t-22 -135v-323q0 -80 -35.5 -128t-120.5 -48q-25 0 -49 4.5t-42 14.5v111q14 -6 27.5 -9.5t29.5 -3.5q48 0 48 58v611h110l18 -70h8q23 41 63 60.5t88 19.5z" />
    <glyph glyph-name="uni0273" unicode="&#x273;" horiz-adv-x="600" 
d="M532 -65q0 -58 48 -58q16 0 29.5 3.5t27.5 9.5v-111q-18 -10 -42.5 -14.5t-51.5 -4.5q-83 0 -118 45t-35 128v388q0 58 -17.5 87.5t-57.5 29.5q-59 0 -81 -44t-22 -135v-259h-142v546h110l18 -70h8q23 41 63 60.5t87 19.5q81 0 128.5 -48t47.5 -150v-423z" />
    <glyph glyph-name="uni0274" unicode="&#x274;" horiz-adv-x="634" 
d="M76 0v546h161l205 -385q-2 30 -3.5 69t-1.5 76v240h121v-546h-160l-206 389q2 -28 3.5 -69t2.5 -80v-240h-122z" />
    <glyph glyph-name="uni0275" unicode="&#x275;" horiz-adv-x="578" 
d="M536 274q0 -136 -66 -210t-183 -74q-72 0 -127.5 33.5t-86.5 97t-31 153.5q0 136 66 209t182 73q74 0 129.5 -34t86 -97t30.5 -151zM288 440q-87 0 -101 -116h203q-6 53 -30 84.5t-72 31.5zM289 106q88 0 101 120h-203q6 -56 30.5 -88t71.5 -32z" />
    <glyph glyph-name="uni0276" unicode="&#x276;" horiz-adv-x="784" 
d="M277 556q32 0 61 -8.5t53 -29.5v28h342v-108h-211v-103h197v-109h-197v-116h211v-110h-342v29q-23 -22 -52.5 -30.5t-63.5 -8.5q-70 0 -122.5 35t-81.5 99t-29 150q0 132 60.5 207t174.5 75zM284 440q-51 0 -74.5 -41.5t-23.5 -124.5t23.5 -125.5t75.5 -42.5t74.5 42.5
t22.5 125.5t-23 124.5t-75 41.5z" />
    <glyph glyph-name="uni0277" unicode="&#x277;" horiz-adv-x="775" 
d="M390 556q161 0 250 -84t89 -231q0 -116 -51 -183.5t-145 -67.5q-58 0 -92.5 26.5t-50.5 75.5h-5q-17 -49 -51.5 -75.5t-92.5 -26.5q-94 0 -144.5 67.5t-50.5 183.5q0 93 40 164.5t117 111t187 39.5zM387 439q-106 0 -156.5 -55.5t-50.5 -144.5q0 -63 18 -97.5t56 -34.5
t52 31t14 95v94h134v-94q0 -65 14 -95.5t53 -30.5q37 0 55 34.5t18 96.5q0 57 -21.5 102t-67 72t-118.5 27z" />
    <glyph glyph-name="uni0278" unicode="&#x278;" horiz-adv-x="754" 
d="M445 549q130 -11 199 -86.5t69 -189.5q0 -116 -67.5 -190.5t-200.5 -86.5v-236h-133v236q-129 12 -199.5 86.5t-70.5 190.5q0 119 65.5 192.5t203.5 83.5v211h134v-211zM311 438q-57 -7 -90.5 -52t-33.5 -113t32.5 -113t91.5 -52v330zM445 108q59 7 91 52.5t32 112.5
q0 68 -33.5 112.5t-89.5 51.5v-329z" />
    <glyph glyph-name="uni0279" unicode="&#x279;" horiz-adv-x="415" 
d="M64 -10q-24 0 -48 5l12 140q8 -3 20.5 -4.5t23.5 -1.5q54 0 92 33.5t38 105.5v278h142v-546h-108l-21 91h-6q-21 -41 -58.5 -71t-86.5 -30z" />
    <glyph glyph-name="uni027A" unicode="&#x27a;" horiz-adv-x="415" 
d="M64 -10q-11 0 -24 1t-24 4l12 139q8 -2 20.5 -3.5t24.5 -1.5q53 0 91 33.5t38 105.5v492h142v-760h-108l-20 91h-7q-21 -41 -58.5 -71t-86.5 -30z" />
    <glyph glyph-name="uni027B" unicode="&#x27b;" horiz-adv-x="415" 
d="M353 -240q-82 0 -116.5 45t-34.5 128v45q0 35 2.5 59.5t5.5 47.5h-6q-21 -38 -56 -66.5t-84 -28.5q-11 0 -24 1t-24 4l12 139q8 -2 20.5 -3.5t24.5 -1.5q53 0 91 33.5t38 105.5v278h142v-611q0 -58 46 -58q16 0 29.5 3.5t27.5 9.5v-111q-18 -10 -42.5 -14.5t-51.5 -4.5z
" />
    <glyph glyph-name="uni027C" unicode="&#x27c;" horiz-adv-x="415" 
d="M350 556q25 0 49 -5l-12 -139q-8 2 -20.5 3.5t-24.5 1.5q-53 0 -91.5 -33t-38.5 -106v-518h-142v786h109l20 -91h7q21 41 58 71t86 30z" />
    <glyph glyph-name="uni027D" unicode="&#x27d;" horiz-adv-x="415" 
d="M350 556q25 0 49 -5l-12 -139q-8 2 -20.5 3.5t-24.5 1.5q-53 0 -91.5 -33t-38.5 -106v-343q0 -58 48 -58q16 0 29.5 3.5t27.5 9.5v-111q-18 -10 -42.5 -14.5t-51.5 -4.5q-83 0 -118 45t-35 128v613h109l20 -91h7q21 41 58 71t86 30z" />
    <glyph glyph-name="uni027E" unicode="&#x27e;" horiz-adv-x="374" 
d="M260 558q29 0 52.5 -3.5t45.5 -9.5l-16 -121q-12 4 -25.5 6t-30.5 2q-43 0 -59.5 -24.5t-16.5 -72.5v-335h-142v342q0 106 44.5 161t147.5 55z" />
    <glyph glyph-name="uni027F" unicode="&#x27f;" horiz-adv-x="374" 
d="M114 558q103 0 147.5 -55t44.5 -161v-582h-142v575q0 48 -16.5 72.5t-58.5 24.5q-18 0 -31.5 -2t-26.5 -6l-15 121q22 6 45.5 9.5t52.5 3.5z" />
    <glyph glyph-name="uni0280" unicode="&#x280;" horiz-adv-x="519" 
d="M72 0v546h174q210 0 210 -164q0 -52 -24.5 -89t-65.5 -58l142 -235h-147l-110 204h-46v-204h-133zM238 304q40 0 62.5 16.5t22.5 57.5q0 68 -82 68h-36v-142h33z" />
    <glyph glyph-name="uni0281" unicode="&#x281;" horiz-adv-x="546" 
d="M72 546h133v-204h46l110 204h147l-142 -234q41 -22 65.5 -59t24.5 -88q0 -165 -210 -165h-174v546zM238 242h-33v-142h36q82 0 82 68q0 41 -22.5 57.5t-62.5 16.5z" />
    </font>
</defs>
</svg>
